<?xml version="1.0" encoding="utf-8"?>
<!-- Generator: Adobe Illustrator 21.1.0, SVG Export Plug-In . SVG Version: 6.00 Build 0)  -->
<svg version="1.1" id="Layer_1" xmlns="http://www.w3.org/2000/svg" xmlns:xlink="http://www.w3.org/1999/xlink" x="0px" y="0px"
	 viewBox="0 0 518.8 119.4" style="enable-background:new 0 0 518.8 119.4;" xml:space="preserve">
<g>
	<path d="M47.3,10.2c0.3-0.4,0.7-0.6,1.1-0.6c0.4,0,0.8,0.2,1,0.6c0.4,2.1,0.6,4.4,0.6,7V20c0,2.1,0,3.3-0.1,3.7
		c-0.1,0.4-0.1,0.8-0.2,1.2c-0.1,0.5-0.1,0.8-0.2,1c-0.1,0.2-0.1,0.6-0.3,1c-0.3,0.9-0.6,1.7-1.1,2.4c-0.7,1.3-1.7,2.4-2.8,3.2
		c-1.2,0.8-2.4,1.2-3.6,1.2s-2.5-0.5-3.7-1.6c-1.3-1.1-2.3-2.4-3.2-4c-1.2-2.4-1.9-5.3-1.9-8.5c0-1.1,0.2-3.8,0.5-8
		c0.2-0.4,0.4-0.7,0.8-1c0.3-0.3,0.7-0.4,1.1-0.4c0.5,0,0.9,0.4,1,1.1c-0.3,4.2-0.5,6.8-0.5,7.9c0,2.6,0.5,5,1.5,7
		c0.6,1.3,1.4,2.5,2.4,3.4c0.9,0.9,1.9,1.4,2.8,1.4c1.5,0,2.8-1.2,3.9-3.5c0.5-0.8,0.7-2.1,0.8-3.9c0-0.5,0-0.8,0.1-1l0.1-4.8
		c0-2.2-0.2-4.2-0.5-6C46.8,11,47,10.6,47.3,10.2z"/>
	<path d="M76.9,24.7c0,0.3-0.1,0.6-0.3,0.9c-0.2,0.3-0.4,0.5-0.7,0.5l-11.4,0.1c-0.6,0-0.8-0.3-0.8-0.9c0-0.4,0.1-0.7,0.3-1
		c0.2-0.3,0.4-0.5,0.7-0.5c2.3,0,6.1,0,11.3,0C76.6,23.8,76.9,24.1,76.9,24.7z M76.9,18.6c0,0.4-0.1,0.7-0.3,1
		c-0.2,0.3-0.4,0.5-0.6,0.6c-1.6,0.1-3,0.1-4.2,0.1L65,20.2c-0.6,0-0.9-0.3-0.9-0.9c0-0.3,0.1-0.6,0.3-0.9c0.2-0.3,0.5-0.5,0.7-0.5
		l6.8,0.1c1.2,0,2.7,0,4.3-0.1C76.6,18,76.9,18.2,76.9,18.6z"/>
	<path d="M97.3,19.2l-0.1,8.5c0,1.8,0,3.3,0.1,4.7c0,0.4-0.1,0.7-0.5,0.9c-0.3,0.2-0.7,0.3-1,0.3c-0.6,0-0.9-0.3-0.9-1
		c-0.1-2.6-0.1-5.1-0.1-7.5s0.1-4.3,0.2-5.9c-1.4,0.1-2.9,0.2-4.4,0.2c-0.7,0-1.1-0.3-1.1-0.9c0-0.3,0.1-0.6,0.4-0.9
		s0.6-0.4,0.9-0.5l11.2-0.4c0.6,0.1,1,0.5,1,0.9c0,1-1.1,1.5-3.4,1.5L97.3,19.2z"/>
	<path d="M115.9,18.5c0-0.1,0-0.3,0-0.5s0.1-0.4,0.4-0.7c0.3-0.2,0.6-0.4,0.9-0.4s0.6,0.1,0.8,0.3c0.3,0.2,0.4,0.4,0.4,0.6
		c0.2,2.4,0.4,4.3,0.4,5.7c0,1.4,0,2.5-0.1,3.2c-0.2,2.3-0.8,4-1.7,5.1c-1,1.1-2.5,1.6-4.6,1.6c-1.5,0-2.8-0.4-3.8-1.3
		c-1-0.9-1.7-2-2.1-3.4c-0.6-2.1-0.9-4.5-0.9-7.1c0-1.1,0.1-2.3,0.2-3.4c0-0.3,0.2-0.6,0.6-0.8c0.3-0.2,0.7-0.3,1-0.3
		s0.5,0.1,0.7,0.3c0.2,0.2,0.3,0.4,0.3,0.8c-0.1,1.2-0.2,2.4-0.2,3.4s0,1.9,0.1,2.7c0.1,1.9,0.6,3.6,1.3,4.9c0.7,1.4,1.7,2,2.9,2
		c2.6,0,3.9-2.2,3.9-6.7C116.3,21.8,116.1,19.8,115.9,18.5z"/>
	<path d="M124.5,32.3c0,0.4-0.2,0.7-0.5,0.9c-0.3,0.3-0.7,0.4-1.1,0.4c-0.5,0-0.8-0.2-0.8-0.7c-0.1-1.1-0.1-5.6-0.1-13.4
		c0-0.8,0.5-1.4,1.4-1.8s2.2-0.6,3.7-0.6c1.5,0,2.9,0.4,4.1,1.2c1.2,0.8,1.7,1.7,1.7,2.8c0,0.5-0.2,1.1-0.7,1.8
		c-0.5,0.6-0.9,1.2-1.5,1.5c-0.5,0.4-1.3,0.8-2.2,1.4c-1,0.5-1.5,0.8-1.8,0.9c1.5,1,2.9,2,4,3.1c1.2,1.1,1.8,2,1.8,2.7
		s-0.3,1.1-0.9,1.3c-0.2,0-0.4,0.1-0.6,0.1s-0.6-0.3-1-0.8s-1.2-1.3-2.3-2.2c-1.1-1-2.2-1.8-3.3-2.6
		C124.4,29.9,124.4,31.3,124.5,32.3L124.5,32.3z M124.3,24.8c0.8,0,2-0.4,3.6-1.2c1.6-0.8,2.4-1.5,2.5-2.2c0-0.6-0.4-1.1-1.1-1.5
		c-0.7-0.3-1.5-0.5-2.3-0.5c-0.9,0-1.8,0.1-2.7,0.3C124.4,20.9,124.3,22.6,124.3,24.8z"/>
	<path d="M138.9,22.4l-0.4,8.7c0,0.8,0,1.3-0.1,1.5c-0.1,0.6-0.5,1-1.3,1c-0.3,0-0.5-0.1-0.8-0.3c-0.2-0.2-0.4-0.5-0.4-0.8
		c0.2-6.2,0.3-9.6,0.3-10.1s0-1,0-1.6s0.1-1.1,0.2-1.6c0.2-0.6,0.6-1,1.3-1c0.3,0,0.8,0.2,1.3,0.7s1.2,1.3,2.2,2.5
		c2.3,2.8,4,5.5,5.2,8c0-3.4-0.1-6-0.3-7.8c-0.1-1.8-0.2-2.8-0.2-2.9c0-0.2,0-0.3,0-0.3c0.2-0.9,0.7-1.4,1.5-1.4
		c0.3,0,0.6,0.1,0.9,0.4c0.3,0.3,0.4,0.6,0.4,1l0.2,13.4c0,1.2-0.5,1.9-1.5,1.9c-0.6,0-1.1-0.2-1.4-0.6c-0.3-0.4-0.6-0.8-0.7-1
		c-0.1-0.2-0.4-0.6-0.6-1.2C142.8,27.5,140.9,24.6,138.9,22.4z"/>
	<path d="M170.6,18.5c0-0.1,0-0.3,0-0.5s0.1-0.4,0.4-0.7c0.3-0.2,0.6-0.4,0.9-0.4c0.3,0,0.6,0.1,0.8,0.3c0.3,0.2,0.4,0.4,0.4,0.6
		c0.2,2.4,0.4,4.3,0.4,5.7c0,1.4,0,2.5-0.1,3.2c-0.2,2.3-0.8,4-1.7,5.1c-1,1.1-2.5,1.6-4.6,1.6c-1.5,0-2.8-0.4-3.8-1.3
		c-1-0.9-1.7-2-2.1-3.4c-0.6-2.1-0.9-4.5-0.9-7.1c0-1.1,0.1-2.3,0.2-3.4c0-0.3,0.2-0.6,0.6-0.8c0.3-0.2,0.7-0.3,1-0.3
		s0.5,0.1,0.7,0.3c0.2,0.2,0.3,0.4,0.3,0.8c-0.1,1.2-0.2,2.4-0.2,3.4s0,1.9,0.1,2.7c0.1,1.9,0.6,3.6,1.3,4.9c0.7,1.4,1.7,2,2.9,2
		c2.6,0,3.9-2.2,3.9-6.7C171,21.8,170.9,19.8,170.6,18.5z"/>
	<path d="M180.9,17c1.7,0,3.1,0.4,4.2,1.1s1.6,1.8,1.6,3c0,2-0.6,3.4-1.8,4.4c-0.9,0.7-2.1,1-3.6,1c-0.6,0-1.2,0-1.9-0.1
		c0.1,1.4,0.1,2.6,0.1,3.7s0,2-0.1,2.7c0,0.6-0.4,0.8-1,0.8s-1.1-0.1-1.3-0.4c-0.2-0.3-0.3-0.7-0.3-1.2V18.5
		C176.7,17.5,178.1,17,180.9,17z M179.2,19.5c0,0.7-0.1,1.5-0.1,2.3s0,1.5,0,2c0.6,0.1,1.3,0.1,2.1,0.1s1.4-0.1,1.9-0.4
		c0.7-0.4,1-1.1,1-2.2c0-0.1,0-0.2,0-0.3c0-0.6-0.6-1.1-1.7-1.4c-0.6-0.2-1.2-0.3-1.7-0.3S179.7,19.4,179.2,19.5z"/>
	<path d="M205.6,26h-4.5c0,2.2,0,4.2,0.1,6c0,1.1-0.4,1.7-1.1,1.7c-0.7,0-1.2-0.5-1.3-1.4c0-0.2-0.1-1.2-0.1-3v-5.7c0-2.1,0-3.4,0-4
		c-0.6-0.1-0.9-0.5-0.9-1.4c0-0.2,0.1-0.4,0.3-0.7c0.3-0.4,0.6-0.5,0.9-0.5c0.3,0,0.8,0,1.6,0.1s2.6,0.1,5.3,0.1
		c1.4,0,2.1,0.4,2.1,1.2c0,0.6-0.2,0.9-0.6,1c-0.1,0-0.2,0.1-0.3,0.1c0,0-0.2,0.1-0.3,0.1s-0.3,0-0.3,0c-0.1,0-0.4,0.1-0.8,0.1
		c-0.4,0-1.1,0-1.8,0c-0.8,0-1.7,0-2.8-0.1v3.9h4.7c0.2,0,0.4,0.1,0.6,0.4c0.2,0.2,0.3,0.5,0.3,0.8s-0.1,0.6-0.3,0.9
		C206.3,25.9,206,26,205.6,26z"/>
	<path d="M213.2,32.6c-0.1,0.6-0.5,0.9-1.3,0.9s-1.1-0.3-1.1-0.9c0-1.4,0.7-4.3,2.1-8.6c0.6-2,1.3-3.6,2.1-5c0.8-1.3,1.5-2,2.2-2
		c0.4,0,0.7,0.2,1,0.7s0.8,1.5,1.6,3.1s1.4,3.3,1.9,5.1c0.5,1.8,1.1,4,1.7,6.6c0,0.3-0.1,0.6-0.3,0.7s-0.5,0.3-0.8,0.3
		c-0.8,0-1.2-0.3-1.4-1l-1.3-4.9c-2.1,0-3.8-0.2-5.1-0.5C213.7,29.8,213.3,31.6,213.2,32.6z M217.1,20.3c-0.8,1.3-1.4,2.8-1.9,4.5
		c1.1,0.3,2.3,0.4,3.7,0.4C218.5,23.6,217.9,22,217.1,20.3z"/>
	<path d="M238,20.1l-2.9-0.4c-3.9,0-5.8,1.9-5.8,5.8c0,2,0.6,3.5,1.8,4.7c0.6,0.6,1.2,0.9,1.8,0.9s1.7-0.3,3.3-0.8
		c1.6-0.6,2.4-0.8,2.5-0.8c0.6,0,1,0.3,1,0.9c0,0.5-0.3,0.9-0.8,1.3c-3,1.3-5.2,1.9-6.5,1.9c-0.8,0-1.6-0.3-2.4-0.8
		c-0.8-0.5-1.4-1.2-1.9-2.1c-0.9-1.7-1.4-3.4-1.4-5.3c0-2.5,0.8-4.6,2.3-6c1.5-1.5,3.5-2.2,5.9-2.2c1.4,0,2.8,0.2,4.1,0.7l0,0
		c0.4,0.3,0.6,0.6,0.6,0.9s-0.2,0.6-0.5,0.9C238.6,19.9,238.3,20.1,238,20.1z"/>
	<path d="M245.7,25.5l0.1,4.7c0,0.6,0,1,0,1l6.2-0.1c0.7,0.1,1,0.4,1,0.9c0,1-0.5,1.5-1.4,1.5l-7.1,0.1c-0.4,0-0.8-0.1-1-0.5
		c-0.2-0.3-0.3-0.6-0.3-1c0-0.3,0-0.7,0-1.1v-6c-0.3-0.2-0.5-0.4-0.5-0.8c0-0.3,0.1-0.6,0.4-0.9c-0.1-1.9-0.1-3.6-0.1-5.1
		c0-0.9,0.5-1.3,1.6-1.4c0.3,0,0.6,0,1,0l6.3,0.1l0,0c0.8,0.1,1.2,0.5,1.2,1.1c0,0.5-0.1,0.8-0.4,1c-0.6,0.3-2.1,0.5-4.5,0.5
		c-0.9,0-1.8,0-2.7-0.1c0,2.2,0,3.4,0,3.6c0.9,0,2.8,0,5.5,0c0.7,0.1,1.1,0.4,1.1,1c0,0.3-0.1,0.6-0.4,0.8s-0.5,0.4-0.8,0.4
		s-0.9,0.1-1.8,0.1C248.4,25.6,247.2,25.5,245.7,25.5z"/>
	<path d="M259.1,29.9c0.6,0,1.1,0.3,1.3,1c0,1.6-0.3,3-0.8,4.3c-0.2,0.5-0.4,0.8-0.7,1.2c-0.3,0.3-0.7,0.5-1,0.5
		c-0.8,0-1.2-0.4-1.2-1.3c0-0.3,0-0.5,0.1-0.8c0.7-0.8,1.1-2.1,1.1-3.8C258,30.2,258.4,29.9,259.1,29.9z"/>
	<path d="M283.4,20.1l-2.9-0.4c-3.9,0-5.8,1.9-5.8,5.8c0,2,0.6,3.5,1.8,4.7c0.6,0.6,1.2,0.9,1.8,0.9s1.7-0.3,3.3-0.8
		c1.6-0.6,2.4-0.8,2.5-0.8c0.6,0,1,0.3,1,0.9c0,0.5-0.3,0.9-0.8,1.3c-3,1.3-5.2,1.9-6.5,1.9c-0.8,0-1.6-0.3-2.4-0.8
		s-1.4-1.2-1.9-2.1c-0.9-1.7-1.4-3.4-1.4-5.3c0-2.5,0.8-4.6,2.3-6c1.5-1.5,3.5-2.2,5.9-2.2c1.4,0,2.8,0.2,4.1,0.7l0,0
		c0.4,0.3,0.6,0.6,0.6,0.9s-0.2,0.6-0.5,0.9C284.1,19.9,283.8,20.1,283.4,20.1z"/>
	<path d="M292.4,33.7H289c-0.6,0-0.9-0.2-1-0.5c-0.1-1-0.2-2.6-0.2-4.7l0.3-10.4c0-0.6,0.5-0.9,1.4-0.9c0.5,0,0.8,0.1,1.1,0.3
		s0.4,0.5,0.4,0.9c0,1-0.2,2.4-0.4,4.2c-0.3,2.3-0.4,4-0.4,5.1s0,2.3,0.1,3.8l5.3-0.3c0.8,0,1.2,0.4,1.2,1.2c0,0.7-0.3,1.1-0.8,1.2
		C295,33.6,293.8,33.7,292.4,33.7z"/>
	<path d="M306.1,17.2c1.8,0,3.2,0.7,4.3,2.1c1.1,1.4,1.6,3.2,1.6,5.6s-0.6,4.4-1.8,6.2c-1.2,1.8-2.7,2.6-4.6,2.6
		c-2,0-3.7-0.9-4.9-2.6c-1.3-1.7-1.9-3.8-1.9-6.3s0.7-4.4,2-5.6C302.1,17.8,303.9,17.2,306.1,17.2z M309.4,25.2
		c0-1.9-0.3-3.3-0.8-4.2c-0.6-0.9-1.5-1.3-2.9-1.3s-2.5,0.4-3.2,1.3c-0.8,0.9-1.2,2.1-1.2,3.6c0,1.6,0.4,3,1.2,4.4
		c0.8,1.3,1.9,2,3.4,2c0.8,0,1.5-0.3,2.1-1C308.9,28.7,309.4,27.1,309.4,25.2z"/>
	<path d="M326.6,20.1l-2.9-0.4c-3.9,0-5.8,1.9-5.8,5.8c0,2,0.6,3.5,1.8,4.7c0.6,0.6,1.2,0.9,1.8,0.9s1.7-0.3,3.3-0.8
		c1.6-0.6,2.4-0.8,2.5-0.8c0.6,0,1,0.3,1,0.9c0,0.5-0.3,0.9-0.8,1.3c-3,1.3-5.2,1.9-6.5,1.9c-0.8,0-1.6-0.3-2.4-0.8
		s-1.4-1.2-1.9-2.1c-0.9-1.7-1.4-3.4-1.4-5.3c0-2.5,0.8-4.6,2.3-6c1.5-1.5,3.5-2.2,5.9-2.2c1.4,0,2.8,0.2,4.1,0.7l0,0
		c0.4,0.3,0.6,0.6,0.6,0.9s-0.2,0.6-0.5,0.9C327.3,19.9,326.9,20.1,326.6,20.1z"/>
	<path d="M332.3,30.6c0-1.3-0.1-3.3-0.2-6s-0.3-4.4-0.4-5.1s-0.1-1.1-0.1-1.4s0.1-0.5,0.4-0.7s0.6-0.3,1-0.3s0.7,0.2,0.9,0.6
		c0.5,1.1,0.8,3.4,0.8,6.9c1.5-1.2,2.7-2.3,3.6-3.3s1.8-2.2,2.8-3.5c0.3-0.5,0.7-0.8,1.2-0.8c0.9,0,1.4,0.3,1.4,0.9
		c0,1.2-1.5,3.3-4.6,6.5c1.3,1.2,2.6,2.7,3.7,4.5c1.2,1.8,1.7,2.9,1.7,3.4c0,0.4-0.1,0.8-0.4,1s-0.5,0.3-0.9,0.3s-0.7-0.3-1.2-0.9
		c-0.4-0.6-1-1.4-1.6-2.4c-0.6-1-1.2-1.8-1.6-2.4c-0.5-0.6-1.1-1.2-1.9-1.9c-0.7,0.6-1.4,1.2-2.1,1.7c0.1,2.8,0.1,4.4,0.1,4.7
		c0,0.8-0.5,1.2-1.6,1.2c-0.7,0-1.1-0.4-1-1.1L332.3,30.6L332.3,30.6z"/>
	<path d="M347.1,18.7c0-0.4,0.1-0.8,0.4-1.1c0.3-0.3,0.6-0.5,1.1-0.5s0.8,0.3,1,1c0.1,0.8,0.3,2.5,0.6,5.1c0.3,2.6,0.6,4.7,0.8,6.1
		c0.4-0.7,0.8-1.6,1.2-2.5c0.4-0.9,0.7-1.6,0.9-2c0.6-1.2,1.2-1.7,1.9-1.7c0.5,0,1,0.6,1.5,1.8c1.3,2.8,2.1,4.3,2.2,4.5
		c0.9-4.3,1.6-8.1,2-11.6c0-0.3,0.2-0.6,0.5-0.8c0.3-0.3,0.6-0.4,0.9-0.4s0.5,0.1,0.7,0.2c0.2,0.2,0.3,0.4,0.3,0.6
		c0,1.3-0.9,6.3-2.7,15c-0.1,0.6-0.6,0.9-1.5,0.9c-0.4,0-0.7-0.2-1-0.6c-0.5-0.8-1-1.9-1.7-3.3s-1.2-2.4-1.5-2.9
		c-1,2.4-1.9,4.2-2.5,5.3s-1.4,1.6-2.1,1.6c-0.4,0-0.8-0.4-1.1-1.2c-0.3-0.8-0.5-1.5-0.6-2.1C348.4,29.7,348,25.9,347.1,18.7z"/>
	<path d="M366.3,33.6c-0.7,0-1-0.3-1-0.9l0.1-14.7c0-0.3,0.1-0.6,0.4-0.8c0.2-0.2,0.5-0.3,0.9-0.3c0.3,0,0.6,0.1,0.9,0.3
		s0.4,0.4,0.4,0.8s0,1.3,0,2.6c0,6.4,0,10.3-0.1,11.7c0,0.3-0.2,0.6-0.6,0.8C367,33.5,366.8,33.6,366.3,33.6z"/>
	<path d="M371,21.1c0-1.1,0.6-2.1,1.7-2.9c1.2-0.8,2.6-1.2,4.2-1.2c1.7,0,2.9,0.2,3.8,0.6s1.3,1,1.3,1.7c0,0.3-0.1,0.6-0.3,0.8
		c-0.2,0.2-0.4,0.3-0.7,0.3s-0.9-0.2-1.7-0.6c-0.9-0.4-1.6-0.6-2.3-0.6c-0.7,0-1.4,0.2-2.2,0.6c-0.8,0.4-1.1,0.8-1.1,1.4
		s0.5,1,1.4,1.5s2,0.8,3.2,1.1c1.2,0.3,2.1,0.6,2.5,0.9s0.7,0.5,0.9,0.7c0.2,0.2,0.4,0.5,0.6,1s0.3,1.2,0.3,2c0,1.8-0.6,3.1-1.7,3.9
		c-1.1,0.9-2.5,1.3-4.1,1.3s-2.9-0.3-4-0.8s-1.7-1.1-1.7-1.9c0-0.4,0.2-0.7,0.5-1s0.7-0.4,1-0.2c2.3,0.9,3.7,1.3,4.2,1.3
		c1,0,1.8-0.3,2.4-0.8s0.8-1.2,0.8-2s-0.3-1.4-0.9-1.8s-1.4-0.7-2.3-0.9c-0.9-0.2-1.8-0.4-2.6-0.6c-0.9-0.2-1.6-0.7-2.3-1.3
		C371.3,23,371,22.2,371,21.1z"/>
	<path d="M388.3,25.5l0.1,4.7c0,0.6,0,1,0,1l6.2-0.1c0.7,0.1,1,0.4,1,0.9c0,1-0.5,1.5-1.4,1.5l-7.1,0.1c-0.4,0-0.8-0.1-1-0.5
		c-0.2-0.3-0.3-0.6-0.3-1c0-0.3,0-0.7,0-1.1v-6c-0.3-0.2-0.5-0.4-0.5-0.8c0-0.3,0.1-0.6,0.4-0.9c-0.1-1.9-0.1-3.6-0.1-5.1
		c0-0.9,0.5-1.3,1.6-1.4c0.3,0,0.6,0,1,0l6.3,0.1l0,0c0.8,0.1,1.2,0.5,1.2,1.1c0,0.5-0.1,0.8-0.4,1c-0.6,0.3-2.1,0.5-4.5,0.5
		c-0.9,0-1.8,0-2.7-0.1c0,2.2,0,3.4,0,3.6c0.9,0,2.8,0,5.5,0c0.7,0.1,1.1,0.4,1.1,1c0,0.3-0.1,0.6-0.4,0.8s-0.5,0.4-0.8,0.4
		s-0.9,0.1-1.8,0.1C391,25.6,389.8,25.5,388.3,25.5z"/>
</g>
<g>
	<path d="M39.3,48.6c0.3-0.4,0.7-0.6,1.1-0.6c0.4,0,0.8,0.2,1,0.6c0.4,2.1,0.6,4.4,0.6,7v2.7c0,2.1,0,3.3-0.1,3.7s-0.1,0.8-0.2,1.2
		c-0.1,0.5-0.1,0.8-0.2,1c-0.1,0.2-0.1,0.6-0.3,1c-0.3,0.9-0.6,1.7-1.1,2.4c-0.6,1.4-1.6,2.5-2.8,3.3s-2.4,1.2-3.6,1.2
		s-2.5-0.5-3.7-1.6c-1.3-1.1-2.3-2.4-3.2-4c-1.2-2.4-1.9-5.3-1.9-8.5c0-1.1,0.2-3.8,0.5-8c0.2-0.4,0.4-0.7,0.8-1
		c0.3-0.3,0.7-0.4,1.1-0.4c0.5,0,0.9,0.4,1,1.1c-0.3,4.2-0.5,6.8-0.5,7.9c0,2.6,0.5,5,1.5,7c0.6,1.3,1.4,2.5,2.4,3.4
		c0.9,0.9,1.9,1.4,2.8,1.4c1.5,0,2.8-1.2,3.9-3.5c0.5-0.8,0.7-2.1,0.8-3.9c0-0.5,0-0.8,0.1-1l0.1-4.8c0-2.2-0.2-4.2-0.5-6
		C38.8,49.4,39,49,39.3,48.6z"/>
	<path d="M46.7,45c0.3-0.2,0.5-0.3,0.9-0.3c0.3,0,0.6,0.1,0.9,0.3c0.3,0.2,0.4,0.5,0.4,0.9c0,1.3-0.2,2.6-0.7,3.8s-1.1,1.8-1.9,1.8
		s-1.2-0.4-1.2-1.2c0-0.3,0.2-0.9,0.6-1.8c0.4-0.9,0.6-1.8,0.6-2.7C46.4,45.5,46.5,45.2,46.7,45z"/>
	<path d="M76.8,63.1c0,0.3-0.1,0.6-0.3,0.9c-0.2,0.3-0.4,0.5-0.7,0.5l-11.3,0.2c-0.6,0-0.8-0.3-0.8-0.9c0-0.4,0.1-0.7,0.3-1
		c0.2-0.3,0.4-0.5,0.7-0.5c2.3,0,6.1,0,11.3,0C76.5,62.2,76.8,62.5,76.8,63.1z M76.8,57c0,0.4-0.1,0.7-0.3,1
		c-0.2,0.3-0.4,0.5-0.6,0.6c-1.6,0.1-3,0.1-4.2,0.1l-6.8-0.1c-0.6,0-0.9-0.3-0.9-0.9c0-0.3,0.1-0.6,0.3-0.9c0.2-0.3,0.5-0.5,0.7-0.5
		l6.8,0.1c1.2,0,2.7,0,4.3-0.1C76.6,56.4,76.8,56.6,76.8,57z"/>
	<path d="M97.2,57.6l-0.1,8.5c0,1.8,0,3.3,0.1,4.7c0,0.4-0.1,0.7-0.5,0.9c-0.3,0.2-0.7,0.3-1,0.3c-0.6,0-0.9-0.3-0.9-1
		c-0.1-2.6-0.1-5.1-0.1-7.5s0.1-4.3,0.2-5.9c-1.4,0.1-2.9,0.2-4.4,0.2c-0.7,0-1.1-0.3-1.1-0.9c0-0.3,0.1-0.6,0.4-0.9
		c0.3-0.3,0.6-0.4,0.9-0.5l11.2-0.4c0.6,0.1,1,0.5,1,0.9c0,1-1.1,1.5-3.4,1.5L97.2,57.6z"/>
	<path d="M115.8,56.9c0-0.1,0-0.3,0-0.5s0.1-0.4,0.4-0.7c0.3-0.2,0.6-0.4,0.9-0.4s0.6,0.1,0.8,0.3c0.3,0.2,0.4,0.4,0.4,0.6
		c0.2,2.4,0.4,4.3,0.4,5.7s0,2.5-0.1,3.2c-0.2,2.3-0.8,4-1.7,5.1c-1,1.1-2.5,1.6-4.6,1.6c-1.5,0-2.8-0.4-3.8-1.3s-1.7-2-2.1-3.4
		c-0.6-2.1-0.9-4.5-0.9-7.1c0-1.1,0.1-2.3,0.2-3.4c0-0.3,0.2-0.6,0.6-0.8c0.3-0.2,0.7-0.3,1-0.3s0.5,0.1,0.7,0.3s0.3,0.4,0.3,0.8
		c-0.1,1.2-0.2,2.4-0.2,3.4s0,1.9,0.1,2.7c0.1,1.9,0.6,3.6,1.3,4.9c0.7,1.4,1.7,2,2.9,2c2.6,0,3.9-2.2,3.9-6.7
		C116.2,60.2,116.1,58.2,115.8,56.9z"/>
	<path d="M124.4,70.7c0,0.4-0.2,0.7-0.5,0.9c-0.3,0.3-0.7,0.4-1.1,0.4c-0.5,0-0.8-0.2-0.8-0.7c-0.1-1.1-0.1-5.6-0.1-13.4
		c0-0.8,0.5-1.4,1.4-1.8c0.9-0.4,2.2-0.6,3.7-0.6s2.9,0.4,4.1,1.2c1.2,0.8,1.7,1.7,1.7,2.8c0,0.5-0.2,1.1-0.7,1.8
		c-0.5,0.6-0.9,1.2-1.5,1.5c-0.5,0.4-1.3,0.8-2.2,1.4c-1,0.5-1.5,0.8-1.8,0.9c1.5,1,2.9,2,4,3.1c1.2,1.1,1.8,2,1.8,2.7
		s-0.3,1.1-0.9,1.3c-0.2,0-0.4,0.1-0.6,0.1s-0.6-0.3-1-0.8s-1.2-1.3-2.3-2.2c-1.1-1-2.2-1.8-3.3-2.6
		C124.3,68.3,124.4,69.7,124.4,70.7L124.4,70.7z M124.3,63.2c0.8,0,2-0.4,3.6-1.2s2.4-1.5,2.5-2.2c0-0.6-0.4-1.1-1.1-1.5
		c-0.7-0.3-1.5-0.5-2.3-0.5c-0.9,0-1.8,0.1-2.7,0.3C124.3,59.3,124.3,61,124.3,63.2z"/>
	<path d="M138.8,60.8l-0.4,8.7c0,0.8,0,1.3-0.1,1.5c-0.1,0.6-0.5,1-1.3,1c-0.3,0-0.5-0.1-0.8-0.3c-0.2-0.2-0.4-0.5-0.4-0.8
		c0.2-6.2,0.3-9.6,0.3-10.1s0-1,0-1.6s0.1-1.1,0.2-1.6c0.2-0.6,0.6-1,1.3-1c0.3,0,0.8,0.2,1.3,0.7s1.2,1.3,2.2,2.5
		c2.3,2.8,4,5.5,5.2,8c0-3.4-0.1-6-0.3-7.8c-0.1-1.8-0.2-2.8-0.2-2.9c0-0.2,0-0.3,0-0.3c0.2-0.9,0.7-1.4,1.5-1.4
		c0.3,0,0.6,0.1,0.9,0.4c0.3,0.3,0.4,0.6,0.4,1l0.2,13.4c0,1.2-0.5,1.9-1.5,1.9c-0.6,0-1.1-0.2-1.4-0.6c-0.3-0.4-0.6-0.8-0.7-1
		c-0.1-0.2-0.4-0.6-0.6-1.2C142.7,65.9,140.8,63,138.8,60.8z"/>
	<path d="M170.5,56.9c0-0.1,0-0.3,0-0.5s0.1-0.4,0.4-0.7c0.3-0.2,0.6-0.4,0.9-0.4c0.3,0,0.6,0.1,0.8,0.3c0.3,0.2,0.4,0.4,0.4,0.6
		c0.2,2.4,0.4,4.3,0.4,5.7s0,2.5-0.1,3.2c-0.2,2.3-0.8,4-1.7,5.1c-1,1.1-2.5,1.6-4.6,1.6c-1.5,0-2.8-0.4-3.8-1.3s-1.7-2-2.1-3.4
		c-0.6-2.1-0.9-4.5-0.9-7.1c0-1.1,0.1-2.3,0.2-3.4c0-0.3,0.2-0.6,0.6-0.8c0.3-0.2,0.7-0.3,1-0.3s0.5,0.1,0.7,0.3s0.3,0.4,0.3,0.8
		c-0.1,1.2-0.2,2.4-0.2,3.4s0,1.9,0.1,2.7c0.1,1.9,0.6,3.6,1.3,4.9c0.7,1.4,1.7,2,2.9,2c2.6,0,3.9-2.2,3.9-6.7
		C170.9,60.2,170.8,58.2,170.5,56.9z"/>
	<path d="M180.8,55.4c1.7,0,3.1,0.4,4.2,1.1s1.6,1.8,1.6,3c0,2-0.6,3.4-1.8,4.4c-0.9,0.7-2.1,1-3.6,1c-0.6,0-1.2,0-1.9-0.1
		c0.1,1.4,0.1,2.6,0.1,3.7s0,2-0.1,2.7c0,0.6-0.4,0.8-1,0.8s-1.1-0.1-1.3-0.4s-0.3-0.7-0.3-1.2V56.9
		C176.7,55.9,178.1,55.4,180.8,55.4z M179.1,57.9c0,0.7-0.1,1.5-0.1,2.3s0,1.5,0,2c0.6,0.1,1.3,0.1,2.1,0.1s1.4-0.1,1.9-0.4
		c0.7-0.4,1-1.1,1-2.2c0-0.1,0-0.2,0-0.3c0-0.6-0.6-1.1-1.7-1.4c-0.6-0.2-1.2-0.3-1.7-0.3S179.6,57.8,179.1,57.9z"/>
	<path d="M205.5,64.4H201c0,2.2,0,4.2,0.1,6c0,1.1-0.4,1.7-1.1,1.7c-0.7,0-1.2-0.5-1.3-1.4c0-0.2-0.1-1.2-0.1-3V62c0-2.1,0-3.4,0-4
		c-0.6-0.1-0.9-0.5-0.9-1.4c0-0.2,0.1-0.4,0.3-0.7c0.3-0.4,0.6-0.5,0.9-0.5c0.3,0,0.8,0,1.6,0.1s2.6,0.1,5.3,0.1
		c1.4,0,2.1,0.4,2.1,1.2c0,0.6-0.2,0.9-0.6,1c-0.1,0-0.2,0.1-0.3,0.1s-0.2,0.1-0.3,0.1s-0.3,0-0.3,0c-0.1,0-0.4,0.1-0.8,0.1
		s-1.1,0-1.8,0c-0.8,0-1.7,0-2.8-0.1v4h4.7c0.2,0,0.4,0.1,0.6,0.4c0.2,0.2,0.3,0.5,0.3,0.8s-0.1,0.6-0.3,0.9
		C206.1,64.4,205.9,64.4,205.5,64.4z"/>
	<path d="M213.2,71c-0.1,0.6-0.5,0.9-1.3,0.9s-1.1-0.3-1.1-0.9c0-1.4,0.7-4.3,2.1-8.6c0.6-2,1.3-3.6,2.1-5c0.8-1.3,1.5-2,2.2-2
		c0.4,0,0.7,0.2,1,0.7s0.8,1.5,1.6,3.1s1.4,3.3,1.9,5.1c0.5,1.8,1.1,4,1.7,6.6c0,0.3-0.1,0.6-0.3,0.7s-0.6,0.4-0.9,0.4
		c-0.8,0-1.2-0.3-1.4-1l-1.3-4.9c-2.1,0-3.8-0.2-5.1-0.5C213.7,68.2,213.2,70,213.2,71z M217,58.7c-0.8,1.3-1.4,2.8-1.9,4.5
		c1.1,0.3,2.3,0.4,3.7,0.4C218.4,62,217.8,60.4,217,58.7z"/>
	<path d="M237.9,58.5l-2.9-0.4c-3.9,0-5.8,1.9-5.8,5.8c0,2,0.6,3.5,1.8,4.7c0.6,0.6,1.2,0.9,1.8,0.9s1.7-0.3,3.3-0.8
		c1.6-0.6,2.4-0.8,2.5-0.8c0.6,0,1,0.3,1,0.9c0,0.5-0.3,0.9-0.8,1.3c-3,1.3-5.2,1.9-6.5,1.9c-0.8,0-1.6-0.3-2.4-0.8
		c-0.8-0.5-1.4-1.2-1.9-2.1c-0.9-1.7-1.4-3.4-1.4-5.3c0-2.5,0.8-4.6,2.3-6c1.5-1.5,3.5-2.2,5.9-2.2c1.4,0,2.8,0.2,4.1,0.7l0,0
		c0.4,0.3,0.6,0.6,0.6,0.9c0,0.3-0.2,0.6-0.5,0.9C238.6,58.3,238.2,58.5,237.9,58.5z"/>
	<path d="M245.6,63.9l0.1,4.7c0,0.6,0,1,0,1l6.2-0.1c0.7,0.1,1,0.4,1,0.9c0,1-0.5,1.5-1.4,1.5l-7.1,0.1c-0.4,0-0.8-0.1-1-0.5
		c-0.2-0.3-0.3-0.6-0.3-1c0-0.3,0-0.7,0-1.1v-6c-0.3-0.2-0.5-0.4-0.5-0.8c0-0.3,0.1-0.6,0.4-0.9c-0.1-1.9-0.1-3.6-0.1-5.1
		c0-0.9,0.5-1.3,1.6-1.4c0.3,0,0.6,0,1,0l6.3,0.1l0,0c0.8,0.1,1.2,0.5,1.2,1.1c0,0.5-0.1,0.8-0.4,1c-0.6,0.3-2.1,0.5-4.5,0.5
		c-0.9,0-1.8,0-2.7-0.1c0,2.2,0,3.4,0,3.6c0.9,0,2.8,0,5.5,0c0.7,0.1,1.1,0.4,1.1,1c0,0.3-0.1,0.6-0.4,0.8s-0.5,0.4-0.8,0.4
		s-0.9,0.1-1.8,0.1C248.3,64,247.1,63.9,245.6,63.9z"/>
	<path d="M259,68.3c0.6,0,1.1,0.3,1.3,1c0,1.6-0.3,3-0.8,4.3c-0.2,0.5-0.4,0.8-0.7,1.2c-0.3,0.3-0.7,0.5-1,0.5
		c-0.8,0-1.2-0.4-1.2-1.3c0-0.3,0-0.5,0.1-0.8c0.7-0.8,1.1-2.1,1.1-3.8C257.9,68.6,258.3,68.3,259,68.3z"/>
	<path d="M283.3,58.5l-2.9-0.4c-3.9,0-5.8,1.9-5.8,5.8c0,2,0.6,3.5,1.8,4.7c0.6,0.6,1.2,0.9,1.8,0.9s1.7-0.3,3.3-0.8
		c1.6-0.6,2.4-0.8,2.5-0.8c0.6,0,1,0.3,1,0.9c0,0.5-0.3,0.9-0.8,1.3c-3,1.3-5.2,1.9-6.5,1.9c-0.8,0-1.6-0.3-2.4-0.8
		s-1.4-1.2-1.9-2.1c-0.9-1.7-1.4-3.4-1.4-5.3c0-2.5,0.8-4.6,2.3-6c1.5-1.5,3.5-2.2,5.9-2.2c1.4,0,2.8,0.2,4.1,0.7l0,0
		c0.4,0.3,0.6,0.6,0.6,0.9c0,0.3-0.2,0.6-0.5,0.9C284,58.3,283.6,58.5,283.3,58.5z"/>
	<path d="M295.3,55.6c1.8,0,3.2,0.7,4.3,2.1c1.1,1.4,1.6,3.2,1.6,5.6c0,2.4-0.6,4.4-1.8,6.2s-2.7,2.6-4.6,2.6c-2,0-3.7-0.9-4.9-2.6
		c-1.3-1.7-1.9-3.8-1.9-6.3c0-2.5,0.7-4.4,2-5.6C291.3,56.2,293,55.6,295.3,55.6z M298.5,63.6c0-1.9-0.3-3.3-0.8-4.2
		c-0.6-0.9-1.5-1.3-2.9-1.3s-2.5,0.4-3.2,1.3c-0.8,0.9-1.2,2.1-1.2,3.6c0,1.6,0.4,3,1.2,4.4c0.8,1.3,1.9,2,3.4,2
		c0.8,0,1.5-0.3,2.1-1C298.1,67.1,298.5,65.5,298.5,63.6z"/>
	<path d="M314.6,56.9c0-0.1,0-0.3,0-0.5s0.1-0.4,0.5-0.7c0.3-0.2,0.6-0.4,0.9-0.4s0.6,0.1,0.8,0.3c0.3,0.2,0.4,0.4,0.4,0.6
		c0.2,2.4,0.4,4.3,0.4,5.7s0,2.5-0.1,3.2c-0.2,2.3-0.8,4-1.7,5.1c-1,1.1-2.5,1.6-4.6,1.6c-1.5,0-2.8-0.4-3.8-1.3s-1.7-2-2.1-3.4
		c-0.6-2.1-0.9-4.5-0.9-7.1c0-1.1,0.1-2.3,0.2-3.4c0-0.3,0.2-0.6,0.6-0.8c0.3-0.2,0.7-0.3,1-0.3s0.5,0.1,0.7,0.3s0.3,0.4,0.3,0.8
		c-0.1,1.2-0.2,2.4-0.2,3.4s0,1.9,0.1,2.7c0.1,1.9,0.6,3.6,1.3,4.9c0.7,1.4,1.7,2,2.9,2c2.6,0,3.9-2.2,3.9-6.7
		C315,60.2,314.9,58.2,314.6,56.9z"/>
	<path d="M323.3,60.8l-0.4,8.7c0,0.8,0,1.3-0.1,1.5c-0.1,0.6-0.5,1-1.3,1c-0.3,0-0.5-0.1-0.8-0.3c-0.2-0.2-0.4-0.5-0.4-0.8
		c0.2-6.2,0.3-9.6,0.3-10.1s0-1,0-1.6s0.1-1.1,0.2-1.6c0.2-0.6,0.6-1,1.3-1c0.3,0,0.8,0.2,1.3,0.7s1.2,1.3,2.2,2.5
		c2.3,2.8,4,5.5,5.2,8c0-3.4-0.1-6-0.3-7.8c-0.1-1.8-0.2-2.8-0.2-2.9c0-0.2,0-0.3,0-0.3c0.2-0.9,0.7-1.4,1.5-1.4
		c0.3,0,0.6,0.1,0.9,0.4c0.3,0.3,0.4,0.6,0.4,1l0.2,13.4c0,1.2-0.5,1.9-1.5,1.9c-0.6,0-1.1-0.2-1.4-0.6s-0.6-0.8-0.7-1
		s-0.4-0.6-0.6-1.2C327.1,65.9,325.3,63,323.3,60.8z"/>
	<path d="M343.5,57.6l-0.1,8.5c0,1.8,0,3.3,0.1,4.7c0,0.4-0.1,0.7-0.4,0.9c-0.3,0.2-0.7,0.3-1,0.3c-0.6,0-0.9-0.3-0.9-1
		c-0.1-2.6-0.1-5.1-0.1-7.5s0.1-4.3,0.2-5.9c-1.4,0.1-2.9,0.2-4.4,0.2c-0.7,0-1.1-0.3-1.1-0.9c0-0.3,0.1-0.6,0.4-0.9
		c0.3-0.3,0.6-0.4,0.9-0.5l11.2-0.4c0.6,0.1,1,0.5,1,0.9c0,1-1.1,1.5-3.4,1.5L343.5,57.6z"/>
	<path d="M354.8,63.9l0.1,4.7c0,0.6,0,1,0,1l6.2-0.1c0.7,0.1,1,0.4,1,0.9c0,1-0.5,1.5-1.4,1.5l-7.1,0.1c-0.4,0-0.8-0.1-1-0.5
		c-0.2-0.3-0.3-0.6-0.3-1c0-0.3,0-0.7,0-1.1v-6c-0.3-0.2-0.5-0.4-0.5-0.8c0-0.3,0.1-0.6,0.4-0.9c-0.1-1.9-0.1-3.6-0.1-5.1
		c0-0.9,0.5-1.3,1.6-1.4c0.3,0,0.6,0,1,0l6.3,0.1l0,0c0.8,0.1,1.2,0.5,1.2,1.1c0,0.5-0.1,0.8-0.4,1c-0.6,0.3-2.1,0.5-4.5,0.5
		c-0.9,0-1.8,0-2.7-0.1c0,2.2,0,3.4,0,3.6c0.9,0,2.8,0,5.5,0c0.7,0.1,1.1,0.4,1.1,1c0,0.3-0.1,0.6-0.4,0.8s-0.5,0.4-0.8,0.4
		s-0.9,0.1-1.8,0.1C357.5,64,356.3,63.9,354.8,63.9z"/>
	<path d="M368.3,70.7c0,0.4-0.2,0.7-0.5,0.9c-0.3,0.3-0.7,0.4-1.1,0.4c-0.5,0-0.8-0.2-0.8-0.7c-0.1-1.1-0.1-5.6-0.1-13.4
		c0-0.8,0.5-1.4,1.4-1.8c0.9-0.4,2.2-0.6,3.7-0.6s2.9,0.4,4.1,1.2s1.7,1.7,1.7,2.8c0,0.5-0.2,1.1-0.7,1.8c-0.5,0.6-0.9,1.2-1.5,1.5
		c-0.5,0.4-1.3,0.8-2.2,1.4c-0.9,0.6-1.5,0.8-1.8,0.9c1.5,1,2.9,2,4,3.1c1.2,1.1,1.8,2,1.8,2.7s-0.3,1.1-0.9,1.3
		c-0.2,0-0.4,0.1-0.6,0.1c-0.3,0-0.6-0.3-1-0.8s-1.2-1.3-2.3-2.2s-2.2-1.8-3.3-2.6C368.1,68.3,368.3,69.7,368.3,70.7L368.3,70.7z
		 M368.1,63.2c0.8,0,2-0.4,3.6-1.2s2.4-1.5,2.5-2.2c0-0.6-0.4-1.1-1.1-1.5c-0.7-0.3-1.5-0.5-2.3-0.5c-0.9,0-1.8,0.1-2.7,0.3
		C368.1,59.3,368.1,61,368.1,63.2z"/>
	<path d="M391.3,58.5l-2.9-0.4c-3.9,0-5.8,1.9-5.8,5.8c0,2,0.6,3.5,1.8,4.7c0.6,0.6,1.2,0.9,1.8,0.9s1.7-0.3,3.3-0.8
		c1.6-0.6,2.4-0.8,2.5-0.8c0.6,0,1,0.3,1,0.9c0,0.5-0.3,0.9-0.8,1.3c-3,1.3-5.2,1.9-6.5,1.9c-0.8,0-1.6-0.3-2.4-0.8
		s-1.4-1.2-1.9-2.1c-0.9-1.7-1.4-3.4-1.4-5.3c0-2.5,0.8-4.6,2.3-6c1.5-1.5,3.5-2.2,5.9-2.2c1.4,0,2.8,0.2,4.1,0.7l0,0
		c0.4,0.3,0.6,0.6,0.6,0.9c0,0.3-0.2,0.6-0.5,0.9C392,58.3,391.6,58.5,391.3,58.5z"/>
	<path d="M400.3,72.1h-3.4c-0.6,0-0.9-0.2-1-0.5c-0.1-1-0.2-2.6-0.2-4.7l0.3-10.4c0-0.6,0.5-0.9,1.4-0.9c0.5,0,0.8,0.1,1.1,0.3
		s0.4,0.5,0.4,0.9c0,1-0.2,2.4-0.4,4.2c-0.3,2.3-0.4,4-0.4,5.1s0,2.3,0.1,3.8l5.3-0.3c0.8,0,1.2,0.4,1.2,1.2c0,0.7-0.3,1.1-0.8,1.2
		C402.9,72,401.8,72.1,400.3,72.1z"/>
	<path d="M414,55.6c1.8,0,3.2,0.7,4.3,2.1c1.1,1.4,1.6,3.2,1.6,5.6c0,2.4-0.6,4.4-1.8,6.2s-2.7,2.6-4.6,2.6c-2,0-3.7-0.9-4.9-2.6
		c-1.3-1.7-1.9-3.8-1.9-6.3c0-2.5,0.7-4.4,2-5.6C410,56.2,411.8,55.6,414,55.6z M417.3,63.6c0-1.9-0.3-3.3-0.8-4.2
		c-0.6-0.9-1.5-1.3-2.9-1.3s-2.5,0.4-3.2,1.3c-0.8,0.9-1.2,2.1-1.2,3.6c0,1.6,0.4,3,1.2,4.4c0.8,1.3,1.9,2,3.4,2
		c0.8,0,1.5-0.3,2.1-1C416.9,67.1,417.3,65.5,417.3,63.6z"/>
	<path d="M434.5,58.5l-2.9-0.4c-3.9,0-5.8,1.9-5.8,5.8c0,2,0.6,3.5,1.8,4.7c0.6,0.6,1.2,0.9,1.8,0.9s1.7-0.3,3.3-0.8
		c1.6-0.6,2.4-0.8,2.5-0.8c0.6,0,1,0.3,1,0.9c0,0.5-0.3,0.9-0.8,1.3c-3,1.3-5.2,1.9-6.5,1.9c-0.8,0-1.6-0.3-2.4-0.8
		s-1.4-1.2-1.9-2.1c-0.9-1.7-1.4-3.4-1.4-5.3c0-2.5,0.8-4.6,2.3-6c1.5-1.5,3.5-2.2,5.9-2.2c1.4,0,2.8,0.2,4.1,0.7l0,0
		c0.4,0.3,0.6,0.6,0.6,0.9c0,0.3-0.2,0.6-0.5,0.9C435.3,58.3,434.8,58.5,434.5,58.5z"/>
	<path d="M440.3,69c0-1.3-0.1-3.3-0.2-6c-0.1-2.7-0.3-4.4-0.4-5.1c-0.1-0.7-0.1-1.1-0.1-1.4s0.1-0.5,0.4-0.7s0.6-0.3,1-0.3
		s0.7,0.2,0.9,0.6c0.5,1.1,0.8,3.4,0.8,6.9c1.5-1.2,2.7-2.3,3.6-3.3s1.8-2.2,2.8-3.5c0.3-0.5,0.7-0.8,1.2-0.8c0.9,0,1.4,0.3,1.4,0.9
		c0,1.2-1.5,3.3-4.6,6.5c1.3,1.2,2.6,2.7,3.7,4.5c1.2,1.8,1.7,2.9,1.7,3.4c0,0.4-0.1,0.8-0.4,1s-0.5,0.3-0.9,0.3s-0.7-0.3-1.2-0.9
		c-0.4-0.6-1-1.4-1.6-2.4s-1.2-1.8-1.6-2.4c-0.5-0.6-1.1-1.2-1.9-1.9c-0.7,0.6-1.4,1.2-2.1,1.7c0.1,2.8,0.1,4.4,0.1,4.7
		c0,0.8-0.5,1.2-1.6,1.2c-0.7,0-1.1-0.4-1-1.1L440.3,69L440.3,69z"/>
	<path d="M455,57.1c0-0.4,0.1-0.8,0.4-1.1s0.6-0.5,1.1-0.5s0.8,0.3,1,1c0.1,0.8,0.3,2.5,0.6,5.1c0.3,2.6,0.6,4.7,0.8,6.1
		c0.4-0.7,0.8-1.6,1.2-2.5c0.4-0.9,0.7-1.6,0.9-2c0.6-1.2,1.2-1.7,1.9-1.7c0.5,0,1,0.6,1.5,1.8c1.3,2.8,2.1,4.3,2.2,4.5
		c0.9-4.3,1.6-8.1,2-11.6c0-0.3,0.2-0.6,0.5-0.8c0.3-0.3,0.6-0.4,0.9-0.4s0.5,0.1,0.7,0.2c0.2,0.2,0.3,0.4,0.3,0.6
		c0,1.3-0.9,6.3-2.7,15c-0.1,0.6-0.6,0.9-1.5,0.9c-0.4,0-0.7-0.2-1-0.6c-0.5-0.8-1-1.9-1.7-3.3s-1.2-2.4-1.5-2.9
		c-1,2.4-1.9,4.2-2.5,5.3s-1.4,1.6-2.1,1.6c-0.4,0-0.8-0.4-1.1-1.2c-0.3-0.8-0.5-1.5-0.6-2.1C456.4,68.1,455.9,64.3,455,57.1z"/>
	<path d="M474.3,72c-0.7,0-1-0.3-1-0.9l0.1-14.7c0-0.3,0.1-0.6,0.4-0.8c0.2-0.2,0.5-0.3,0.9-0.3c0.3,0,0.6,0.1,0.9,0.3
		s0.4,0.4,0.4,0.8c0,0.4,0,1.3,0,2.6c0,6.4,0,10.3-0.1,11.7c0,0.3-0.2,0.6-0.6,0.8C474.9,71.9,474.6,72,474.3,72z"/>
	<path d="M478.9,59.5c0-1.1,0.6-2.1,1.7-2.9c1.2-0.8,2.6-1.2,4.2-1.2c1.7,0,2.9,0.2,3.8,0.6c0.9,0.4,1.3,1,1.3,1.7
		c0,0.3-0.1,0.6-0.3,0.8c-0.2,0.2-0.4,0.3-0.7,0.3s-0.9-0.2-1.7-0.6c-0.9-0.4-1.6-0.6-2.3-0.6c-0.7,0-1.4,0.2-2.2,0.6
		c-0.8,0.4-1.1,0.8-1.1,1.4c0,0.6,0.5,1,1.4,1.5s2,0.8,3.2,1.1s2.1,0.6,2.5,0.9c0.4,0.3,0.7,0.5,0.9,0.7c0.2,0.2,0.4,0.5,0.6,1
		s0.3,1.2,0.3,2c0,1.8-0.6,3.1-1.7,3.9c-1.1,0.9-2.5,1.3-4.1,1.3s-2.9-0.3-4-0.8s-1.7-1.1-1.7-1.9c0-0.4,0.2-0.7,0.5-1
		s0.7-0.4,1-0.2c2.3,0.9,3.7,1.3,4.2,1.3c1,0,1.8-0.3,2.4-0.8s0.8-1.2,0.8-2s-0.3-1.4-0.9-1.8c-0.6-0.4-1.4-0.7-2.3-0.9
		s-1.8-0.4-2.6-0.6c-0.9-0.2-1.6-0.7-2.3-1.3C479.3,61.4,478.9,60.6,478.9,59.5z"/>
	<path d="M496.3,63.9l0.1,4.7c0,0.6,0,1,0,1l6.2-0.1c0.7,0.1,1,0.4,1,0.9c0,1-0.5,1.5-1.4,1.5l-7.1,0.1c-0.4,0-0.8-0.1-1-0.5
		c-0.2-0.3-0.3-0.6-0.3-1c0-0.3,0-0.7,0-1.1v-6c-0.3-0.2-0.5-0.4-0.5-0.8c0-0.3,0.1-0.6,0.4-0.9c-0.1-1.9-0.1-3.6-0.1-5.1
		c0-0.9,0.5-1.3,1.6-1.4c0.3,0,0.6,0,1,0l6.3,0.1l0,0c0.8,0.1,1.2,0.5,1.2,1.1c0,0.5-0.1,0.8-0.4,1c-0.6,0.3-2.1,0.5-4.5,0.5
		c-0.9,0-1.8,0-2.7-0.1c0,2.2,0,3.4,0,3.6c0.9,0,2.8,0,5.5,0c0.7,0.1,1.1,0.4,1.1,1c0,0.3-0.1,0.6-0.4,0.8s-0.5,0.4-0.8,0.4
		s-0.9,0.1-1.8,0.1C498.9,64,497.8,63.9,496.3,63.9z"/>
</g>
<g>
	<path d="M30.3,86c0.3-0.4,0.7-0.6,1.1-0.6c0.4,0,0.8,0.2,1,0.6c0.4,2.1,0.6,4.4,0.6,7v2.7c0,2.1,0,3.3-0.1,3.7
		c-0.1,0.4-0.1,0.8-0.2,1.2c-0.1,0.5-0.1,0.8-0.2,1c-0.1,0.2-0.1,0.6-0.3,1c-0.3,0.9-0.6,1.7-1.1,2.4c-0.7,1.3-1.7,2.4-2.8,3.2
		c-1.2,0.8-2.4,1.2-3.6,1.2s-2.5-0.5-3.7-1.6c-1.3-1.1-2.3-2.4-3.2-4c-1.2-2.4-1.9-5.3-1.9-8.5c0-1.1,0.2-3.8,0.5-8
		c0.2-0.4,0.4-0.7,0.8-1c0.3-0.3,0.7-0.4,1.1-0.4c0.5,0,0.9,0.4,1,1.1c-0.3,4.2-0.5,6.8-0.5,7.9c0,2.6,0.5,5,1.5,7
		c0.6,1.3,1.4,2.5,2.4,3.4c0.9,0.9,1.9,1.4,2.8,1.4c1.5,0,2.8-1.2,3.9-3.5c0.5-0.8,0.7-2.1,0.8-3.9c0-0.5,0-0.8,0.1-1l0.1-4.8
		c0-2.2-0.2-4.2-0.5-6C29.8,86.8,30,86.4,30.3,86z"/>
	<path d="M45.1,109.5l-5.3-0.1c-0.2,0-0.5,0-0.7,0c-2.4,0-3.6-0.5-3.6-1.4c0-0.6,0.1-1.3,0.4-1.8c0.2-0.6,0.5-1,0.7-1.3
		s0.6-0.8,1.3-1.4c0.6-0.7,1.1-1.2,1.4-1.5c0.3-0.3,1.2-1.2,2.6-2.6c1.5-1.4,2.5-2.6,3.3-3.7c0.7-1.1,1.1-2.3,1.1-3.5
		c0-1.9-0.8-3.1-2.3-3.7c-0.4-0.1-0.9-0.2-1.3-0.2c-1,0-2.1,0.4-3.1,1.3c-0.4,0.4-0.8,0.6-1.3,0.6c-0.1,0-0.3,0-0.4,0
		c-0.6-0.1-0.9-0.6-0.9-1.3c0-0.9,0.7-1.7,2-2.3c1.4-0.7,3-1,4.6-1c1.7,0,3,0.6,4.1,1.8c1.1,1.2,1.6,2.7,1.6,4.5
		c0,2.6-0.8,4.8-2.4,6.6c-0.7,0.9-1.5,1.7-2.3,2.4c-2.4,2.3-4,4.1-4.9,5.3c1.1,0.1,2.4,0.1,4,0.1s3.6-0.1,5.9-0.3
		c0.4,0.1,0.7,0.2,0.9,0.5s0.3,0.5,0.3,0.8c0,0.8-0.4,1.4-1.3,1.7C48.7,109.3,47.2,109.5,45.1,109.5z"/>
	<path d="M76.7,100.5c0,0.3-0.1,0.6-0.3,0.9c-0.2,0.3-0.4,0.5-0.7,0.5L64.3,102c-0.6,0-0.8-0.3-0.8-0.9c0-0.4,0.1-0.7,0.3-1
		c0.2-0.3,0.4-0.5,0.7-0.5c2.3,0,6.1,0,11.3,0C76.4,99.6,76.7,99.9,76.7,100.5z M76.7,94.4c0,0.4-0.1,0.7-0.3,1
		c-0.2,0.3-0.4,0.5-0.6,0.6c-1.6,0.1-3,0.1-4.2,0.1L64.7,96c-0.6,0-0.9-0.3-0.9-0.9c0-0.3,0.1-0.6,0.3-0.9c0.2-0.3,0.5-0.5,0.7-0.5
		l6.8,0.1c1.2,0,2.7,0,4.3-0.1C76.5,93.8,76.7,94,76.7,94.4z"/>
	<path d="M97.2,95l-0.1,8.5c0,1.8,0,3.3,0.1,4.7c0,0.4-0.1,0.7-0.5,0.9c-0.3,0.2-0.7,0.3-1,0.3c-0.6,0-0.9-0.3-0.9-1
		c-0.1-2.6-0.1-5.1-0.1-7.5s0.1-4.3,0.2-5.9c-1.4,0.1-2.9,0.2-4.4,0.2c-0.7,0-1.1-0.3-1.1-0.9c0-0.3,0.1-0.6,0.4-0.9
		s0.6-0.4,0.9-0.5l11.2-0.4c0.6,0.1,1,0.5,1,0.9c0,1-1.1,1.5-3.4,1.5L97.2,95z"/>
	<path d="M115.7,94.3c0-0.1,0-0.3,0-0.5s0.1-0.4,0.4-0.7c0.3-0.2,0.6-0.4,0.9-0.4s0.6,0.1,0.8,0.3c0.3,0.2,0.4,0.4,0.4,0.6
		c0.2,2.4,0.4,4.3,0.4,5.7c0,1.4,0,2.5-0.1,3.2c-0.2,2.3-0.8,4-1.7,5.1c-1,1.1-2.5,1.6-4.6,1.6c-1.5,0-2.8-0.4-3.8-1.3
		s-1.7-2-2.1-3.4c-0.6-2.1-0.9-4.5-0.9-7.1c0-1.1,0.1-2.3,0.2-3.4c0-0.3,0.2-0.6,0.6-0.8c0.3-0.2,0.7-0.3,1-0.3s0.5,0.1,0.7,0.3
		c0.2,0.2,0.3,0.4,0.3,0.8c-0.1,1.2-0.2,2.4-0.2,3.4s0,1.9,0.1,2.7c0.1,1.9,0.6,3.6,1.3,4.9c0.7,1.4,1.7,2,2.9,2
		c2.6,0,3.9-2.2,3.9-6.7C116.1,97.6,116,95.6,115.7,94.3z"/>
	<path d="M124.3,108.1c0,0.4-0.2,0.7-0.5,0.9c-0.3,0.3-0.7,0.4-1.1,0.4c-0.5,0-0.8-0.2-0.8-0.7c-0.1-1.1-0.1-5.6-0.1-13.4
		c0-0.8,0.5-1.4,1.4-1.8s2.2-0.6,3.7-0.6c1.5,0,2.9,0.4,4.1,1.2c1.2,0.8,1.7,1.7,1.7,2.8c0,0.5-0.2,1.1-0.7,1.8
		c-0.5,0.6-0.9,1.2-1.5,1.5c-0.5,0.4-1.3,0.8-2.2,1.4c-1,0.5-1.5,0.8-1.8,0.9c1.5,1,2.9,2,4,3.1c1.2,1.1,1.8,2,1.8,2.7
		s-0.3,1.1-0.9,1.3c-0.2,0-0.4,0.1-0.6,0.1s-0.6-0.3-1-0.8s-1.2-1.3-2.3-2.2c-1.1-1-2.2-1.8-3.3-2.6
		C124.2,105.7,124.3,107.1,124.3,108.1L124.3,108.1z M124.2,100.6c0.8,0,2-0.4,3.6-1.2c1.6-0.8,2.4-1.5,2.5-2.2
		c0-0.6-0.4-1.1-1.1-1.5c-0.7-0.3-1.5-0.5-2.3-0.5c-0.9,0-1.8,0.1-2.7,0.3C124.2,96.7,124.2,98.4,124.2,100.6z"/>
	<path d="M138.7,98.2l-0.4,8.7c0,0.8,0,1.3-0.1,1.5c-0.1,0.6-0.5,1-1.3,1c-0.3,0-0.5-0.1-0.8-0.3c-0.2-0.2-0.4-0.5-0.4-0.8
		c0.2-6.2,0.3-9.6,0.3-10.1s0-1,0-1.6s0.1-1.1,0.2-1.6c0.2-0.6,0.6-1,1.3-1c0.3,0,0.8,0.2,1.3,0.7s1.2,1.3,2.2,2.5
		c2.3,2.8,4,5.5,5.2,8c0-3.4-0.1-6-0.3-7.8c-0.1-1.8-0.2-2.8-0.2-2.9c0-0.2,0-0.3,0-0.3c0.2-0.9,0.7-1.4,1.5-1.4
		c0.3,0,0.6,0.1,0.9,0.4c0.3,0.3,0.4,0.6,0.4,1l0.2,13.4c0,1.2-0.5,1.9-1.5,1.9c-0.6,0-1.1-0.2-1.4-0.6c-0.3-0.4-0.6-0.8-0.7-1
		c-0.1-0.2-0.4-0.6-0.6-1.2C142.6,103.3,140.7,100.4,138.7,98.2z"/>
	<path d="M170.4,94.3c0-0.1,0-0.3,0-0.5s0.1-0.4,0.4-0.7c0.3-0.2,0.6-0.4,0.9-0.4c0.3,0,0.6,0.1,0.8,0.3c0.3,0.2,0.4,0.4,0.4,0.6
		c0.2,2.4,0.4,4.3,0.4,5.7c0,1.4,0,2.5-0.1,3.2c-0.2,2.3-0.8,4-1.7,5.1c-1,1.1-2.5,1.6-4.6,1.6c-1.5,0-2.8-0.4-3.8-1.3
		s-1.7-2-2.1-3.4c-0.6-2.1-0.9-4.5-0.9-7.1c0-1.1,0.1-2.3,0.2-3.4c0-0.3,0.2-0.6,0.6-0.8c0.3-0.2,0.7-0.3,1-0.3s0.5,0.1,0.7,0.3
		c0.2,0.2,0.3,0.4,0.3,0.8c-0.1,1.2-0.2,2.4-0.2,3.4s0,1.9,0.1,2.7c0.1,1.9,0.6,3.6,1.3,4.9c0.7,1.4,1.7,2,2.9,2
		c2.6,0,3.9-2.2,3.9-6.7C170.9,97.6,170.7,95.6,170.4,94.3z"/>
	<path d="M180.7,92.8c1.7,0,3.1,0.4,4.2,1.1s1.6,1.8,1.6,3c0,2-0.6,3.4-1.8,4.4c-0.9,0.7-2.1,1-3.6,1c-0.6,0-1.2,0-1.9-0.1
		c0.1,1.4,0.1,2.6,0.1,3.7s0,2-0.1,2.7c0,0.6-0.4,0.8-1,0.8s-1.1-0.1-1.3-0.4s-0.3-0.7-0.3-1.2V94.3C176.6,93.3,178,92.8,180.7,92.8
		z M179.1,95.3c0,0.7-0.1,1.5-0.1,2.3s0,1.5,0,2c0.6,0.1,1.3,0.1,2.1,0.1s1.4-0.1,1.9-0.4c0.7-0.4,1-1.1,1-2.2c0-0.1,0-0.2,0-0.3
		c0-0.6-0.6-1.1-1.7-1.4c-0.6-0.2-1.2-0.3-1.7-0.3S179.5,95.2,179.1,95.3z"/>
	<path d="M205.4,101.8h-4.5c0,2.2,0,4.2,0.1,6c0,1.1-0.4,1.7-1.1,1.7c-0.7,0-1.2-0.5-1.3-1.4c0-0.2-0.1-1.2-0.1-3v-5.7
		c0-2.1,0-3.4,0-4c-0.6-0.1-0.9-0.5-0.9-1.4c0-0.2,0.1-0.4,0.3-0.7c0.3-0.4,0.6-0.5,0.9-0.5c0.3,0,0.8,0,1.6,0.1s2.6,0.1,5.3,0.1
		c1.4,0,2.1,0.4,2.1,1.2c0,0.6-0.2,0.9-0.6,1c-0.1,0-0.2,0.1-0.3,0.1s-0.2,0.1-0.3,0.1s-0.3,0-0.3,0c-0.1,0-0.4,0.1-0.8,0.1
		s-1.1,0-1.8,0c-0.8,0-1.7,0-2.8-0.1v3.9h4.7c0.2,0,0.4,0.1,0.6,0.4c0.2,0.2,0.3,0.5,0.3,0.8s-0.1,0.6-0.3,0.9
		S205.8,101.8,205.4,101.8z"/>
	<path d="M213.1,108.4c-0.1,0.6-0.5,0.9-1.3,0.9s-1.1-0.3-1.1-0.9c0-1.4,0.7-4.3,2.1-8.6c0.6-2,1.3-3.6,2.1-5c0.8-1.3,1.5-2,2.2-2
		c0.4,0,0.7,0.2,1,0.7s0.8,1.5,1.6,3.1s1.4,3.3,1.9,5.1c0.5,1.8,1.1,4,1.7,6.6c0,0.3-0.1,0.6-0.3,0.7s-0.5,0.3-0.8,0.3
		c-0.8,0-1.2-0.3-1.4-1l-1.3-4.9c-2.1,0-3.8-0.2-5.1-0.5C213.6,105.6,213.2,107.4,213.1,108.4z M217,96.1c-0.8,1.3-1.4,2.8-1.9,4.5
		c1.1,0.3,2.3,0.4,3.7,0.4C218.3,99.4,217.7,97.8,217,96.1z"/>
	<path d="M237.8,95.9l-2.9-0.4c-3.9,0-5.8,1.9-5.8,5.8c0,2,0.6,3.5,1.8,4.7c0.6,0.6,1.2,0.9,1.8,0.9s1.7-0.3,3.3-0.8
		c1.6-0.6,2.4-0.8,2.5-0.8c0.6,0,1,0.3,1,0.9c0,0.5-0.3,0.9-0.8,1.3c-3,1.3-5.2,1.9-6.5,1.9c-0.8,0-1.6-0.3-2.4-0.8
		c-0.8-0.5-1.4-1.2-1.9-2.1c-0.9-1.7-1.4-3.4-1.4-5.3c0-2.5,0.8-4.6,2.3-6c1.5-1.5,3.5-2.2,5.9-2.2c1.4,0,2.8,0.2,4.1,0.7l0,0
		c0.4,0.3,0.6,0.6,0.6,0.9s-0.2,0.6-0.5,0.9C238.5,95.7,238.1,95.9,237.8,95.9z"/>
	<path d="M245.5,101.3l0.1,4.7c0,0.6,0,1,0,1l6.2-0.1c0.7,0.1,1,0.4,1,0.9c0,1-0.5,1.5-1.4,1.5l-7.1,0.1c-0.4,0-0.8-0.1-1-0.5
		c-0.2-0.3-0.3-0.6-0.3-1c0-0.3,0-0.7,0-1.1v-6c-0.3-0.2-0.5-0.4-0.5-0.8c0-0.3,0.1-0.6,0.4-0.9c-0.1-1.9-0.1-3.6-0.1-5.1
		c0-0.9,0.5-1.3,1.6-1.4c0.3,0,0.6,0,1,0l6.3,0.1l0,0c0.8,0.1,1.2,0.5,1.2,1.1c0,0.5-0.1,0.8-0.4,1c-0.6,0.3-2.1,0.5-4.5,0.5
		c-0.9,0-1.8,0-2.7-0.1c0,2.2,0,3.4,0,3.6c0.9,0,2.8,0,5.5,0c0.7,0.1,1.1,0.4,1.1,1c0,0.3-0.1,0.6-0.4,0.8s-0.5,0.4-0.8,0.4
		s-0.9,0.1-1.8,0.1C248.2,101.3,247,101.3,245.5,101.3z"/>
	<path d="M258.9,105.7c0.6,0,1.1,0.3,1.3,1c0,1.6-0.3,3-0.8,4.3c-0.2,0.5-0.4,0.8-0.7,1.2c-0.3,0.3-0.7,0.5-1,0.5
		c-0.8,0-1.2-0.4-1.2-1.3c0-0.3,0-0.5,0.1-0.8c0.7-0.8,1.1-2.1,1.1-3.8C257.9,106,258.3,105.7,258.9,105.7z"/>
	<path d="M283.3,95.9l-2.9-0.4c-3.9,0-5.8,1.9-5.8,5.8c0,2,0.6,3.5,1.8,4.7c0.6,0.6,1.2,0.9,1.8,0.9s1.7-0.3,3.3-0.8
		c1.6-0.6,2.4-0.8,2.5-0.8c0.6,0,1,0.3,1,0.9c0,0.5-0.3,0.9-0.8,1.3c-3,1.3-5.2,1.9-6.5,1.9c-0.8,0-1.6-0.3-2.4-0.8
		s-1.4-1.2-1.9-2.1c-0.9-1.7-1.4-3.4-1.4-5.3c0-2.5,0.8-4.6,2.3-6c1.5-1.5,3.5-2.2,5.9-2.2c1.4,0,2.8,0.2,4.1,0.7l0,0
		c0.4,0.3,0.6,0.6,0.6,0.9s-0.2,0.6-0.5,0.9C283.9,95.7,283.6,95.9,283.3,95.9z"/>
	<path d="M292.3,109.4h-3.4c-0.6,0-0.9-0.2-1-0.5c-0.1-1-0.2-2.6-0.2-4.7l0.3-10.4c0-0.6,0.5-0.9,1.4-0.9c0.5,0,0.8,0.1,1.1,0.3
		s0.4,0.5,0.4,0.9c0,1-0.2,2.4-0.4,4.2c-0.3,2.3-0.4,4-0.4,5.1s0,2.3,0.1,3.8l5.3-0.3c0.8,0,1.2,0.4,1.2,1.2c0,0.7-0.3,1.1-0.8,1.2
		C294.8,109.4,293.6,109.4,292.3,109.4z"/>
	<path d="M305.9,93c1.8,0,3.2,0.7,4.3,2.1c1.1,1.4,1.6,3.2,1.6,5.6s-0.6,4.4-1.8,6.2s-2.7,2.6-4.6,2.6c-2,0-3.7-0.9-4.9-2.6
		c-1.3-1.7-1.9-3.8-1.9-6.3s0.7-4.4,2-5.6C301.9,93.6,303.8,93,305.9,93z M309.3,101c0-1.9-0.3-3.3-0.8-4.2
		c-0.6-0.9-1.5-1.3-2.9-1.3s-2.5,0.4-3.2,1.3c-0.8,0.9-1.2,2.1-1.2,3.6c0,1.6,0.4,3,1.2,4.4c0.8,1.3,1.9,2,3.4,2
		c0.8,0,1.5-0.3,2.1-1C308.8,104.5,309.3,102.9,309.3,101z"/>
	<path d="M326.4,95.9l-2.9-0.4c-3.9,0-5.8,1.9-5.8,5.8c0,2,0.6,3.5,1.8,4.7c0.6,0.6,1.2,0.9,1.8,0.9s1.7-0.3,3.3-0.8
		c1.6-0.6,2.4-0.8,2.5-0.8c0.6,0,1,0.3,1,0.9c0,0.5-0.3,0.9-0.8,1.3c-3,1.3-5.2,1.9-6.5,1.9c-0.8,0-1.6-0.3-2.4-0.8
		s-1.4-1.2-1.9-2.1c-0.9-1.7-1.4-3.4-1.4-5.3c0-2.5,0.8-4.6,2.3-6c1.5-1.5,3.5-2.2,5.9-2.2c1.4,0,2.8,0.2,4.1,0.7l0,0
		c0.4,0.3,0.6,0.6,0.6,0.9s-0.2,0.6-0.5,0.9C327.1,95.7,326.8,95.9,326.4,95.9z"/>
	<path d="M332.1,106.4c0-1.3-0.1-3.3-0.2-6s-0.3-4.4-0.4-5.1s-0.1-1.1-0.1-1.4s0.1-0.5,0.4-0.7s0.6-0.3,1-0.3s0.7,0.2,0.9,0.6
		c0.5,1.1,0.8,3.4,0.8,6.9c1.5-1.2,2.7-2.3,3.6-3.3s1.8-2.2,2.8-3.5c0.3-0.5,0.7-0.8,1.2-0.8c0.9,0,1.4,0.3,1.4,0.9
		c0,1.2-1.5,3.3-4.6,6.5c1.3,1.2,2.6,2.7,3.7,4.5c1.2,1.8,1.7,2.9,1.7,3.4c0,0.4-0.1,0.8-0.4,1s-0.5,0.3-0.9,0.3s-0.7-0.3-1.2-0.9
		c-0.4-0.6-1-1.4-1.6-2.4s-1.2-1.8-1.6-2.4c-0.5-0.6-1.1-1.2-1.9-1.9c-0.7,0.6-1.4,1.2-2.1,1.7c0.1,2.8,0.1,4.4,0.1,4.7
		c0,0.8-0.5,1.2-1.6,1.2c-0.7,0-1.1-0.4-1-1.1L332.1,106.4L332.1,106.4z"/>
	<path d="M346.9,94.5c0-0.4,0.1-0.8,0.4-1.1c0.3-0.3,0.6-0.5,1.1-0.5s0.8,0.3,1,1c0.1,0.8,0.3,2.5,0.6,5.1c0.3,2.6,0.6,4.7,0.8,6.1
		c0.4-0.7,0.8-1.6,1.2-2.5c0.4-0.9,0.7-1.6,0.9-2c0.6-1.2,1.2-1.7,1.9-1.7c0.5,0,1,0.6,1.5,1.8c1.3,2.8,2.1,4.3,2.2,4.5
		c0.9-4.3,1.6-8.1,2-11.6c0-0.3,0.2-0.6,0.5-0.8c0.3-0.3,0.6-0.4,0.9-0.4s0.5,0.1,0.7,0.2c0.2,0.2,0.3,0.4,0.3,0.6
		c0,1.3-0.9,6.3-2.7,15c-0.1,0.6-0.6,0.9-1.5,0.9c-0.4,0-0.7-0.2-1-0.6c-0.5-0.8-1-1.9-1.7-3.3s-1.2-2.4-1.5-2.9
		c-1,2.4-1.9,4.2-2.5,5.3s-1.4,1.6-2.1,1.6c-0.4,0-0.8-0.4-1.1-1.2c-0.3-0.8-0.5-1.5-0.6-2.1C348.3,105.5,347.8,101.7,346.9,94.5z"
		/>
	<path d="M366.3,109.4c-0.7,0-1-0.3-1-0.9l0.1-14.7c0-0.3,0.1-0.6,0.4-0.8c0.2-0.2,0.5-0.3,0.9-0.3c0.3,0,0.6,0.1,0.9,0.3
		s0.4,0.4,0.4,0.8s0,1.3,0,2.6c0,6.4,0,10.3-0.1,11.7c0,0.3-0.2,0.6-0.6,0.8C366.9,109.3,366.5,109.4,366.3,109.4z"/>
	<path d="M370.8,96.8c0-1.1,0.6-2.1,1.7-2.9c1.2-0.8,2.6-1.2,4.2-1.2c1.7,0,2.9,0.2,3.8,0.6s1.3,1,1.3,1.7c0,0.3-0.1,0.6-0.3,0.8
		c-0.2,0.2-0.4,0.3-0.7,0.3s-0.9-0.2-1.7-0.6c-0.9-0.4-1.6-0.6-2.3-0.6c-0.7,0-1.4,0.2-2.2,0.6c-0.8,0.4-1.1,0.8-1.1,1.4
		s0.5,1,1.4,1.5s2,0.8,3.2,1.1c1.2,0.3,2.1,0.6,2.5,0.9s0.7,0.5,0.9,0.7c0.2,0.2,0.4,0.5,0.6,1s0.3,1.2,0.3,2c0,1.8-0.6,3.1-1.7,3.9
		c-1.1,0.9-2.5,1.3-4.1,1.3s-2.9-0.3-4-0.8s-1.7-1.1-1.7-1.9c0-0.4,0.2-0.7,0.5-1s0.7-0.4,1-0.2c2.3,0.9,3.7,1.3,4.2,1.3
		c1,0,1.8-0.3,2.4-0.8s0.8-1.2,0.8-2s-0.3-1.4-0.9-1.8s-1.4-0.7-2.3-0.9c-0.9-0.2-1.8-0.4-2.6-0.6c-0.9-0.2-1.6-0.7-2.3-1.3
		C371.1,98.8,370.8,98,370.8,96.8z"/>
	<path d="M388.1,101.3l0.1,4.7c0,0.6,0,1,0,1l6.2-0.1c0.7,0.1,1,0.4,1,0.9c0,1-0.5,1.5-1.4,1.5l-7.1,0.1c-0.4,0-0.8-0.1-1-0.5
		c-0.2-0.3-0.3-0.6-0.3-1c0-0.3,0-0.7,0-1.1v-6c-0.3-0.2-0.5-0.4-0.5-0.8c0-0.3,0.1-0.6,0.4-0.9c-0.1-1.9-0.1-3.6-0.1-5.1
		c0-0.9,0.5-1.3,1.6-1.4c0.3,0,0.6,0,1,0l6.3,0.1l0,0c0.8,0.1,1.2,0.5,1.2,1.1c0,0.5-0.1,0.8-0.4,1c-0.6,0.3-2.1,0.5-4.5,0.5
		c-0.9,0-1.8,0-2.7-0.1c0,2.2,0,3.4,0,3.6c0.9,0,2.8,0,5.5,0c0.7,0.1,1.1,0.4,1.1,1c0,0.3-0.1,0.6-0.4,0.8s-0.5,0.4-0.8,0.4
		s-0.9,0.1-1.8,0.1C390.9,101.3,389.8,101.3,388.1,101.3z"/>
	<path d="M416.3,109.5l-5.3-0.1c-0.2,0-0.5,0-0.7,0c-2.4,0-3.6-0.5-3.6-1.4c0-0.6,0.1-1.3,0.4-1.8c0.2-0.6,0.5-1,0.7-1.3
		s0.6-0.8,1.3-1.4c0.6-0.7,1.1-1.2,1.4-1.5s1.2-1.2,2.6-2.6c1.5-1.4,2.5-2.6,3.3-3.7s1.1-2.3,1.1-3.5c0-1.9-0.8-3.1-2.3-3.7
		c-0.4-0.1-0.9-0.2-1.3-0.2c-1,0-2.1,0.4-3.1,1.3c-0.4,0.4-0.8,0.6-1.3,0.6c-0.1,0-0.3,0-0.4,0c-0.6-0.1-0.9-0.6-0.9-1.3
		c0-0.9,0.7-1.7,2-2.3c1.4-0.7,3-1,4.6-1s3,0.6,4.1,1.8c1.1,1.2,1.6,2.7,1.6,4.5c0,2.6-0.8,4.8-2.4,6.6c-0.7,0.9-1.5,1.7-2.3,2.4
		c-2.4,2.3-4,4.1-4.9,5.3c1.1,0.1,2.4,0.1,4,0.1s3.6-0.1,5.9-0.3c0.4,0.1,0.7,0.2,0.9,0.5c0.2,0.3,0.3,0.5,0.3,0.8
		c0,0.8-0.4,1.4-1.3,1.7C420,109.3,418.5,109.5,416.3,109.5z"/>
	<path d="M439.5,95l-0.1,8.5c0,1.8,0,3.3,0.1,4.7c0,0.4-0.1,0.7-0.4,0.9c-0.3,0.2-0.7,0.3-1,0.3c-0.6,0-0.9-0.3-0.9-1
		c-0.1-2.6-0.1-5.1-0.1-7.5s0.1-4.3,0.2-5.9c-1.4,0.1-2.9,0.2-4.4,0.2c-0.7,0-1.1-0.3-1.1-0.9c0-0.3,0.1-0.6,0.4-0.9
		s0.6-0.4,0.9-0.5l11.2-0.4c0.6,0.1,1,0.5,1,0.9c0,1-1.1,1.5-3.4,1.5L439.5,95z"/>
	<path d="M448.6,109.4c-0.7,0-1-0.3-1-0.9l0.1-14.7c0-0.3,0.1-0.6,0.4-0.8c0.2-0.2,0.5-0.3,0.9-0.3c0.3,0,0.6,0.1,0.9,0.3
		s0.4,0.4,0.4,0.8s0,1.3,0,2.6c0,6.4,0,10.3-0.1,11.7c0,0.3-0.2,0.6-0.6,0.8C449.3,109.3,448.9,109.4,448.6,109.4z"/>
	<path d="M466.6,92c0.7,0,1,0.3,1,1c0.1,4.3,0.1,9.3,0.1,14.9c0,0.4-0.1,0.7-0.4,1s-0.7,0.5-1.3,0.5c-0.6,0-0.9-0.4-0.9-1.2
		c0-2.5,0-4.4-0.1-5.7c0-1.2-0.1-2.6-0.1-4c-0.9,1.1-1.7,1.8-2.6,2.3s-1.9,0.6-3.3,0.6s-2.4-0.4-3.2-1.1c0,4.3,0,6.8-0.1,7.6
		c0,1-0.6,1.5-1.7,1.5c-0.6,0-1-0.3-1-1l0.1-6.7c0-2.2,0-3.9,0-5.1v-2c0-0.3,0.1-0.7,0.4-1s0.6-0.5,0.9-0.5s0.7,0.1,0.9,0.2
		c0.3,0.2,0.4,0.4,0.5,0.7c0,1.2,0.4,2.3,1.1,3.3s1.4,1.4,2.3,1.4c2.4,0,4.1-1.3,5-3.9c0-0.1,0.1-0.4,0.3-0.9c0.2-0.5,0.3-0.9,0.4-1
		c0.1-0.2,0.3-0.4,0.6-0.6C465.9,92.1,466.3,92,466.6,92z"/>
	<path d="M473.4,101.3l0.1,4.7c0,0.6,0,1,0,1l6.2-0.1c0.7,0.1,1,0.4,1,0.9c0,1-0.5,1.5-1.4,1.5l-7.1,0.1c-0.4,0-0.8-0.1-1-0.5
		c-0.2-0.3-0.3-0.6-0.3-1c0-0.3,0-0.7,0-1.1v-6c-0.3-0.2-0.5-0.4-0.5-0.8c0-0.3,0.1-0.6,0.4-0.9c-0.1-1.9-0.1-3.6-0.1-5.1
		c0-0.9,0.5-1.3,1.6-1.4c0.3,0,0.6,0,1,0l6.3,0.1l0,0c0.8,0.1,1.2,0.5,1.2,1.1c0,0.5-0.1,0.8-0.4,1c-0.6,0.3-2.1,0.5-4.5,0.5
		c-0.9,0-1.8,0-2.7-0.1c0,2.2,0,3.4,0,3.6c0.9,0,2.8,0,5.5,0c0.7,0.1,1.1,0.4,1.1,1c0,0.3-0.1,0.6-0.4,0.8s-0.5,0.4-0.8,0.4
		s-0.9,0.1-1.8,0.1C476.1,101.3,474.9,101.3,473.4,101.3z"/>
	<path d="M484.3,96.8c0-1.1,0.6-2.1,1.7-2.9c1.2-0.8,2.6-1.2,4.2-1.2c1.7,0,2.9,0.2,3.8,0.6s1.3,1,1.3,1.7c0,0.3-0.1,0.6-0.3,0.8
		c-0.2,0.2-0.4,0.3-0.7,0.3s-0.9-0.2-1.7-0.6c-0.9-0.4-1.6-0.6-2.3-0.6c-0.7,0-1.4,0.2-2.2,0.6c-0.8,0.4-1.1,0.8-1.1,1.4
		s0.5,1,1.4,1.5s2,0.8,3.2,1.1c1.2,0.3,2.1,0.6,2.5,0.9s0.7,0.5,0.9,0.7c0.2,0.2,0.4,0.5,0.6,1s0.3,1.2,0.3,2c0,1.8-0.6,3.1-1.7,3.9
		c-1.1,0.9-2.5,1.3-4.1,1.3s-2.9-0.3-4-0.8s-1.7-1.1-1.7-1.9c0-0.4,0.2-0.7,0.5-1s0.7-0.4,1-0.2c2.3,0.9,3.7,1.3,4.2,1.3
		c1,0,1.8-0.3,2.4-0.8s0.8-1.2,0.8-2s-0.3-1.4-0.9-1.8s-1.4-0.7-2.3-0.9c-0.9-0.2-1.8-0.4-2.6-0.6c-0.9-0.2-1.6-0.7-2.3-1.3
		C484.5,98.8,484.3,98,484.3,96.8z"/>
</g>
</svg>
