<?xml version="1.0" encoding="utf-8"?>
<!-- Generator: Adobe Illustrator 21.1.0, SVG Export Plug-In . SVG Version: 6.00 Build 0)  -->
<svg version="1.1" id="Layer_1" xmlns="http://www.w3.org/2000/svg" xmlns:xlink="http://www.w3.org/1999/xlink" x="0px" y="0px"
	 viewBox="0 0 316 231" style="enable-background:new 0 0 316 231;" xml:space="preserve">
<g>
	<path d="M25.5,8c0.3-0.4,0.7-0.6,1.1-0.6c0.4,0,0.8,0.2,1,0.6c0.4,2.1,0.6,4.4,0.6,7v2.7c0,2.1,0,3.3-0.1,3.7
		c-0.1,0.4-0.1,0.8-0.2,1.2c-0.1,0.5-0.1,0.8-0.2,1c-0.1,0.2-0.1,0.6-0.3,1c-0.3,0.9-0.6,1.7-1.1,2.4c-0.7,1.3-1.7,2.4-2.8,3.2
		c-1.2,0.8-2.4,1.2-3.6,1.2s-2.5-0.5-3.7-1.6c-1.3-1.1-2.3-2.4-3.2-4c-1.2-2.4-1.9-5.3-1.9-8.5c0-1.1,0.2-3.8,0.5-8
		c0.2-0.4,0.4-0.7,0.8-1c0.3-0.3,0.7-0.4,1.1-0.4c0.5,0,0.9,0.4,1,1.1c-0.3,4.2-0.5,6.8-0.5,7.9c0,2.6,0.5,5,1.5,7
		c0.6,1.3,1.4,2.5,2.4,3.4c0.9,0.9,1.9,1.4,2.8,1.4c1.5,0,2.8-1.2,3.9-3.5c0.5-0.8,0.7-2.1,0.8-3.9c0-0.5,0-0.8,0.1-1l0.1-4.8
		c0-2.2-0.2-4.2-0.5-6C25,8.9,25.1,8.4,25.5,8z"/>
	<path d="M55,22.6c0,0.3-0.1,0.6-0.3,0.9c-0.2,0.3-0.4,0.5-0.7,0.5l-11.4,0.1c-0.6,0-0.8-0.3-0.8-0.9c0-0.4,0.1-0.7,0.3-1
		c0.2-0.3,0.4-0.5,0.7-0.5c2.3,0,6.1,0,11.3,0C54.8,21.7,55,22,55,22.6z M55,16.4c0,0.4-0.1,0.7-0.3,1c-0.2,0.3-0.4,0.5-0.6,0.6
		c-1.6,0.1-3,0.1-4.2,0.1L43,18.1c-0.6,0-0.9-0.3-0.9-0.9c0-0.3,0.1-0.6,0.3-0.9c0.2-0.3,0.5-0.5,0.7-0.5l6.8,0.1
		c1.2,0,2.7,0,4.3-0.1C54.8,15.8,55,16,55,16.4z"/>
	<path d="M78.5,16.3c0-0.1,0-0.3,0-0.5s0.1-0.4,0.4-0.7c0.3-0.2,0.6-0.4,0.9-0.4c0.3,0,0.6,0.1,0.8,0.3c0.3,0.2,0.4,0.4,0.4,0.6
		c0.2,2.4,0.4,4.3,0.4,5.7c0,1.4,0,2.5-0.1,3.2c-0.2,2.3-0.8,4-1.7,5.1c-1,1.1-2.5,1.6-4.6,1.6c-1.5,0-2.8-0.4-3.8-1.3
		c-1-0.9-1.7-2-2.1-3.4c-0.6-2.1-0.9-4.5-0.9-7.1c0-1.1,0.1-2.3,0.2-3.4c0-0.3,0.2-0.6,0.6-0.8c0.3-0.2,0.7-0.3,1-0.3
		c0.3,0,0.5,0.1,0.7,0.3c0.2,0.2,0.3,0.4,0.3,0.8c-0.1,1.2-0.2,2.4-0.2,3.4c0,1,0,1.9,0.1,2.7c0.1,1.9,0.6,3.6,1.3,4.9
		c0.7,1.4,1.7,2,2.9,2c2.6,0,3.9-2.2,3.9-6.7C79,19.7,78.8,17.7,78.5,16.3z"/>
	<path d="M88.8,14.8c1.7,0,3.1,0.4,4.2,1.1s1.6,1.8,1.6,3c0,2-0.6,3.4-1.8,4.4c-0.9,0.7-2.1,1-3.6,1c-0.6,0-1.2,0-1.9-0.1
		c0.1,1.4,0.1,2.6,0.1,3.7s0,2-0.1,2.7c0,0.6-0.4,0.8-1,0.8s-1.1-0.1-1.3-0.4c-0.2-0.3-0.3-0.7-0.3-1.2V16.3
		C84.7,15.3,86.1,14.8,88.8,14.8z M87.2,17.4c0,0.7-0.1,1.5-0.1,2.3s0,1.5,0,2c0.6,0.1,1.3,0.1,2.1,0.1s1.4-0.1,1.9-0.4
		c0.7-0.4,1-1.1,1-2.2c0-0.1,0-0.2,0-0.3c0-0.6-0.6-1.1-1.7-1.4c-0.6-0.2-1.2-0.3-1.7-0.3S87.7,17.3,87.2,17.4z"/>
	<path d="M97.9,32c0-0.1,0-0.3,0.1-0.5c1.6-3.7,3.3-7.9,5.1-12.8c1.8-4.8,3.6-9.1,5.1-12.9c0.3-0.6,0.8-0.9,1.5-0.9
		c0.3,0,0.5,0.1,0.7,0.3c0.2,0.2,0.3,0.4,0.3,0.7c0,0.3-0.3,1.1-0.9,2.5c-0.6,1.4-2,5-4.3,10.9c-2.3,5.9-4.1,10.2-5.3,13
		c-0.4,0.6-0.9,0.8-1.3,0.8C98.3,33,97.9,32.6,97.9,32z"/>
	<path d="M120.2,17l-0.1,8.5c0,1.8,0,3.3,0.1,4.7c0,0.4-0.1,0.7-0.5,0.9c-0.3,0.2-0.7,0.3-1,0.3c-0.6,0-0.9-0.3-0.9-1
		c-0.1-2.6-0.1-5.1-0.1-7.5c0-2.4,0.1-4.3,0.2-5.9c-1.4,0.1-2.9,0.2-4.4,0.2c-0.7,0-1.1-0.3-1.1-0.9c0-0.3,0.1-0.6,0.4-0.9
		c0.3-0.3,0.6-0.4,0.9-0.5l11.2-0.4c0.6,0.1,1,0.5,1,0.9c0,1-1.1,1.5-3.4,1.5L120.2,17z"/>
	<path d="M135.6,15c1.8,0,3.2,0.7,4.3,2.1c1.1,1.4,1.6,3.2,1.6,5.6s-0.6,4.4-1.8,6.2c-1.2,1.7-2.7,2.6-4.6,2.6c-2,0-3.7-0.9-4.9-2.6
		c-1.3-1.7-1.9-3.8-1.9-6.3s0.7-4.4,2-5.6C131.6,15.6,133.4,15,135.6,15z M138.9,23.1c0-1.9-0.3-3.3-0.8-4.2
		c-0.6-0.9-1.5-1.3-2.9-1.3c-1.4,0-2.5,0.4-3.2,1.3c-0.8,0.9-1.2,2.1-1.2,3.6c0,1.6,0.4,3,1.2,4.4c0.8,1.3,1.9,2,3.4,2
		c0.8,0,1.5-0.3,2.1-1C138.5,26.5,138.9,25,138.9,23.1z"/>
	<path d="M149.1,14.8c1.7,0,3.1,0.4,4.2,1.1s1.6,1.8,1.6,3c0,2-0.6,3.4-1.8,4.4c-0.9,0.7-2.1,1-3.6,1c-0.6,0-1.2,0-1.9-0.1
		c0.1,1.4,0.1,2.6,0.1,3.7s0,2-0.1,2.7c0,0.6-0.4,0.8-1,0.8s-1.1-0.1-1.3-0.4c-0.2-0.3-0.3-0.7-0.3-1.2V16.3
		C144.9,15.3,146.3,14.8,149.1,14.8z M147.4,17.4c0,0.7-0.1,1.5-0.1,2.3s0,1.5,0,2c0.6,0.1,1.3,0.1,2.1,0.1s1.4-0.1,1.9-0.4
		c0.7-0.4,1-1.1,1-2.2c0-0.1,0-0.2,0-0.3c0-0.6-0.6-1.1-1.7-1.4c-0.6-0.2-1.2-0.3-1.7-0.3S147.9,17.3,147.4,17.4z"/>
	<path d="M173.8,23.9h-4.5c0,2.2,0,4.2,0.1,6c0,1.1-0.4,1.7-1.1,1.7c-0.7,0-1.2-0.5-1.3-1.4c0-0.2-0.1-1.2-0.1-3v-5.7
		c0-2.1,0-3.4,0-4c-0.6-0.1-0.9-0.5-0.9-1.4c0-0.2,0.1-0.4,0.3-0.7c0.3-0.4,0.6-0.5,0.9-0.5c0.3,0,0.8,0,1.6,0.1
		c0.8,0.1,2.6,0.1,5.3,0.1c1.4,0,2.1,0.4,2.1,1.2c0,0.6-0.2,0.9-0.6,1c-0.1,0-0.2,0.1-0.3,0.1c0,0-0.2,0.1-0.3,0.1
		c-0.2,0-0.3,0-0.3,0c-0.1,0-0.4,0.1-0.8,0.1c-0.4,0-1.1,0-1.8,0c-0.8,0-1.7,0-2.8-0.1v3.9h4.7c0.2,0,0.4,0.1,0.6,0.4
		c0.2,0.2,0.3,0.5,0.3,0.8c0,0.3-0.1,0.6-0.3,0.9C174.5,23.7,174.2,23.9,173.8,23.9z"/>
	<path d="M181.4,30.5c-0.1,0.6-0.5,0.9-1.3,0.9c-0.8,0-1.1-0.3-1.1-0.9c0-1.4,0.7-4.3,2.1-8.6c0.6-2,1.3-3.6,2.1-5
		c0.8-1.3,1.5-2,2.2-2c0.4,0,0.7,0.2,1,0.7c0.3,0.5,0.8,1.5,1.6,3.1c0.8,1.6,1.4,3.3,1.9,5.1c0.5,1.8,1.1,4,1.7,6.6
		c0,0.3-0.1,0.6-0.3,0.7c-0.2,0.2-0.5,0.3-0.8,0.3c-0.8,0-1.2-0.3-1.4-1l-1.3-4.9c-2.1,0-3.8-0.2-5.1-0.5
		C181.9,27.6,181.5,29.5,181.4,30.5z M185.3,18.2c-0.8,1.3-1.4,2.8-1.9,4.5c1.1,0.3,2.3,0.4,3.7,0.4
		C186.7,21.4,186.1,19.8,185.3,18.2z"/>
	<path d="M206.2,17.9l-2.9-0.4c-3.9,0-5.8,1.9-5.8,5.8c0,2,0.6,3.5,1.8,4.7c0.6,0.6,1.2,0.9,1.8,0.9s1.7-0.3,3.3-0.8
		c1.6-0.6,2.4-0.8,2.5-0.8c0.6,0,1,0.3,1,0.9c0,0.5-0.3,0.9-0.8,1.3c-3,1.3-5.2,1.9-6.5,1.9c-0.8,0-1.6-0.3-2.4-0.8
		c-0.8-0.5-1.4-1.2-1.9-2.1c-0.9-1.7-1.4-3.4-1.4-5.3c0-2.5,0.8-4.6,2.3-6c1.5-1.5,3.5-2.2,5.9-2.2c1.4,0,2.8,0.2,4.1,0.7v0
		c0.4,0.3,0.6,0.6,0.6,0.9c0,0.3-0.2,0.6-0.5,0.9C206.8,17.8,206.5,17.9,206.2,17.9z"/>
	<path d="M213.9,23.3l0.1,4.7c0,0.6,0,1,0,1l6.2-0.1c0.7,0.1,1,0.4,1,0.9c0,1-0.5,1.5-1.4,1.5l-7.1,0.1c-0.4,0-0.8-0.1-1-0.5
		c-0.2-0.3-0.3-0.6-0.3-1c0-0.3,0-0.7,0-1.1v-6c-0.3-0.2-0.5-0.4-0.5-0.8c0-0.3,0.1-0.6,0.4-0.9c-0.1-1.9-0.1-3.6-0.1-5.1
		c0-0.9,0.5-1.3,1.6-1.4c0.3,0,0.6,0,1,0l6.3,0.1h0c0.8,0.1,1.2,0.5,1.2,1.1c0,0.5-0.1,0.8-0.4,1c-0.6,0.3-2.1,0.5-4.5,0.5
		c-0.9,0-1.8,0-2.7-0.1c0,2.2,0,3.4,0,3.6c0.9,0,2.8,0,5.5,0c0.7,0.1,1.1,0.4,1.1,1c0,0.3-0.1,0.6-0.4,0.8s-0.5,0.4-0.8,0.4
		c-0.3,0-0.9,0.1-1.8,0.1C216.6,23.4,215.4,23.4,213.9,23.3z"/>
</g>
<g>
	<path d="M16.8,103l0-2.8l0.3-15c0-0.3,0.2-0.5,0.5-0.7c0.3-0.2,0.7-0.3,1.2-0.3c1.2,0,1.7,0.4,1.7,1.2c0,0.3-0.1,2.3-0.4,6
		c-0.3,3.8-0.4,6-0.4,6.8v3.8c0,1.8,0.1,2.8,0.4,3c0.4,0.1,0.8,0.2,1.3,0.2l5.2-0.4c1.1,0,1.7,0.4,1.7,1.2c0,0.6-0.3,1.1-0.9,1.4
		c-0.6,0.3-1.2,0.5-1.8,0.5c-0.6,0-1.3,0.1-2.2,0.1c-3.8,0-5.8-0.1-6.1-0.4c-0.2-0.1-0.3-0.7-0.3-1.6c0-0.9,0-1.6-0.1-2
		C16.8,103.7,16.8,103.3,16.8,103z"/>
	<path d="M54.6,99.1c0,0.3-0.1,0.6-0.3,0.9c-0.2,0.3-0.4,0.5-0.7,0.5l-11.4,0.1c-0.6,0-0.8-0.3-0.8-0.9c0-0.4,0.1-0.7,0.3-1
		c0.2-0.3,0.4-0.5,0.7-0.5c2.3,0,6.1,0,11.3,0C54.3,98.3,54.6,98.6,54.6,99.1z M54.6,93c0,0.4-0.1,0.7-0.3,1
		c-0.2,0.3-0.4,0.5-0.6,0.6c-1.6,0.1-3,0.1-4.2,0.1l-6.8-0.1c-0.6,0-0.9-0.3-0.9-0.9c0-0.3,0.1-0.6,0.3-0.9c0.2-0.3,0.5-0.5,0.7-0.5
		l6.8,0.1c1.2,0,2.7,0,4.3-0.1C54.4,92.4,54.6,92.6,54.6,93z"/>
	<path d="M72.1,108.1l-3.4,0c-0.6,0-0.9-0.2-1-0.5c-0.1-1-0.2-2.6-0.2-4.7l0.3-10.4c0-0.6,0.5-0.9,1.4-0.9c0.5,0,0.8,0.1,1.1,0.3
		c0.3,0.2,0.4,0.5,0.4,0.9c0,1-0.2,2.4-0.4,4.2c-0.3,2.3-0.4,4-0.4,5.1c0,1.1,0,2.3,0.1,3.8l5.3-0.3c0.8,0,1.2,0.4,1.2,1.2
		c0,0.7-0.3,1.1-0.8,1.2C74.6,108,73.4,108.1,72.1,108.1z"/>
	<path d="M81.6,99.9l0.1,4.7c0,0.6,0,1,0,1l6.2-0.1c0.7,0.1,1,0.4,1,0.9c0,1-0.5,1.5-1.4,1.5l-7.1,0.1c-0.4,0-0.8-0.1-1-0.5
		c-0.2-0.3-0.3-0.6-0.3-1c0-0.3,0-0.7,0-1.1v-6c-0.3-0.2-0.5-0.4-0.5-0.8c0-0.3,0.1-0.6,0.4-0.9c-0.1-1.9-0.1-3.6-0.1-5.1
		c0-0.9,0.5-1.3,1.6-1.4c0.3,0,0.6,0,1,0l6.3,0.1h0c0.8,0.1,1.2,0.5,1.2,1.1c0,0.5-0.1,0.8-0.4,1c-0.6,0.3-2.1,0.5-4.5,0.5
		c-0.9,0-1.8,0-2.7-0.1c0,2.2,0,3.4,0,3.6c0.9,0,2.8,0,5.5,0c0.7,0.1,1.1,0.4,1.1,1c0,0.3-0.1,0.6-0.4,0.8c-0.2,0.3-0.5,0.4-0.8,0.4
		c-0.3,0-0.9,0.1-1.8,0.1S83.1,100,81.6,99.9z"/>
	<path d="M99.8,100.4h-4.5c0,2.2,0,4.2,0.1,6c0,1.1-0.4,1.7-1.1,1.7c-0.7,0-1.2-0.5-1.3-1.4c0-0.2-0.1-1.2-0.1-3v-5.7
		c0-2.1,0-3.4,0-4C92.3,94,92,93.5,92,92.7c0-0.2,0.1-0.4,0.3-0.7c0.3-0.4,0.6-0.5,0.9-0.5c0.3,0,0.8,0,1.6,0.1
		c0.8,0.1,2.6,0.1,5.3,0.1c1.4,0,2.1,0.4,2.1,1.2c0,0.6-0.2,0.9-0.6,1c-0.1,0-0.2,0.1-0.3,0.1c0,0-0.2,0.1-0.3,0.1
		c-0.2,0-0.3,0-0.3,0c-0.1,0-0.4,0.1-0.8,0.1c-0.4,0-1.1,0-1.8,0c-0.8,0-1.7,0-2.8-0.1V98h4.7c0.2,0,0.4,0.1,0.6,0.4
		c0.2,0.2,0.3,0.5,0.3,0.8c0,0.3-0.1,0.6-0.3,0.9C100.5,100.3,100.2,100.4,99.8,100.4z"/>
	<path d="M112.1,93.6l-0.1,8.5c0,1.8,0,3.3,0.1,4.7c0,0.4-0.1,0.7-0.5,0.9c-0.3,0.2-0.7,0.3-1,0.3c-0.6,0-0.9-0.3-0.9-1
		c-0.1-2.6-0.1-5.1-0.1-7.5c0-2.4,0.1-4.3,0.2-5.9c-1.4,0.1-2.9,0.2-4.4,0.2c-0.7,0-1.1-0.3-1.1-0.9c0-0.3,0.1-0.6,0.4-0.9
		c0.3-0.3,0.6-0.4,0.9-0.5l11.2-0.4c0.6,0.1,1,0.5,1,0.9c0,1-1.1,1.5-3.4,1.5L112.1,93.6z"/>
	<path d="M136.2,100.4h-4.5c0,2.2,0,4.2,0.1,6c0,1.1-0.4,1.7-1.1,1.7c-0.7,0-1.2-0.5-1.3-1.4c0-0.2-0.1-1.2-0.1-3v-5.7
		c0-2.1,0-3.4,0-4c-0.6-0.1-0.9-0.5-0.9-1.4c0-0.2,0.1-0.4,0.3-0.7c0.3-0.4,0.6-0.5,0.9-0.5c0.3,0,0.8,0,1.6,0.1
		c0.8,0.1,2.6,0.1,5.3,0.1c1.4,0,2.1,0.4,2.1,1.2c0,0.6-0.2,0.9-0.6,1c-0.1,0-0.2,0.1-0.3,0.1c0,0-0.2,0.1-0.3,0.1
		c-0.2,0-0.3,0-0.3,0c-0.1,0-0.4,0.1-0.8,0.1c-0.4,0-1.1,0-1.8,0c-0.8,0-1.7,0-2.8-0.1V98h4.7c0.2,0,0.4,0.1,0.6,0.4
		c0.2,0.2,0.3,0.5,0.3,0.8c0,0.3-0.1,0.6-0.3,0.9C136.8,100.3,136.6,100.4,136.2,100.4z"/>
	<path d="M143.8,107.1c-0.1,0.6-0.5,0.9-1.3,0.9c-0.8,0-1.1-0.3-1.1-0.9c0-1.4,0.7-4.3,2.1-8.6c0.6-2,1.3-3.6,2.1-5
		c0.8-1.3,1.5-2,2.2-2c0.4,0,0.7,0.2,1,0.7c0.3,0.5,0.8,1.5,1.6,3.1c0.8,1.6,1.4,3.3,1.9,5.1c0.5,1.8,1.1,4,1.7,6.6
		c0,0.3-0.1,0.6-0.3,0.7s-0.5,0.3-0.8,0.3c-0.8,0-1.2-0.3-1.4-1l-1.3-4.9c-2.1,0-3.8-0.2-5.1-0.5
		C144.3,104.2,143.9,106.1,143.8,107.1z M147.7,94.7c-0.8,1.3-1.4,2.8-1.9,4.5c1.1,0.3,2.3,0.4,3.7,0.4
		C149,98,148.4,96.4,147.7,94.7z"/>
	<path d="M168.5,94.5l-2.9-0.4c-3.9,0-5.8,1.9-5.8,5.8c0,2,0.6,3.5,1.8,4.7c0.6,0.6,1.2,0.9,1.8,0.9c0.6,0,1.7-0.3,3.3-0.8
		c1.6-0.6,2.4-0.8,2.5-0.8c0.6,0,1,0.3,1,0.9c0,0.5-0.3,0.9-0.8,1.3c-3,1.3-5.2,1.9-6.5,1.9c-0.8,0-1.6-0.3-2.4-0.8
		c-0.8-0.5-1.4-1.2-1.9-2.1c-0.9-1.7-1.4-3.4-1.4-5.3c0-2.5,0.8-4.6,2.3-6c1.5-1.5,3.5-2.2,5.9-2.2c1.4,0,2.8,0.2,4.1,0.7v0
		c0.4,0.3,0.6,0.6,0.6,0.9c0,0.3-0.2,0.6-0.5,0.9C169.2,94.4,168.9,94.5,168.5,94.5z"/>
	<path d="M176.2,99.9l0.1,4.7c0,0.6,0,1,0,1l6.2-0.1c0.7,0.1,1,0.4,1,0.9c0,1-0.5,1.5-1.4,1.5l-7.1,0.1c-0.4,0-0.8-0.1-1-0.5
		c-0.2-0.3-0.3-0.6-0.3-1c0-0.3,0-0.7,0-1.1v-6c-0.3-0.2-0.5-0.4-0.5-0.8c0-0.3,0.1-0.6,0.4-0.9c-0.1-1.9-0.1-3.6-0.1-5.1
		c0-0.9,0.5-1.3,1.6-1.4c0.3,0,0.6,0,1,0l6.3,0.1h0c0.8,0.1,1.2,0.5,1.2,1.1c0,0.5-0.1,0.8-0.4,1c-0.6,0.3-2.1,0.5-4.5,0.5
		c-0.9,0-1.8,0-2.7-0.1c0,2.2,0,3.4,0,3.6c0.9,0,2.8,0,5.5,0c0.7,0.1,1.1,0.4,1.1,1c0,0.3-0.1,0.6-0.4,0.8c-0.2,0.3-0.5,0.4-0.8,0.4
		c-0.3,0-0.9,0.1-1.8,0.1S177.7,100,176.2,99.9z"/>
</g>
<g>
	<path d="M16.6,145.9c-0.4,0.3-0.8,0.5-1.2,0.5c-0.4,0-0.8-0.3-0.9-0.9c-0.1-3.2-0.1-6.3-0.1-9.5l-0.1-9.1c0-1.8,0.8-3.1,2.4-3.7
		c1.3-0.6,2.8-0.9,4.6-0.9c0.9,0,1.9,0.2,2.9,0.7c1,0.4,2,1.1,2.8,1.9c0.8,0.9,1.2,1.8,1.2,2.8c0,1-0.5,2.1-1.4,3.2
		c-0.9,1.1-2,2.1-3.4,3c-1.3,0.9-2.7,1.5-3.9,2c2.2,1.6,4.2,3.2,5.8,5c1.7,1.8,2.5,3.2,2.5,4.2c0,0.3-0.2,0.6-0.5,0.9
		c-0.3,0.3-0.7,0.4-1.1,0.4c-0.4,0-0.8-0.2-1.1-0.6c-0.5-1.3-1.5-2.6-3-4c-1.5-1.4-3.2-2.7-5.2-4l0.2,6.9
		C17.2,145.2,17,145.6,16.6,145.9z M22.4,132c2-1.3,3-2.4,3-3.4s-0.5-1.8-1.5-2.4c-1-0.6-2.2-0.8-3.6-0.8c-1.4,0-2.5,0.2-3.3,0.5
		c0,1.2,0,3.9,0,8.1C18.6,133.9,20.4,133.2,22.4,132z"/>
	<path d="M54.6,137.4c0,0.3-0.1,0.6-0.3,0.9c-0.2,0.3-0.4,0.5-0.7,0.5L42.3,139c-0.6,0-0.8-0.3-0.8-0.9c0-0.4,0.1-0.7,0.3-1
		c0.2-0.3,0.4-0.5,0.7-0.5c2.3,0,6.1,0,11.3,0C54.3,136.6,54.6,136.9,54.6,137.4z M54.6,131.3c0,0.4-0.1,0.7-0.3,1
		c-0.2,0.3-0.4,0.5-0.6,0.6c-1.6,0.1-3,0.1-4.2,0.1l-6.8-0.1c-0.6,0-0.9-0.3-0.9-0.9c0-0.3,0.1-0.6,0.3-0.9c0.2-0.3,0.5-0.5,0.7-0.5
		l6.8,0.1c1.2,0,2.7,0,4.3-0.1C54.3,130.7,54.6,130.9,54.6,131.3z"/>
	<path d="M70.5,145c0,0.4-0.2,0.7-0.5,0.9c-0.3,0.3-0.7,0.4-1.1,0.4c-0.5,0-0.8-0.2-0.8-0.7C68,144.5,68,140,68,132.2
		c0-0.8,0.5-1.4,1.4-1.8c0.9-0.4,2.2-0.6,3.7-0.6c1.5,0,2.9,0.4,4.1,1.2c1.2,0.8,1.7,1.7,1.7,2.8c0,0.5-0.2,1.1-0.7,1.8
		c-0.5,0.6-0.9,1.2-1.5,1.5c-0.5,0.4-1.3,0.8-2.2,1.4c-1,0.5-1.5,0.8-1.8,0.9c1.5,1,2.9,2,4,3.1c1.2,1.1,1.8,2,1.8,2.7
		s-0.3,1.1-0.9,1.3c-0.2,0-0.4,0.1-0.6,0.1s-0.6-0.3-1-0.8c-0.4-0.5-1.2-1.3-2.3-2.2c-1.1-1-2.2-1.8-3.3-2.6
		C70.4,142.6,70.5,144,70.5,145L70.5,145z M70.4,137.5c0.8,0,2-0.4,3.6-1.2c1.6-0.8,2.4-1.5,2.5-2.2c0-0.6-0.4-1.1-1.1-1.5
		c-0.7-0.3-1.5-0.5-2.3-0.5c-0.9,0-1.8,0.1-2.7,0.3C70.4,133.7,70.4,135.3,70.4,137.5z"/>
	<path d="M83,146.3c-0.7,0-1-0.3-1-0.9l0.1-14.7c0-0.3,0.1-0.6,0.4-0.8c0.2-0.2,0.5-0.3,0.9-0.3c0.3,0,0.6,0.1,0.9,0.3
		s0.4,0.4,0.4,0.8c0,0.4,0,1.3,0,2.6c0,6.4,0,10.3-0.1,11.7c0,0.3-0.2,0.6-0.6,0.8C83.7,146.2,83.3,146.3,83,146.3z"/>
	<path d="M95.6,129.7c1,0,1.9,0.2,2.8,0.6c0.9,0.4,1.3,1,1.3,1.6c0,0.3-0.1,0.6-0.4,0.9c-0.3,0.2-0.6,0.4-0.9,0.4s-0.8-0.1-1.2-0.4
		c-0.5-0.3-1.1-0.4-1.8-0.4c-1.5,0-2.8,0.6-3.7,1.9c-1,1.3-1.4,2.7-1.4,4.2c0,1.5,0.3,2.8,1,3.9c0.7,1.1,1.5,1.6,2.3,1.6
		c0.9,0,1.6-0.2,2.2-0.7c0.6-0.5,0.8-1.1,0.8-1.8c0-1.2-0.2-1.9-0.7-1.9c-1,0-1.7-0.1-2.1-0.2c-0.4-0.1-0.6-0.4-0.6-0.9
		c0-0.9,0.4-1.3,1.2-1.4c0.3,0,0.8,0,1.3,0s1.1,0.1,1.6,0.3c0.8,0.3,1.2,0.7,1.4,1.4c0.4,1.5,0.5,2.9,0.5,4.2c0,0.1,0,0.4,0,0.8
		c0,0.4,0,0.7,0,1c0,0.3,0,0.5-0.1,0.9c-0.1,0.3-0.2,0.5-0.3,0.7c-0.2,0.1-0.4,0.2-0.8,0.2c-0.4,0-0.7-0.1-0.8-0.2
		c-0.2-0.2-0.3-0.4-0.4-0.8c-1.1,0.7-2.3,1.1-3.4,1.1c-1.1,0-2.2-0.4-3.1-1.2c-0.9-0.8-1.6-1.8-2.1-3c-0.5-1.2-0.7-2.4-0.7-3.6
		c0-2.7,0.8-4.8,2.3-6.4C91.4,130.5,93.3,129.7,95.6,129.7z"/>
	<path d="M113.4,139l0,5.3c0,1.3-0.4,2-1.3,2c-0.4,0-0.7-0.1-0.9-0.3c-0.2-0.2-0.3-0.4-0.3-0.8c0.1-1.3,0.1-3.3,0.1-6.1
		c-0.4,0-1,0.1-1.9,0.1c-0.9,0-2.2-0.1-4-0.3v0.8c0,0.5,0.1,2.3,0.3,5.5c0,0.4-0.1,0.7-0.4,0.8c-0.3,0.2-0.6,0.3-0.9,0.3
		c-0.3,0-0.6-0.1-0.7-0.3c-0.2-0.2-0.3-0.4-0.3-0.6c-0.3-2.5-0.4-4.4-0.4-5.7c0-1.3,0-2.2,0-2.6l0.1-6c0-0.3,0.2-0.5,0.5-0.7
		c0.3-0.2,0.6-0.3,1-0.3c0.6,0,0.9,0.3,0.9,0.8l-0.1,5.7c1.2,0.2,2.2,0.3,3.1,0.3c0.9,0,1.4,0,1.6,0h1.1c-0.1-1.3-0.1-3.3-0.1-6
		c0-0.3,0.2-0.6,0.5-0.8c0.3-0.2,0.7-0.3,1-0.3c0.4,0,0.6,0.2,0.8,0.5c0.1,0.3,0.2,0.7,0.2,1V139z"/>
	<path d="M123.6,131.9l-0.1,8.5c0,1.8,0,3.3,0.1,4.7c0,0.4-0.1,0.7-0.5,0.9c-0.3,0.2-0.7,0.3-1,0.3c-0.6,0-0.9-0.3-0.9-1
		c-0.1-2.6-0.1-5.1-0.1-7.5c0-2.4,0.1-4.3,0.2-5.9c-1.4,0.1-2.9,0.2-4.4,0.2c-0.7,0-1.1-0.3-1.1-0.9c0-0.3,0.1-0.6,0.4-0.9
		c0.3-0.3,0.6-0.4,0.9-0.5l11.2-0.4c0.6,0.1,1,0.5,1,0.9c0,1-1.1,1.5-3.4,1.5L123.6,131.9z"/>
	<path d="M147.7,138.7h-4.5c0,2.2,0,4.2,0.1,6c0,1.1-0.4,1.7-1.1,1.7c-0.7,0-1.2-0.5-1.3-1.4c0-0.2-0.1-1.2-0.1-3v-5.7
		c0-2.1,0-3.4,0-4c-0.6-0.1-0.9-0.5-0.9-1.4c0-0.2,0.1-0.4,0.3-0.7c0.3-0.4,0.6-0.5,0.9-0.5c0.3,0,0.8,0,1.6,0.1
		c0.8,0.1,2.6,0.1,5.3,0.1c1.4,0,2.1,0.4,2.1,1.2c0,0.6-0.2,0.9-0.6,1c-0.1,0-0.2,0.1-0.3,0.1c0,0-0.2,0.1-0.3,0.1
		c-0.2,0-0.3,0-0.3,0c-0.1,0-0.4,0.1-0.8,0.1c-0.4,0-1.1,0-1.8,0c-0.8,0-1.7,0-2.8-0.1v3.9h4.7c0.2,0,0.4,0.1,0.6,0.4
		c0.2,0.2,0.3,0.5,0.3,0.8c0,0.3-0.1,0.6-0.3,0.9C148.3,138.6,148.1,138.7,147.7,138.7z"/>
	<path d="M155.3,145.4c-0.1,0.6-0.5,0.9-1.3,0.9c-0.8,0-1.1-0.3-1.1-0.9c0-1.4,0.7-4.3,2.1-8.6c0.6-2,1.3-3.6,2.1-5
		c0.8-1.3,1.5-2,2.2-2c0.4,0,0.7,0.2,1,0.7c0.3,0.5,0.8,1.5,1.6,3.1c0.8,1.6,1.4,3.3,1.9,5.1c0.5,1.8,1.1,4,1.7,6.6
		c0,0.3-0.1,0.6-0.3,0.7s-0.5,0.3-0.8,0.3c-0.8,0-1.2-0.3-1.4-1l-1.3-4.9c-2.1,0-3.8-0.2-5.1-0.5
		C155.8,142.5,155.4,144.3,155.3,145.4z M159.2,133c-0.8,1.3-1.4,2.8-1.9,4.5c1.1,0.3,2.3,0.4,3.7,0.4
		C160.5,136.3,159.9,134.7,159.2,133z"/>
	<path d="M180,132.8l-2.9-0.4c-3.9,0-5.8,1.9-5.8,5.8c0,2,0.6,3.5,1.8,4.7c0.6,0.6,1.2,0.9,1.8,0.9c0.6,0,1.7-0.3,3.3-0.8
		c1.6-0.6,2.4-0.8,2.5-0.8c0.6,0,1,0.3,1,0.9c0,0.5-0.3,0.9-0.8,1.3c-3,1.3-5.2,1.9-6.5,1.9c-0.8,0-1.6-0.3-2.4-0.8
		c-0.8-0.5-1.4-1.2-1.9-2.1c-0.9-1.7-1.4-3.4-1.4-5.3c0-2.5,0.8-4.6,2.3-6c1.5-1.5,3.5-2.2,5.9-2.2c1.4,0,2.8,0.2,4.1,0.7v0
		c0.4,0.3,0.6,0.6,0.6,0.9c0,0.3-0.2,0.6-0.5,0.9C180.7,132.6,180.4,132.8,180,132.8z"/>
	<path d="M187.7,138.2l0.1,4.7c0,0.6,0,1,0,1l6.2-0.1c0.7,0.1,1,0.4,1,0.9c0,1-0.5,1.5-1.4,1.5l-7.1,0.1c-0.4,0-0.8-0.1-1-0.5
		c-0.2-0.3-0.3-0.6-0.3-1c0-0.3,0-0.7,0-1.1v-6c-0.3-0.2-0.5-0.4-0.5-0.8c0-0.3,0.1-0.6,0.4-0.9c-0.1-1.9-0.1-3.6-0.1-5.1
		c0-0.9,0.5-1.3,1.6-1.4c0.3,0,0.6,0,1,0l6.3,0.1h0c0.8,0.1,1.2,0.5,1.2,1.1c0,0.5-0.1,0.8-0.4,1c-0.6,0.3-2.1,0.5-4.5,0.5
		c-0.9,0-1.8,0-2.7-0.1c0,2.2,0,3.4,0,3.6c0.9,0,2.8,0,5.5,0c0.7,0.1,1.1,0.4,1.1,1c0,0.3-0.1,0.6-0.4,0.8s-0.5,0.4-0.8,0.4
		c-0.3,0-0.9,0.1-1.8,0.1C190.5,138.3,189.2,138.2,187.7,138.2z"/>
</g>
<g>
	<path d="M15,183.5c-0.4-0.3-0.5-0.6-0.5-0.9c0-0.3,0.1-0.6,0.4-0.8c-0.5-3.4-0.7-7.4-0.7-11.8c0-1.3,0.1-4,0.2-7.8
		c0.1-0.4,0.4-0.7,0.7-0.9c0.4-0.3,0.7-0.4,1.1-0.4c0.3,0,0.5,0,0.6,0c3.4,1,6.4,2.8,9,5.6c2.5,2.7,3.9,6,4,9.9c0,4.2-1.8,6.9-5.3,8
		c-1,0.3-2.1,0.5-3.2,0.5c-1.1,0-2.1-0.1-2.9-0.3c0.1,0.2,0.1,0.5,0.1,0.8c0,0.3-0.2,0.6-0.6,0.9c-0.4,0.3-0.9,0.5-1.4,0.5
		s-0.9-0.3-1-1L15,183.5z M17.2,169.7c0,4.2,0.2,8.2,0.7,12c0.6,0.2,1.5,0.3,2.9,0.3s2.7-0.2,3.9-0.7c1.3-0.5,1.9-1.1,2-2
		c0.1-0.7,0.1-1.2,0.1-1.5c0-3.1-0.8-5.9-2.5-8.3c-1.7-2.4-4-4.2-7-5.5C17.2,166.7,17.2,168.6,17.2,169.7z"/>
	<path d="M55.3,175.7c0,0.3-0.1,0.6-0.3,0.9c-0.2,0.3-0.4,0.5-0.7,0.5L43,177.3c-0.6,0-0.8-0.3-0.8-0.9c0-0.4,0.1-0.7,0.3-1
		c0.2-0.3,0.4-0.5,0.7-0.5c2.3,0,6.1,0,11.3,0C55.1,174.8,55.3,175.1,55.3,175.7z M55.3,169.6c0,0.4-0.1,0.7-0.3,1
		c-0.2,0.3-0.4,0.5-0.6,0.6c-1.6,0.1-3,0.1-4.2,0.1l-6.8-0.1c-0.6,0-0.9-0.3-0.9-0.9c0-0.3,0.1-0.6,0.3-0.9c0.2-0.3,0.5-0.5,0.7-0.5
		l6.8,0.1c1.2,0,2.7,0,4.3-0.1C55.1,169,55.3,169.2,55.3,169.6z"/>
	<path d="M69.5,183.7c-0.3-0.2-0.5-0.5-0.5-0.7s0.1-0.5,0.3-0.7c-0.2-1.8-0.4-4-0.5-6.4c-0.1-2.4-0.1-3.8-0.1-4.1c0-0.3,0-0.7,0-1
		c0-0.4,0.1-0.8,0.2-1.2c0.2-0.9,0.7-1.4,1.7-1.4c2.5,0,4.9,1.1,7.1,3.3c2.3,2.2,3.4,4.7,3.4,7.3c0,2-0.6,3.5-1.8,4.4
		c-1.2,1-2.9,1.5-5,1.5c-0.4,0-1,0-1.7-0.1c0,0.4-0.2,0.7-0.5,1c-0.3,0.3-0.7,0.4-1.1,0.4c-0.6,0-1-0.3-1.1-0.9L69.5,183.7z
		 M71.3,170.7c0,0.3,0,0.7,0,1.4s0.1,2.1,0.2,4.3c0.1,2.2,0.3,4.1,0.5,5.7c0.2,0,0.9,0.1,2.2,0.1c2.8,0,4.2-0.8,4.2-2.4
		c0-2-0.6-3.8-1.9-5.4C75.2,172.8,73.5,171.6,71.3,170.7z"/>
	<path d="M91.5,168.2c1.8,0,3.2,0.7,4.3,2.1c1.1,1.4,1.6,3.2,1.6,5.6s-0.6,4.4-1.8,6.2c-1.2,1.7-2.7,2.6-4.6,2.6
		c-2,0-3.7-0.9-4.9-2.6c-1.3-1.7-1.9-3.8-1.9-6.3s0.7-4.4,2-5.6C87.5,168.8,89.3,168.2,91.5,168.2z M94.9,176.2
		c0-1.9-0.3-3.3-0.8-4.2c-0.6-0.9-1.5-1.3-2.9-1.3c-1.4,0-2.5,0.4-3.2,1.3c-0.8,0.9-1.2,2.1-1.2,3.6c0,1.6,0.4,3,1.2,4.4
		c0.8,1.3,1.9,2,3.4,2c0.8,0,1.5-0.3,2.1-1C94.4,179.7,94.9,178.1,94.9,176.2z"/>
	<path d="M100.1,169.7c0-0.4,0.1-0.8,0.4-1.1c0.3-0.3,0.6-0.5,1.1-0.5c0.5,0,0.8,0.3,1,1c0.1,0.8,0.3,2.5,0.6,5.1
		c0.3,2.6,0.6,4.7,0.8,6.1c0.4-0.7,0.8-1.6,1.2-2.5c0.4-0.9,0.7-1.6,0.9-2c0.6-1.2,1.2-1.7,1.9-1.7c0.5,0,1,0.6,1.5,1.8
		c1.3,2.8,2.1,4.3,2.2,4.5c0.9-4.3,1.6-8.1,2-11.6c0-0.3,0.2-0.6,0.5-0.8c0.3-0.3,0.6-0.4,0.9-0.4s0.5,0.1,0.7,0.2
		c0.2,0.2,0.3,0.4,0.3,0.6c0,1.3-0.9,6.3-2.7,15c-0.1,0.6-0.6,0.9-1.5,0.9c-0.4,0-0.7-0.2-1-0.6c-0.5-0.8-1-1.9-1.7-3.3
		c-0.7-1.4-1.2-2.4-1.5-2.9c-1,2.4-1.9,4.2-2.5,5.3s-1.4,1.6-2.1,1.6c-0.4,0-0.8-0.4-1.1-1.2c-0.3-0.8-0.5-1.5-0.6-2.1
		C101.5,180.7,101,176.9,100.1,169.7z"/>
	<path d="M121.3,173.4l-0.4,8.7c0,0.8,0,1.3-0.1,1.5c-0.1,0.6-0.5,1-1.3,1c-0.3,0-0.5-0.1-0.8-0.3c-0.2-0.2-0.4-0.5-0.4-0.8
		c0.2-6.2,0.3-9.6,0.3-10.1c0-0.5,0-1,0-1.6c0-0.6,0.1-1.1,0.2-1.6c0.2-0.6,0.6-1,1.3-1c0.3,0,0.8,0.2,1.3,0.7
		c0.5,0.5,1.2,1.3,2.2,2.5c2.3,2.8,4,5.5,5.2,8c0-3.4-0.1-6-0.3-7.8c-0.1-1.8-0.2-2.8-0.2-2.9c0-0.2,0-0.3,0-0.3
		c0.2-0.9,0.7-1.4,1.5-1.4c0.3,0,0.6,0.1,0.9,0.4c0.3,0.3,0.4,0.6,0.4,1l0.2,13.4c0,1.2-0.5,1.9-1.5,1.9c-0.6,0-1.1-0.2-1.4-0.6
		c-0.3-0.4-0.6-0.8-0.7-1c-0.1-0.2-0.4-0.6-0.6-1.2C125.2,178.5,123.3,175.6,121.3,173.4z"/>
	<path d="M134.6,185.1c0-0.1,0-0.3,0.1-0.5c1.6-3.7,3.3-7.9,5.1-12.8c1.8-4.8,3.6-9.1,5.1-12.9c0.3-0.6,0.8-0.9,1.5-0.9
		c0.3,0,0.5,0.1,0.7,0.3c0.2,0.2,0.3,0.4,0.3,0.7c0,0.3-0.3,1.1-0.9,2.5c-0.6,1.4-2,5-4.3,10.9c-2.3,5.9-4.1,10.2-5.3,13
		c-0.4,0.6-0.9,0.8-1.3,0.8C134.9,186.2,134.6,185.8,134.6,185.1z"/>
	<path d="M150.5,169.3c0.5-0.9,1.6-1.3,3.2-1.3c1.6,0,3,0.4,4,1.2c1,0.8,1.6,1.8,1.6,3.1c0,1.3-0.4,2.3-1.1,3.1
		c0.8,0.2,1.5,0.7,2.1,1.6c0.6,0.9,0.8,1.7,0.8,2.7c0,1.5-0.5,2.8-1.6,3.9c-0.8,0.8-4,1.2-9.6,1.2c0-0.1,0-0.6,0-1.5
		c-0.1-2.7-0.1-5.8-0.1-9.2C149.7,171.7,149.9,170.2,150.5,169.3z M155.9,177c-1.1,0-2.3,0.1-3.7,0.3c0,0.5,0,1.2,0,2
		c0,0.9,0.1,1.9,0.2,3.1c0.2,0,0.5,0,1,0c0.5,0,1.2-0.1,2.2-0.2c2.2-0.4,3.3-1.3,3.3-2.7C158.9,177.8,157.9,177,155.9,177z
		 M152.2,172v3.1c1.3,0,2.5-0.2,3.4-0.7c1-0.4,1.5-1.2,1.5-2.2c0-0.6-0.3-1-0.9-1.4c-0.6-0.4-1.3-0.6-2.1-0.6s-1.3,0.1-1.6,0.4
		C152.3,170.9,152.2,171.4,152.2,172z"/>
	<path d="M171.2,168.2c1.8,0,3.2,0.7,4.3,2.1c1.1,1.4,1.6,3.2,1.6,5.6s-0.6,4.4-1.8,6.2c-1.2,1.7-2.7,2.6-4.6,2.6
		c-2,0-3.7-0.9-4.9-2.6c-1.3-1.7-1.9-3.8-1.9-6.3s0.7-4.4,2-5.6C167.2,168.8,169,168.2,171.2,168.2z M174.5,176.2
		c0-1.9-0.3-3.3-0.8-4.2c-0.6-0.9-1.5-1.3-2.9-1.3c-1.4,0-2.5,0.4-3.2,1.3c-0.8,0.9-1.2,2.1-1.2,3.6c0,1.6,0.4,3,1.2,4.4
		c0.8,1.3,1.9,2,3.4,2c0.8,0,1.5-0.3,2.1-1C174,179.7,174.5,178.1,174.5,176.2z"/>
	<path d="M187.5,170.2l-0.1,8.5c0,1.8,0,3.3,0.1,4.7c0,0.4-0.1,0.7-0.4,0.9c-0.3,0.2-0.7,0.3-1,0.3c-0.6,0-0.9-0.3-0.9-1
		c-0.1-2.6-0.1-5.1-0.1-7.5c0-2.4,0.1-4.3,0.2-5.9c-1.4,0.1-2.9,0.2-4.4,0.2c-0.7,0-1.1-0.3-1.1-0.9c0-0.3,0.1-0.6,0.4-0.9
		c0.3-0.3,0.6-0.4,0.9-0.5l11.2-0.4c0.6,0.1,1,0.5,1,0.9c0,1-1.1,1.5-3.4,1.5L187.5,170.2z"/>
	<path d="M203,170.2l-0.1,8.5c0,1.8,0,3.3,0.1,4.7c0,0.4-0.1,0.7-0.4,0.9c-0.3,0.2-0.7,0.3-1,0.3c-0.6,0-0.9-0.3-0.9-1
		c-0.1-2.6-0.1-5.1-0.1-7.5c0-2.4,0.1-4.3,0.2-5.9c-1.4,0.1-2.9,0.2-4.4,0.2c-0.7,0-1.1-0.3-1.1-0.9c0-0.3,0.1-0.6,0.4-0.9
		c0.3-0.3,0.6-0.4,0.9-0.5l11.2-0.4c0.6,0.1,1,0.5,1,0.9c0,1-1.1,1.5-3.4,1.5L203,170.2z"/>
	<path d="M218.3,168.2c1.8,0,3.2,0.7,4.3,2.1c1.1,1.4,1.6,3.2,1.6,5.6s-0.6,4.4-1.8,6.2s-2.7,2.6-4.6,2.6c-2,0-3.7-0.9-4.9-2.6
		c-1.3-1.7-1.9-3.8-1.9-6.3s0.7-4.4,2-5.6C214.4,168.8,216.1,168.2,218.3,168.2z M221.7,176.2c0-1.9-0.3-3.3-0.8-4.2
		c-0.6-0.9-1.5-1.3-2.9-1.3s-2.5,0.4-3.2,1.3c-0.8,0.9-1.2,2.1-1.2,3.6c0,1.6,0.4,3,1.2,4.4c0.8,1.3,1.9,2,3.4,2
		c0.8,0,1.5-0.3,2.1-1C221.2,179.7,221.7,178.1,221.7,176.2z"/>
	<path d="M240.9,167.2c0.7,0,1,0.3,1,1c0.1,4.3,0.1,9.3,0.1,14.9c0,0.4-0.1,0.7-0.4,1c-0.3,0.3-0.7,0.5-1.3,0.5
		c-0.6,0-0.9-0.4-0.9-1.2c0-2.5,0-4.4-0.1-5.7c0-1.2-0.1-2.6-0.1-4c-0.9,1.1-1.7,1.8-2.6,2.3s-1.9,0.6-3.3,0.6s-2.4-0.4-3.2-1.1
		c0,4.3,0,6.8-0.1,7.6c0,1-0.6,1.5-1.7,1.5c-0.6,0-1-0.3-1-1l0.1-6.7c0-2.2,0-3.9,0-5.1v-2c0-0.3,0.1-0.7,0.4-1
		c0.3-0.3,0.6-0.5,0.9-0.5c0.3,0,0.7,0.1,0.9,0.2c0.3,0.2,0.4,0.4,0.5,0.7c0,1.2,0.4,2.3,1.1,3.3c0.7,1,1.4,1.4,2.3,1.4
		c2.4,0,4.1-1.3,5-3.9c0-0.1,0.1-0.4,0.3-0.9c0.2-0.5,0.3-0.9,0.4-1c0.1-0.2,0.3-0.4,0.6-0.6C240.2,167.3,240.5,167.2,240.9,167.2z"
		/>
	<path d="M260.5,177H256c0,2.2,0,4.2,0.1,6c0,1.1-0.4,1.7-1.1,1.7c-0.7,0-1.2-0.5-1.3-1.4c0-0.2-0.1-1.2-0.1-3v-5.7c0-2.1,0-3.4,0-4
		c-0.6-0.1-0.9-0.5-0.9-1.4c0-0.2,0.1-0.4,0.3-0.7c0.3-0.4,0.6-0.5,0.9-0.5c0.3,0,0.8,0,1.6,0.1c0.8,0.1,2.6,0.1,5.3,0.1
		c1.4,0,2.1,0.4,2.1,1.2c0,0.6-0.2,0.9-0.6,1c-0.1,0-0.2,0.1-0.3,0.1s-0.2,0.1-0.3,0.1s-0.3,0-0.3,0c-0.1,0-0.4,0.1-0.8,0.1
		s-1.1,0-1.8,0c-0.8,0-1.7,0-2.8-0.1v3.9h4.7c0.2,0,0.4,0.1,0.6,0.4c0.2,0.2,0.3,0.5,0.3,0.8c0,0.3-0.1,0.6-0.3,0.9
		S260.9,177,260.5,177z"/>
	<path d="M268.1,183.6c-0.1,0.6-0.5,0.9-1.3,0.9c-0.8,0-1.1-0.3-1.1-0.9c0-1.4,0.7-4.3,2.1-8.6c0.6-2,1.3-3.6,2.1-5
		c0.8-1.3,1.5-2,2.2-2c0.4,0,0.7,0.2,1,0.7c0.3,0.5,0.8,1.5,1.6,3.1c0.8,1.6,1.4,3.3,1.9,5.1c0.5,1.8,1.1,4,1.7,6.6
		c0,0.3-0.1,0.6-0.3,0.7s-0.5,0.3-0.8,0.3c-0.8,0-1.2-0.3-1.4-1l-1.3-4.9c-2.1,0-3.8-0.2-5.1-0.5
		C268.6,180.8,268.2,182.6,268.1,183.6z M272,171.3c-0.8,1.3-1.4,2.8-1.9,4.5c1.1,0.3,2.3,0.4,3.7,0.4
		C273.4,174.6,272.8,173,272,171.3z"/>
	<path d="M292.9,171.1l-2.9-0.4c-3.9,0-5.8,1.9-5.8,5.8c0,2,0.6,3.5,1.8,4.7c0.6,0.6,1.2,0.9,1.8,0.9s1.7-0.3,3.3-0.8
		c1.6-0.6,2.4-0.8,2.5-0.8c0.6,0,1,0.3,1,0.9c0,0.5-0.3,0.9-0.8,1.3c-3,1.3-5.2,1.9-6.5,1.9c-0.8,0-1.6-0.3-2.4-0.8
		c-0.8-0.5-1.4-1.2-1.9-2.1c-0.9-1.7-1.4-3.4-1.4-5.3c0-2.5,0.8-4.6,2.3-6c1.5-1.5,3.5-2.2,5.9-2.2c1.4,0,2.8,0.2,4.1,0.7v0
		c0.4,0.3,0.6,0.6,0.6,0.9c0,0.3-0.2,0.6-0.5,0.9C293.5,170.9,293.2,171.1,292.9,171.1z"/>
	<path d="M300.6,176.5l0.1,4.7c0,0.6,0,1,0,1l6.2-0.1c0.7,0.1,1,0.4,1,0.9c0,1-0.5,1.5-1.4,1.5l-7.1,0.1c-0.4,0-0.8-0.1-1-0.5
		c-0.2-0.3-0.3-0.6-0.3-1c0-0.3,0-0.7,0-1.1v-6c-0.3-0.2-0.5-0.4-0.5-0.8c0-0.3,0.1-0.6,0.4-0.9c-0.1-1.9-0.1-3.6-0.1-5.1
		c0-0.9,0.5-1.3,1.6-1.4c0.3,0,0.6,0,1,0l6.3,0.1h0c0.8,0.1,1.2,0.5,1.2,1.1c0,0.5-0.1,0.8-0.4,1c-0.6,0.3-2.1,0.5-4.5,0.5
		c-0.9,0-1.8,0-2.7-0.1c0,2.2,0,3.4,0,3.6c0.9,0,2.8,0,5.5,0c0.7,0.1,1.1,0.4,1.1,1c0,0.3-0.1,0.6-0.4,0.8s-0.5,0.4-0.8,0.4
		c-0.3,0-0.9,0.1-1.8,0.1C303.3,176.6,302.1,176.5,300.6,176.5z"/>
</g>
<g>
	<path d="M20,222.8l-4.6-0.1c-0.3-1-0.4-5.5-0.5-13.6v-2.6c0-2,0.2-3.6,0.6-4.7s1.2-1.9,2.4-2.6c0.6-0.3,1.5-0.5,2.6-0.5
		c1.1,0,2,0.1,2.6,0.2c1.6,0.3,2.7,1,3.3,1.9c0.6,0.9,0.9,2.1,0.9,3.7c0,2.1-0.6,3.7-1.7,4.7c0.6,0.1,1.2,0.4,1.7,0.9
		c0.6,0.5,1,1,1.4,1.5c0.6,1,0.9,2.3,0.9,3.9c0,2.6-0.8,4.4-2.4,5.5C25.7,222.3,23.3,222.8,20,222.8z M25.9,213
		c-0.3-0.3-0.6-0.5-1.1-0.7c-0.5-0.2-1.2-0.3-2.2-0.3c-0.9,0-2.6,0.2-4.8,0.5c0,3.7,0.1,6.3,0.2,7.6c2.8,0,4.8-0.2,5.9-0.6
		c1.1-0.4,1.9-0.8,2.3-1.4s0.6-1.1,0.6-1.7c0-0.6,0-1,0-1.3c0-0.3-0.1-0.6-0.2-1C26.3,213.6,26.2,213.2,25.9,213z M17.8,205.3
		l0.1,4.1c0,0,0.5-0.1,1.2-0.2s1.4-0.2,1.9-0.3c2.4-0.6,3.6-2,3.6-4.1c0-1.1-0.3-1.9-1-2.4c-0.6-0.5-1.5-0.8-2.5-0.8
		c-1.3,0-2.2,0.2-2.6,0.7c-0.2,0.2-0.3,0.4-0.5,0.5c-0.1,0.1-0.2,0.3-0.3,0.6c0,0.3-0.1,0.5-0.1,0.6c0,0.1,0,0.3,0,0.7
		C17.8,205.1,17.8,205.3,17.8,205.3z"/>
	<path d="M56.5,214c0,0.3-0.1,0.6-0.3,0.9c-0.2,0.3-0.4,0.5-0.7,0.5l-11.4,0.1c-0.6,0-0.8-0.3-0.8-0.9c0-0.4,0.1-0.7,0.3-1
		c0.2-0.3,0.4-0.5,0.7-0.5c2.3,0,6.1,0,11.3,0C56.2,213.1,56.5,213.4,56.5,214z M56.5,207.9c0,0.4-0.1,0.7-0.3,1
		c-0.2,0.3-0.4,0.5-0.6,0.6c-1.6,0.1-3,0.1-4.2,0.1l-6.8-0.1c-0.6,0-0.9-0.3-0.9-0.9c0-0.3,0.1-0.6,0.3-0.9c0.2-0.3,0.5-0.5,0.7-0.5
		l6.8,0.1c1.2,0,2.7,0,4.3-0.1C56.3,207.3,56.5,207.5,56.5,207.9z"/>
	<path d="M70.5,207.6c0.5-0.9,1.6-1.3,3.2-1.3c1.6,0,3,0.4,4,1.2c1,0.8,1.6,1.8,1.6,3.1c0,1.3-0.4,2.3-1.1,3.1
		c0.8,0.2,1.5,0.7,2.1,1.6c0.6,0.9,0.8,1.7,0.8,2.7c0,1.5-0.5,2.8-1.6,3.9c-0.8,0.8-4,1.2-9.6,1.2c0-0.1,0-0.6,0-1.5
		c-0.1-2.7-0.1-5.8-0.1-9.2C69.7,210,70,208.5,70.5,207.6z M75.9,215.3c-1.1,0-2.3,0.1-3.7,0.3c0,0.5,0,1.2,0,2
		c0,0.9,0.1,1.9,0.2,3.1c0.2,0,0.5,0,1,0c0.5,0,1.2-0.1,2.2-0.2c2.2-0.4,3.3-1.3,3.3-2.7C78.9,216.1,77.9,215.3,75.9,215.3z
		 M72.3,210.3v3.1c1.3,0,2.5-0.2,3.4-0.7c1-0.4,1.5-1.2,1.5-2.2c0-0.6-0.3-1-0.9-1.4c-0.6-0.4-1.3-0.6-2.1-0.6s-1.3,0.1-1.6,0.4
		C72.4,209.2,72.3,209.7,72.3,210.3z"/>
	<path d="M86.7,221.9c-0.1,0.6-0.5,0.9-1.3,0.9c-0.8,0-1.1-0.3-1.1-0.9c0-1.4,0.7-4.3,2.1-8.6c0.6-2,1.3-3.6,2.1-5
		c0.8-1.3,1.5-2,2.2-2c0.4,0,0.7,0.2,1,0.7c0.3,0.5,0.8,1.5,1.6,3.1c0.8,1.6,1.4,3.3,1.9,5.1c0.5,1.8,1.1,4,1.7,6.6
		c0,0.3-0.1,0.6-0.3,0.7s-0.5,0.3-0.8,0.3c-0.8,0-1.2-0.3-1.4-1L93,217c-2.1,0-3.8-0.2-5.1-0.5C87.2,219.1,86.7,220.9,86.7,221.9z
		 M90.5,209.6c-0.8,1.3-1.4,2.8-1.9,4.5c1.1,0.3,2.3,0.4,3.7,0.4C91.9,212.9,91.3,211.3,90.5,209.6z"/>
	<path d="M111.4,209.4l-2.9-0.4c-3.9,0-5.8,1.9-5.8,5.8c0,2,0.6,3.5,1.8,4.7c0.6,0.6,1.2,0.9,1.8,0.9c0.6,0,1.7-0.3,3.3-0.8
		c1.6-0.6,2.4-0.8,2.5-0.8c0.6,0,1,0.3,1,0.9c0,0.5-0.3,0.9-0.8,1.3c-3,1.3-5.2,1.9-6.5,1.9c-0.8,0-1.6-0.3-2.4-0.8
		c-0.8-0.5-1.4-1.2-1.9-2.1c-0.9-1.7-1.4-3.4-1.4-5.3c0-2.5,0.8-4.6,2.3-6c1.5-1.5,3.5-2.2,5.9-2.2c1.4,0,2.8,0.2,4.1,0.7v0
		c0.4,0.3,0.6,0.6,0.6,0.9c0,0.3-0.2,0.6-0.5,0.9C112.1,209.2,111.7,209.4,111.4,209.4z"/>
	<path d="M117,219.9c0-1.3-0.1-3.3-0.2-6c-0.1-2.7-0.3-4.4-0.4-5.1c-0.1-0.7-0.1-1.1-0.1-1.4s0.1-0.5,0.4-0.7c0.3-0.2,0.6-0.3,1-0.3
		c0.4,0,0.7,0.2,0.9,0.6c0.5,1.1,0.8,3.4,0.8,6.9c1.5-1.2,2.7-2.3,3.6-3.3c0.9-1,1.8-2.2,2.8-3.5c0.3-0.5,0.7-0.8,1.2-0.8
		c0.9,0,1.4,0.3,1.4,0.9c0,1.2-1.5,3.3-4.6,6.5c1.3,1.2,2.6,2.7,3.7,4.5c1.2,1.8,1.7,2.9,1.7,3.4c0,0.4-0.1,0.8-0.4,1
		c-0.3,0.2-0.5,0.3-0.9,0.3c-0.3,0-0.7-0.3-1.2-0.9c-0.4-0.6-1-1.4-1.6-2.4c-0.6-1-1.2-1.8-1.6-2.4c-0.5-0.6-1.1-1.2-1.9-1.9
		c-0.7,0.6-1.4,1.2-2.1,1.7c0.1,2.8,0.1,4.4,0.1,4.7c0,0.8-0.5,1.2-1.6,1.2c-0.7,0-1.1-0.4-1-1.1V219.9z"/>
	<path d="M148.1,215.3h-4.5c0,2.2,0,4.2,0.1,6c0,1.1-0.4,1.7-1.1,1.7c-0.7,0-1.2-0.5-1.3-1.4c0-0.2-0.1-1.2-0.1-3V213
		c0-2.1,0-3.4,0-4c-0.6-0.1-0.9-0.5-0.9-1.4c0-0.2,0.1-0.4,0.3-0.7c0.3-0.4,0.6-0.5,0.9-0.5c0.3,0,0.8,0,1.6,0.1
		c0.8,0.1,2.6,0.1,5.3,0.1c1.4,0,2.1,0.4,2.1,1.2c0,0.6-0.2,0.9-0.6,1c-0.1,0-0.2,0.1-0.3,0.1c0,0-0.2,0.1-0.3,0.1
		c-0.2,0-0.3,0-0.3,0c-0.1,0-0.4,0.1-0.8,0.1c-0.4,0-1.1,0-1.8,0c-0.8,0-1.7,0-2.8-0.1v3.9h4.7c0.2,0,0.4,0.1,0.6,0.4
		c0.2,0.2,0.3,0.5,0.3,0.8c0,0.3-0.1,0.6-0.3,0.9C148.8,215.2,148.5,215.3,148.1,215.3z"/>
	<path d="M155.8,221.9c-0.1,0.6-0.5,0.9-1.3,0.9c-0.8,0-1.1-0.3-1.1-0.9c0-1.4,0.7-4.3,2.1-8.6c0.6-2,1.3-3.6,2.1-5
		c0.8-1.3,1.5-2,2.2-2c0.4,0,0.7,0.2,1,0.7c0.3,0.5,0.8,1.5,1.6,3.1c0.8,1.6,1.4,3.3,1.9,5.1c0.5,1.8,1.1,4,1.7,6.6
		c0,0.3-0.1,0.6-0.3,0.7s-0.5,0.3-0.8,0.3c-0.8,0-1.2-0.3-1.4-1l-1.3-4.9c-2.1,0-3.8-0.2-5.1-0.5
		C156.3,219.1,155.9,220.9,155.8,221.9z M159.7,209.6c-0.8,1.3-1.4,2.8-1.9,4.5c1.1,0.3,2.3,0.4,3.7,0.4
		C161,212.9,160.4,211.3,159.7,209.6z"/>
	<path d="M180.5,209.4l-2.9-0.4c-3.9,0-5.8,1.9-5.8,5.8c0,2,0.6,3.5,1.8,4.7c0.6,0.6,1.2,0.9,1.8,0.9c0.6,0,1.7-0.3,3.3-0.8
		c1.6-0.6,2.4-0.8,2.5-0.8c0.6,0,1,0.3,1,0.9c0,0.5-0.3,0.9-0.8,1.3c-3,1.3-5.2,1.9-6.5,1.9c-0.8,0-1.6-0.3-2.4-0.8
		c-0.8-0.5-1.4-1.2-1.9-2.1c-0.9-1.7-1.4-3.4-1.4-5.3c0-2.5,0.8-4.6,2.3-6c1.5-1.5,3.5-2.2,5.9-2.2c1.4,0,2.8,0.2,4.1,0.7v0
		c0.4,0.3,0.6,0.6,0.6,0.9c0,0.3-0.2,0.6-0.5,0.9C181.2,209.2,180.8,209.4,180.5,209.4z"/>
	<path d="M188.2,214.8l0.1,4.7c0,0.6,0,1,0,1l6.2-0.1c0.7,0.1,1,0.4,1,0.9c0,1-0.5,1.5-1.4,1.5l-7.1,0.1c-0.4,0-0.8-0.1-1-0.5
		c-0.2-0.3-0.3-0.6-0.3-1c0-0.3,0-0.7,0-1.1v-6c-0.3-0.2-0.5-0.4-0.5-0.8c0-0.3,0.1-0.6,0.4-0.9c-0.1-1.9-0.1-3.6-0.1-5.1
		c0-0.9,0.5-1.3,1.6-1.4c0.3,0,0.6,0,1,0l6.3,0.1h0c0.8,0.1,1.2,0.5,1.2,1.1c0,0.5-0.1,0.8-0.4,1c-0.6,0.3-2.1,0.5-4.5,0.5
		c-0.9,0-1.8,0-2.7-0.1c0,2.2,0,3.4,0,3.6c0.9,0,2.8,0,5.5,0c0.7,0.1,1.1,0.4,1.1,1c0,0.3-0.1,0.6-0.4,0.8s-0.5,0.4-0.8,0.4
		c-0.3,0-0.9,0.1-1.8,0.1C190.9,214.8,189.7,214.8,188.2,214.8z"/>
</g>
<g>
	<path d="M23.4,46.4l4-0.1c1.8,0,2.7,0.5,2.7,1.4c0,0.3,0,0.6-0.1,0.7c-0.1,0.1-0.2,0.2-0.2,0.3c0,0.1-0.1,0.1-0.3,0.2
		c-0.3,0.1-0.5,0.2-0.7,0.2c-0.2,0-0.3,0-0.4,0c-0.3,0-0.7,0.1-1.3,0.1c-0.6,0-1.5,0-2.7,0c-1.2,0-2.6,0-4.4-0.1v6.6h7.3
		c0.3,0,0.5,0.1,0.7,0.4c0.2,0.2,0.3,0.5,0.3,0.8c0,1.1-0.5,1.7-1.4,1.7h-7L20,68c0,1.2-0.4,1.8-1.2,1.8s-1.3-0.6-1.5-1.7
		c-0.1-0.4-0.1-3.4-0.1-9.2c0-5.7,0-9.1-0.1-9.9c-0.9,0.1-1.3-0.4-1.3-1.5c0-0.3,0.1-0.6,0.4-1c0.2-0.3,0.4-0.5,0.6-0.6s0.4,0,0.7,0
		c0.3,0,1,0,2,0.1C21,46.3,22.3,46.4,23.4,46.4z"/>
	<path d="M54.7,60.8c0,0.3-0.1,0.6-0.3,0.9c-0.2,0.3-0.4,0.5-0.7,0.5l-11.4,0.1c-0.6,0-0.8-0.3-0.8-0.9c0-0.4,0.1-0.7,0.3-1
		c0.2-0.3,0.4-0.5,0.7-0.5c2.3,0,6.1,0,11.3,0C54.4,60,54.7,60.3,54.7,60.8z M54.7,54.7c0,0.4-0.1,0.7-0.3,1
		c-0.2,0.3-0.4,0.5-0.6,0.6c-1.6,0.1-3,0.1-4.2,0.1l-6.8-0.1c-0.6,0-0.9-0.3-0.9-0.9c0-0.3,0.1-0.6,0.3-0.9c0.2-0.3,0.5-0.5,0.7-0.5
		l6.8,0.1c1.2,0,2.7,0,4.3-0.1C54.5,54.1,54.7,54.3,54.7,54.7z"/>
	<path d="M75.4,62.1H71c0,2.2,0,4.2,0.1,6c0,1.1-0.4,1.7-1.1,1.7c-0.7,0-1.2-0.5-1.3-1.4c0-0.2-0.1-1.2-0.1-3v-5.7c0-2.1,0-3.4,0-4
		c-0.6-0.1-0.9-0.5-0.9-1.4c0-0.2,0.1-0.4,0.3-0.7c0.3-0.4,0.6-0.5,0.9-0.5c0.3,0,0.8,0,1.6,0.1c0.8,0.1,2.6,0.1,5.3,0.1
		c1.4,0,2.1,0.4,2.1,1.2c0,0.6-0.2,0.9-0.6,1c-0.1,0-0.2,0.1-0.3,0.1c0,0-0.2,0.1-0.3,0.1c-0.2,0-0.3,0-0.3,0
		c-0.1,0-0.4,0.1-0.8,0.1c-0.4,0-1.1,0-1.8,0c-0.8,0-1.7,0-2.8-0.1v3.9h4.7c0.2,0,0.4,0.1,0.6,0.4c0.2,0.2,0.3,0.5,0.3,0.8
		c0,0.3-0.1,0.6-0.3,0.9C76.1,62,75.8,62.1,75.4,62.1z"/>
	<path d="M83.3,68.4c0,0.4-0.2,0.7-0.5,0.9c-0.3,0.3-0.7,0.4-1.1,0.4c-0.5,0-0.8-0.2-0.8-0.7c-0.1-1.1-0.1-5.6-0.1-13.4
		c0-0.8,0.5-1.4,1.4-1.8c0.9-0.4,2.2-0.6,3.7-0.6c1.5,0,2.9,0.4,4.1,1.2c1.2,0.8,1.7,1.7,1.7,2.8c0,0.5-0.2,1.1-0.7,1.8
		c-0.5,0.6-0.9,1.2-1.5,1.5c-0.5,0.4-1.3,0.8-2.2,1.4c-1,0.5-1.5,0.8-1.8,0.9c1.5,1,2.9,2,4,3.1c1.2,1.1,1.8,2,1.8,2.7
		s-0.3,1.1-0.9,1.3c-0.2,0-0.4,0.1-0.6,0.1s-0.6-0.3-1-0.8c-0.4-0.5-1.2-1.3-2.3-2.2c-1.1-1-2.2-1.8-3.3-2.6
		C83.2,66,83.2,67.4,83.3,68.4L83.3,68.4z M83.1,60.9c0.8,0,2-0.4,3.6-1.2c1.6-0.8,2.4-1.5,2.5-2.2c0-0.6-0.4-1.1-1.1-1.5
		c-0.7-0.3-1.5-0.5-2.3-0.5c-0.9,0-1.8,0.1-2.7,0.3C83.1,57.1,83.1,58.7,83.1,60.9z"/>
	<path d="M102,53.3c1.8,0,3.2,0.7,4.3,2.1c1.1,1.4,1.6,3.2,1.6,5.6s-0.6,4.4-1.8,6.2c-1.2,1.7-2.7,2.6-4.6,2.6c-2,0-3.7-0.9-4.9-2.6
		c-1.3-1.7-1.9-3.8-1.9-6.3s0.7-4.4,2-5.6C98.1,53.9,99.8,53.3,102,53.3z M105.4,61.4c0-1.9-0.3-3.3-0.8-4.2
		c-0.6-0.9-1.5-1.3-2.9-1.3c-1.4,0-2.5,0.4-3.2,1.3c-0.8,0.9-1.2,2.1-1.2,3.6c0,1.6,0.4,3,1.2,4.4c0.8,1.3,1.9,2,3.4,2
		c0.8,0,1.5-0.3,2.1-1C104.9,64.8,105.4,63.3,105.4,61.4z"/>
	<path d="M113.9,58.5l-0.4,8.7c0,0.8,0,1.3-0.1,1.5c-0.1,0.6-0.5,1-1.3,1c-0.3,0-0.5-0.1-0.8-0.3c-0.2-0.2-0.4-0.5-0.4-0.8
		c0.2-6.2,0.3-9.6,0.3-10.1c0-0.5,0-1,0-1.6c0-0.6,0.1-1.1,0.2-1.6c0.2-0.6,0.6-1,1.3-1c0.3,0,0.8,0.2,1.3,0.7
		c0.5,0.5,1.2,1.3,2.2,2.5c2.3,2.8,4,5.5,5.2,8c0-3.4-0.1-6-0.3-7.8c-0.1-1.8-0.2-2.8-0.2-2.9c0-0.2,0-0.3,0-0.3
		c0.2-0.9,0.7-1.4,1.5-1.4c0.3,0,0.6,0.1,0.9,0.4c0.3,0.3,0.4,0.6,0.4,1l0.2,13.4c0,1.2-0.5,1.9-1.5,1.9c-0.6,0-1.1-0.2-1.4-0.6
		c-0.3-0.4-0.6-0.8-0.7-1c-0.1-0.2-0.4-0.6-0.6-1.2C117.7,63.6,115.8,60.7,113.9,58.5z"/>
	<path d="M134.2,55.3l-0.1,8.5c0,1.8,0,3.3,0.1,4.7c0,0.4-0.1,0.7-0.5,0.9c-0.3,0.2-0.7,0.3-1,0.3c-0.6,0-0.9-0.3-0.9-1
		c-0.1-2.6-0.1-5.1-0.1-7.5c0-2.4,0.1-4.3,0.2-5.9c-1.4,0.1-2.9,0.2-4.4,0.2c-0.7,0-1.1-0.3-1.1-0.9c0-0.3,0.1-0.6,0.4-0.9
		c0.3-0.3,0.6-0.4,0.9-0.5L139,53c0.6,0.1,1,0.5,1,0.9c0,1-1.1,1.5-3.4,1.5L134.2,55.3z"/>
	<path d="M158.2,62.1h-4.5c0,2.2,0,4.2,0.1,6c0,1.1-0.4,1.7-1.1,1.7c-0.7,0-1.2-0.5-1.3-1.4c0-0.2-0.1-1.2-0.1-3v-5.7
		c0-2.1,0-3.4,0-4c-0.6-0.1-0.9-0.5-0.9-1.4c0-0.2,0.1-0.4,0.3-0.7c0.3-0.4,0.6-0.5,0.9-0.5c0.3,0,0.8,0,1.6,0.1
		c0.8,0.1,2.6,0.1,5.3,0.1c1.4,0,2.1,0.4,2.1,1.2c0,0.6-0.2,0.9-0.6,1c-0.1,0-0.2,0.1-0.3,0.1c0,0-0.2,0.1-0.3,0.1
		c-0.2,0-0.3,0-0.3,0c-0.1,0-0.4,0.1-0.8,0.1c-0.4,0-1.1,0-1.8,0c-0.8,0-1.7,0-2.8-0.1v3.9h4.7c0.2,0,0.4,0.1,0.6,0.4
		c0.2,0.2,0.3,0.5,0.3,0.8c0,0.3-0.1,0.6-0.3,0.9C158.9,62,158.6,62.1,158.2,62.1z"/>
	<path d="M165.9,68.8c-0.1,0.6-0.5,0.9-1.3,0.9c-0.8,0-1.1-0.3-1.1-0.9c0-1.4,0.7-4.3,2.1-8.6c0.6-2,1.3-3.6,2.1-5
		c0.8-1.3,1.5-2,2.2-2c0.4,0,0.7,0.2,1,0.7c0.3,0.5,0.8,1.5,1.6,3.1c0.8,1.6,1.4,3.3,1.9,5.1c0.5,1.8,1.1,4,1.7,6.6
		c0,0.3-0.1,0.6-0.3,0.7s-0.5,0.3-0.8,0.3c-0.8,0-1.2-0.3-1.4-1l-1.3-4.9c-2.1,0-3.8-0.2-5.1-0.5C166.4,65.9,166,67.8,165.9,68.8z
		 M169.8,56.5c-0.8,1.3-1.4,2.8-1.9,4.5c1.1,0.3,2.3,0.4,3.7,0.4C171.1,59.7,170.5,58.1,169.8,56.5z"/>
	<path d="M190.6,56.2l-2.9-0.4c-3.9,0-5.8,1.9-5.8,5.8c0,2,0.6,3.5,1.8,4.7c0.6,0.6,1.2,0.9,1.8,0.9c0.6,0,1.7-0.3,3.3-0.8
		c1.6-0.6,2.4-0.8,2.5-0.8c0.6,0,1,0.3,1,0.9c0,0.5-0.3,0.9-0.8,1.3c-3,1.3-5.2,1.9-6.5,1.9c-0.8,0-1.6-0.3-2.4-0.8
		c-0.8-0.5-1.4-1.2-1.9-2.1c-0.9-1.7-1.4-3.4-1.4-5.3c0-2.5,0.8-4.6,2.3-6c1.5-1.5,3.5-2.2,5.9-2.2c1.4,0,2.8,0.2,4.1,0.7v0
		c0.4,0.3,0.6,0.6,0.6,0.9c0,0.3-0.2,0.6-0.5,0.9C191.3,56.1,190.9,56.2,190.6,56.2z"/>
	<path d="M198.3,61.6l0.1,4.7c0,0.6,0,1,0,1l6.2-0.1c0.7,0.1,1,0.4,1,0.9c0,1-0.5,1.5-1.4,1.5l-7.1,0.1c-0.4,0-0.8-0.1-1-0.5
		c-0.2-0.3-0.3-0.6-0.3-1c0-0.3,0-0.7,0-1.1v-6c-0.3-0.2-0.5-0.4-0.5-0.8c0-0.3,0.1-0.6,0.4-0.9c-0.1-1.9-0.1-3.6-0.1-5.1
		c0-0.9,0.5-1.3,1.6-1.4c0.3,0,0.6,0,1,0l6.3,0.1h0c0.8,0.1,1.2,0.5,1.2,1.1c0,0.5-0.1,0.8-0.4,1c-0.6,0.3-2.1,0.5-4.5,0.5
		c-0.9,0-1.8,0-2.7-0.1c0,2.2,0,3.4,0,3.6c0.9,0,2.8,0,5.5,0c0.7,0.1,1.1,0.4,1.1,1c0,0.3-0.1,0.6-0.4,0.8s-0.5,0.4-0.8,0.4
		c-0.3,0-0.9,0.1-1.8,0.1C201,61.7,199.8,61.7,198.3,61.6z"/>
</g>
</svg>
