<?xml version="1.0" encoding="utf-8"?>
<!-- Generator: Adobe Illustrator 21.1.0, SVG Export Plug-In . SVG Version: 6.00 Build 0)  -->
<svg version="1.1" id="Layer_1" xmlns="http://www.w3.org/2000/svg" xmlns:xlink="http://www.w3.org/1999/xlink" x="0px" y="0px"
	 viewBox="0 0 460 150.5" style="enable-background:new 0 0 460 150.5;" xml:space="preserve">
<style type="text/css">
	.st0{fill:#3498DB;stroke:#000000;stroke-width:5;stroke-miterlimit:10;}
	.st1{fill:none;}
	.st2{enable-background:new    ;}
</style>
<path class="st0" d="M125.7,133.8c-6.6-0.2-13.3-0.4-20-0.5c-25-0.5-49.4-0.3-73,0.5c-0.7,0-4.7-0.1-7.9-3.3c-2-2-3.3-4.8-3.3-7.9
	c-0.2-3.8-0.4-9.8,0.1-17.3c0.5-7.1,1.1-8.7,1.8-17.8c0.4-5.4,0.9-11.4,0.8-19c-0.1-5.8-0.5-10.1-1.2-18.6
	c-0.6-6.2-1.1-11.3-1.6-14.9c0-1.8,0-3.6,0-5.4c0-6.2,5-11.2,11.2-11.2c5.1,0.4,12.9,1,22.3,1.2c11.7,0.3,19.8-0.1,29.4-0.4
	c9.7-0.3,23.7-0.7,41.3-0.8c0.7,0,4.7,0.1,7.9,3.3c2,2,3.3,4.8,3.3,7.9c-0.4,4.8-0.9,12.3-1.1,21.6c-0.1,9.1,0.2,11,0.2,24.1
	c0,12.9-0.3,14.5-0.2,23.7c0.1,9.6,0.6,17.7,1.1,23.6c0,0.7-0.1,4.7-3.3,7.9C131.6,132.5,128.8,133.8,125.7,133.8z"/>
<rect x="168.4" y="40.8" class="st1" width="225" height="79"/>
<g class="st2">
	<path d="M170.8,85.9l-0.8-3.4c5.1-0.4,18-1.1,38.8-2c1.3,0.1,2.3,0.5,3.2,1.4c0.9,0.9,1.3,1.8,1.3,2.8c0,0.7-0.3,1.2-0.8,1.7
		s-1.3,0.8-2.3,0.9c-3.1-0.2-9.2-0.3-18.3-0.5C182.8,86.6,175.7,86.3,170.8,85.9z M171.9,65.2l-0.8-3.4c4.8-0.4,11.5-0.6,20.3-0.9
		c8.7-0.2,14.5-0.4,17.3-0.6c1.3,0.1,2.3,0.5,3.2,1.4s1.3,1.8,1.3,2.8c0,0.7-0.3,1.2-0.8,1.7s-1.3,0.8-2.3,0.9
		C188.1,66.1,175.4,65.4,171.9,65.2z"/>
	<path d="M244.9,102.2l-4.3,0.8l-0.9-60.2c1.4-0.7,3.4-1.3,5.8-1.8c-0.1,1.2-0.1,3-0.1,5.5c0,5.5,0.2,10.9,0.6,16.3
		c2.4-1.4,5-2.1,7.8-2.1s5.3,0.7,7.2,2c2,1.3,3.5,3.2,4.4,5.5c1,2.3,1.6,4.7,2.1,7.1c0.4,2.4,0.6,5,0.6,7.8c0,3-0.5,6-1.4,8.8
		s-2.6,5.3-4.9,7.4c-2.3,2.1-5.1,3.2-8.4,3.2c-2.8,0-5.7-0.9-8.5-2.7C244.9,100.5,244.9,101.2,244.9,102.2z M245.8,70.3l-0.2,24.6
		c0.3,0.9,1.3,1.6,2.9,2.2c1.6,0.6,3.3,0.8,5.2,0.8c1.8,0,3.3-0.3,4.5-1s2.1-1.7,2.7-3s1-2.7,1.3-4.1c0.2-1.4,0.3-3.1,0.3-4.9
		c0-1.9-0.1-3.7-0.3-5.5c-0.2-1.8-0.6-3.8-1.2-6s-1.6-3.9-3-5.2c-1.4-1.3-3.1-2-5.1-2c-1.5,0-2.9,0.4-4.2,1.1
		C247.4,68,246.4,69.1,245.8,70.3z"/>
	<path d="M277,67.9l-1.5-3.9c1.3-1.3,3-2.4,5-3.2s4-1.2,6-1.2c8.6,0,12.9,7.4,12.9,22.2c0,2-0.1,5-0.3,9s-0.3,6.9-0.3,8.9
		c-0.4,1.6-1.2,2.4-2.4,2.4c-0.9,0-1.8-0.5-2.5-1.4c-0.7-0.9-1.1-1.9-1.1-3c0-0.4,0-0.6,0.1-0.8c-3.1,3-6.5,4.6-10.1,4.6
		c-2.7,0-5-1-7-2.9c-2-2-3-4.3-3-7.1c0-4.7,1.8-9,5.5-12.8s7.9-5.7,12.5-5.7c0.2,0,0.4,0,0.6,0s0.4,0.1,0.7,0.1
		c0.3,0.1,0.5,0.1,0.6,0.1c-0.4-5.9-2.8-8.8-7.1-8.8C283.1,64.4,280.1,65.5,277,67.9z M292.9,91.7c0.1-3.6,0.2-6.2,0.2-8.1
		c0-1.5-0.1-3.7-0.2-6.4h-0.6c-3.6,0.1-6.9,1.4-9.9,4c-3,2.6-4.5,5.8-4.5,9.6c0,1.6,0.5,2.9,1.5,3.9s2.2,1.4,3.6,1.4
		C285.3,96.2,288.6,94.7,292.9,91.7z"/>
	<path d="M331.3,63l-0.4,3.3c-2.1-0.3-4-0.5-5.5-0.5c-3.5,0-6.4,1.1-8.7,3.2c-2.3,2.1-3.8,4.6-4.7,7.5c-0.8,2.9-1.3,6.1-1.3,9.6
		c0,1.6,0.1,3.1,0.3,4.3c0.2,1.3,0.6,2.5,1.1,3.7s1.4,2.2,2.5,2.9c1.1,0.7,2.6,1,4.2,1c2.2,0,5.1-0.4,8.5-1.3
		c1.1-0.4,1.9-0.6,2.5-0.6c1.2,0,2,1.4,2.2,4.3c-4.5,1.4-8.6,2.1-12.4,2.1c-5.5,0-9.3-1.4-11.2-4.1c-2-2.7-2.9-7.1-2.9-13.2
		c0-3.6,0.2-6.7,0.7-9.3c0.5-2.7,1.3-5.2,2.6-7.5c1.2-2.3,3-4.1,5.3-5.3s5.1-1.8,8.5-1.8C326.4,61.2,329.3,61.8,331.3,63z"/>
	<path d="M363.9,100.8l-7-0.2c-1.9-1.9-4.5-4.9-7.8-9.1s-5.4-6.8-6.2-7.7v15.7c-0.5,1.5-1.3,2.3-2.6,2.3c-0.9,0-1.8-0.4-2.6-1.1
		c-0.8-0.7-1.3-1.6-1.5-2.7c0.2-5.2,0.2-13.9,0.2-26.1c0-12.1,0.1-20.8,0.3-26.1l4.6,1c0.1,2,0.1,6.2,0.3,12.5
		c0.1,6.3,0.2,11,0.3,14.1l18.4-13.6l1.3,3.4c-4.8,3.5-10.5,8.5-17.1,14.9c1.4,1.5,4.4,5.1,9.1,10.8
		C358.4,94.6,361.8,98.5,363.9,100.8z"/>
</g>
<rect x="168.4" y="41.4" class="st1" width="225" height="79"/>
<rect x="168.4" y="42" class="st1" width="225" height="79"/>
<rect x="168.4" y="42" class="st1" width="225" height="79"/>
<rect x="168.4" y="42" class="st1" width="225" height="79"/>
</svg>
