<?xml version="1.0" encoding="utf-8"?>
<!-- Generator: Adobe Illustrator 21.1.0, SVG Export Plug-In . SVG Version: 6.00 Build 0)  -->
<svg version="1.1" id="Layer_1" xmlns="http://www.w3.org/2000/svg" xmlns:xlink="http://www.w3.org/1999/xlink" x="0px" y="0px"
	 viewBox="0 0 460 150.5" style="enable-background:new 0 0 460 150.5;" xml:space="preserve">
<style type="text/css">
	.st0{fill:#E67E22;stroke:#000000;stroke-width:5;stroke-miterlimit:10;}
	.st1{fill:none;}
	.st2{enable-background:new    ;}
</style>
<path class="st0" d="M125.7,134.4c-6.6-0.2-13.3-0.4-20-0.5c-25-0.5-49.4-0.3-73,0.5c-0.7,0-4.7-0.1-7.9-3.3c-2-2-3.3-4.8-3.3-7.9
	c-0.2-3.8-0.4-9.8,0.1-17.3c0.5-7.1,1.1-8.7,1.8-17.8c0.4-5.4,0.9-11.4,0.8-19C24.1,63.3,23.7,59,23,50.5
	c-0.6-6.2-1.1-11.3-1.6-14.9c0-1.8,0-3.6,0-5.4c0-6.2,5-11.2,11.2-11.2c5.1,0.4,12.9,1,22.3,1.2c11.7,0.3,19.8-0.1,29.4-0.4
	c9.7-0.3,23.7-0.7,41.3-0.8c0.7,0,4.7,0.1,7.9,3.3c2,2,3.3,4.8,3.3,7.9c-0.4,4.8-0.9,12.3-1.1,21.6c-0.1,9.1,0.2,11,0.2,24.1
	c0,12.9-0.3,14.5-0.2,23.7c0.1,9.6,0.6,17.7,1.1,23.6c0,0.7-0.1,4.7-3.3,7.9C131.6,133.1,128.8,134.4,125.7,134.4z"/>
<rect x="168.4" y="41.4" class="st1" width="225" height="79"/>
<g class="st2">
	<path d="M170.8,86.5l-0.8-3.4c5.1-0.4,18-1.1,38.8-2c1.3,0.1,2.3,0.5,3.2,1.4s1.3,1.8,1.3,2.8c0,0.7-0.3,1.2-0.8,1.7
		s-1.3,0.8-2.3,0.9c-3.1-0.2-9.2-0.3-18.3-0.5C182.8,87.2,175.7,86.9,170.8,86.5z M171.9,65.8l-0.8-3.4c4.8-0.4,11.5-0.6,20.3-0.9
		c8.7-0.2,14.5-0.4,17.3-0.6c1.3,0.1,2.3,0.5,3.2,1.4s1.3,1.8,1.3,2.8c0,0.7-0.3,1.2-0.8,1.7s-1.3,0.8-2.3,0.9
		C188.1,66.7,175.4,66,171.9,65.8z"/>
	<path d="M241.4,49.1l3.5,0.8l1.7,49.3c-0.5,1.6-1.3,2.4-2.7,2.4c-0.9,0-1.8-0.4-2.6-1.1s-1.4-1.6-1.6-2.7L241.4,49.1z"/>
	<path d="M283.5,94l0.8,3.4c-2.2,0.8-5.5,1.7-9.9,2.7s-7.7,1.5-9.8,1.5c-2.2,0-4.1-0.7-5.7-2.2c-1.6-1.4-2.8-3.3-3.7-5.6
		c-0.8-2.3-1.4-4.5-1.8-6.7s-0.6-4.4-0.6-6.5c0-12.7,5.7-19,17.2-19c2.7,0,5.2,0.9,7.2,2.6c2.1,1.8,3.1,4,3.1,6.8
		c0,1.5-0.4,2.9-1.3,4c-0.8,1.2-1.9,2.1-3,2.8c-1.2,0.7-2.7,1.3-4.6,1.9s-3.5,1-4.9,1.2c-1.4,0.3-3.1,0.5-5.1,0.8s-3.4,0.5-4.1,0.7
		c0,1.5,0.1,2.8,0.3,3.9c0.1,1.1,0.4,2.3,0.8,3.6s0.9,2.4,1.5,3.2c0.6,0.8,1.5,1.5,2.6,2.1s2.4,0.8,4,0.8c1.8,0,4.1-0.2,6.7-0.5
		s5-0.7,7-1C282.3,94.2,283.4,94,283.5,94z M257.6,77.7c6.9-2,12.6-4.1,17-6.2c-0.4-1.7-0.8-2.9-1.4-3.7s-1.5-1.1-2.7-1.1
		c-3.1,0-5.9,1.1-8.4,3.2S258.1,74.6,257.6,77.7z"/>
	<path d="M307,68.1l0.7,3.5c-1.1,0.2-2.8,0.3-5.3,0.5s-4.3,0.4-5.6,0.6c0,13.1,0.2,22.5,0.5,28.4c-0.6,2-1.6,3-3.1,3
		c-0.7,0-1.3-0.3-1.9-0.8c-0.6-0.6-1-1.3-1.2-2.1c0-1.5,0.1-5.7,0.3-12.4c0.2-6.8,0.3-12,0.3-15.7l-5.8-0.2c-0.1-1-0.2-2.7-0.2-5.1
		c0.5,0.1,1.5,0.2,2.9,0.4c1.4,0.2,2.4,0.3,2.9,0.3c0.2-1.6,0.2-3.9,0.2-6.9c0-5.8,0.5-9.8,1.5-11.9c1-2.1,3.3-3.2,7-3.2
		c3.9,0,7.1,0.7,9.6,2.2l-0.5,2.7c-0.7,0-1.7-0.1-3.1-0.2c-1.4-0.1-2.5-0.2-3.2-0.2c-2.1,0-3.7,0.5-4.7,1.4s-1.6,2.7-1.6,5.3
		c0,0.8,0,1.7,0,2.6c0,0.9,0,1.5,0,1.8c0,1.9,0,3.9-0.1,6.2c0.8,0,1.9,0,3.4,0.1c1.4,0.1,2.5,0.1,3.2,0.1
		C304.6,68.3,305.8,68.2,307,68.1z"/>
	<path d="M333.5,64.5l0.8,3.4c-1.4,0.1-3.5,0.4-6.3,0.8s-5,0.7-6.4,0.8c0.3,1.8,0.4,4.1,0.5,7c0,2.9,0.1,5.4,0.2,7.5
		s0.3,4.2,0.7,6.3c0.4,2.1,1.2,3.7,2.4,4.8c1.2,1.1,2.8,1.7,4.8,1.7c1.5,0,3.4-0.4,5.7-1.1c1,1.9,1.7,3.3,2.1,4.1
		c-4,1.4-8.1,2.1-12.2,2.1c-1.5,0-2.8-0.5-4-1.4c-1.1-0.9-2-2.1-2.6-3.4s-1.1-3.1-1.5-5.2s-0.6-4.1-0.7-6s-0.2-4-0.2-6.5
		c0-1.3,0-3.1,0-5.5c0-2.3,0-3.9,0-4.8c-0.5,0.1-1.7,0.1-3.6,0.1s-3,0-3.3,0c-0.4-3.4-0.5-5.2-0.5-5.3c0.4,0.1,0.9,0.2,1.8,0.2
		c0.5,0,1.2,0,2.2-0.1s1.8-0.1,2.3-0.1c0.2,0,0.5,0,0.8,0s0.5,0,0.6,0c0.2-5.6,0.4-10.1,0.7-13.6l3.6,1.1c0,1.2,0.1,2.5,0.1,3.9
		s0,2.9,0.1,4.6c0,1.7,0,3,0,3.9c1.3,0.1,3.3,0.2,5.9,0.3C330.1,64.3,332.1,64.4,333.5,64.5z"/>
</g>
<rect x="168.4" y="42" class="st1" width="225" height="79"/>
<rect x="168.4" y="42" class="st1" width="225" height="79"/>
<rect x="168.4" y="42" class="st1" width="225" height="79"/>
</svg>
