<?xml version="1.0" encoding="utf-8"?>
<!-- Generator: Adobe Illustrator 21.1.0, SVG Export Plug-In . SVG Version: 6.00 Build 0)  -->
<svg version="1.1" xmlns="http://www.w3.org/2000/svg" xmlns:xlink="http://www.w3.org/1999/xlink" x="0px" y="0px"
	 viewBox="0 0 612 612" style="enable-background:new 0 0 612 612;" xml:space="preserve">
<style type="text/css">
	.st0{fill:#AAAAAA;}
	.st1{fill:#F1C40F;}
	.st2{fill:#ECF0F1;}
	.st3{fill:#4EB96F;}
	.st4{fill:#E67E22;}
	.st5{fill:#E64D3C;}
	.st6{fill:#3498DB;}
	.st7{fill:none;}
	.st8{fill:#FFE266;}
	.st9{fill:#222222;}
</style>
<g id="Layer_1">
</g>
<g id="Layer_2">
	<path class="st0" d="M175.7,75l-0.9-0.5c-0.1,0.2-0.2,0.3-0.3,0.5l-21.1-5.6l-59,71.8l7,18.9c-0.2,0.1-0.3,0.2-0.5,0.4l0.6,0.8
		c0.1-0.1,0.1-0.1,0.2-0.2l0.1,0.2l0.6-0.6c15.2-11.5,29.1-24.6,41.4-39.1c12-14,22.5-29.4,31.3-45.6l0.5-0.6l-0.2,0
		C175.6,75.2,175.7,75.1,175.7,75z"/>
	<path class="st1" d="M271,376.9c6.9,3.3,13.8,6.5,20.6,9.7c12,5.6,24.3,11.1,36.6,16.5c0-8.6-0.1-17-0.2-25
		c-0.3-16.2-0.7-32.8-1.3-49.3c-10.9-4.4-20.2-7.7-28.4-10.6c-10.1-3.6-19.7-7-30-11.6c1,10,1.7,20,2.2,29.7
		C271,350,271.2,363.2,271,376.9z"/>
	<path class="st2" d="M416.5,272.3c8-4,19.8-10,34.4-18.4c-2.1-1.2-4.3-2.4-6.6-3.6c-11.2-6-19.1-9.6-26.7-13.1
		c-1.9-0.9-3.8-1.7-5.7-2.6c-7.5-3.5-15.2-7.3-23-11.3l-0.6,0.3c-0.7,0.4-1.5,0.8-2.2,1.3c-18,10.4-36,21.4-53.8,32.8
		c11,6.2,22,12.3,32.7,18.1c8.9,4.9,16.1,8.7,22.4,12.1c8.5-4.8,17-9.3,25.3-13.6C413.9,273.6,415.1,273,416.5,272.3z"/>
	<path class="st3" d="M295.1,458c7.9,3.9,16,7.8,24.2,11.6c2.7,1.3,5.4,2.5,8.2,3.8c0.6-21.1,0.9-42.4,0.8-63.2
		c-13.4-5.8-26.6-11.8-39.4-17.7c-5.8-2.7-11.8-5.5-18-8.5c-0.2,8-0.6,15-0.8,20.7l-0.1,2.8c-0.6,11.8-1,24.2-1.3,36.7
		c2.3,1.2,4.5,2.4,6.8,3.6C282.1,451.4,288.7,454.8,295.1,458z"/>
	<path class="st1" d="M211.8,387.8c0,0.7,0.1,1.3,0.1,1.9c0.1,2.6,0.2,3.4,0.1,5.1c0,0.1,0,0.3,0,0.4c0,0.1-0.1,5.9-0.2,14.4
		c0,0.6,0,1.1,0,1.7c16.3,10.2,33.3,20.1,50.4,29.5c0.3-11.4,0.7-22.7,1.2-33.5l0.1-2.8c0.3-6.4,0.7-14.3,0.9-23.5
		c-18.2-8.7-36.4-17.9-54.3-27.2c0.1,3.2,0.3,6,0.4,8.7c0,1.1,0.1,2.1,0.1,3c0.1,1.5,0.1,2.8,0.2,4.1
		C211.3,379.2,211.6,384.4,211.8,387.8z"/>
	<path class="st2" d="M488.6,379.4l1-0.4c6.1-2.5,18.7-7.7,35.3-16c-0.1-6.8-0.2-13.6-0.3-20.1c-0.3-16.2-0.9-32.8-1.7-49.4
		c-5.9,3.1-11.7,6.2-17.1,9.2c-9.7,5.4-16.9,9.7-23.2,13.5c-6.3,3.8-12.2,7.3-19.4,11.2c-1.4,16.9-2.1,34-2.1,51.1
		c0,4.3,0.1,8.7,0.2,13.1C471,387,480.2,382.9,488.6,379.4z"/>
	<path class="st3" d="M334.7,405.9c17.7,7.6,35.5,15.1,53.2,22.1c0.1-3.3,0.2-6.6,0.3-10c0.4-20.2-0.3-40.6-2-60.6
		c-17.4-9.7-35.2-18.4-53-25.8c0.6,15.6,1,31.3,1.2,46.4C334.6,387,334.7,396.4,334.7,405.9z"/>
	<path class="st4" d="M531.6,381.8c0,9.9-0.1,19.9-0.2,29.9c-0.1,5-0.2,10-0.3,14.9c12.2-5.4,24.7-10.4,37.4-15v0c0-0.9,0-1.9,0-2.8
		c0-1.1,0-2.1,0-4.5l0-16.2c0-10.5,0-16.4,0-20v-0.2c0-4.5,0-5.1,0-6.7c-0.1-6.6-0.2-11-0.4-14.7c-9.2,5.6-18.6,11-28.1,16.1
		c-2.8,1.5-5.7,3-8.5,4.4C531.6,371.9,531.6,376.9,531.6,381.8z"/>
	<path class="st4" d="M262,448.1c-17-9.2-33.9-19-50.3-29.2c-0.1,12.2-0.1,28.2,0.3,39.1c0.2,5.1,1.4,9.6,3.5,13.3
		c0.3,0.5,0.6,1,0.9,1.5c0.2,0.3,0.4,0.5,0.6,0.8c0.1,0.2,0.3,0.4,0.4,0.6c0.2,0.3,0.5,0.6,0.7,0.8c0.1,0.2,0.3,0.3,0.4,0.5
		c0.2,0.3,0.5,0.5,0.7,0.8c0.2,0.2,0.3,0.3,0.4,0.5c0.2,0.2,0.5,0.5,0.8,0.7c0.2,0.2,0.3,0.3,0.5,0.5c0.2,0.2,0.5,0.4,0.8,0.6
		c0.2,0.2,0.4,0.3,0.6,0.5c0.2,0.2,0.5,0.3,0.7,0.5c0.2,0.2,0.4,0.3,0.7,0.5c0.2,0.1,0.4,0.3,0.7,0.4c0.3,0.2,0.5,0.3,0.8,0.5
		c10.8,5.6,21.8,11.5,32.5,17.7c1.4,0.8,2.7,1.6,3.9,2.3C261.5,483,261.6,465.2,262,448.1z"/>
	<path class="st4" d="M281.9,227.7l-0.8,0.5c14.8,8.7,29.9,17.4,44.7,25.8c18.6-11.9,37.5-23.5,56.2-34.3
		c-14.7-7.8-29.9-16.6-45.2-26.2c-3.1,1.7-5.8,3.2-8.3,4.6c-11.3,6.4-18.9,11.4-29.4,18.4c0,0,0,0,0,0l0,0
		C294.3,219.7,288.8,223.3,281.9,227.7z"/>
	<path class="st1" d="M415.9,309.2c-9.4-4.4-18.5-8.9-28.4-14c-4.5,2.5-9,5.2-13.5,7.9c-11.8,7-23.8,14.5-35.8,22.4
		c11,4.6,22.1,9.8,33,15.3c6.6,3.3,13.1,6.8,19.6,10.4c21.7-7,42.7-15.7,62.4-25.8c-9.5-3.8-18.8-7.8-27.7-11.8
		C422.2,312.1,419,310.6,415.9,309.2z"/>
	<path class="st4" d="M385.7,571.4c-1.3-14.2-2.2-28.4-2.5-42.5c-0.2-8.5-0.2-16.9,0-25.2c-2.1-0.8-4.2-1.6-6.2-2.4
		c-14.5-5.6-29.1-11.7-43.4-18c-0.6,19.4-1.5,39-2.6,58.4c1.1,0.6,2.1,1.1,3.1,1.6c1,0.5,2.1,1,3.1,1.6l0.4,0.2
		c6,3,12.9,6.4,21.8,11.9c5.8,3.5,11.4,7.3,16.9,11.2c0.5,0.3,1.1,0.6,1.8,0.9C380,570.1,382.6,571,385.7,571.4z"/>
	<path class="st3" d="M463.8,253.8c2.2,1.3,4.2,2.5,6.1,3.6c6.5,3.9,12.5,7.5,21.4,12c1.4,0.7,2.8,1.4,4.2,2.1
		c9.8,4.8,20,9.2,30.5,13c11.5-5.9,23.3-11.6,35.1-16.9c-2.1-2.7-4.7-4.9-7.5-6.6l-0.2-0.1c-10.7-7.2-21.8-14.2-33.1-20.8
		c-6.4-3.8-12.7-7.3-19-10.7c-12,8.4-24.4,16.5-37,24.1C464.1,253.6,463.9,253.7,463.8,253.8z"/>
	<path class="st1" d="M388.8,215.9c14.1-8.1,28.6-16.1,43.1-23.7c-9.5-5.7-19.1-11.6-28.4-17.8c-2.7-1.6-7.2-3.4-13-3.4
		c-4.6,0-9.1,1.2-13.1,3.5l-0.4,0.2c-11.2,4.5-22.4,9.7-33.5,15.3C358.8,199.4,374.1,208.1,388.8,215.9z"/>
	<path class="st5" d="M530.9,433.9c-0.6,20.8-1.5,42-2.8,62.8c8.6-4.9,17.1-10.1,25.1-15.6l0.2-0.1c2.8-1.6,6.8-4.6,9.7-9.7
		c2.3-4,3.5-8.6,3.5-13.2l0-0.2c1-13.9,1.6-27.1,1.8-39.4C555.6,423.3,543,428.4,530.9,433.9z"/>
	<path class="st5" d="M212,284.3c-1.1,7.2-1.9,14.5-2.4,21.8c-1,14.3-0.5,25-0.2,30.7c0,0.8,0.1,1.7,0.1,2.5
		c0.1,2.4,0.2,4.7,0.3,6.9c13.4,7,27.1,14,40.9,20.8c4.6,2.3,9.2,4.5,13.8,6.7c0.2-12.5-0.1-24.6-0.7-37.1
		c-0.5-10.9-1.4-22.1-2.5-33.2c-3.9-1.9-7.8-3.9-11.7-6c-4.7-2.6-9.3-5.3-13.8-8.1c-7.5-4.7-14.9-9.8-21.9-15.3
		c-0.9,2.3-1.5,4.8-1.8,7.3c-0.1,0.8-0.1,1.7-0.1,2.5L212,284.3z"/>
	<path class="st3" d="M268.4,451.6c-0.3,17.3-0.4,35.1-0.3,53.2c2.2,1.3,4.2,2.6,6.5,3.9l0.1,0.1c4.6,2.8,10.4,6.3,20.1,12.1
		c13.6,8,22.9,13.5,29.9,17.5c1.1-19.2,1.9-38.6,2.5-57.8c-11.8-5.3-23.6-10.9-35-16.6C284.6,460,276.6,455.9,268.4,451.6z"/>
	<path class="st6" d="M217.1,268.3c11.2,8.7,23.2,16.6,35.7,23.4c3,1.7,6.1,3.2,9,4.7c18.4-13.2,37.3-26.1,56.4-38.5
		c-15.1-8.5-30.2-17.3-45-26c-15.6,9.9-31.7,19.7-48,29.1C222.9,262.3,219.8,264.6,217.1,268.3z"/>
	<path class="st1" d="M434.4,485.1c-14.6,7.1-29.6,13.7-44.7,19.6c-0.5,21.9,0.4,44.4,2.5,66.8c1.8-0.2,3.6-0.6,5.3-1.2
		c1.7-0.6,3.4-1.3,4.9-2.2c14.7-8,29-16.5,42.7-25.1c4.2-2.6,8-5.1,11.8-7.6c0.7-22.5,1-43.5,0.9-62.5
		C450.1,477.2,442.6,481.1,434.4,485.1z"/>
	<path class="st4" d="M392.8,357.6c1.7,20,2.3,40.3,2,60.4c-0.1,3.1-0.1,6.2-0.3,9.3c21.7-12.6,42-23.6,60.5-32.7
		c-0.1-5.4-0.2-10.8-0.2-16.2c0-15.8,0.6-31.7,1.7-47.4c-0.1,0.1-0.2,0.1-0.4,0.2C436.1,341.6,414.8,350.4,392.8,357.6z"/>
	<path class="st4" d="M498.6,449.8c-8,4.3-15,8.4-21.8,12.3c-3.8,2.2-8,4.6-12.4,7.1c0.2,18.7-0.1,39.4-0.7,61.7
		c0.7-0.4,1.3-0.9,1.9-1.3c5.2-3.5,9.3-6.2,16.3-10c0.5-0.3,1.1-0.6,1.6-0.9c1-0.6,2-1.1,3-1.6c6.6-3.5,11.4-5.6,16.4-7.9
		c4.3-1.9,8.6-3.9,14.4-6.8c1.3-0.7,2.7-1.4,4.2-2.2c1.3-20.9,2.3-42.3,2.9-63.5C515.6,441,506.9,445.3,498.6,449.8z"/>
	<path class="st5" d="M494.8,226c-5-2.6-9.7-5-14.6-7.5c-11.1-5.6-22.5-11.4-37.4-20c-1.4-0.8-2.9-1.7-4.3-2.5
		c-14.3,7.5-28.7,15.4-42.8,23.4c6.5,3.3,12.9,6.4,19,9.3c1.9,0.9,3.8,1.7,5.7,2.6c7.7,3.5,15.7,7.2,27,13.3
		c3.5,1.9,6.8,3.7,10.1,5.5c1.2-0.7,2.3-1.4,3.5-2.1C472.4,241.1,483.8,233.7,494.8,226z"/>
	<path class="st6" d="M503.1,296.8c4.8-2.7,9.9-5.5,15.2-8.3c-10.3-4-20.4-8.5-29.9-13.3c-9.1-4.6-15.2-8.3-21.8-12.2c0,0,0,0,0,0
		l0,0l0,0c-2.9-1.7-5.9-3.5-9.2-5.4c-16.2,9.5-29.3,16.1-38,20.5c-1.3,0.7-2.6,1.3-3.8,1.9c-6.9,3.5-14.1,7.4-21.4,11.4
		c11.6,5.9,22.1,11,33.8,16.3c10.7,4.8,21.6,9.4,32.6,13.7c7.1-3.8,13-7.4,19.2-11.1C486.3,306.5,493.4,302.2,503.1,296.8z"/>
	<path class="st2" d="M529.3,290.2c0.9,17.5,1.5,35.2,1.9,52.5c0.1,5.5,0.2,11.2,0.3,17c1.9-1,3.7-1.9,5.5-2.9
		c10.4-5.5,20.8-11.5,30.8-17.8l0-0.2c-0.2-4.4-0.5-9.5-0.7-16.7c-0.3-9.4-0.5-19-0.5-28.7c0-3.2,0-6.5,0-9.7
		c0-2.5-0.4-6.4-2.2-10.5C552.6,278.6,540.8,284.3,529.3,290.2z"/>
	<path class="st5" d="M334.7,413c0,20.9-0.3,42.2-0.9,63.3c16.3,7.3,33,14.2,49.6,20.5c0.5-13,1.3-23.4,2.1-33.2
		c0.1-0.7,0.1-1.3,0.2-2c0.7-8.2,1.4-16.7,1.9-26.7C370.2,427.9,352.4,420.6,334.7,413z"/>
	<path class="st3" d="M302.1,311.7c8.4,3,17.8,6.3,28.9,10.8c16.7-11.1,33.4-21.5,49.8-30.9c-5.4-2.9-11.5-6.2-18.9-10.2
		c-11.5-6.3-23.6-13-35.7-19.8c-18.8,12.1-37.5,24.9-55.7,37.8C281.4,304.4,291.5,307.9,302.1,311.7z"/>
	<path class="st5" d="M461.6,398.7c0.3,9.4,0.8,16.3,1,20.1l0.1,0.9c0.3,4.7,0.6,9.6,0.8,14.8c0.4,8.6,0.6,17.7,0.8,27.3
		c3.3-1.9,6.4-3.7,9.2-5.3c6.9-4,14-8.1,22-12.5c9.3-5,19-9.9,29-14.4c0.5-19.7,0.7-39.7,0.5-59.4c-15.6,7.7-27.7,12.6-32.9,14.8
		l-1,0.4C482,389.2,472.1,393.6,461.6,398.7z"/>
	<path class="st2" d="M456.2,420.1l-0.1-0.9c0-0.2,0-0.4,0-0.7c-0.2-3.5-0.6-9.3-0.9-16.8c-18.7,9.3-39.2,20.4-61.1,33.2
		c-0.5,10.2-1.2,18.8-1.9,27.1c-0.9,10.5-1.8,21.4-2.3,35.4c14-5.6,28-11.7,41.6-18.4c9.1-4.4,17.5-8.8,26.3-13.7
		C457.6,448.8,457.1,433.6,456.2,420.1z"/>
	<g>
		<path class="st7" d="M389.8,350.7c21-6.8,41.2-15.1,60.3-24.8c-8.8-3.6-17.6-7.3-25.9-11.1c-13-5.9-24.7-11.5-37.8-18.3
			c-15.6,8.9-31.6,18.7-47.6,29.2C355.9,333,373,341.4,389.8,350.7z"/>
		<path class="st7" d="M393.8,358.3c1.6,19.8,2.3,39.9,1.9,59.8c0,2.5-0.1,5-0.2,7.5c20.9-12.1,40.6-22.7,58.5-31.5
			c-0.1-5.2-0.2-10.4-0.2-15.6c0-15.2,0.5-30.6,1.6-45.8C435.9,342.7,415.2,351.3,393.8,358.3z"/>
		<path class="st7" d="M335.5,377.9c0.1,8.8,0.2,18,0.3,27.3c17,7.4,34.3,14.5,51.3,21.3c0.1-2.9,0.2-5.7,0.2-8.6
			c0.4-20-0.3-40.2-2-60c-16.8-9.3-33.9-17.7-51-24.9C334.8,348.1,335.2,363.2,335.5,377.9z"/>
		<path class="st7" d="M292,385.7c11.5,5.3,23.4,10.7,35.2,15.9c0-8-0.1-15.9-0.2-23.5c-0.3-16-0.7-32.4-1.3-48.6
			c-10.6-4.2-19.7-7.5-27.8-10.3c-9.7-3.4-18.8-6.7-28.6-10.9c0.9,9.5,1.6,18.9,2,28.1c0.2,3.5,0.3,6.9,0.4,10.3
			c0.3,9.9,0.4,19.6,0.2,29.6C278.7,379.5,285.4,382.6,292,385.7z"/>
		<path class="st7" d="M387.8,224.1l-2.3,1.4c-17.6,10.2-35.3,21-52.8,32.1c7.7,4.3,15.4,8.6,23,12.8c2.8,1.6,5.7,3.1,8.5,4.7
			c6.9,3.8,12.8,6.9,18,9.7c1.4,0.7,2.8,1.5,4.1,2.2c8.5-4.7,16.9-9.2,25-13.4l3.8-1.9c7.6-3.9,19.1-9.7,33.1-17.7
			c-1.7-0.9-3.4-1.8-5.1-2.8c-11.3-6-19.2-9.6-26.8-13.2l-0.3-0.2c-1.8-0.8-3.6-1.7-5.4-2.5C403,231.8,395.4,228.1,387.8,224.1z"/>
		<path class="st7" d="M271.8,385.6c-0.2,7.4-0.5,13.8-0.8,19.1l-0.1,2.9c-0.5,11.6-1,23.7-1.3,36.1c8.9,4.8,17.6,9.3,25.9,13.4
			c10.1,5.1,20.5,10,31,14.8c0.5-20.4,0.8-40.9,0.8-61.1c-13.2-5.7-26.2-11.6-38.8-17.4C283.1,390.9,277.5,388.3,271.8,385.6z"/>
		<path class="st7" d="M488.3,378.5l1-0.4c6-2.5,18.4-7.6,34.7-15.7c-0.1-6.6-0.2-13.1-0.3-19.5c-0.3-15.6-0.9-31.7-1.6-47.8
			c-5.4,2.9-10.7,5.7-15.7,8.5c-9.7,5.4-16.8,9.7-23.1,13.5l-4.8,2.9c-4,2.4-8.7,5.1-14.2,8.1c-1.4,16.7-2,33.6-2,50.5
			c0,3.9,0,7.7,0.1,11.6C471.5,385.7,480.2,381.8,488.3,378.5z"/>
		<path class="st7" d="M459.9,320.7c6.9-3.8,12.8-7.3,18.9-10.9c6.4-3.8,13.6-8.2,23.4-13.6c4.3-2.4,8.8-4.8,13.4-7.3
			c-9.7-3.8-19.2-8.1-28.2-12.7l-1.7-0.9c-8.2-4.3-14.1-7.8-20.4-11.5c-2.7-1.6-5.6-3.3-8.7-5.1c-16.2,9.4-29.2,16-37.8,20.4
			l-3.8,1.9c-1.9,1-3.8,1.9-5.7,2.9c-4.7,2.4-9.4,5-14.2,7.6c11,5.6,21.1,10.5,32.4,15.5C438.2,311.8,449.1,316.4,459.9,320.7z"/>
		<path class="st7" d="M290,233.1c11.4,6.6,22.9,13.2,34.3,19.7c11.6-7.4,23.4-14.8,35.1-21.8c6.5-3.9,13-7.8,19.5-11.5
			c-14.2-7.6-28.8-16.1-43.6-25.3c-2.9,1.6-5.5,3-7.8,4.3l-2.1,1.2c-10.3,5.9-17.5,10.7-27.4,17.3l-1.1-1.7l0,0l1.1,1.7
			c-4.8,3.2-10.2,6.8-16.8,11C284.1,229.7,287.1,231.4,290,233.1z"/>
		<path class="st7" d="M344,189.6c14.8,9.1,29.4,17.4,43.5,24.8c13.6-7.8,27.5-15.4,41.4-22.8c-9.1-5.4-18.2-11.2-27.2-17.1
			c-2.5-1.4-6.9-3.3-12.5-3.3c-4.4,0-8.8,1.2-12.6,3.4l-0.6,0.3c-10.3,4.2-20.7,8.9-30.9,14C344.8,189.2,344.4,189.4,344,189.6z"/>
		<path class="st7" d="M565.5,281c-0.3-2.2-0.8-4.3-1.6-6.4c-2.5,1.1-4.9,2.2-7.3,3.4c-8.8,4.1-17.6,8.4-26.2,12.8
			c0.8,17.3,1.5,34.8,1.8,51.9c0.1,5,0.2,10.1,0.3,15.4c1.4-0.7,2.8-1.4,4.1-2.2c10.2-5.4,20.4-11.3,30.3-17.4l-0.2-4
			c-0.2-3.4-0.3-7.3-0.5-12.3c-0.4-12.5-0.6-25.5-0.5-38.4C565.6,282.9,565.6,281.9,565.5,281z"/>
		<path class="st7" d="M567.6,411l0-6.6l0-36.5c0-4.5,0-5.1,0-6.7c-0.1-5.6-0.2-9.6-0.3-13c-8.7,5.3-17.7,10.4-26.8,15.2
			c-2.6,1.4-5.3,2.8-8,4.2c0.2,19.1,0,38.4-0.4,57.6C543.6,420,555.5,415.3,567.6,411z"/>
		<path class="st7" d="M462.6,399.3c0.3,9.1,0.8,15.8,1,19.5l0.1,0.9c0.8,12.1,1.3,25.7,1.5,40.5c2.7-1.5,5.2-3,7.6-4.4l0.2-0.1
			c6.9-4,13.9-8.1,22-12.4c9.1-4.9,18.7-9.7,28.5-14.2c0.5-19,0.6-38.2,0.5-57.2c-15,7.3-26.5,12-31.5,14.1l-1,0.4
			C482.6,390,472.8,394.4,462.6,399.3z"/>
		<path class="st7" d="M211.2,355.4l0,0.3c0.9,18.7,1.3,27.3,1.6,31.9l-2,0.1l0,0.1l2-0.1c0.2,4.4,0.3,5,0.2,7.4
			c0,0.2-0.1,6.5-0.2,15.6l0.2,0.2c15.6,9.8,31.8,19.3,48.2,28.2c0.1-3.4,0.2-6.7,0.3-10.1c0.2-7.3,0.5-14.7,0.9-21.9v0l0.1-2.8
			c0.3-6.2,0.7-13.8,0.9-22.8C245.9,373.2,228.4,364.4,211.2,355.4z"/>
		<path class="st7" d="M483,517.9c8.3-4.5,13.7-6.9,19.4-9.5c5.1-2.3,10.4-4.7,18.1-8.7c1.3-20.2,2.2-40.8,2.8-61.3
			c-8.2,3.9-16.4,8-24.2,12.2c-7.9,4.3-15,8.4-21.8,12.3c-3.7,2.1-7.7,4.5-12,6.9c0.2,18-0.1,37.9-0.7,59.2
			C470.5,525.2,474.9,522.3,483,517.9z"/>
		<path class="st7" d="M338,544.2c6.1,3,12.9,6.4,21.9,11.9c5.8,3.5,11.5,7.3,16.9,11.2c1.8,1,4.4,2.2,7.8,2.8
			c-2-22.1-2.8-44.3-2.4-65.9c-16-6.1-32-12.6-47.7-19.6c-0.5,14.2-1.1,28.4-1.8,42.5c-0.2,4.6-0.5,9.2-0.8,13.8
			c0.9,0.5,1.7,0.9,2.6,1.3L338,544.2z"/>
		<path class="st7" d="M269.8,504.6c1.7,1,3.4,2.1,5.2,3.2l0.3,0.2c4.6,2.8,10.3,6.3,19.9,12l0.2,0.1c12.6,7.4,21.5,12.7,28.3,16.5
			c1-18.4,1.8-37.1,2.4-55.5c-11.6-5.2-23.2-10.8-34.5-16.4c-7.2-3.6-14.7-7.4-22.4-11.5c-0.3,16.5-0.4,33.7-0.3,51L269.8,504.6z"/>
		<path class="st7" d="M456.1,534.8c0.7-21.7,1-41.9,0.9-60.3c-7.3,4-14.4,7.7-22.1,11.4c-14.5,7-29.3,13.6-44.1,19.4
			c0,2.4-0.1,4.7-0.1,7.1c-0.1,19.1,0.7,38.6,2.5,58c3.1-0.5,6.1-1.5,8.8-3.1c14.7-8.1,29-16.5,42.7-25.1
			C448.7,539.6,452.4,537.3,456.1,534.8z"/>
		<path class="st7" d="M360,282.4c-11.5-6.3-23.4-12.9-35.5-19.7c-18.3,11.8-36.4,24.2-54.1,36.8c10.4,4.6,20,8.1,30.2,11.7
			c8.3,2.9,17.7,6.3,28.6,10.7c16.1-10.8,32.3-20.8,48.2-30C372.4,289.1,366.8,286.1,360,282.4z"/>
		<path class="st7" d="M216.4,470.8c2.2,3.8,5.4,7,9.3,9.3c10.7,5.5,21.7,11.5,32.4,17.6c0.9,0.5,1.7,1,2.5,1.4
			c-0.1-17.1,0-34.1,0.4-50.5c-16.4-8.9-32.6-18.3-48.3-28c-0.1,11.9-0.1,26.9,0.3,37.3C213.2,462.9,214.3,467.3,216.4,470.8z"/>
		<path class="st7" d="M562.2,470.8c2.2-3.8,3.4-8.2,3.4-12.7l0-0.3c0.1-1.8,0.2-3.6,0.4-5.4c0.7-11.3,1.2-22.2,1.4-32.5
			c-12.1,4.4-24,9.3-35.5,14.5c-0.5,20-1.4,40.3-2.6,60.4c8.1-4.6,15.9-9.5,23.4-14.6l0.2-0.1C555.6,478.6,559.4,475.7,562.2,470.8z
			"/>
		<path class="st7" d="M335.7,414.5c0,20.3-0.3,40.9-0.9,61.2c15.7,7,31.7,13.6,47.7,19.7c0.5-13.2,1.4-23.7,2.2-33.8
			c0.7-8.1,1.4-16.4,1.9-26.1C369.8,428.8,352.7,421.8,335.7,414.5z"/>
		<path class="st7" d="M431.1,478.3c8.9-4.3,17.1-8.6,25.7-13.4c-0.2-16.4-0.7-31.5-1.6-44.7l-0.1-0.9c-0.2-3.2-0.6-8.7-0.9-15.9
			c-18.2,9.1-38.1,19.9-59.2,32.3c-0.1,2.2-0.2,4.4-0.4,6.4c-0.4,7.2-1,13.6-1.5,19.8l0,0.3c-0.7,7.9-1.4,16-1.9,25.5
			c-0.1,2.7-0.3,5.4-0.4,8.4c9.9-3.9,19.8-8.2,29.5-12.7C424,481.7,427.6,480,431.1,478.3z"/>
		<path class="st7" d="M210.3,336.8l0.4,8.8c17.3,9,35,18,52.8,26.6c0.1-11.9-0.1-23.6-0.7-35.5c-0.5-10.7-1.3-21.7-2.5-32.6
			c-3.8-1.8-7.5-3.7-11.3-5.8c-12.1-6.6-23.8-14.2-34.8-22.6c-0.9,2.6-1.4,5.4-1.4,8.1l-0.1,0.7c-1.1,7.1-1.9,14.4-2.4,21.7
			C209.6,320.4,210.1,331.1,210.3,336.8z"/>
		<path class="st7" d="M441.5,198.9c-1.3-0.7-2.6-1.5-3.9-2.2c-11,5.8-22.1,11.8-33.1,17.9c-2.6,1.5-5.3,3-7.9,4.5
			c6,3,11.8,5.9,17.5,8.5c1.9,0.9,3.8,1.8,5.7,2.6c7.8,3.6,15.8,7.3,27.3,13.4c3.3,1.8,6.5,3.5,9.7,5.3c1-0.6,2-1.2,3-1.8
			c11.1-6.7,22.1-13.8,32.8-21.2c-4.4-2.3-8.7-4.5-13.2-6.8C468,213.4,456.5,207.5,441.5,198.9z"/>
		<path class="st7" d="M553,261.9l-0.3-0.2c-10.7-7.2-21.9-14.2-33.2-20.9c-6.3-3.7-12.4-7.1-18.6-10.5c-11.6,8.1-23.7,16-35.9,23.4
			c1.5,0.9,2.9,1.7,4.4,2.6l0.4,0.2c2.1,1.3,4.1,2.4,6.1,3.6c3.6,2.1,8.7,5,15.4,8.4c7,3.5,14.3,6.9,21.7,10c4.2,1.7,8.4,3.4,12.7,5
			c11.1-5.7,22.4-11.2,33.8-16.3C557.6,265.1,555.4,263.3,553,261.9z"/>
		<path class="st7" d="M218.4,268.1c11,8.5,22.7,16.1,34.8,22.7c2.8,1.5,5.7,3,8.5,4.4c17.8-12.8,36.1-25.3,54.6-37.3
			c-14.4-8.2-28.9-16.6-43.1-24.9c-15.4,9.8-31.4,19.5-47.5,28.8C223.7,263,220.9,265,218.4,268.1z"/>
		<path d="M576,361.1c-0.1-10.2-0.4-16-0.7-22.6c-0.2-4.4-0.5-9.4-0.7-16.5c-0.4-12.4-0.6-25.2-0.5-38.1c0-4.1-0.8-10.4-4.5-16.9
			c-2.9-5.1-7.2-9.4-12.1-12.2c-10.9-7.3-22.2-14.4-33.6-21.1c-16.3-9.6-28.2-15.6-40.9-22.1c-11-5.6-22.4-11.4-37.3-19.9
			c-13.1-7.5-26.3-15.6-39.2-24.1l-0.2-0.1c-3.6-2.1-9.4-4.5-16.9-4.5c-5.9,0-11.6,1.5-16.7,4.4c-16.8,6.8-33.4,14.8-49.3,23.9
			c-11.6,6.6-19.3,11.7-30,18.8c-4.9,3.3-10.5,6.9-17.3,11.4c-17.6,11.3-35.9,22.5-54.6,33.3c-3.6,2.1-8.6,5.9-12.4,12.4
			c-2.9,5.1-4.5,10.8-4.5,16.6c-1.1,7.3-1.9,14.7-2.4,22.1c-1,14.7-0.5,25.7-0.2,31.6c1.4,32.6,2.1,45.1,2.4,51
			c0.2,4.5,0.3,4.7,0.2,6.8c-0.1,4.3-0.8,42.5,0,63.3c0.2,6.3,1.8,12,4.5,16.8c3,5.1,7.2,9.4,12.4,12.4l0.2,0.1
			c10.7,5.5,21.6,11.4,32.3,17.5c7.5,4.3,11.6,6.8,16.8,10c4.6,2.8,10.4,6.4,20.3,12.2c21.1,12.5,31.7,18.7,39.8,22.8l3.5,1.8
			c6.2,3.1,12.6,6.3,21.3,11.6c5.6,3.4,11.2,7.1,16.7,11.1l0.3,0.2c3.6,2.1,9.4,4.5,16.9,4.5c5.9,0,11.8-1.6,16.8-4.5
			c14.8-8.1,29.3-16.6,43.1-25.3c8.5-5.4,14-9.1,18.4-12.1c6.5-4.4,10.8-7.3,19.4-11.9c8-4.3,13.3-6.7,18.9-9.2
			c5.7-2.6,11.6-5.2,20.7-10.1c10.6-5.7,21-12.1,30.7-18.7c3.6-2.1,8.6-5.9,12.3-12.3c3-5.1,4.5-10.9,4.5-16.7
			c1.2-17.8,1.9-34.5,1.9-49.5l0-41C576.1,363.3,576.1,362.7,576,361.1z M296.9,215.2L296.9,215.2l1.1,1.7
			c10-6.6,17.2-11.4,27.4-17.3l2.1-1.2c2.3-1.3,4.9-2.7,7.8-4.3c14.8,9.2,29.4,17.7,43.6,25.3c-6.5,3.8-13,7.6-19.5,11.5
			c-11.7,7.1-23.5,14.4-35.1,21.8c-11.4-6.4-22.9-13.1-34.3-19.7c-3-1.7-5.9-3.4-8.8-5.2c6.6-4.3,12-7.9,16.8-11L296.9,215.2z
			 M376.1,175l0.6-0.3c3.8-2.2,8.2-3.4,12.6-3.4c5.6,0,10,1.8,12.5,3.3c9,5.9,18.1,11.6,27.2,17.1c-13.9,7.4-27.8,15-41.4,22.8
			c-14.1-7.4-28.8-15.8-43.5-24.8c0.4-0.2,0.7-0.4,1.1-0.6C355.4,183.9,365.8,179.1,376.1,175z M566.1,322.2c0.2,5,0.3,8.9,0.5,12.3
			l0.2,4c-9.9,6.1-20.1,12-30.3,17.4c-1.3,0.7-2.7,1.4-4.1,2.2c-0.1-5.2-0.2-10.4-0.3-15.4c-0.4-17.2-1-34.7-1.8-51.9
			c8.6-4.4,17.4-8.7,26.2-12.8c2.4-1.1,4.9-2.3,7.3-3.4c0.8,2,1.3,4.2,1.6,6.4c0.1,1,0.2,1.9,0.2,2.8
			C565.5,296.7,565.7,309.7,566.1,322.2z M262.4,407.2L262.4,407.2c-0.3,7.2-0.6,14.6-0.9,21.9c-0.1,3.3-0.2,6.7-0.3,10.1
			c-16.4-9-32.6-18.5-48.2-28.2l-0.2-0.2c0.1-9,0.2-15.4,0.2-15.6c0-2.5,0-3-0.2-7.4l-2,0.1l0-0.1l2-0.1c-0.3-4.6-0.7-13.2-1.6-31.9
			l0-0.3c17.2,9,34.8,17.7,52.2,26.1c-0.2,8.9-0.6,16.6-0.9,22.8L262.4,407.2z M532.5,367.6c2.7-1.4,5.4-2.8,8-4.2
			c9-4.8,18-9.9,26.8-15.2c0.1,3.3,0.2,7.4,0.3,13c0,1.6,0,2.2,0,6.7l0,36.5l0,6.6c-12,4.3-23.9,9.1-35.4,14.2
			C532.5,406,532.7,386.7,532.5,367.6z M524.1,371.8c0.1,19-0.1,38.2-0.5,57.2c-9.8,4.5-19.3,9.3-28.5,14.2
			c-8.1,4.4-15.1,8.4-22,12.4l-0.2,0.1c-2.4,1.4-4.9,2.9-7.6,4.4c-0.2-14.8-0.8-28.4-1.5-40.5l-0.1-0.9c-0.2-3.7-0.7-10.4-1-19.5
			c10.2-4.9,19.9-9.3,28.9-13l1-0.4C497.6,383.8,509.1,379.1,524.1,371.8z M326.5,471.9c-10.4-4.8-20.8-9.7-31-14.8
			c-8.3-4.2-17-8.7-25.9-13.4c0.3-12.4,0.7-24.5,1.3-36.1l0.1-2.9c0.3-5.3,0.6-11.7,0.8-19.1c5.7,2.7,11.4,5.4,16.7,7.8
			c12.6,5.8,25.6,11.7,38.8,17.4C327.3,431,327,451.5,326.5,471.9z M387.2,417.9c-0.1,2.9-0.1,5.7-0.2,8.6
			c-17-6.8-34.3-13.9-51.3-21.3c0-9.4-0.1-18.6-0.3-27.3c-0.2-14.7-0.6-29.8-1.2-44.9c17.1,7.2,34.2,15.6,51,24.9
			C387,377.7,387.6,397.9,387.2,417.9z M386.4,296.5c13.1,6.8,24.8,12.5,37.8,18.3c8.4,3.8,17.1,7.5,25.9,11.1
			c-19.1,9.7-39.4,18.1-60.3,24.8c-16.8-9.4-33.9-17.8-51-25C354.7,315.2,370.7,305.4,386.4,296.5z M454,394.1
			c-17.9,8.8-37.5,19.4-58.5,31.5c0.1-2.5,0.1-5,0.2-7.5c0.4-19.9-0.3-40-1.9-59.8c21.4-7,42.1-15.6,61.6-25.6
			c-1.1,15.2-1.6,30.6-1.6,45.8C453.8,383.7,453.9,388.9,454,394.1z M409.4,283.9c1.9-1,3.8-2,5.7-2.9l3.8-1.9
			c8.7-4.4,21.7-11,37.8-20.4c3.1,1.8,5.9,3.5,8.7,5.1c6.2,3.7,12.1,7.2,20.4,11.5l1.7,0.9c9.1,4.6,18.5,8.9,28.2,12.7
			c-4.6,2.5-9.1,4.9-13.4,7.3c-9.7,5.4-17,9.8-23.4,13.6c-6.2,3.7-12,7.2-18.9,10.9c-10.9-4.3-21.7-8.9-32.3-13.6
			c-11.3-5.1-21.4-9.9-32.4-15.5C400,288.9,404.8,286.4,409.4,283.9z M464.3,328c5.4-3,10.2-5.8,14.2-8.1l4.8-2.9
			c6.3-3.8,13.5-8.1,23.1-13.5c5-2.8,10.2-5.6,15.7-8.5c0.8,16.1,1.3,32.2,1.6,47.8c0.1,6.3,0.2,12.9,0.3,19.5
			c-16.3,8.1-28.7,13.2-34.7,15.7l-1,0.4c-8.1,3.3-16.8,7.2-25.9,11.5c-0.1-3.8-0.1-7.7-0.1-11.6C462.2,361.6,462.9,344.7,464.3,328
			z M416.2,237.9c7.6,3.5,15.5,7.1,26.8,13.2c1.8,0.9,3.5,1.9,5.1,2.8c-14,8-25.4,13.8-33.1,17.7l-3.8,1.9
			c-8.2,4.2-16.6,8.7-25,13.4c-1.3-0.7-2.7-1.4-4.1-2.2c-5.3-2.8-11.1-6-18-9.7c-2.8-1.5-5.6-3.1-8.5-4.7c-7.6-4.2-15.3-8.4-23-12.8
			c17.4-11.1,35.2-21.9,52.8-32.1l2.3-1.4c7.7,4,15.3,7.7,22.7,11.2c1.8,0.8,3.6,1.7,5.4,2.5L416.2,237.9z M271.7,346.7
			c-0.1-3.4-0.2-6.9-0.4-10.3c-0.4-9.2-1.1-18.6-2-28.1c9.7,4.2,18.9,7.5,28.6,10.9c8.1,2.9,17.2,6.1,27.8,10.3
			c0.6,16.2,1.1,32.6,1.3,48.6c0.1,7.6,0.2,15.5,0.2,23.5c-11.8-5.2-23.7-10.5-35.2-15.9c-6.6-3.1-13.4-6.2-20-9.4
			C272.1,366.2,272.1,356.5,271.7,346.7z M329.3,321.8c-11-4.4-20.3-7.7-28.6-10.7c-10.2-3.6-19.8-7-30.2-11.7
			c17.7-12.6,35.9-24.9,54.1-36.8c12.1,6.8,24,13.4,35.5,19.7c6.7,3.7,12.3,6.7,17.4,9.4C361.6,301,345.5,311,329.3,321.8z
			 M391.3,487.7c0.5-9.5,1.2-17.6,1.9-25.5l0-0.3c0.5-6.2,1.1-12.6,1.5-19.8c0.1-2.1,0.3-4.2,0.4-6.4c21.1-12.4,41-23.2,59.2-32.3
			c0.3,7.2,0.7,12.7,0.9,15.9l0.1,0.9c0.9,13.2,1.4,28.3,1.6,44.7c-8.6,4.8-16.8,9.1-25.7,13.4c-3.5,1.7-7.1,3.4-10.6,5
			c-9.7,4.5-19.6,8.8-29.5,12.7C391.1,493.2,391.2,490.4,391.3,487.7z M384.7,461.6c-0.9,10.1-1.7,20.6-2.2,33.8
			c-15.9-6.1-32-12.7-47.7-19.7c0.6-20.3,0.9-40.9,0.9-61.2c17,7.3,34.1,14.4,50.9,21C386.1,445.3,385.4,453.5,384.7,461.6z
			 M525.7,283.6c-4.3-1.6-8.5-3.2-12.7-5c-7.4-3.1-14.7-6.5-21.7-10c-6.7-3.4-11.7-6.3-15.4-8.4c-2-1.2-4-2.3-6.1-3.6l-0.4-0.2
			c-1.4-0.8-2.9-1.7-4.4-2.6c12.2-7.4,24.2-15.2,35.9-23.4c6.2,3.4,12.3,6.8,18.6,10.5c11.3,6.7,22.5,13.7,33.2,20.9l0.3,0.2
			c2.4,1.4,4.6,3.3,6.5,5.4C548.1,272.4,536.7,277.9,525.7,283.6z M459.7,247.1c-1,0.6-2,1.2-3,1.8c-3.2-1.8-6.3-3.5-9.7-5.3
			c-11.5-6.1-19.5-9.8-27.3-13.4c-1.9-0.9-3.8-1.8-5.7-2.6c-5.6-2.6-11.5-5.5-17.5-8.5c2.6-1.5,5.3-3,7.9-4.5
			c11-6.1,22.1-12.1,33.1-17.9c1.3,0.8,2.6,1.5,3.9,2.2c15.1,8.6,26.6,14.5,37.9,20.2c4.5,2.3,8.8,4.5,13.2,6.8
			C481.8,233.3,470.8,240.4,459.7,247.1z M273.2,233.1c14.2,8.3,28.7,16.7,43.1,24.9c-18.4,12-36.8,24.5-54.6,37.3
			c-2.8-1.4-5.7-2.9-8.5-4.4c-12.1-6.6-23.8-14.3-34.8-22.7c2.5-3.1,5.2-5.1,7.2-6.2C241.8,252.6,257.8,242.9,273.2,233.1z
			 M213,283.8c0-2.7,0.5-5.5,1.4-8.1c11,8.4,22.7,16,34.8,22.6c3.8,2.1,7.5,4,11.3,5.8c1.1,10.9,1.9,21.9,2.5,32.6
			c0.6,11.9,0.8,23.6,0.7,35.5c-17.8-8.6-35.6-17.5-52.8-26.6l-0.4-8.8c-0.3-5.7-0.7-16.4,0.2-30.6c0.5-7.3,1.3-14.6,2.4-21.7
			L213,283.8z M212.7,420.7c15.7,9.7,31.9,19.1,48.3,28c-0.4,16.4-0.5,33.4-0.4,50.5c-0.8-0.5-1.6-0.9-2.5-1.4
			c-10.8-6.2-21.7-12.1-32.4-17.6c-3.9-2.2-7.1-5.4-9.3-9.3c-2.1-3.6-3.2-7.9-3.4-12.8C212.6,447.5,212.6,432.6,212.7,420.7z
			 M269.4,453.2c7.7,4.1,15.2,8,22.4,11.5c11.3,5.6,22.9,11.1,34.5,16.4c-0.6,18.5-1.4,37.1-2.4,55.5c-6.8-3.8-15.6-9.1-28.3-16.5
			l-0.2-0.1c-9.6-5.7-15.3-9.2-19.9-12l-0.3-0.2c-1.8-1.1-3.5-2.1-5.2-3.2l-0.8-0.5C268.9,486.8,269,469.7,269.4,453.2z
			 M332.8,527.3c0.7-14.1,1.3-28.4,1.8-42.5c15.7,6.9,31.7,13.5,47.7,19.6c-0.5,21.6,0.3,43.7,2.4,65.9c-3.3-0.6-6-1.8-7.8-2.8
			c-5.4-3.9-11.1-7.7-16.9-11.2c-9-5.5-15.8-8.9-21.9-11.9l-3.5-1.7c-0.8-0.4-1.7-0.8-2.6-1.3C332.3,536.6,332.5,531.9,332.8,527.3z
			 M393.1,570.4c-1.8-19.4-2.7-38.9-2.5-58c0-2.4,0-4.7,0.1-7.1c14.8-5.8,29.7-12.3,44.1-19.4c7.7-3.8,14.8-7.4,22.1-11.4
			c0.1,18.4-0.2,38.6-0.9,60.3c-3.7,2.4-7.3,4.8-11.4,7.3c-13.7,8.6-28,17.1-42.7,25.1C399.3,568.9,396.2,569.9,393.1,570.4z
			 M465.4,469.8c4.3-2.4,8.3-4.8,12-6.9c6.8-3.9,13.8-8,21.8-12.3c7.8-4.2,16-8.3,24.2-12.2c-0.6,20.5-1.6,41.1-2.8,61.3
			c-7.7,4.1-12.9,6.4-18.1,8.7c-5.7,2.6-11.1,5-19.4,9.5c-8.1,4.4-12.5,7.3-18.3,11.1C465.3,507.7,465.5,487.8,465.4,469.8z
			 M552.9,480.2l-0.2,0.1c-7.5,5.1-15.3,10-23.4,14.6c1.2-20.1,2.1-40.4,2.6-60.4c11.5-5.2,23.4-10,35.5-14.5
			c-0.2,10.2-0.7,21.2-1.4,32.5c-0.1,1.8-0.2,3.6-0.4,5.4l0,0.3c0,4.4-1.2,8.8-3.4,12.7C559.4,475.7,555.6,478.6,552.9,480.2z"/>
	</g>
	
		<ellipse transform="matrix(0.6393 -0.769 0.769 0.6393 -39.3339 143.1657)" class="st8" cx="132.9" cy="113.5" rx="27.3" ry="16.8"/>
	<g>
		<path class="st9" d="M73.3,32.8c-6,4.3-12.6,9.5-19.4,15.8C47,55,41.4,61.3,36.7,67c-0.1,0.1-0.8,0.8-0.8,1.8
			c0,0.7,0.3,1.3,0.9,1.8c7.4,7.6,16.2,15.7,26.7,23.7c7.4,5.7,14.6,10.7,21.4,14.9c0.2,0.1,0.4,0.4,0.6,0.7
			c0.1,0.3,0.2,0.6,0.3,0.9c-0.1,8.2,0.2,17.5,1.4,27.5c1.1,9.7,2.7,18.5,4.5,26.3c1,0.5,2.6,1.1,4.4,1c7.7-0.5,11.5-13.3,18.4-26.9
			c4.4-8.6,9.6-18.8,18.9-28.2c16.9-17.2,32.8-26.1,32.8-26.1c2.8-1.6,10.3-5.6,10.4-11.3c0.1-1.8-0.6-3.3-1.2-4.2
			c-4.1-1.2-8.7-2.3-13.6-3.1c-10-1.8-19-2.3-26.7-2.1c-0.2-0.1-0.5-0.1-0.8-0.3c-12.4-4-20.7-10.1-22.8-11.6
			C105.8,47.7,95.1,41.7,73.3,32.8z"/>
	</g>
	<g>
		<path class="st8" d="M126.5,206.4l-6.7-36.6c-0.3-1.9,0.9-3.7,2.8-4.1l0,0c1.9-0.3,3.7,0.9,4.1,2.8l6.7,36.6
			c0.3,1.9-0.9,3.7-2.8,4.1l0,0C128.6,209.6,126.8,208.3,126.5,206.4z"/>
	</g>
	<g>
		<path class="st8" d="M177.5,181.7l-25.2-27.4c-1.3-1.4-1.2-3.6,0.2-4.9l0,0c1.4-1.3,3.6-1.2,4.9,0.2l25.2,27.4
			c1.3,1.4,1.2,3.6-0.2,4.9l0,0C181,183.3,178.8,183.2,177.5,181.7z"/>
	</g>
	<g>
		<path class="st8" d="M207.7,142.3l-33.2-16.9c-1.7-0.9-2.4-3-1.5-4.7v0c0.9-1.7,3-2.4,4.7-1.5l33.2,16.9c1.7,0.9,2.4,3,1.5,4.7v0
			C211.5,142.5,209.4,143.2,207.7,142.3z"/>
	</g>
	<g>
		<path class="st8" d="M227.3,101.8l-37.1-3.1c-1.9-0.2-3.4-1.8-3.2-3.8v0c0.2-1.9,1.8-3.4,3.8-3.2l37.1,3.1
			c1.9,0.2,3.4,1.8,3.2,3.8v0C230.9,100.6,229.2,102,227.3,101.8z"/>
	</g>
	<path d="M166.1,404.3c-3.5-1-7.6,0.4-8.8,4.9c-2.3,8.2-4.6,15.7-7.2,22.8c-1.5,4.1-3,7.9-4.6,11.6c-0.2,0.4-0.4,0.8-0.6,1.3
		c-6-8-11.2-16.4-15.6-23.9l-1.6-2.6c-6.3-10.6-12.9-21.6-14-33.9c-2.7-29.7,16.6-60,25-71.6c2.6-3.6,1.1-7.1-1.5-9
		c-3.2-2.3-8.1-2.3-11,1.5c-19.7,27.2-29.7,57.8-26.8,81.9c1.8,14.7,9.6,28.1,16,38.8c4,6.8,8.5,14.2,13.7,21.7l-38.6-10.5
		c-4.5-1.2-7.8,1.7-8.7,5.2c-0.9,3.5,0.4,7.6,4.9,8.8l33.5,9.1c1.7,0.5,3.6,1.1,5.6,1.8c5.1,1.7,11,3.7,16.3,3.7
		c0.8,0,1.7-0.1,2.5-0.2c0.6,0.2,1.1,0.3,1.7,0.3c0.4,0,0.8,0,1.2-0.1c2.5-0.5,4.9-2.6,5.8-5.3c0,0,0,0,0,0
		c2.9-3.7,4.8-8.8,6.3-13.1c0.5-1.4,1-2.7,1.5-4c3.8-9.4,7.2-19.7,10.1-30.4C172.4,408.6,169.5,405.3,166.1,404.3z"/>
</g>
</svg>
