<?xml version="1.0" encoding="utf-8"?>
<!-- Generator: Adobe Illustrator 21.1.0, SVG Export Plug-In . SVG Version: 6.00 Build 0)  -->
<svg version="1.1" id="Layer_1" xmlns="http://www.w3.org/2000/svg" xmlns:xlink="http://www.w3.org/1999/xlink" x="0px" y="0px"
	 viewBox="0 0 459.3 150.5" style="enable-background:new 0 0 459.3 150.5;" xml:space="preserve">
<style type="text/css">
	.st0{fill:#4EBA6F;stroke:#000000;stroke-width:5;stroke-miterlimit:10;}
	.st1{fill:none;}
	.st2{enable-background:new    ;}
</style>
<path class="st0" d="M127.3,134c-6.6-0.2-13.3-0.4-20-0.5c-25-0.5-49.4-0.3-73,0.5c-0.7,0-4.7-0.1-7.9-3.3c-2-2-3.3-4.8-3.3-7.9
	c-0.2-3.8-0.4-9.8,0.1-17.3c0.5-7.1,1.1-8.7,1.8-17.8c0.4-5.4,0.9-11.4,0.8-19c-0.1-5.8-0.5-10.1-1.2-18.6
	C24,43.9,23.5,38.8,23,35.2c0-1.8,0-3.6,0-5.4c0-6.2,5-11.2,11.2-11.2c5.1,0.4,12.9,1,22.3,1.2c11.7,0.3,19.8-0.1,29.4-0.4
	c9.7-0.3,23.7-0.7,41.3-0.8c0.7,0,4.7,0.1,7.9,3.3c2,2,3.3,4.8,3.3,7.9c-0.4,4.8-0.9,12.3-1.1,21.6c-0.1,9.1,0.2,11,0.2,24.1
	c0,12.9-0.3,14.5-0.2,23.7c0.1,9.6,0.6,17.7,1.1,23.6c0,0.7-0.1,4.7-3.3,7.9C133.2,132.7,130.4,134,127.3,134z"/>
<rect x="170" y="41" class="st1" width="225" height="79"/>
<g class="st2">
	<path d="M172.4,86.1l-0.8-3.4c5.1-0.4,18-1.1,38.8-2c1.3,0.1,2.3,0.5,3.2,1.4s1.3,1.8,1.3,2.8c0,0.7-0.3,1.2-0.8,1.7
		s-1.3,0.8-2.3,0.9c-3.1-0.2-9.2-0.3-18.3-0.5C184.4,86.8,177.3,86.5,172.4,86.1z M173.5,65.4l-0.8-3.4c4.8-0.4,11.5-0.6,20.3-0.9
		c8.7-0.2,14.5-0.4,17.3-0.6c1.3,0.1,2.3,0.5,3.2,1.4s1.3,1.8,1.3,2.8c0,0.7-0.3,1.2-0.8,1.7s-1.3,0.8-2.3,0.9
		C189.7,66.3,177,65.6,173.5,65.4z"/>
	<path d="M261,67.7l0.7,3.5c-1.1,0.2-2.8,0.3-5.3,0.5c-2.5,0.2-4.3,0.4-5.6,0.6c0,13.1,0.2,22.5,0.5,28.4c-0.6,2-1.6,3-3.1,3
		c-0.7,0-1.3-0.3-1.9-0.8c-0.6-0.6-1-1.3-1.2-2.1c0-1.5,0.1-5.7,0.3-12.4c0.2-6.8,0.3-12,0.3-15.7l-5.8-0.2c-0.1-1-0.2-2.7-0.2-5.1
		c0.5,0.1,1.5,0.2,2.9,0.4c1.4,0.2,2.4,0.3,2.9,0.3c0.2-1.6,0.2-3.9,0.2-6.9c0-5.8,0.5-9.8,1.5-11.9c1-2.1,3.3-3.2,7-3.2
		c3.9,0,7.1,0.7,9.6,2.2l-0.5,2.7c-0.7,0-1.7-0.1-3.1-0.2c-1.4-0.1-2.5-0.2-3.2-0.2c-2.1,0-3.7,0.5-4.7,1.4s-1.6,2.7-1.6,5.3
		c0,0.8,0,1.7,0,2.6c0,0.9,0,1.5,0,1.8c0,1.9,0,3.9-0.1,6.2c0.8,0,1.9,0,3.4,0.1c1.4,0.1,2.5,0.1,3.2,0.1
		C258.6,67.9,259.8,67.8,261,67.7z"/>
	<path d="M291.9,72l-3.3-0.2c-1.1-2.8-2.9-4.3-5.4-4.3c-1.1,0-2.3,0.3-3.5,0.8s-2.3,1-3.1,1.6c-0.8,0.5-1.9,1.3-3.2,2.3
		c0,0.7,0,3,0,6.9s0,8.3,0.1,13c0.1,4.8,0.2,7.3,0.3,7.7c-0.5,1.5-1.4,2.3-2.7,2.3c-0.9,0-1.8-0.4-2.7-1.1c-0.8-0.7-1.4-1.6-1.6-2.7
		c1-16.3,1.9-28.6,2.6-36.9l3.5,0.8l0.2,5.1c3.5-2.9,6.6-4.4,9.1-4.4c2.8,0,5.1,0.6,7,1.9s2.8,3.1,2.8,5.6C292,71,292,71.6,291.9,72
		z"/>
	<path d="M295.1,84.8c0-2,0.2-4.3,0.6-6.8s1.1-5.1,1.9-7.8c0.9-2.7,2.2-5,3.9-6.9c1.7-1.8,3.7-2.7,6-2.7c4.9,0,8.8,2.2,11.7,6.6
		c2.9,4.4,4.4,9.3,4.4,14.7c0,2.3-0.2,4.6-0.7,6.8c-0.5,2.3-1.2,4.5-2.2,6.7s-2.5,4-4.4,5.4s-4.1,2.3-6.7,2.5
		c-4.7-0.6-8.3-2.6-10.8-6C296.3,93.8,295.1,89.7,295.1,84.8z M308,64.5c-1.8,0.2-3.3,1.8-4.5,4.9s-2,6-2.4,8.9s-0.5,5.4-0.5,7.6
		c0,2.8,0.9,5.5,2.6,7.9c1.8,2.4,3.7,3.6,5.9,3.6c1.6,0,3-0.6,4.3-1.8c1.3-1.2,2.3-2.7,3-4.5s1.3-3.6,1.7-5.4s0.6-3.5,0.6-4.9
		c0-4.2-0.9-7.8-2.8-10.9C314,66.7,311.4,64.9,308,64.5z"/>
	<path d="M335.1,70.4l0.3,30.2c-0.8,0.4-1.7,0.6-2.7,0.6c-0.8,0-1.7-0.1-2.7-0.4c0.2-3.2,0.3-9.5,0.3-18.9s0.3-16.4,0.6-20.9
		l3.4,0.8l0.2,4.3c2.7-2.8,5.8-4.3,9.3-4.3c1.8,0,3.2,0.1,4.3,0.4c1.1,0.3,2.1,0.9,3.1,1.9s1.7,2.3,2.2,3.9s1,3.9,1.4,7
		c0.4,3,0.7,6.6,0.9,10.6c0.2,4,0.3,9.1,0.3,15.3c-0.3,0.1-0.9,0.2-1.8,0.2c-1.8,0-3.3-0.2-4.3-0.7c-0.2-0.8-0.3-2.2-0.3-4
		c0-1,0-2.8,0.1-5.5s0.1-4.7,0.1-6.2c0-2.4-0.1-4.6-0.3-6.4c-0.2-1.8-0.5-3.6-1-5.4s-1.2-3.2-2.2-4.1c-1-1-2.2-1.5-3.7-1.5
		c-1.7,0-3,0.1-3.9,0.4s-1.6,0.6-2,0.9C336.4,68.9,335.8,69.5,335.1,70.4z"/>
	<path d="M382.9,64.1l0.8,3.4c-1.4,0.1-3.5,0.4-6.3,0.8s-5,0.7-6.4,0.8c0.3,1.8,0.4,4.1,0.5,7c0,2.9,0.1,5.4,0.2,7.5
		s0.3,4.2,0.7,6.3c0.4,2.1,1.2,3.7,2.4,4.8c1.2,1.1,2.8,1.7,4.8,1.7c1.5,0,3.4-0.4,5.7-1.1c1,1.9,1.7,3.3,2.1,4.1
		c-4,1.4-8.1,2.1-12.2,2.1c-1.5,0-2.8-0.5-4-1.4c-1.1-0.9-2-2.1-2.6-3.4s-1.1-3.1-1.5-5.2s-0.6-4.1-0.7-6s-0.2-4-0.2-6.5
		c0-1.3,0-3.1,0-5.5c0-2.3,0-3.9,0-4.8c-0.5,0.1-1.7,0.1-3.6,0.1s-3,0-3.3,0c-0.4-3.4-0.5-5.2-0.5-5.3c0.4,0.1,0.9,0.2,1.8,0.2
		c0.5,0,1.2,0,2.2-0.1s1.8-0.1,2.3-0.1c0.2,0,0.5,0,0.8,0s0.5,0,0.6,0c0.2-5.6,0.4-10.1,0.7-13.6l3.4,0.8c0,1.2,0.1,2.5,0.1,3.9
		s0,2.9,0.1,4.6c0,1.7,0,3,0,3.9c1.3,0.1,3.3,0.2,5.9,0.3C379.6,63.9,381.6,64,382.9,64.1z"/>
</g>
<rect x="168" y="42" class="st1" width="225" height="79"/>
</svg>
