<?xml version="1.0" encoding="utf-8"?>
<!-- Generator: Adobe Illustrator 21.1.0, SVG Export Plug-In . SVG Version: 6.00 Build 0)  -->
<svg version="1.1" id="Layer_1" xmlns="http://www.w3.org/2000/svg" xmlns:xlink="http://www.w3.org/1999/xlink" x="0px" y="0px"
	 viewBox="0 0 745 688.8" style="enable-background:new 0 0 745 688.8;" xml:space="preserve">
<style type="text/css">
	.st0{fill:#FFFFFF;}
	.st1{fill:#4EBA6F;}
	.st2{fill:#EDF0F1;}
	.st3{fill:#E57E25;}
	.st4{fill:#E64C3C;}
	.st5{fill:#3B97D3;}
	.st6{fill:#F0C419;}
</style>
<g>
	<g>
		<path class="st0" d="M258.6,404.7c0-3.7,0-7.4,0-11.1c0-4.3,0-8.5,0.1-13c0-6.4,0.1-13.4,0.1-22.1c-16,0-32.5,0.1-49.1,0.3
			c0,3.4,0,6.8,0,10.2c0.1,7.8,0.3,13.9,0.5,20.9c0.1,4.2,0.3,8.7,0.4,14.1c12.5,0.1,25,0.3,37.2,0.4
			C252,404.6,255.5,404.7,258.6,404.7z"/>
		<path class="st0" d="M258.9,346.3c0-10,0-20.1,0-30c-10.6-0.3-22.6-0.5-31.6-0.5c-5.3,0-9.6,0.1-11.9,0.3
			c-0.9,0.1-2.2,0.3-3.1,1.1c-0.5,0.4-0.8,1-1,1.5c-0.1,0.4-0.2,0.7-0.2,1.1l0,0.1c-0.7,11.7-1.2,23.3-1.3,34.8
			c16.6-0.2,33-0.3,49-0.2C258.9,352,258.9,349.3,258.9,346.3z"/>
		<path class="st0" d="M262.8,346.4c0,2.9,0,5.6,0,8.2c4.5,0,8.9,0,13.3,0c4.6,0,9.1,0,14,0.1c5.4,0,11.2,0.1,17.9,0.1
			c-0.1-1.8-0.1-3.8-0.2-6c-0.2-10.6-0.2-21.3,0.2-31.7c-5.3,0.1-15.8,0.2-25.4-0.1c-0.2,0-8.8-0.3-19.8-0.6
			C262.9,326.3,262.9,336.4,262.8,346.4z"/>
		<path class="st0" d="M311.8,348.7c0,2.3,0.1,4.3,0.2,6.1c4.5,0,9.4,0,14.9,0c10.9,0,21.9,0,32.7,0c-0.2-11.6-0.6-23.3-1.1-34.9
			l0-0.1c0-1-0.4-1.9-1.2-2.6c-0.9-0.8-2.2-1.1-3.1-1.2c-10.2-1-31,0.4-31.2,0.4c-2.5,0.2-5.4,0.3-11.1,0.4
			C311.7,327.4,311.6,338,311.8,348.7z"/>
		<path class="st0" d="M247.8,408.5c-12.1-0.2-24.6-0.3-37-0.4c0.1,2.5,0.1,5.1,0.2,8c0.2,11.7,0.3,23.6,0.2,35.1
			c0,1,0.4,1.9,1.2,2.6c1.1,1.1,2.5,1.1,2.9,1.1l0.1,0c14.4,0.4,29,0.8,43.5,0.9c-0.2-16-0.3-31.8-0.3-47.2
			C255.5,408.6,251.9,408.6,247.8,408.5z"/>
		<path class="st0" d="M326.9,358.8c-5.4,0-10.3,0-14.8,0c0.1,2.3,0.2,4.3,0.3,6.2c0.2,4.8,0.5,9.3,0.6,17.2
			c0.1,7.8,0,12.1-0.2,21.7c0,0.1,0,0.2,0,0.3c3.2-0.1,6.8-0.2,11.5-0.3c11.9-0.2,23.9-0.1,35.5,0.2c0.1-9.4,0.1-18.8,0.1-28.1
			c0-5.7-0.1-11.4-0.2-17.1C348.9,358.8,337.9,358.8,326.9,358.8z"/>
		<path class="st1" d="M288.4,405c8.4-0.1,13.2-0.3,18.3-0.6c0.7,0,1.4-0.1,2.1-0.1c0-0.2,0-0.3,0-0.5c0.2-9.5,0.3-13.9,0.2-21.6
			c-0.1-7.8-0.3-12.3-0.6-17.1c-0.1-2-0.2-4.1-0.3-6.4c-6.8,0-12.6-0.1-18.1-0.1c-4.9,0-9.4-0.1-14-0.1c-4.4,0-8.8,0-13.3,0
			c0,8.7-0.1,15.7-0.1,22.1c0,4.5-0.1,8.7-0.1,13c0,3.7,0,7.4,0,11.1c0.9,0,1.8,0,2.6,0C275.4,405,280.1,405.1,288.4,405z"/>
		<path class="st0" d="M324.4,407.8c-4.8,0.1-8.5,0.2-11.6,0.3c-0.1,3.3-0.1,7.2-0.2,11.9c-0.2,11.8-0.3,23.8-0.5,35.9
			c14.1-0.2,28.3-0.5,42.3-0.9l0.1,0c1.1,0,2.2-0.4,2.9-1.1c1.1-1,1.2-2.3,1.2-2.6l0-0.1c0.6-14.3,1-28.7,1.2-43.1
			C348.2,407.7,336.3,407.6,324.4,407.8z"/>
		<path class="st0" d="M308.6,420c0.1-4.6,0.1-8.4,0.2-11.7c-0.6,0-1.3,0.1-1.9,0.1c-5.1,0.2-10,0.5-18.5,0.6
			c-8.3,0.1-13,0-23.3-0.2c-0.8,0-1.7,0-2.5,0c0,15.4,0.1,31.2,0.3,47.2c6.1,0.1,12.2,0.1,18.3,0.1c9,0,18,0,27-0.1
			C308.2,443.9,308.4,431.8,308.6,420z"/>
		<path d="M363.4,375.9c-0.1-18.6-0.6-37.5-1.4-56.1c0-1.9-0.8-3.8-2.3-5.1c-1.8-1.7-4.3-2-5.1-2.1c-10.5-1.1-30.9,0.4-31.8,0.4
			c-2.5,0.2-5.5,0.3-11.4,0.4c-0.2,0-15.3,0.4-28.7,0c-2.3-0.1-56.8-1.8-67.6-0.8c-0.8,0.1-3.3,0.3-5.2,2.1c-0.9,0.8-1.5,1.9-1.9,3
			c-0.2,0.7-0.3,1.4-0.3,2.1c-1.1,16.5-1.5,33.1-1.4,49.2c0.1,7.9,0.3,14,0.5,21c0.2,6.9,0.5,14.7,0.7,26.1
			c0.2,11.7,0.3,23.5,0.2,35.1c0,2,0.8,3.8,2.3,5.2c2,1.9,4.3,2.1,5.3,2.1c21.8,0.7,44,1,65.8,1.1c1.2,0,2.5,0,3.7,0
			c23.1,0,46.6-0.4,69.7-1.1c2,0,3.9-0.7,5.3-2.1c2-1.9,2.2-4.2,2.3-5.1C363.1,426.3,363.6,400.9,363.4,375.9z M359.9,376
			c0.1,9.3,0,18.7-0.1,28.1c-11.7-0.4-23.6-0.4-35.5-0.2c-4.7,0.1-8.3,0.2-11.5,0.3c0-0.1,0-0.2,0-0.3c0.2-9.6,0.3-13.9,0.2-21.7
			c-0.1-7.9-0.3-12.4-0.6-17.2c-0.1-2-0.2-4-0.3-6.2c4.5,0,9.3,0,14.8,0c11,0,22,0,32.8,0C359.8,364.5,359.9,370.3,359.9,376z
			 M323.1,316.5c0.2,0,21-1.5,31.2-0.4c0.9,0.1,2.2,0.3,3.1,1.2c0.8,0.7,1.2,1.6,1.2,2.6l0,0.1c0.5,11.6,0.9,23.2,1.1,34.9
			c-10.8,0-21.8,0-32.7,0c-5.5,0-10.4,0-14.9,0c-0.1-1.8-0.1-3.8-0.2-6.1c-0.2-10.6-0.1-21.3,0.2-31.7
			C317.7,316.8,320.5,316.7,323.1,316.5z M262.6,393.7c0-4.3,0-8.5,0.1-13c0-6.4,0.1-13.4,0.1-22.1c4.5,0,8.9,0,13.3,0
			c4.6,0,9.1,0,14,0.1c5.4,0,11.2,0.1,18.1,0.1c0.1,2.3,0.2,4.4,0.3,6.4c0.2,4.8,0.4,9.3,0.6,17.1c0.1,7.7,0,12.1-0.2,21.6
			c0,0.2,0,0.3,0,0.5c-0.7,0-1.4,0.1-2.1,0.1c-5.1,0.2-9.9,0.4-18.3,0.6c-8.3,0.1-13,0-23.2-0.2c-0.8,0-1.7,0-2.6,0
			C262.6,401.1,262.6,397.3,262.6,393.7z M282.6,317c9.6,0.3,20.1,0.2,25.4,0.1c-0.3,10.4-0.4,21.1-0.2,31.7c0,2.2,0.1,4.2,0.2,6
			c-6.8,0-12.5-0.1-17.9-0.1c-4.9,0-9.4-0.1-14-0.1c-4.4,0-8.8,0-13.3,0c0-2.6,0-5.3,0-8.2c0-10,0-20.1,0-30
			C273.9,316.7,282.4,317,282.6,317z M211.2,320l0-0.1c0-0.4,0.1-0.7,0.2-1.1c0.2-0.6,0.5-1.1,1-1.5c0.9-0.9,2.2-1.1,3.1-1.1
			c2.2-0.2,6.5-0.3,11.9-0.3c9,0,21,0.2,31.6,0.5c0,9.9,0,20,0,30c0,2.9,0,5.6,0,8.2c-16,0-32.5,0.1-49,0.2
			C210,343.3,210.4,331.7,211.2,320z M210.3,390c-0.2-7-0.4-13.1-0.5-20.9c0-3.4,0-6.8,0-10.2c16.6-0.2,33-0.3,49.1-0.3
			c0,8.7-0.1,15.7-0.1,22.1c0,4.5-0.1,8.7-0.1,13c0,3.7,0,7.4,0,11.1c-3.1-0.1-6.6-0.1-10.8-0.2c-12.2-0.2-24.7-0.3-37.2-0.4
			C210.5,398.7,210.4,394.1,210.3,390z M215.3,455L215.3,455c-0.5,0-1.9-0.1-3-1.1c-0.8-0.7-1.2-1.6-1.2-2.6c0-11.6,0-23.4-0.2-35.1
			c0-2.9-0.1-5.5-0.2-8c12.4,0.1,24.9,0.3,37,0.4c4.1,0.1,7.7,0.1,10.8,0.2c0,15.4,0.1,31.3,0.3,47.2
			C244.3,455.7,229.8,455.4,215.3,455z M281.1,456.1c-6.1,0-12.2,0-18.3-0.1c-0.2-16-0.3-31.8-0.3-47.2c0.9,0,1.7,0,2.5,0
			c10.3,0.2,15,0.3,23.3,0.2c8.5-0.1,13.3-0.3,18.5-0.6c0.6,0,1.2-0.1,1.9-0.1c-0.1,3.3-0.1,7.1-0.2,11.7c-0.2,11.8-0.3,23.9-0.5,36
			C299.1,456,290.1,456.1,281.1,456.1z M358.6,451.1L358.6,451.1c0,0.4-0.1,1.7-1.2,2.7c-0.8,0.7-1.8,1.1-2.9,1.1l-0.1,0
			c-14,0.4-28.2,0.7-42.3,0.9c0.1-12,0.3-24.1,0.5-35.9c0.1-4.7,0.2-8.6,0.2-11.9c3.2-0.1,6.9-0.2,11.6-0.3
			c11.9-0.2,23.8-0.1,35.4,0.2C359.6,422.4,359.2,436.8,358.6,451.1z"/>
	</g>
	<g>
		<path d="M235.2,345.6c0,1.2-0.7,1.8-2,1.8c-0.3,0-0.5-0.1-0.7-0.4c-0.2-0.2-0.3-0.6-0.3-1.1l-0.1-9.4c0-3.1,0-6,0.1-8.7
			c-0.8,0.7-1.6,1.6-2.4,2.5c-0.8,1-1.3,1.6-1.6,1.9c-0.3,0.3-0.7,0.6-1.1,0.9c-0.5,0.3-0.9,0.5-1.3,0.5c-0.4,0-0.7-0.1-0.9-0.4
			c-0.2-0.3-0.4-0.6-0.4-1c0-0.4,0.3-0.9,0.9-1.6c0.6-0.7,2.7-3,6.4-6.9c0.6-0.5,1.3-0.8,2.1-0.8c0.4,0,0.8,0.1,1,0.4
			c0.3,0.2,0.4,0.5,0.4,0.8l-0.3,9.9L235.2,345.6z"/>
	</g>
	<g>
		<path d="M287.6,347.4l-5.4-0.1c-0.2,0-0.5,0-0.7,0c-2.4,0-3.6-0.5-3.6-1.4c0-0.7,0.1-1.3,0.4-1.9c0.2-0.6,0.5-1,0.7-1.3
			c0.2-0.3,0.7-0.8,1.3-1.5c0.7-0.7,1.1-1.2,1.4-1.5c0.3-0.3,1.2-1.2,2.7-2.6c1.5-1.4,2.6-2.7,3.4-3.8c0.7-1.1,1.1-2.3,1.1-3.6
			c0-1.9-0.8-3.2-2.3-3.8c-0.4-0.1-0.9-0.2-1.4-0.2c-1.1,0-2.1,0.5-3.2,1.4c-0.4,0.4-0.9,0.6-1.3,0.6c-0.1,0-0.3,0-0.4,0
			c-0.6-0.1-0.9-0.6-0.9-1.3c0-1,0.7-1.8,2-2.4c1.4-0.7,3-1,4.7-1c1.7,0,3.1,0.6,4.2,1.9c1.1,1.2,1.6,2.8,1.6,4.6
			c0,2.6-0.8,4.9-2.4,6.8c-0.8,0.9-1.5,1.7-2.3,2.5c-2.5,2.4-4.1,4.2-5,5.4c1.1,0.1,2.5,0.1,4.1,0.1c1.6,0,3.7-0.1,6.1-0.3
			c0.4,0.1,0.7,0.2,0.9,0.5c0.2,0.3,0.4,0.5,0.4,0.9c0,0.8-0.4,1.4-1.3,1.7C291.4,347.2,289.8,347.4,287.6,347.4z"/>
	</g>
	<g>
		<path d="M334.9,324.5c-1.4,0-2.8,0.6-4.1,1.9c-0.3,0.2-0.7,0.4-0.9,0.4c-0.3,0-0.5,0-0.7-0.1c-0.6-0.2-0.8-0.6-0.8-1.2
			c0-1,0.6-1.9,1.9-2.7c1.3-0.8,2.8-1.1,4.5-1.1c1.7,0,3.2,0.5,4.4,1.4c1.2,0.9,1.8,2.1,1.8,3.6c0,1.5-0.2,2.7-0.5,3.7
			c-0.3,1-1.1,1.8-2.2,2.4c2.6,1,3.9,2.8,3.9,5.3c0,2.2-0.7,4-2,5.6c-1.3,1.6-2.9,2.3-4.8,2.3c-1.9,0-3.5-0.4-5-1.3
			c-1.4-0.9-2.1-1.9-2.1-3c0-0.2,0.1-0.5,0.4-0.8c0.2-0.3,0.6-0.4,1.1-0.4c0.5,0,1,0.2,1.5,0.6c0.5,0.4,1.2,0.9,1.8,1.3
			c0.7,0.4,1.5,0.6,2.3,0.6c2.5,0,3.7-1.5,3.7-4.6c0-1.2-0.4-2.1-1.3-2.9c-0.8-0.7-2-1.1-3.6-1.1c-0.3,0-0.6,0-0.7-0.1
			c-0.2,0-0.4-0.1-0.6-0.3c-0.3-0.2-0.4-0.5-0.4-0.9c0-0.9,0.5-1.4,1.5-1.4c1-0.1,1.9-0.5,2.6-1.3c0.8-0.8,1.2-1.8,1.2-3.1
			c0-0.7-0.3-1.3-0.9-1.9C336.3,324.7,335.7,324.5,334.9,324.5z"/>
	</g>
	<g>
		<path d="M234.3,385.4c-0.9,0.1-2.1,0.2-3.8,0.2c-1.6,0-2.7-0.3-3.3-0.8c-0.6-0.5-0.9-1.7-0.9-3.5c0-1.8,0.1-3.8,0.4-6
			c0.3-2.2,0.6-3.8,0.9-4.8c0.3-1,1-1.5,2-1.5c0.7,0,1,0.3,1.1,0.8c0,0.1,0,0.4,0,0.7c0,0.3-0.1,0.8-0.2,1.4
			c-0.6,4.3-0.9,7.4-0.9,9.2c0,0.4,0,0.8,0,1.1c0.4,0.1,1,0.1,1.8,0.1c0.7,0,1.7-0.1,2.9-0.2c0-0.5,0.1-1.2,0.1-2.1
			c0-0.9,0-1.6,0-2.2c0-0.6,0.1-1,0.3-1.3c0.1-0.2,0.6-0.4,1.3-0.4c0.7,0,1.1,0.1,1.3,0.4c0.2,0.2,0.3,0.6,0.3,1
			c0,0.4,0,1.3-0.1,2.7c-0.1,1.4-0.1,5.2-0.1,11.5c0,1.1-0.5,1.7-1.6,1.7c0,0-0.1,0-0.1,0c-0.9,0-1.4-0.7-1.4-2.2v-2L234.3,385.4z"
			/>
	</g>
	<g>
		<path class="st0" d="M282.9,377.6c1-0.4,2-0.6,2.9-0.6c0.9,0,1.8,0.1,2.7,0.4c0.9,0.3,1.7,0.7,2.4,1.4c0.7,0.6,1.3,1.5,1.8,2.5
			c0.4,1.1,0.7,2.3,0.7,3.7c0,2.4-0.7,4.3-2.1,6c-1.4,1.6-3,2.4-4.8,2.4s-3.4-0.4-4.8-1.2c-1.4-0.8-2-1.7-2-2.7
			c0-0.5,0.1-0.8,0.2-1.1c0.1-0.2,0.3-0.4,0.6-0.6c0.3-0.1,0.6-0.2,0.8-0.2c0.2,0,0.6,0.1,1,0.4c0.4,0.3,1,0.7,1.7,1.2
			c0.7,0.5,1.6,0.8,2.5,0.8c1,0,1.8-0.5,2.5-1.5c0.7-1,1.1-2,1.1-3.2c0-3.3-1.5-5-4.5-5c-0.6,0-1.4,0.1-2.2,0.2
			c-0.8,0.1-1.4,0.2-1.7,0.2c-0.3,0-0.6-0.1-1.1-0.3c-0.5-0.5-0.8-2.1-0.8-4.7c0-2.6,0.1-4.3,0.2-5.1c0.1-0.8,0.3-1.2,0.6-1.3
			c0.5-0.2,2.1-0.3,4.6-0.3c2.6,0,4.6,0.2,6.2,0.7c0.5,0.3,0.7,0.7,0.7,1.3c0,0.6-0.2,1-0.5,1.3c-0.3,0.3-0.6,0.5-1,0.4
			c-2-0.4-4.1-0.7-6.2-0.7c-0.6,0-1.3,0-1.9,0.1C282.8,373.3,282.8,375.1,282.9,377.6z"/>
	</g>
	<g>
		<path d="M339.1,370.7c-0.4,0.5-1.2,2.1-2.5,4.7c-1.3,2.6-2,4.2-2.2,4.7c1-0.3,2.1-0.4,3.2-0.4c1.1,0,2.1,0.3,3,0.9
			c1.5,1,2.3,2.6,2.3,4.9c0,4.9-2.4,7.3-7.1,7.4c0,0-0.1,0-0.1,0c-1.7,0-3-0.6-3.8-1.8c-0.8-1.2-1.2-2.8-1.3-4.8
			c0-4.7,1.8-9.8,5.3-15.4c0.6-1,1.1-1.6,1.5-1.9c0.4-0.3,0.8-0.4,1.1-0.4c0.3,0,0.5,0.1,0.8,0.3c0.3,0.2,0.4,0.5,0.4,0.8
			C339.7,369.8,339.5,370.2,339.1,370.7z M340.1,385.7c0-1-0.3-1.8-0.8-2.3c-0.6-0.5-1.3-0.8-2.2-0.8c-0.9,0-1.6,0.1-2.1,0.2
			c-0.3,0.1-0.6,0.3-0.8,0.6c-0.2,0.2-0.4,0.6-0.5,1.1c-0.2,0.5-0.2,1.2-0.2,2c0,0.8,0.2,1.6,0.7,2.2c0.5,0.6,1.1,0.9,1.8,0.9
			c1.4,0,2.4-0.4,3.2-1.2C339.7,387.6,340.1,386.7,340.1,385.7z"/>
	</g>
	<g>
		<path d="M237.5,429.3l-0.3,11.6c0,0.5-0.2,0.9-0.5,1.2c-0.4,0.3-0.8,0.4-1.2,0.4c-0.7,0-1-0.9-1-2.8c0-3.8,0.1-7.3,0.3-10.5
			l-3.8,0.2c-0.3,0-0.6-0.1-0.8-0.4c-0.2-0.3-0.4-0.6-0.4-0.9c0-0.9,0.5-1.3,1.5-1.3l3.6,0l0.4-4.5c-0.8-0.3-3-0.7-6.4-1.3
			c-1.3-0.2-2.1-0.4-2.4-0.4c-0.6-0.1-1-0.6-1-1.4c0-0.3,0.1-0.6,0.4-0.8c0.2-0.3,0.6-0.4,1.1-0.4c0.5,0,2.3,0.3,5.5,0.8
			c3.2,0.5,5,1,5.4,1.3c0.1,0.1,0.2,0.6,0.2,1.4c0,0.4-0.1,1.4-0.3,3c-0.1,1.1-0.2,1.9-0.3,2.3l1.8-0.1c0.2,0,0.4,0,0.8,0
			c0.4,0,0.7,0.1,1,0.3c0.3,0.2,0.4,0.5,0.4,1c0,0.5-0.2,0.8-0.5,1.1c-0.3,0.2-1,0.4-2,0.4L237.5,429.3z"/>
	</g>
	<g>
		<path d="M285.6,419.2c1.8,0,3.3,0.4,4.5,1.3c1.2,0.9,1.8,2.1,1.8,3.6c0,2.2-1.2,4.2-3.6,5.8c1.4,1.5,2.4,2.8,3,3.9
			c0.6,1.2,1,2.6,1,4.2c0,1.6-0.6,3-1.8,4c-1.3,1.1-2.9,1.7-4.9,1.7c-2,0-3.5-0.5-4.6-1.5c-1.2-1-1.7-2.4-1.7-4.2
			c0-2.9,1.4-5.5,4.2-7.7c-1.1-0.6-2-1.4-2.7-2.6c-0.8-1.2-1.2-2.5-1.2-3.8c0-1.3,0.5-2.4,1.6-3.3
			C282.3,419.6,283.8,419.2,285.6,419.2z M281.9,437.5c0,0.1,0,0.2,0,0.3c0,1,0.4,1.7,1.2,2.2c0.8,0.5,1.8,0.8,3,0.8
			c1.1,0,1.9-0.3,2.4-0.9c0.5-0.6,0.7-1.4,0.7-2.2c0-0.9-0.3-1.8-0.9-2.7c-0.6-0.9-1.5-2-2.7-3.2c-1.3,0.9-2.2,1.8-2.8,2.8
			C282.2,435.6,281.9,436.6,281.9,437.5z M282.2,424.3c0,0.5,0.1,1,0.4,1.4c0.3,0.4,0.6,0.8,0.9,1c0.3,0.2,0.7,0.5,1.2,0.8
			c0.5,0.3,0.9,0.6,1,0.7c0.8-0.6,1.3-1,1.6-1.2c0.3-0.2,0.6-0.5,0.9-0.9c0.4-0.4,0.6-0.7,0.7-1c0.1-0.3,0.1-0.7,0.1-1.3
			c0-0.6-0.4-1.1-1-1.5c-0.7-0.4-1.4-0.6-2.1-0.6c-0.1,0-0.1,0-0.2,0C283.3,422,282.2,422.8,282.2,424.3z"/>
	</g>
	<g>
		<path d="M341.2,424.8l0,3.7c0,0.8,0,3.2,0,7l0.1,7c0,0.4-0.2,0.8-0.6,1.1c-0.4,0.3-0.7,0.4-1.1,0.4c-0.3,0-0.6-0.2-0.8-0.5
			c-0.2-0.3-0.3-0.7-0.3-1.1c-0.2-3.6-0.3-7.3-0.3-11.2c-0.6,0.8-1.9,1.3-3.9,1.3c-1.3,0-2.4-0.7-3.3-2.1c-0.9-1.4-1.3-2.9-1.3-4.5
			c0-2.1,0.7-3.7,2-4.8c1.3-1.1,3-1.7,5-1.7c2,0,3.4,0.8,4.2,2.3C341.1,422.2,341.2,423.2,341.2,424.8z M338.3,425.7l0-1.8
			c0-0.6,0-1-0.1-1.2c-0.1-0.2-0.2-0.3-0.4-0.4c-0.2-0.2-0.4-0.3-0.6-0.3c-0.2,0-0.5,0-0.9,0.1c-0.4,0.1-0.9,0.3-1.5,0.5
			c-0.6,0.3-1.1,0.7-1.6,1.3c-0.5,0.6-0.7,1.4-0.7,2.3s0.2,1.7,0.7,2.4c0.5,0.6,1,0.9,1.5,0.9c0.1,0,0.3,0,0.5-0.1
			c1.5-0.4,2.5-0.8,3-1.2V425.7z"/>
	</g>
	<g>
		<path class="st0" d="M258.4,174.4c0-3.7,0-7.4,0-11.1c0-4.3,0-8.5,0.1-13c0-6.4,0.1-13.4,0.1-22.1c-16,0-32.5,0.1-49.1,0.3
			c0,3.4,0,6.8,0,10.2c0.1,7.8,0.3,13.9,0.5,20.9c0.1,4.2,0.3,8.7,0.4,14.1c12.5,0.1,25,0.3,37.2,0.4
			C251.7,174.3,255.3,174.3,258.4,174.4z"/>
		<path class="st0" d="M258.6,116c0-10,0-20.1,0-30c-10.6-0.3-22.6-0.5-31.6-0.5c-5.3,0-9.6,0.1-11.9,0.3c-0.9,0.1-2.2,0.3-3.1,1.1
			c-0.5,0.4-0.8,1-1,1.5c-0.1,0.4-0.2,0.7-0.2,1.1l0,0.1c-0.7,11.7-1.2,23.3-1.3,34.8c16.6-0.2,33-0.3,49-0.2
			C258.6,121.7,258.6,118.9,258.6,116z"/>
		<path class="st0" d="M262.6,116c0,2.9,0,5.6,0,8.2c4.5,0,8.9,0,13.3,0c4.6,0,9.1,0,14,0.1c5.4,0,11.2,0.1,17.9,0.1
			c-0.1-1.8-0.1-3.8-0.2-6c-0.2-10.6-0.2-21.3,0.2-31.7c-5.3,0.1-15.8,0.2-25.4-0.1c-0.2,0-8.8-0.3-19.8-0.6
			C262.6,96,262.6,106,262.6,116z"/>
		<path class="st0" d="M311.6,118.4c0,2.3,0.1,4.3,0.2,6.1c4.5,0,9.4,0,14.9,0c10.9,0,21.9,0,32.7,0c-0.2-11.6-0.6-23.3-1.1-34.9
			l0-0.1c0-1-0.4-1.9-1.2-2.6c-0.9-0.8-2.2-1.1-3.1-1.2c-10.2-1-31,0.4-31.2,0.4c-2.5,0.2-5.4,0.3-11.1,0.4
			C311.5,97,311.4,107.7,311.6,118.4z"/>
		<path class="st0" d="M247.6,178.2c-12.1-0.2-24.6-0.3-37-0.4c0.1,2.5,0.1,5.1,0.2,8c0.2,11.7,0.3,23.6,0.2,35.1
			c0,1,0.4,1.9,1.2,2.6c1.1,1.1,2.5,1.1,2.9,1.1l0.1,0c14.4,0.4,29,0.8,43.5,0.9c-0.2-16-0.3-31.8-0.3-47.2
			C255.3,178.3,251.7,178.2,247.6,178.2z"/>
		<path class="st0" d="M326.7,128.5c-5.4,0-10.3,0-14.8,0c0.1,2.3,0.2,4.3,0.3,6.2c0.2,4.8,0.5,9.3,0.6,17.2
			c0.1,7.8,0,12.1-0.2,21.7c0,0.1,0,0.2,0,0.3c3.2-0.1,6.8-0.2,11.5-0.3c11.9-0.2,23.9-0.1,35.5,0.2c0.1-9.4,0.1-18.8,0.1-28.1
			c0-5.7-0.1-11.4-0.2-17.1C348.7,128.5,337.6,128.5,326.7,128.5z"/>
		<path class="st2" d="M288.1,174.7c8.4-0.1,13.2-0.3,18.3-0.6c0.7,0,1.4-0.1,2.1-0.1c0-0.2,0-0.3,0-0.5c0.2-9.5,0.3-13.9,0.2-21.6
			c-0.1-7.8-0.3-12.3-0.6-17.1c-0.1-2-0.2-4.1-0.3-6.4c-6.8,0-12.6-0.1-18.1-0.1c-4.9,0-9.4-0.1-14-0.1c-4.4,0-8.8,0-13.3,0
			c0,8.7-0.1,15.7-0.1,22.1c0,4.5-0.1,8.7-0.1,13c0,3.7,0,7.4,0,11.1c0.9,0,1.8,0,2.6,0C275.2,174.7,279.9,174.8,288.1,174.7z"/>
		<path class="st0" d="M324.2,177.5c-4.8,0.1-8.5,0.2-11.6,0.3c-0.1,3.3-0.1,7.2-0.2,11.9c-0.2,11.8-0.3,23.8-0.5,35.9
			c14.1-0.2,28.3-0.5,42.3-0.9l0.1,0c1.1,0,2.2-0.4,2.9-1.1c1.1-1,1.2-2.3,1.2-2.6l0-0.1c0.6-14.3,1-28.7,1.2-43.1
			C347.9,177.3,336,177.3,324.2,177.5z"/>
		<path class="st0" d="M308.3,189.6c0.1-4.6,0.1-8.4,0.2-11.7c-0.6,0-1.3,0.1-1.9,0.1c-5.1,0.2-10,0.5-18.5,0.6
			c-8.3,0.1-13,0-23.3-0.2c-0.8,0-1.7,0-2.5,0c0,15.4,0.1,31.2,0.3,47.2c6.1,0.1,12.2,0.1,18.3,0.1c9,0,18,0,27-0.1
			C308,213.5,308.1,201.4,308.3,189.6z"/>
		<path d="M363.2,145.6c-0.1-18.6-0.6-37.5-1.4-56.1c0-1.9-0.8-3.8-2.3-5.1c-1.8-1.7-4.3-2-5.1-2.1c-10.5-1.1-30.9,0.4-31.8,0.4
			c-2.5,0.2-5.5,0.3-11.4,0.4c-0.2,0-15.3,0.4-28.7,0c-2.3-0.1-56.8-1.8-67.6-0.8c-0.8,0.1-3.3,0.3-5.2,2.1c-0.9,0.8-1.5,1.9-1.9,3
			c-0.2,0.7-0.3,1.4-0.3,2.1c-1.1,16.5-1.5,33.1-1.4,49.2c0.1,7.9,0.3,14,0.5,21c0.2,6.9,0.5,14.7,0.7,26.1
			c0.2,11.7,0.3,23.5,0.2,35.1c0,2,0.8,3.8,2.3,5.2c2,1.9,4.3,2.1,5.3,2.1c21.8,0.7,44,1,65.8,1.1c1.2,0,2.5,0,3.7,0
			c23.1,0,46.6-0.4,69.7-1.1c2,0,3.9-0.7,5.3-2.1c2-1.9,2.2-4.2,2.3-5.1C362.9,195.9,363.3,170.6,363.2,145.6z M359.7,145.6
			c0.1,9.3,0,18.7-0.1,28.1c-11.7-0.4-23.6-0.4-35.5-0.2c-4.7,0.1-8.3,0.2-11.5,0.3c0-0.1,0-0.2,0-0.3c0.2-9.6,0.3-13.9,0.2-21.7
			c-0.1-7.9-0.3-12.4-0.6-17.2c-0.1-2-0.2-4-0.3-6.2c4.5,0,9.3,0,14.8,0c11,0,22,0,32.8,0C359.6,134.2,359.7,139.9,359.7,145.6z
			 M322.8,86.2c0.2,0,21-1.5,31.2-0.4c0.9,0.1,2.2,0.3,3.1,1.2c0.8,0.7,1.2,1.6,1.2,2.6l0,0.1c0.5,11.6,0.9,23.2,1.1,34.9
			c-10.8,0-21.8,0-32.7,0c-5.5,0-10.4,0-14.9,0c-0.1-1.8-0.1-3.8-0.2-6.1c-0.2-10.6-0.1-21.3,0.2-31.7
			C317.4,86.5,320.3,86.4,322.8,86.2z M262.4,163.3c0-4.3,0-8.5,0.1-13c0-6.4,0.1-13.4,0.1-22.1c4.5,0,8.9,0,13.3,0
			c4.6,0,9.1,0,14,0.1c5.4,0,11.2,0.1,18.1,0.1c0.1,2.3,0.2,4.4,0.3,6.4c0.2,4.8,0.4,9.3,0.6,17.1c0.1,7.7,0,12.1-0.2,21.6
			c0,0.2,0,0.3,0,0.5c-0.7,0-1.4,0.1-2.1,0.1c-5.1,0.2-9.9,0.4-18.3,0.6c-8.3,0.1-13,0-23.2-0.2c-0.8,0-1.7,0-2.6,0
			C262.3,170.7,262.4,167,262.4,163.3z M282.4,86.6c9.6,0.3,20.1,0.2,25.4,0.1c-0.3,10.4-0.4,21.1-0.2,31.7c0,2.2,0.1,4.2,0.2,6
			c-6.8,0-12.5-0.1-17.9-0.1c-4.9,0-9.4-0.1-14-0.1c-4.4,0-8.8,0-13.3,0c0-2.6,0-5.3,0-8.2c0-10,0-20.1,0-30
			C273.6,86.3,282.2,86.6,282.4,86.6z M210.9,89.7l0-0.1c0-0.4,0.1-0.7,0.2-1.1c0.2-0.6,0.5-1.1,1-1.5c0.9-0.9,2.2-1.1,3.1-1.1
			c2.2-0.2,6.5-0.3,11.9-0.3c9,0,21,0.2,31.6,0.5c0,9.9,0,20,0,30c0,2.9,0,5.6,0,8.2c-16,0-32.5,0.1-49,0.2
			C209.7,113,210.2,101.3,210.9,89.7z M210,159.6c-0.2-7-0.4-13.1-0.5-20.9c0-3.4,0-6.8,0-10.2c16.6-0.2,33-0.3,49.1-0.3
			c0,8.7-0.1,15.7-0.1,22.1c0,4.5-0.1,8.7-0.1,13c0,3.7,0,7.4,0,11.1c-3.1-0.1-6.6-0.1-10.8-0.2c-12.2-0.2-24.7-0.3-37.2-0.4
			C210.3,168.3,210.2,163.8,210,159.6z M215.1,224.6L215.1,224.6c-0.5,0-1.9-0.1-3-1.1c-0.8-0.7-1.2-1.6-1.2-2.6
			c0-11.6,0-23.4-0.2-35.1c0-2.9-0.1-5.5-0.2-8c12.4,0.1,24.9,0.3,37,0.4c4.1,0.1,7.7,0.1,10.8,0.2c0,15.4,0.1,31.3,0.3,47.2
			C244.1,225.4,229.5,225.1,215.1,224.6z M280.9,225.7c-6.1,0-12.2,0-18.3-0.1c-0.2-16-0.3-31.8-0.3-47.2c0.9,0,1.7,0,2.5,0
			c10.3,0.2,15,0.3,23.3,0.2c8.5-0.1,13.3-0.3,18.5-0.6c0.6,0,1.2-0.1,1.9-0.1c-0.1,3.3-0.1,7.1-0.2,11.7c-0.2,11.8-0.3,23.9-0.5,36
			C298.9,225.7,289.8,225.7,280.9,225.7z M358.3,220.8L358.3,220.8c0,0.4-0.1,1.7-1.2,2.7c-0.8,0.7-1.8,1.1-2.9,1.1l-0.1,0
			c-14,0.4-28.2,0.7-42.3,0.9c0.1-12,0.3-24.1,0.5-35.9c0.1-4.7,0.2-8.6,0.2-11.9c3.2-0.1,6.9-0.2,11.6-0.3
			c11.9-0.2,23.8-0.1,35.4,0.2C359.3,192.1,358.9,206.5,358.3,220.8z"/>
	</g>
	<g>
		<path d="M235,115.2c0,1.2-0.7,1.8-2,1.8c-0.3,0-0.5-0.1-0.7-0.4c-0.2-0.2-0.3-0.6-0.3-1.1l-0.1-9.4c0-3.1,0-6,0.1-8.7
			c-0.8,0.7-1.6,1.6-2.4,2.5c-0.8,1-1.3,1.6-1.6,1.9c-0.3,0.3-0.7,0.6-1.1,0.9c-0.5,0.3-0.9,0.5-1.3,0.5c-0.4,0-0.7-0.1-0.9-0.4
			c-0.2-0.3-0.4-0.6-0.4-1c0-0.4,0.3-0.9,0.9-1.6c0.6-0.7,2.7-3,6.4-6.9c0.6-0.5,1.3-0.8,2.1-0.8c0.4,0,0.8,0.1,1,0.4
			c0.3,0.2,0.4,0.5,0.4,0.8l-0.3,9.9L235,115.2z"/>
	</g>
	<g>
		<path d="M287.4,117L282,117c-0.2,0-0.5,0-0.7,0c-2.4,0-3.6-0.5-3.6-1.4c0-0.7,0.1-1.3,0.4-1.9c0.2-0.6,0.5-1,0.7-1.3
			c0.2-0.3,0.7-0.8,1.3-1.5c0.7-0.7,1.1-1.2,1.4-1.5c0.3-0.3,1.2-1.2,2.7-2.6c1.5-1.4,2.6-2.7,3.4-3.8c0.7-1.1,1.1-2.3,1.1-3.6
			c0-1.9-0.8-3.2-2.3-3.8c-0.4-0.1-0.9-0.2-1.4-0.2c-1.1,0-2.1,0.5-3.2,1.4c-0.4,0.4-0.9,0.6-1.3,0.6c-0.1,0-0.3,0-0.4,0
			c-0.6-0.1-0.9-0.6-0.9-1.3c0-1,0.7-1.8,2-2.4c1.4-0.7,3-1,4.7-1c1.7,0,3.1,0.6,4.2,1.9c1.1,1.2,1.6,2.8,1.6,4.6
			c0,2.6-0.8,4.9-2.4,6.8c-0.8,0.9-1.5,1.7-2.3,2.5c-2.5,2.4-4.1,4.2-5,5.4c1.1,0.1,2.5,0.1,4.1,0.1c1.6,0,3.7-0.1,6.1-0.3
			c0.4,0.1,0.7,0.2,0.9,0.5c0.2,0.3,0.4,0.5,0.4,0.9c0,0.8-0.4,1.4-1.3,1.7C291.1,116.9,289.6,117,287.4,117z"/>
	</g>
	<g>
		<path d="M334.6,94.1c-1.4,0-2.8,0.6-4.1,1.9c-0.3,0.2-0.7,0.4-0.9,0.4c-0.3,0-0.5,0-0.7-0.1c-0.6-0.2-0.8-0.6-0.8-1.2
			c0-1,0.6-1.9,1.9-2.7c1.3-0.8,2.8-1.1,4.5-1.1c1.7,0,3.2,0.5,4.4,1.4c1.2,0.9,1.8,2.1,1.8,3.6c0,1.5-0.2,2.7-0.5,3.7
			c-0.3,1-1.1,1.8-2.2,2.4c2.6,1,3.9,2.8,3.9,5.3c0,2.2-0.7,4-2,5.6c-1.3,1.6-2.9,2.3-4.8,2.3c-1.9,0-3.5-0.4-5-1.3
			c-1.4-0.9-2.1-1.9-2.1-3c0-0.2,0.1-0.5,0.4-0.8c0.2-0.3,0.6-0.4,1.1-0.4c0.5,0,1,0.2,1.5,0.6c0.5,0.4,1.2,0.9,1.8,1.3
			c0.7,0.4,1.5,0.6,2.3,0.6c2.5,0,3.7-1.5,3.7-4.6c0-1.2-0.4-2.1-1.3-2.9c-0.8-0.7-2-1.1-3.6-1.1c-0.3,0-0.6,0-0.7-0.1
			c-0.2,0-0.4-0.1-0.6-0.3c-0.3-0.2-0.4-0.5-0.4-0.9c0-0.9,0.5-1.4,1.5-1.4c1-0.1,1.9-0.5,2.6-1.3c0.8-0.8,1.2-1.8,1.2-3.1
			c0-0.7-0.3-1.3-0.9-1.9C336.1,94.4,335.4,94.1,334.6,94.1z"/>
	</g>
	<g>
		<path d="M234.1,155.1c-0.9,0.1-2.1,0.2-3.8,0.2c-1.6,0-2.7-0.3-3.3-0.8c-0.6-0.5-0.9-1.7-0.9-3.5s0.1-3.8,0.4-6
			c0.3-2.2,0.6-3.8,0.9-4.8c0.3-1,1-1.5,2-1.5c0.7,0,1,0.3,1.1,0.8c0,0.1,0,0.4,0,0.7c0,0.3-0.1,0.8-0.2,1.4
			c-0.6,4.3-0.9,7.4-0.9,9.2c0,0.4,0,0.8,0,1.1c0.4,0.1,1,0.1,1.8,0.1c0.7,0,1.7-0.1,2.9-0.2c0-0.5,0.1-1.2,0.1-2.1
			c0-0.9,0-1.6,0-2.2c0-0.6,0.1-1,0.3-1.3c0.1-0.2,0.6-0.4,1.3-0.4c0.7,0,1.1,0.1,1.3,0.4c0.2,0.2,0.3,0.6,0.3,1
			c0,0.4,0,1.3-0.1,2.7c-0.1,1.4-0.1,5.2-0.1,11.5c0,1.1-0.5,1.7-1.6,1.7c0,0-0.1,0-0.1,0c-0.9,0-1.4-0.7-1.4-2.2v-2L234.1,155.1z"
			/>
	</g>
	<g>
		<path d="M282.6,147.3c1-0.4,2-0.6,2.9-0.6c0.9,0,1.8,0.1,2.7,0.4c0.9,0.3,1.7,0.7,2.4,1.4c0.7,0.6,1.3,1.5,1.8,2.5
			c0.4,1.1,0.7,2.3,0.7,3.7c0,2.4-0.7,4.3-2.1,6c-1.4,1.6-3,2.4-4.8,2.4s-3.4-0.4-4.8-1.2c-1.4-0.8-2-1.7-2-2.7
			c0-0.5,0.1-0.8,0.2-1.1c0.1-0.2,0.3-0.4,0.6-0.6c0.3-0.1,0.6-0.2,0.8-0.2c0.2,0,0.6,0.1,1,0.4c0.4,0.3,1,0.7,1.7,1.2
			c0.7,0.5,1.6,0.8,2.5,0.8c1,0,1.8-0.5,2.5-1.5c0.7-1,1.1-2,1.1-3.2c0-3.3-1.5-5-4.5-5c-0.6,0-1.4,0.1-2.2,0.2
			c-0.8,0.1-1.4,0.2-1.7,0.2c-0.3,0-0.6-0.1-1.1-0.3c-0.5-0.5-0.8-2.1-0.8-4.7c0-2.6,0.1-4.3,0.2-5.1c0.1-0.8,0.3-1.2,0.6-1.3
			c0.5-0.2,2.1-0.3,4.6-0.3c2.6,0,4.6,0.2,6.2,0.7c0.5,0.3,0.7,0.7,0.7,1.3c0,0.6-0.2,1-0.5,1.3c-0.3,0.3-0.6,0.5-1,0.4
			c-2-0.4-4.1-0.7-6.2-0.7c-0.6,0-1.3,0-1.9,0.1C282.5,143,282.6,144.7,282.6,147.3z"/>
	</g>
	<g>
		<path d="M338.9,140.4c-0.4,0.5-1.2,2.1-2.5,4.7c-1.3,2.6-2,4.2-2.2,4.7c1-0.3,2.1-0.4,3.2-0.4c1.1,0,2.1,0.3,3,0.9
			c1.5,1,2.3,2.6,2.3,4.9c0,4.9-2.4,7.3-7.1,7.4c0,0-0.1,0-0.1,0c-1.7,0-3-0.6-3.8-1.8c-0.8-1.2-1.2-2.8-1.3-4.8
			c0-4.7,1.8-9.8,5.3-15.4c0.6-1,1.1-1.6,1.5-1.9c0.4-0.3,0.8-0.4,1.1-0.4c0.3,0,0.5,0.1,0.8,0.3c0.3,0.2,0.4,0.5,0.4,0.8
			C339.4,139.5,339.2,139.9,338.9,140.4z M339.9,155.3c0-1-0.3-1.8-0.8-2.3c-0.6-0.5-1.3-0.8-2.2-0.8c-0.9,0-1.6,0.1-2.1,0.2
			c-0.3,0.1-0.6,0.3-0.8,0.6c-0.2,0.2-0.4,0.6-0.5,1.1c-0.2,0.5-0.2,1.2-0.2,2c0,0.8,0.2,1.6,0.7,2.2c0.5,0.6,1.1,0.9,1.8,0.9
			c1.4,0,2.4-0.4,3.2-1.2C339.5,157.2,339.9,156.3,339.9,155.3z"/>
	</g>
	<g>
		<path d="M237.3,199l-0.3,11.6c0,0.5-0.2,0.9-0.5,1.2c-0.4,0.3-0.8,0.4-1.2,0.4c-0.7,0-1-0.9-1-2.8c0-3.8,0.1-7.3,0.3-10.5
			l-3.8,0.2c-0.3,0-0.6-0.1-0.8-0.4c-0.2-0.3-0.4-0.6-0.4-0.9c0-0.9,0.5-1.3,1.5-1.3l3.6,0l0.4-4.5c-0.8-0.3-3-0.7-6.4-1.3
			c-1.3-0.2-2.1-0.4-2.4-0.4c-0.6-0.1-1-0.6-1-1.4c0-0.3,0.1-0.6,0.4-0.8c0.2-0.3,0.6-0.4,1.1-0.4c0.5,0,2.3,0.3,5.5,0.8
			c3.2,0.5,5,1,5.4,1.3c0.1,0.1,0.2,0.6,0.2,1.4c0,0.4-0.1,1.4-0.3,3c-0.1,1.1-0.2,1.9-0.3,2.3l1.8-0.1c0.2,0,0.4,0,0.8,0
			c0.4,0,0.7,0.1,1,0.3c0.3,0.2,0.4,0.5,0.4,1c0,0.5-0.2,0.8-0.5,1.1c-0.3,0.2-1,0.4-2,0.4L237.3,199z"/>
	</g>
	<g>
		<path d="M285.4,188.8c1.8,0,3.3,0.4,4.5,1.3c1.2,0.9,1.8,2.1,1.8,3.6c0,2.2-1.2,4.2-3.6,5.8c1.4,1.5,2.4,2.8,3,3.9
			c0.6,1.2,1,2.6,1,4.2c0,1.6-0.6,3-1.8,4c-1.3,1.1-2.9,1.7-4.9,1.7c-2,0-3.5-0.5-4.6-1.5c-1.2-1-1.7-2.4-1.7-4.2
			c0-2.9,1.4-5.5,4.2-7.7c-1.1-0.6-2-1.4-2.7-2.6c-0.8-1.2-1.2-2.5-1.2-3.8c0-1.3,0.5-2.4,1.6-3.3
			C282.1,189.3,283.6,188.8,285.4,188.8z M281.7,207.2c0,0.1,0,0.2,0,0.3c0,1,0.4,1.7,1.2,2.2c0.8,0.5,1.8,0.8,3,0.8
			c1.1,0,1.9-0.3,2.4-0.9c0.5-0.6,0.7-1.4,0.7-2.2c0-0.9-0.3-1.8-0.9-2.7c-0.6-0.9-1.5-2-2.7-3.2c-1.3,0.9-2.2,1.8-2.8,2.8
			C282,205.3,281.7,206.2,281.7,207.2z M281.9,194c0,0.5,0.1,1,0.4,1.4c0.3,0.4,0.6,0.8,0.9,1c0.3,0.2,0.7,0.5,1.2,0.8
			c0.5,0.3,0.9,0.6,1,0.7c0.8-0.6,1.3-1,1.6-1.2c0.3-0.2,0.6-0.5,0.9-0.9c0.4-0.4,0.6-0.7,0.7-1c0.1-0.3,0.1-0.7,0.1-1.3
			c0-0.6-0.4-1.1-1-1.5c-0.7-0.4-1.4-0.6-2.1-0.6c-0.1,0-0.1,0-0.2,0C283.1,191.6,281.9,192.5,281.9,194z"/>
	</g>
	<g>
		<path d="M341,194.4l0,3.7c0,0.8,0,3.2,0,7l0.1,7c0,0.4-0.2,0.8-0.6,1.1c-0.4,0.3-0.7,0.4-1.1,0.4c-0.3,0-0.6-0.2-0.8-0.5
			c-0.2-0.3-0.3-0.7-0.3-1.1c-0.2-3.6-0.3-7.3-0.3-11.2c-0.6,0.8-1.9,1.3-3.9,1.3c-1.3,0-2.4-0.7-3.3-2.1c-0.9-1.4-1.3-2.9-1.3-4.5
			c0-2.1,0.7-3.7,2-4.8c1.3-1.1,3-1.7,5-1.7c2,0,3.4,0.8,4.2,2.3C340.9,191.8,341,192.8,341,194.4z M338.1,195.3l0-1.8
			c0-0.6,0-1-0.1-1.2c-0.1-0.2-0.2-0.3-0.4-0.4c-0.2-0.2-0.4-0.3-0.6-0.3c-0.2,0-0.5,0-0.9,0.1c-0.4,0.1-0.9,0.3-1.5,0.5
			c-0.6,0.3-1.1,0.7-1.6,1.3c-0.5,0.6-0.7,1.4-0.7,2.3c0,1,0.2,1.7,0.7,2.4c0.5,0.6,1,0.9,1.5,0.9c0.1,0,0.3,0,0.5-0.1
			c1.5-0.4,2.5-0.8,3-1.2V195.3z"/>
	</g>
	<g>
		<path class="st0" d="M83.3,407c0-3.7,0-7.4,0-11.1c0-4.3,0-8.5,0.1-13c0-6.4,0.1-13.4,0.1-22.1c-16,0-32.5,0.1-49.1,0.3
			c0,3.4,0,6.8,0,10.2c0.1,7.8,0.3,13.9,0.5,20.9c0.1,4.2,0.3,8.7,0.4,14.1c12.5,0.1,25,0.3,37.2,0.4C76.7,406.9,80.2,407,83.3,407z
			"/>
		<path class="st0" d="M83.6,348.6c0-10,0-20.1,0-30c-10.6-0.3-22.6-0.5-31.6-0.5c-5.3,0-9.6,0.1-11.9,0.3c-0.9,0.1-2.2,0.3-3.1,1.1
			c-0.5,0.4-0.8,1-1,1.5c-0.1,0.4-0.2,0.7-0.2,1.1l0,0.1c-0.7,11.7-1.2,23.3-1.3,34.8c16.6-0.2,33-0.3,49-0.2
			C83.6,354.3,83.6,351.5,83.6,348.6z"/>
		<path class="st0" d="M87.6,348.6c0,2.9,0,5.6,0,8.2c4.5,0,8.9,0,13.3,0c4.6,0,9.1,0,14,0.1c5.4,0,11.2,0.1,17.9,0.1
			c-0.1-1.8-0.1-3.8-0.2-6c-0.2-10.6-0.2-21.3,0.2-31.7c-5.3,0.1-15.8,0.2-25.4-0.1c-0.2,0-8.8-0.3-19.8-0.6
			C87.6,328.6,87.6,338.6,87.6,348.6z"/>
		<path class="st0" d="M136.6,351c0,2.3,0.1,4.3,0.2,6.1c4.5,0,9.4,0,14.9,0c10.9,0,21.9,0,32.7,0c-0.2-11.6-0.6-23.3-1.1-34.9
			l0-0.1c0-1-0.4-1.9-1.2-2.6c-0.9-0.8-2.2-1.1-3.1-1.2c-10.2-1-31,0.4-31.2,0.4c-2.5,0.2-5.4,0.3-11.1,0.4
			C136.4,329.7,136.4,340.3,136.6,351z"/>
		<path class="st0" d="M72.5,410.8c-12.1-0.2-24.6-0.3-37-0.4c0.1,2.5,0.1,5.1,0.2,8c0.2,11.7,0.3,23.6,0.2,35.1
			c0,1,0.4,1.9,1.2,2.6c1.1,1.1,2.5,1.1,2.9,1.1l0.1,0c14.4,0.4,29,0.8,43.5,0.9c-0.2-16-0.3-31.8-0.3-47.2
			C80.2,410.9,76.7,410.8,72.5,410.8z"/>
		<path class="st0" d="M151.6,361.1c-5.4,0-10.3,0-14.8,0c0.1,2.3,0.2,4.3,0.3,6.2c0.2,4.8,0.5,9.3,0.6,17.2
			c0.1,7.8,0,12.1-0.2,21.7c0,0.1,0,0.2,0,0.3c3.2-0.1,6.8-0.2,11.5-0.3c11.9-0.2,23.9-0.1,35.5,0.2c0.1-9.4,0.1-18.8,0.1-28.1
			c0-5.7-0.1-11.4-0.2-17.1C173.6,361.1,162.6,361.1,151.6,361.1z"/>
		<path class="st3" d="M113.1,407.3c8.4-0.1,13.2-0.3,18.3-0.6c0.7,0,1.4-0.1,2.1-0.1c0-0.2,0-0.3,0-0.5c0.2-9.5,0.3-13.9,0.2-21.6
			c-0.1-7.8-0.3-12.3-0.6-17.1c-0.1-2-0.2-4.1-0.3-6.4c-6.8,0-12.6-0.1-18.1-0.1c-4.9,0-9.4-0.1-14-0.1c-4.4,0-8.8,0-13.3,0
			c0,8.7-0.1,15.7-0.1,22.1c0,4.5-0.1,8.7-0.1,13c0,3.7,0,7.4,0,11.1c0.9,0,1.8,0,2.6,0C100.2,407.3,104.8,407.4,113.1,407.3z"/>
		<path class="st0" d="M149.1,410.1c-4.8,0.1-8.5,0.2-11.6,0.3c-0.1,3.3-0.1,7.2-0.2,11.9c-0.2,11.8-0.3,23.8-0.5,35.9
			c14.1-0.2,28.3-0.5,42.3-0.9l0.1,0c1.1,0,2.2-0.4,2.9-1.1c1.1-1,1.2-2.3,1.2-2.6l0-0.1c0.6-14.3,1-28.7,1.2-43.1
			C172.9,410,161,409.9,149.1,410.1z"/>
		<path class="st0" d="M133.3,422.3c0.1-4.6,0.1-8.4,0.2-11.7c-0.6,0-1.3,0.1-1.9,0.1c-5.1,0.2-10,0.5-18.5,0.6
			c-8.3,0.1-13,0-23.3-0.2c-0.8,0-1.7,0-2.5,0c0,15.4,0.1,31.2,0.3,47.2c6.1,0.1,12.2,0.1,18.3,0.1c9,0,18,0,27-0.1
			C133,446.2,133.1,434.1,133.3,422.3z"/>
		<path d="M188.1,378.2c-0.1-18.6-0.6-37.5-1.4-56.1c0-1.9-0.8-3.8-2.3-5.1c-1.8-1.7-4.3-2-5.1-2.1c-10.5-1.1-30.9,0.4-31.8,0.4
			c-2.5,0.2-5.5,0.3-11.4,0.4c-0.2,0-15.3,0.4-28.7,0c-2.3-0.1-56.8-1.8-67.6-0.8c-0.8,0.1-3.3,0.3-5.2,2.1c-0.9,0.8-1.5,1.9-1.9,3
			c-0.2,0.7-0.3,1.4-0.3,2.1c-1.1,16.5-1.5,33.1-1.4,49.2c0.1,7.9,0.3,14,0.5,21c0.2,6.9,0.5,14.7,0.7,26.1
			c0.2,11.7,0.3,23.5,0.2,35.1c0,2,0.8,3.8,2.3,5.2c2,1.9,4.3,2.1,5.3,2.1c21.8,0.7,44,1,65.8,1.1c1.2,0,2.5,0,3.7,0
			c23.1,0,46.6-0.4,69.7-1.1c2,0,3.9-0.7,5.3-2.1c2-1.9,2.2-4.2,2.3-5.1C187.8,428.6,188.3,403.2,188.1,378.2z M184.7,378.2
			c0.1,9.3,0,18.7-0.1,28.1c-11.7-0.4-23.6-0.4-35.5-0.2c-4.7,0.1-8.3,0.2-11.5,0.3c0-0.1,0-0.2,0-0.3c0.2-9.6,0.3-13.9,0.2-21.7
			c-0.1-7.9-0.3-12.4-0.6-17.2c-0.1-2-0.2-4-0.3-6.2c4.5,0,9.3,0,14.8,0c11,0,22,0,32.8,0C184.6,366.8,184.6,372.5,184.7,378.2z
			 M147.8,318.8c0.2,0,21-1.5,31.2-0.4c0.9,0.1,2.2,0.3,3.1,1.2c0.8,0.7,1.2,1.6,1.2,2.6l0,0.1c0.5,11.6,0.9,23.2,1.1,34.9
			c-10.8,0-21.8,0-32.7,0c-5.5,0-10.4,0-14.9,0c-0.1-1.8-0.1-3.8-0.2-6.1c-0.2-10.6-0.1-21.3,0.2-31.7
			C142.4,319.1,145.3,319,147.8,318.8z M87.3,395.9c0-4.3,0-8.5,0.1-13c0-6.4,0.1-13.4,0.1-22.1c4.5,0,8.9,0,13.3,0
			c4.6,0,9.1,0,14,0.1c5.4,0,11.2,0.1,18.1,0.1c0.1,2.3,0.2,4.4,0.3,6.4c0.2,4.8,0.4,9.3,0.6,17.1c0.1,7.7,0,12.1-0.2,21.6
			c0,0.2,0,0.3,0,0.5c-0.7,0-1.4,0.1-2.1,0.1c-5.1,0.2-9.9,0.4-18.3,0.6c-8.3,0.1-13,0-23.2-0.2c-0.8,0-1.7,0-2.6,0
			C87.3,403.3,87.3,399.6,87.3,395.9z M107.4,319.3c9.6,0.3,20.1,0.2,25.4,0.1c-0.3,10.4-0.4,21.1-0.2,31.7c0,2.2,0.1,4.2,0.2,6
			c-6.8,0-12.5-0.1-17.9-0.1c-4.9,0-9.4-0.1-14-0.1c-4.4,0-8.8,0-13.3,0c0-2.6,0-5.3,0-8.2c0-10,0-20.1,0-30
			C98.6,319,107.1,319.2,107.4,319.3z M35.9,322.3l0-0.1c0-0.4,0.1-0.7,0.2-1.1c0.2-0.6,0.5-1.1,1-1.5c0.9-0.9,2.2-1.1,3.1-1.1
			c2.2-0.2,6.5-0.3,11.9-0.3c9,0,21,0.2,31.6,0.5c0,9.9,0,20,0,30c0,2.9,0,5.6,0,8.2c-16,0-32.5,0.1-49,0.2
			C34.7,345.6,35.1,333.9,35.9,322.3z M35,392.2c-0.2-7-0.4-13.1-0.5-20.9c0-3.4,0-6.8,0-10.2c16.6-0.2,33-0.3,49.1-0.3
			c0,8.7-0.1,15.7-0.1,22.1c0,4.5-0.1,8.7-0.1,13c0,3.7,0,7.4,0,11.1c-3.1-0.1-6.6-0.1-10.8-0.2c-12.2-0.2-24.7-0.3-37.2-0.4
			C35.3,401,35.1,396.4,35,392.2z M40.1,457.3L40.1,457.3c-0.5,0-1.9-0.1-3-1.1c-0.8-0.7-1.2-1.6-1.2-2.6c0-11.6,0-23.4-0.2-35.1
			c0-2.9-0.1-5.5-0.2-8c12.4,0.1,24.9,0.3,37,0.4c4.1,0.1,7.7,0.1,10.8,0.2c0,15.4,0.1,31.3,0.3,47.2
			C69.1,458,54.5,457.7,40.1,457.3z M105.8,458.3c-6.1,0-12.2,0-18.3-0.1c-0.2-16-0.3-31.8-0.3-47.2c0.9,0,1.7,0,2.5,0
			c10.3,0.2,15,0.3,23.3,0.2c8.5-0.1,13.3-0.3,18.5-0.6c0.6,0,1.2-0.1,1.9-0.1c-0.1,3.3-0.1,7.1-0.2,11.7c-0.2,11.8-0.3,23.9-0.5,36
			C123.8,458.3,114.8,458.4,105.8,458.3z M183.3,453.4L183.3,453.4c0,0.4-0.1,1.7-1.2,2.7c-0.8,0.7-1.8,1.1-2.9,1.1l-0.1,0
			c-14,0.4-28.2,0.7-42.3,0.9c0.1-12,0.3-24.1,0.5-35.9c0.1-4.7,0.2-8.6,0.2-11.9c3.2-0.1,6.9-0.2,11.6-0.3
			c11.9-0.2,23.8-0.1,35.4,0.2C184.3,424.7,183.9,439.1,183.3,453.4z"/>
	</g>
	<g>
		<path d="M59.9,347.8c0,1.2-0.7,1.8-2,1.8c-0.3,0-0.5-0.1-0.7-0.4c-0.2-0.2-0.3-0.6-0.3-1.1l-0.1-9.4c0-3.1,0-6,0.1-8.7
			c-0.8,0.7-1.6,1.6-2.4,2.5c-0.8,1-1.3,1.6-1.6,1.9c-0.3,0.3-0.7,0.6-1.1,0.9c-0.5,0.3-0.9,0.5-1.3,0.5c-0.4,0-0.7-0.1-0.9-0.4
			c-0.2-0.3-0.4-0.6-0.4-1c0-0.4,0.3-0.9,0.9-1.6c0.6-0.7,2.7-3,6.4-6.9c0.6-0.5,1.3-0.8,2.1-0.8c0.4,0,0.8,0.1,1,0.4
			c0.3,0.2,0.4,0.5,0.4,0.8l-0.3,9.9L59.9,347.8z"/>
	</g>
	<g>
		<path d="M112.3,349.6l-5.4-0.1c-0.2,0-0.5,0-0.7,0c-2.4,0-3.6-0.5-3.6-1.4c0-0.7,0.1-1.3,0.4-1.9c0.2-0.6,0.5-1,0.7-1.3
			c0.2-0.3,0.7-0.8,1.3-1.5c0.7-0.7,1.1-1.2,1.4-1.5c0.3-0.3,1.2-1.2,2.7-2.6c1.5-1.4,2.6-2.7,3.4-3.8c0.7-1.1,1.1-2.3,1.1-3.6
			c0-1.9-0.8-3.2-2.3-3.8c-0.4-0.1-0.9-0.2-1.4-0.2c-1.1,0-2.1,0.5-3.2,1.4c-0.4,0.4-0.9,0.6-1.3,0.6c-0.1,0-0.3,0-0.4,0
			c-0.6-0.1-0.9-0.6-0.9-1.3c0-1,0.7-1.8,2-2.4c1.4-0.7,3-1,4.7-1c1.7,0,3.1,0.6,4.2,1.9c1.1,1.2,1.6,2.8,1.6,4.6
			c0,2.6-0.8,4.9-2.4,6.8c-0.8,0.9-1.5,1.7-2.3,2.5c-2.5,2.4-4.1,4.2-5,5.4c1.1,0.1,2.5,0.1,4.1,0.1c1.6,0,3.7-0.1,6.1-0.3
			c0.4,0.1,0.7,0.2,0.9,0.5c0.2,0.3,0.4,0.5,0.4,0.9c0,0.8-0.4,1.4-1.3,1.7C116.1,349.5,114.6,349.6,112.3,349.6z"/>
	</g>
	<g>
		<path d="M159.6,326.7c-1.4,0-2.8,0.6-4.1,1.9c-0.3,0.2-0.7,0.4-0.9,0.4c-0.3,0-0.5,0-0.7-0.1c-0.6-0.2-0.8-0.6-0.8-1.2
			c0-1,0.6-1.9,1.9-2.7c1.3-0.8,2.8-1.1,4.5-1.1c1.7,0,3.2,0.5,4.4,1.4c1.2,0.9,1.8,2.1,1.8,3.6c0,1.5-0.2,2.7-0.5,3.7
			c-0.3,1-1.1,1.8-2.2,2.4c2.6,1,3.9,2.8,3.9,5.3c0,2.2-0.7,4-2,5.6c-1.3,1.6-2.9,2.3-4.8,2.3c-1.9,0-3.5-0.4-5-1.3
			c-1.4-0.9-2.1-1.9-2.1-3c0-0.2,0.1-0.5,0.4-0.8c0.2-0.3,0.6-0.4,1.1-0.4c0.5,0,1,0.2,1.5,0.6c0.5,0.4,1.2,0.9,1.8,1.3
			c0.7,0.4,1.5,0.6,2.3,0.6c2.5,0,3.7-1.5,3.7-4.6c0-1.2-0.4-2.1-1.3-2.9c-0.8-0.7-2-1.1-3.6-1.1c-0.3,0-0.6,0-0.7-0.1
			c-0.2,0-0.4-0.1-0.6-0.3c-0.3-0.2-0.4-0.5-0.4-0.9c0-0.9,0.5-1.4,1.5-1.4c1-0.1,1.9-0.5,2.6-1.3c0.8-0.8,1.2-1.8,1.2-3.1
			c0-0.7-0.3-1.3-0.9-1.9C161.1,327,160.4,326.7,159.6,326.7z"/>
	</g>
	<g>
		<path d="M59,387.7c-0.9,0.1-2.1,0.2-3.8,0.2c-1.6,0-2.7-0.3-3.3-0.8c-0.6-0.5-0.9-1.7-0.9-3.5c0-1.8,0.1-3.8,0.4-6
			c0.3-2.2,0.6-3.8,0.9-4.8c0.3-1,1-1.5,2-1.5c0.7,0,1,0.3,1.1,0.8c0,0.1,0,0.4,0,0.7c0,0.3-0.1,0.8-0.2,1.4
			c-0.6,4.3-0.9,7.4-0.9,9.2c0,0.4,0,0.8,0,1.1c0.4,0.1,1,0.1,1.8,0.1c0.7,0,1.7-0.1,2.9-0.2c0-0.5,0.1-1.2,0.1-2.1
			c0-0.9,0-1.6,0-2.2c0-0.6,0.1-1,0.3-1.3c0.1-0.2,0.6-0.4,1.3-0.4s1.1,0.1,1.3,0.4c0.2,0.2,0.3,0.6,0.3,1c0,0.4,0,1.3-0.1,2.7
			c-0.1,1.4-0.1,5.2-0.1,11.5c0,1.1-0.5,1.7-1.6,1.7c0,0-0.1,0-0.1,0c-0.9,0-1.4-0.7-1.4-2.2v-2L59,387.7z"/>
	</g>
	<g>
		<path class="st0" d="M107.6,379.9c1-0.4,2-0.6,2.9-0.6c0.9,0,1.8,0.1,2.7,0.4c0.9,0.3,1.7,0.7,2.4,1.4c0.7,0.6,1.3,1.5,1.8,2.5
			c0.4,1.1,0.7,2.3,0.7,3.7c0,2.4-0.7,4.3-2.1,6c-1.4,1.6-3,2.4-4.8,2.4s-3.4-0.4-4.8-1.2c-1.4-0.8-2-1.7-2-2.7
			c0-0.5,0.1-0.8,0.2-1.1c0.1-0.2,0.3-0.4,0.6-0.6c0.3-0.1,0.6-0.2,0.8-0.2c0.2,0,0.6,0.1,1,0.4c0.4,0.3,1,0.7,1.7,1.2
			c0.7,0.5,1.6,0.8,2.5,0.8c1,0,1.8-0.5,2.5-1.5c0.7-1,1.1-2,1.1-3.2c0-3.3-1.5-5-4.5-5c-0.6,0-1.4,0.1-2.2,0.2
			c-0.8,0.1-1.4,0.2-1.7,0.2c-0.3,0-0.6-0.1-1.1-0.3c-0.5-0.5-0.8-2.1-0.8-4.7c0-2.6,0.1-4.3,0.2-5.1c0.1-0.8,0.3-1.2,0.6-1.3
			c0.5-0.2,2.1-0.3,4.6-0.3c2.6,0,4.6,0.2,6.2,0.7c0.5,0.3,0.7,0.7,0.7,1.3c0,0.6-0.2,1-0.5,1.3c-0.3,0.3-0.6,0.5-1,0.4
			c-2-0.4-4.1-0.7-6.2-0.7c-0.6,0-1.3,0-1.9,0.1C107.5,375.6,107.5,377.4,107.6,379.9z"/>
	</g>
	<g>
		<path d="M163.8,373c-0.4,0.5-1.2,2.1-2.5,4.7c-1.3,2.6-2,4.2-2.2,4.7c1-0.3,2.1-0.4,3.2-0.4c1.1,0,2.1,0.3,3,0.9
			c1.5,1,2.3,2.6,2.3,4.9c0,4.9-2.4,7.3-7.1,7.4c0,0-0.1,0-0.1,0c-1.7,0-3-0.6-3.8-1.8c-0.8-1.2-1.2-2.8-1.3-4.8
			c0-4.7,1.8-9.8,5.3-15.4c0.6-1,1.1-1.6,1.5-1.9c0.4-0.3,0.8-0.4,1.1-0.4c0.3,0,0.5,0.1,0.8,0.3c0.3,0.2,0.4,0.5,0.4,0.8
			C164.4,372.1,164.2,372.5,163.8,373z M164.8,388c0-1-0.3-1.8-0.8-2.3c-0.6-0.5-1.3-0.8-2.2-0.8c-0.9,0-1.6,0.1-2.1,0.2
			c-0.3,0.1-0.6,0.3-0.8,0.6c-0.2,0.2-0.4,0.6-0.5,1.1c-0.2,0.5-0.2,1.2-0.2,2c0,0.8,0.2,1.6,0.7,2.2c0.5,0.6,1.1,0.9,1.8,0.9
			c1.4,0,2.4-0.4,3.2-1.2C164.5,389.9,164.8,389,164.8,388z"/>
	</g>
	<g>
		<path d="M62.2,431.6l-0.3,11.6c0,0.5-0.2,0.9-0.5,1.2c-0.4,0.3-0.8,0.4-1.2,0.4c-0.7,0-1-0.9-1-2.8c0-3.8,0.1-7.3,0.3-10.5
			l-3.8,0.2c-0.3,0-0.6-0.1-0.8-0.4c-0.2-0.3-0.4-0.6-0.4-0.9c0-0.9,0.5-1.3,1.5-1.3l3.6,0l0.4-4.5c-0.8-0.3-3-0.7-6.4-1.3
			c-1.3-0.2-2.1-0.4-2.4-0.4c-0.6-0.1-1-0.6-1-1.4c0-0.3,0.1-0.6,0.4-0.8c0.2-0.3,0.6-0.4,1.1-0.4c0.5,0,2.3,0.3,5.5,0.8
			c3.2,0.5,5,1,5.4,1.3c0.1,0.1,0.2,0.6,0.2,1.4c0,0.4-0.1,1.4-0.3,3c-0.1,1.1-0.2,1.9-0.3,2.3l1.8-0.1c0.2,0,0.4,0,0.8,0
			c0.4,0,0.7,0.1,1,0.3c0.3,0.2,0.4,0.5,0.4,1c0,0.5-0.2,0.8-0.5,1.1c-0.3,0.2-1,0.4-2,0.4L62.2,431.6z"/>
	</g>
	<g>
		<path d="M110.4,421.5c1.8,0,3.3,0.4,4.5,1.3c1.2,0.9,1.8,2.1,1.8,3.6c0,2.2-1.2,4.2-3.6,5.8c1.4,1.5,2.4,2.8,3,3.9
			c0.6,1.2,1,2.6,1,4.2c0,1.6-0.6,3-1.8,4c-1.3,1.1-2.9,1.7-4.9,1.7c-2,0-3.5-0.5-4.6-1.5c-1.2-1-1.7-2.4-1.7-4.2
			c0-2.9,1.4-5.5,4.2-7.7c-1.1-0.6-2-1.4-2.7-2.6c-0.8-1.2-1.2-2.5-1.2-3.8c0-1.3,0.5-2.4,1.6-3.3
			C107.1,421.9,108.6,421.5,110.4,421.5z M106.7,439.8c0,0.1,0,0.2,0,0.3c0,1,0.4,1.7,1.2,2.2c0.8,0.5,1.8,0.8,3,0.8
			c1.1,0,1.9-0.3,2.4-0.9c0.5-0.6,0.7-1.4,0.7-2.2c0-0.9-0.3-1.8-0.9-2.7c-0.6-0.9-1.5-2-2.7-3.2c-1.3,0.9-2.2,1.8-2.8,2.8
			C107,437.9,106.7,438.9,106.7,439.8z M106.9,426.6c0,0.5,0.1,1,0.4,1.4c0.3,0.4,0.6,0.8,0.9,1c0.3,0.2,0.7,0.5,1.2,0.8
			c0.5,0.3,0.9,0.6,1,0.7c0.8-0.6,1.3-1,1.6-1.2c0.3-0.2,0.6-0.5,0.9-0.9c0.4-0.4,0.6-0.7,0.7-1c0.1-0.3,0.1-0.7,0.1-1.3
			c0-0.6-0.4-1.1-1-1.5c-0.7-0.4-1.4-0.6-2.1-0.6c-0.1,0-0.1,0-0.2,0C108.1,424.2,106.9,425.1,106.9,426.6z"/>
	</g>
	<g>
		<path d="M166,427.1l0,3.7c0,0.8,0,3.2,0,7l0.1,7c0,0.4-0.2,0.8-0.6,1.1c-0.4,0.3-0.7,0.4-1.1,0.4c-0.3,0-0.6-0.2-0.8-0.5
			c-0.2-0.3-0.3-0.7-0.3-1.1c-0.2-3.6-0.3-7.3-0.3-11.2c-0.6,0.8-1.9,1.3-3.9,1.3c-1.3,0-2.4-0.7-3.3-2.1c-0.9-1.4-1.3-2.9-1.3-4.5
			c0-2.1,0.7-3.7,2-4.8c1.3-1.1,3-1.7,5-1.7c2,0,3.4,0.8,4.2,2.3C165.9,424.5,166,425.5,166,427.1z M163,427.9l0-1.8
			c0-0.6,0-1-0.1-1.2c-0.1-0.2-0.2-0.3-0.4-0.4c-0.2-0.2-0.4-0.3-0.6-0.3c-0.2,0-0.5,0-0.9,0.1c-0.4,0.1-0.9,0.3-1.5,0.5
			c-0.6,0.3-1.1,0.7-1.6,1.3c-0.5,0.6-0.7,1.4-0.7,2.3s0.2,1.7,0.7,2.4c0.5,0.6,1,0.9,1.5,0.9c0.1,0,0.3,0,0.5-0.1
			c1.5-0.4,2.5-0.8,3-1.2V427.9z"/>
	</g>
	<g>
		<path class="st0" d="M433.9,404.7c0-3.7,0-7.4,0-11.1c0-4.3,0-8.5,0.1-13c0-6.4,0.1-13.4,0.1-22.1c-16,0-32.5,0.1-49.1,0.3
			c0,3.4,0,6.8,0,10.2c0.1,7.8,0.3,13.9,0.5,20.9c0.1,4.2,0.3,8.7,0.4,14.1c12.5,0.1,25,0.3,37.2,0.4
			C427.2,404.6,430.8,404.7,433.9,404.7z"/>
		<path class="st0" d="M434.2,346.3c0-10,0-20.1,0-30c-10.6-0.3-22.6-0.5-31.6-0.5c-5.3,0-9.6,0.1-11.9,0.3
			c-0.9,0.1-2.2,0.3-3.1,1.1c-0.5,0.4-0.8,1-1,1.5c-0.1,0.4-0.2,0.7-0.2,1.1l0,0.1c-0.7,11.7-1.2,23.3-1.3,34.8
			c16.6-0.2,33-0.3,49-0.2C434.1,352,434.1,349.3,434.2,346.3z"/>
		<path class="st0" d="M438.1,346.4c0,2.9,0,5.6,0,8.2c4.5,0,8.9,0,13.3,0c4.6,0,9.1,0,14,0.1c5.4,0,11.2,0.1,17.9,0.1
			c-0.1-1.8-0.1-3.8-0.2-6c-0.2-10.6-0.2-21.3,0.2-31.7c-5.3,0.1-15.8,0.2-25.4-0.1c-0.2,0-8.8-0.3-19.8-0.6
			C438.1,326.3,438.1,336.4,438.1,346.4z"/>
		<path class="st0" d="M487.1,348.7c0,2.3,0.1,4.3,0.2,6.1c4.5,0,9.4,0,14.9,0c10.9,0,21.9,0,32.7,0c-0.2-11.6-0.6-23.3-1.1-34.9
			l0-0.1c0-1-0.4-1.9-1.2-2.6c-0.9-0.8-2.2-1.1-3.1-1.2c-10.2-1-31,0.4-31.2,0.4c-2.5,0.2-5.4,0.3-11.1,0.4
			C487,327.4,486.9,338,487.1,348.7z"/>
		<path class="st0" d="M423.1,408.5c-12.1-0.2-24.6-0.3-37-0.4c0.1,2.5,0.1,5.1,0.2,8c0.2,11.7,0.3,23.6,0.2,35.1
			c0,1,0.4,1.9,1.2,2.6c1.1,1.1,2.5,1.1,2.9,1.1l0.1,0c14.4,0.4,29,0.8,43.5,0.9c-0.2-16-0.3-31.8-0.3-47.2
			C430.8,408.6,427.2,408.6,423.1,408.5z"/>
		<path class="st0" d="M502.2,358.8c-5.4,0-10.3,0-14.8,0c0.1,2.3,0.2,4.3,0.3,6.2c0.2,4.8,0.5,9.3,0.6,17.2
			c0.1,7.8,0,12.1-0.2,21.7c0,0.1,0,0.2,0,0.3c3.2-0.1,6.8-0.2,11.5-0.3c11.9-0.2,23.9-0.1,35.5,0.2c0.1-9.4,0.1-18.8,0.1-28.1
			c0-5.7-0.1-11.4-0.2-17.1C524.2,358.8,513.1,358.8,502.2,358.8z"/>
		<path class="st4" d="M463.7,405c8.4-0.1,13.2-0.3,18.3-0.6c0.7,0,1.4-0.1,2.1-0.1c0-0.2,0-0.3,0-0.5c0.2-9.5,0.3-13.9,0.2-21.6
			c-0.1-7.8-0.3-12.3-0.6-17.1c-0.1-2-0.2-4.1-0.3-6.4c-6.8,0-12.6-0.1-18.1-0.1c-4.9,0-9.4-0.1-14-0.1c-4.4,0-8.8,0-13.3,0
			c0,8.7-0.1,15.7-0.1,22.1c0,4.5-0.1,8.7-0.1,13c0,3.7,0,7.4,0,11.1c0.9,0,1.8,0,2.6,0C450.7,405,455.4,405.1,463.7,405z"/>
		<path class="st0" d="M499.7,407.8c-4.8,0.1-8.5,0.2-11.6,0.3c-0.1,3.3-0.1,7.2-0.2,11.9c-0.2,11.8-0.3,23.8-0.5,35.9
			c14.1-0.2,28.3-0.5,42.3-0.9l0.1,0c1.1,0,2.2-0.4,2.9-1.1c1.1-1,1.2-2.3,1.2-2.6l0-0.1c0.6-14.3,1-28.7,1.2-43.1
			C523.5,407.7,511.5,407.6,499.7,407.8z"/>
		<path class="st0" d="M483.9,420c0.1-4.6,0.1-8.4,0.2-11.7c-0.6,0-1.3,0.1-1.9,0.1c-5.1,0.2-10,0.5-18.5,0.6
			c-8.3,0.1-13,0-23.3-0.2c-0.8,0-1.7,0-2.5,0c0,15.4,0.1,31.2,0.3,47.2c6.1,0.1,12.2,0.1,18.3,0.1c9,0,18,0,27-0.1
			C483.5,443.9,483.7,431.8,483.9,420z"/>
		<path d="M538.7,375.9c-0.1-18.6-0.6-37.5-1.4-56.1c0-1.9-0.8-3.8-2.3-5.1c-1.8-1.7-4.3-2-5.1-2.1c-10.5-1.1-30.9,0.4-31.8,0.4
			c-2.5,0.2-5.5,0.3-11.4,0.4c-0.2,0-15.3,0.4-28.7,0c-2.3-0.1-56.8-1.8-67.6-0.8c-0.8,0.1-3.3,0.3-5.2,2.1c-0.9,0.8-1.5,1.9-1.9,3
			c-0.2,0.7-0.3,1.4-0.3,2.1c-1.1,16.5-1.5,33.1-1.4,49.2c0.1,7.9,0.3,14,0.5,21c0.2,6.9,0.5,14.7,0.7,26.1
			c0.2,11.7,0.3,23.5,0.2,35.1c0,2,0.8,3.8,2.3,5.2c2,1.9,4.3,2.1,5.3,2.1c21.8,0.7,44,1,65.8,1.1c1.2,0,2.5,0,3.7,0
			c23.1,0,46.6-0.4,69.7-1.1c2,0,3.9-0.7,5.3-2.1c2-1.9,2.2-4.2,2.3-5.1C538.4,426.3,538.8,400.9,538.7,375.9z M535.2,376
			c0.1,9.3,0,18.7-0.1,28.1c-11.7-0.4-23.6-0.4-35.5-0.2c-4.7,0.1-8.3,0.2-11.5,0.3c0-0.1,0-0.2,0-0.3c0.2-9.6,0.3-13.9,0.2-21.7
			c-0.1-7.9-0.3-12.4-0.6-17.2c-0.1-2-0.2-4-0.3-6.2c4.5,0,9.3,0,14.8,0c11,0,22,0,32.8,0C535.1,364.5,535.2,370.3,535.2,376z
			 M498.4,316.5c0.2,0,21-1.5,31.2-0.4c0.9,0.1,2.2,0.3,3.1,1.2c0.8,0.7,1.2,1.6,1.2,2.6l0,0.1c0.5,11.6,0.9,23.2,1.1,34.9
			c-10.8,0-21.8,0-32.7,0c-5.5,0-10.4,0-14.9,0c-0.1-1.8-0.1-3.8-0.2-6.1c-0.2-10.6-0.1-21.3,0.2-31.7
			C492.9,316.8,495.8,316.7,498.4,316.5z M437.9,393.7c0-4.3,0-8.5,0.1-13c0-6.4,0.1-13.4,0.1-22.1c4.5,0,8.9,0,13.3,0
			c4.6,0,9.1,0,14,0.1c5.4,0,11.2,0.1,18.1,0.1c0.1,2.3,0.2,4.4,0.3,6.4c0.2,4.8,0.4,9.3,0.6,17.1c0.1,7.7,0,12.1-0.2,21.6
			c0,0.2,0,0.3,0,0.5c-0.7,0-1.4,0.1-2.1,0.1c-5.1,0.2-9.9,0.4-18.3,0.6c-8.3,0.1-13,0-23.2-0.2c-0.8,0-1.7,0-2.6,0
			C437.9,401.1,437.9,397.3,437.9,393.7z M457.9,317c9.6,0.3,20.1,0.2,25.4,0.1c-0.3,10.4-0.4,21.1-0.2,31.7c0,2.2,0.1,4.2,0.2,6
			c-6.8,0-12.5-0.1-17.9-0.1c-4.9,0-9.4-0.1-14-0.1c-4.4,0-8.8,0-13.3,0c0-2.6,0-5.3,0-8.2c0-10,0-20.1,0-30
			C449.1,316.7,457.7,317,457.9,317z M386.4,320l0-0.1c0-0.4,0.1-0.7,0.2-1.1c0.2-0.6,0.5-1.1,1-1.5c0.9-0.9,2.2-1.1,3.1-1.1
			c2.2-0.2,6.5-0.3,11.9-0.3c9,0,21,0.2,31.6,0.5c0,9.9,0,20,0,30c0,2.9,0,5.6,0,8.2c-16,0-32.5,0.1-49,0.2
			C385.2,343.3,385.7,331.7,386.4,320z M385.5,390c-0.2-7-0.4-13.1-0.5-20.9c0-3.4,0-6.8,0-10.2c16.6-0.2,33-0.3,49.1-0.3
			c0,8.7-0.1,15.7-0.1,22.1c0,4.5-0.1,8.7-0.1,13c0,3.7,0,7.4,0,11.1c-3.1-0.1-6.6-0.1-10.8-0.2c-12.2-0.2-24.7-0.3-37.2-0.4
			C385.8,398.7,385.7,394.1,385.5,390z M390.6,455L390.6,455c-0.5,0-1.9-0.1-3-1.1c-0.8-0.7-1.2-1.6-1.2-2.6c0-11.6,0-23.4-0.2-35.1
			c0-2.9-0.1-5.5-0.2-8c12.4,0.1,24.9,0.3,37,0.4c4.1,0.1,7.7,0.1,10.8,0.2c0,15.4,0.1,31.3,0.3,47.2
			C419.6,455.7,405,455.4,390.6,455z M456.4,456.1c-6.1,0-12.2,0-18.3-0.1c-0.2-16-0.3-31.8-0.3-47.2c0.9,0,1.7,0,2.5,0
			c10.3,0.2,15,0.3,23.3,0.2c8.5-0.1,13.3-0.3,18.5-0.6c0.6,0,1.2-0.1,1.9-0.1c-0.1,3.3-0.1,7.1-0.2,11.7c-0.2,11.8-0.3,23.9-0.5,36
			C474.4,456,465.3,456.1,456.4,456.1z M533.8,451.1L533.8,451.1c0,0.4-0.1,1.7-1.2,2.7c-0.8,0.7-1.8,1.1-2.9,1.1l-0.1,0
			c-14,0.4-28.2,0.7-42.3,0.9c0.1-12,0.3-24.1,0.5-35.9c0.1-4.7,0.2-8.6,0.2-11.9c3.2-0.1,6.9-0.2,11.6-0.3
			c11.9-0.2,23.8-0.1,35.4,0.2C534.9,422.4,534.4,436.8,533.8,451.1z"/>
	</g>
	<g>
		<path d="M410.5,345.6c0,1.2-0.7,1.8-2,1.8c-0.3,0-0.5-0.1-0.7-0.4c-0.2-0.2-0.3-0.6-0.3-1.1l-0.1-9.4c0-3.1,0-6,0.1-8.7
			c-0.8,0.7-1.6,1.6-2.4,2.5c-0.8,1-1.3,1.6-1.6,1.9c-0.3,0.3-0.7,0.6-1.1,0.9c-0.5,0.3-0.9,0.5-1.3,0.5c-0.4,0-0.7-0.1-0.9-0.4
			c-0.2-0.3-0.4-0.6-0.4-1c0-0.4,0.3-0.9,0.9-1.6c0.6-0.7,2.7-3,6.4-6.9c0.6-0.5,1.3-0.8,2.1-0.8c0.4,0,0.8,0.1,1,0.4
			c0.3,0.2,0.4,0.5,0.4,0.8l-0.3,9.9L410.5,345.6z"/>
	</g>
	<g>
		<path d="M462.9,347.4l-5.4-0.1c-0.2,0-0.5,0-0.7,0c-2.4,0-3.6-0.5-3.6-1.4c0-0.7,0.1-1.3,0.4-1.9c0.2-0.6,0.5-1,0.7-1.3
			c0.2-0.3,0.7-0.8,1.3-1.5c0.7-0.7,1.1-1.2,1.4-1.5c0.3-0.3,1.2-1.2,2.7-2.6c1.5-1.4,2.6-2.7,3.4-3.8c0.7-1.1,1.1-2.3,1.1-3.6
			c0-1.9-0.8-3.2-2.3-3.8c-0.4-0.1-0.9-0.2-1.4-0.2c-1.1,0-2.1,0.5-3.2,1.4c-0.4,0.4-0.9,0.6-1.3,0.6c-0.1,0-0.3,0-0.4,0
			c-0.6-0.1-0.9-0.6-0.9-1.3c0-1,0.7-1.8,2-2.4c1.4-0.7,3-1,4.7-1c1.7,0,3.1,0.6,4.2,1.9c1.1,1.2,1.6,2.8,1.6,4.6
			c0,2.6-0.8,4.9-2.4,6.8c-0.8,0.9-1.5,1.7-2.3,2.5c-2.5,2.4-4.1,4.2-5,5.4c1.1,0.1,2.5,0.1,4.1,0.1c1.6,0,3.7-0.1,6.1-0.3
			c0.4,0.1,0.7,0.2,0.9,0.5c0.2,0.3,0.4,0.5,0.4,0.9c0,0.8-0.4,1.4-1.3,1.7C466.6,347.2,465.1,347.4,462.9,347.4z"/>
	</g>
	<g>
		<path d="M510.1,324.5c-1.4,0-2.8,0.6-4.1,1.9c-0.3,0.2-0.7,0.4-0.9,0.4c-0.3,0-0.5,0-0.7-0.1c-0.6-0.2-0.8-0.6-0.8-1.2
			c0-1,0.6-1.9,1.9-2.7c1.3-0.8,2.8-1.1,4.5-1.1c1.7,0,3.2,0.5,4.4,1.4c1.2,0.9,1.8,2.1,1.8,3.6c0,1.5-0.2,2.7-0.5,3.7
			c-0.3,1-1.1,1.8-2.2,2.4c2.6,1,3.9,2.8,3.9,5.3c0,2.2-0.7,4-2,5.6c-1.3,1.6-2.9,2.3-4.8,2.3c-1.9,0-3.5-0.4-5-1.3
			c-1.4-0.9-2.1-1.9-2.1-3c0-0.2,0.1-0.5,0.4-0.8c0.2-0.3,0.6-0.4,1.1-0.4c0.5,0,1,0.2,1.5,0.6c0.5,0.4,1.2,0.9,1.8,1.3
			c0.7,0.4,1.5,0.6,2.3,0.6c2.5,0,3.7-1.5,3.7-4.6c0-1.2-0.4-2.1-1.3-2.9c-0.8-0.7-2-1.1-3.6-1.1c-0.3,0-0.6,0-0.7-0.1
			c-0.2,0-0.4-0.1-0.6-0.3c-0.3-0.2-0.4-0.5-0.4-0.9c0-0.9,0.5-1.4,1.5-1.4c1-0.1,1.9-0.5,2.6-1.3c0.8-0.8,1.2-1.8,1.2-3.1
			c0-0.7-0.3-1.3-0.9-1.9C511.6,324.7,510.9,324.5,510.1,324.5z"/>
	</g>
	<g>
		<path d="M409.6,385.4c-0.9,0.1-2.1,0.2-3.8,0.2c-1.6,0-2.7-0.3-3.3-0.8c-0.6-0.5-0.9-1.7-0.9-3.5c0-1.8,0.1-3.8,0.4-6
			c0.3-2.2,0.6-3.8,0.9-4.8c0.3-1,1-1.5,2-1.5c0.7,0,1,0.3,1.1,0.8c0,0.1,0,0.4,0,0.7c0,0.3-0.1,0.8-0.2,1.4
			c-0.6,4.3-0.9,7.4-0.9,9.2c0,0.4,0,0.8,0,1.1c0.4,0.1,1,0.1,1.8,0.1c0.7,0,1.7-0.1,2.9-0.2c0-0.5,0.1-1.2,0.1-2.1
			c0-0.9,0-1.6,0-2.2c0-0.6,0.1-1,0.3-1.3c0.1-0.2,0.6-0.4,1.3-0.4c0.7,0,1.1,0.1,1.3,0.4c0.2,0.2,0.3,0.6,0.3,1
			c0,0.4,0,1.3-0.1,2.7c-0.1,1.4-0.1,5.2-0.1,11.5c0,1.1-0.5,1.7-1.6,1.7c0,0-0.1,0-0.1,0c-0.9,0-1.4-0.7-1.4-2.2v-2L409.6,385.4z"
			/>
	</g>
	<g>
		<path class="st0" d="M458.1,377.6c1-0.4,2-0.6,2.9-0.6c0.9,0,1.8,0.1,2.7,0.4c0.9,0.3,1.7,0.7,2.4,1.4c0.7,0.6,1.3,1.5,1.8,2.5
			c0.4,1.1,0.7,2.3,0.7,3.7c0,2.4-0.7,4.3-2.1,6c-1.4,1.6-3,2.4-4.8,2.4s-3.4-0.4-4.8-1.2c-1.4-0.8-2-1.7-2-2.7
			c0-0.5,0.1-0.8,0.2-1.1c0.1-0.2,0.3-0.4,0.6-0.6c0.3-0.1,0.6-0.2,0.8-0.2c0.2,0,0.6,0.1,1,0.4c0.4,0.3,1,0.7,1.7,1.2
			c0.7,0.5,1.6,0.8,2.5,0.8c1,0,1.8-0.5,2.5-1.5c0.7-1,1.1-2,1.1-3.2c0-3.3-1.5-5-4.5-5c-0.6,0-1.4,0.1-2.2,0.2
			c-0.8,0.1-1.4,0.2-1.7,0.2c-0.3,0-0.6-0.1-1.1-0.3c-0.5-0.5-0.8-2.1-0.8-4.7c0-2.6,0.1-4.3,0.2-5.1c0.1-0.8,0.3-1.2,0.6-1.3
			c0.5-0.2,2.1-0.3,4.6-0.3c2.6,0,4.6,0.2,6.2,0.7c0.5,0.3,0.7,0.7,0.7,1.3c0,0.6-0.2,1-0.5,1.3c-0.3,0.3-0.6,0.5-1,0.4
			c-2-0.4-4.1-0.7-6.2-0.7c-0.6,0-1.3,0-1.9,0.1C458,373.3,458.1,375.1,458.1,377.6z"/>
	</g>
	<g>
		<path d="M514.4,370.7c-0.4,0.5-1.2,2.1-2.5,4.7c-1.3,2.6-2,4.2-2.2,4.7c1-0.3,2.1-0.4,3.2-0.4c1.1,0,2.1,0.3,3,0.9
			c1.5,1,2.3,2.6,2.3,4.9c0,4.9-2.4,7.3-7.1,7.4c0,0-0.1,0-0.1,0c-1.7,0-3-0.6-3.8-1.8c-0.8-1.2-1.2-2.8-1.3-4.8
			c0-4.7,1.8-9.8,5.3-15.4c0.6-1,1.1-1.6,1.5-1.9c0.4-0.3,0.8-0.4,1.1-0.4c0.3,0,0.5,0.1,0.8,0.3c0.3,0.2,0.4,0.5,0.4,0.8
			C514.9,369.8,514.7,370.2,514.4,370.7z M515.4,385.7c0-1-0.3-1.8-0.8-2.3c-0.6-0.5-1.3-0.8-2.2-0.8c-0.9,0-1.6,0.1-2.1,0.2
			c-0.3,0.1-0.6,0.3-0.8,0.6c-0.2,0.2-0.4,0.6-0.5,1.1c-0.2,0.5-0.2,1.2-0.2,2c0,0.8,0.2,1.6,0.7,2.2c0.5,0.6,1.1,0.9,1.8,0.9
			c1.4,0,2.4-0.4,3.2-1.2C515,387.6,515.4,386.7,515.4,385.7z"/>
	</g>
	<g>
		<path d="M412.8,429.3l-0.3,11.6c0,0.5-0.2,0.9-0.5,1.2c-0.4,0.3-0.8,0.4-1.2,0.4c-0.7,0-1-0.9-1-2.8c0-3.8,0.1-7.3,0.3-10.5
			l-3.8,0.2c-0.3,0-0.6-0.1-0.8-0.4c-0.2-0.3-0.4-0.6-0.4-0.9c0-0.9,0.5-1.3,1.5-1.3l3.6,0l0.4-4.5c-0.8-0.3-3-0.7-6.4-1.3
			c-1.3-0.2-2.1-0.4-2.4-0.4c-0.6-0.1-1-0.6-1-1.4c0-0.3,0.1-0.6,0.4-0.8c0.2-0.3,0.6-0.4,1.1-0.4c0.5,0,2.3,0.3,5.5,0.8
			c3.2,0.5,5,1,5.4,1.3c0.1,0.1,0.2,0.6,0.2,1.4c0,0.4-0.1,1.4-0.3,3c-0.1,1.1-0.2,1.9-0.3,2.3l1.8-0.1c0.2,0,0.4,0,0.8,0
			c0.4,0,0.7,0.1,1,0.3c0.3,0.2,0.4,0.5,0.4,1c0,0.5-0.2,0.8-0.5,1.1c-0.3,0.2-1,0.4-2,0.4L412.8,429.3z"/>
	</g>
	<g>
		<path d="M460.9,419.2c1.8,0,3.3,0.4,4.5,1.3c1.2,0.9,1.8,2.1,1.8,3.6c0,2.2-1.2,4.2-3.6,5.8c1.4,1.5,2.4,2.8,3,3.9
			c0.6,1.2,1,2.6,1,4.2c0,1.6-0.6,3-1.8,4c-1.3,1.1-2.9,1.7-4.9,1.7c-2,0-3.5-0.5-4.6-1.5c-1.2-1-1.7-2.4-1.7-4.2
			c0-2.9,1.4-5.5,4.2-7.7c-1.1-0.6-2-1.4-2.7-2.6c-0.8-1.2-1.2-2.5-1.2-3.8c0-1.3,0.5-2.4,1.6-3.3
			C457.6,419.6,459.1,419.2,460.9,419.2z M457.2,437.5c0,0.1,0,0.2,0,0.3c0,1,0.4,1.7,1.2,2.2c0.8,0.5,1.8,0.8,3,0.8
			c1.1,0,1.9-0.3,2.4-0.9c0.5-0.6,0.7-1.4,0.7-2.2c0-0.9-0.3-1.8-0.9-2.7c-0.6-0.9-1.5-2-2.7-3.2c-1.3,0.9-2.2,1.8-2.8,2.8
			C457.5,435.6,457.2,436.6,457.2,437.5z M457.4,424.3c0,0.5,0.1,1,0.4,1.4c0.3,0.4,0.6,0.8,0.9,1c0.3,0.2,0.7,0.5,1.2,0.8
			c0.5,0.3,0.9,0.6,1,0.7c0.8-0.6,1.3-1,1.6-1.2c0.3-0.2,0.6-0.5,0.9-0.9c0.4-0.4,0.6-0.7,0.7-1c0.1-0.3,0.1-0.7,0.1-1.3
			c0-0.6-0.4-1.1-1-1.5c-0.7-0.4-1.4-0.6-2.1-0.6c-0.1,0-0.1,0-0.2,0C458.6,422,457.4,422.8,457.4,424.3z"/>
	</g>
	<g>
		<path d="M516.5,424.8l0,3.7c0,0.8,0,3.2,0,7l0.1,7c0,0.4-0.2,0.8-0.6,1.1c-0.4,0.3-0.7,0.4-1.1,0.4c-0.3,0-0.6-0.2-0.8-0.5
			c-0.2-0.3-0.3-0.7-0.3-1.1c-0.2-3.6-0.3-7.3-0.3-11.2c-0.6,0.8-1.9,1.3-3.9,1.3c-1.3,0-2.4-0.7-3.3-2.1c-0.9-1.4-1.3-2.9-1.3-4.5
			c0-2.1,0.7-3.7,2-4.8c1.3-1.1,3-1.7,5-1.7c2,0,3.4,0.8,4.2,2.3C516.4,422.2,516.5,423.2,516.5,424.8z M513.6,425.7l0-1.8
			c0-0.6,0-1-0.1-1.2c-0.1-0.2-0.2-0.3-0.4-0.4c-0.2-0.2-0.4-0.3-0.6-0.3c-0.2,0-0.5,0-0.9,0.1c-0.4,0.1-0.9,0.3-1.5,0.5
			c-0.6,0.3-1.1,0.7-1.6,1.3c-0.5,0.6-0.7,1.4-0.7,2.3s0.2,1.7,0.7,2.4c0.5,0.6,1,0.9,1.5,0.9c0.1,0,0.3,0,0.5-0.1
			c1.5-0.4,2.5-0.8,3-1.2V425.7z"/>
	</g>
	<g>
		<path class="st0" d="M609.2,402.9c0-3.7,0-7.4,0-11.1c0-4.3,0-8.5,0.1-13c0-6.4,0.1-13.4,0.1-22.1c-16,0-32.5,0.1-49.1,0.3
			c0,3.4,0,6.8,0,10.2c0.1,7.8,0.3,13.9,0.5,20.9c0.1,4.2,0.3,8.7,0.4,14.1c12.5,0.1,25,0.3,37.2,0.4
			C602.5,402.8,606.1,402.8,609.2,402.9z"/>
		<path class="st0" d="M609.4,344.5c0-10,0-20.1,0-30c-10.6-0.3-22.6-0.5-31.6-0.5c-5.3,0-9.6,0.1-11.9,0.3
			c-0.9,0.1-2.2,0.3-3.1,1.1c-0.5,0.4-0.8,1-1,1.5c-0.1,0.4-0.2,0.7-0.2,1.1l0,0.1c-0.7,11.7-1.2,23.3-1.3,34.8
			c16.6-0.2,33-0.3,49-0.2C609.4,350.2,609.4,347.4,609.4,344.5z"/>
		<path class="st0" d="M613.4,344.5c0,2.9,0,5.6,0,8.2c4.5,0,8.9,0,13.3,0c4.6,0,9.1,0,14,0.1c5.4,0,11.2,0.1,17.9,0.1
			c-0.1-1.8-0.1-3.8-0.2-6c-0.2-10.6-0.2-21.3,0.2-31.7c-5.3,0.1-15.8,0.2-25.4-0.1c-0.2,0-8.8-0.3-19.8-0.6
			C613.4,324.5,613.4,334.5,613.4,344.5z"/>
		<path class="st0" d="M662.4,346.9c0,2.3,0.1,4.3,0.2,6.1c4.5,0,9.4,0,14.9,0c10.9,0,21.9,0,32.7,0c-0.2-11.6-0.6-23.3-1.1-34.9
			l0-0.1c0-1-0.4-1.9-1.2-2.6c-0.9-0.8-2.2-1.1-3.1-1.2c-10.2-1-31,0.4-31.2,0.4c-2.5,0.2-5.4,0.3-11.1,0.4
			C662.2,325.6,662.2,336.2,662.4,346.9z"/>
		<path class="st0" d="M598.3,406.7c-12.1-0.2-24.6-0.3-37-0.4c0.1,2.5,0.1,5.1,0.2,8c0.2,11.7,0.3,23.6,0.2,35.1
			c0,1,0.4,1.9,1.2,2.6c1.1,1.1,2.5,1.1,2.9,1.1l0.1,0c14.4,0.4,29,0.8,43.5,0.9c-0.2-16-0.3-31.8-0.3-47.2
			C606,406.8,602.5,406.7,598.3,406.7z"/>
		<path class="st0" d="M677.4,357c-5.4,0-10.3,0-14.8,0c0.1,2.3,0.2,4.3,0.3,6.2c0.2,4.8,0.5,9.3,0.6,17.2c0.1,7.8,0,12.1-0.2,21.7
			c0,0.1,0,0.2,0,0.3c3.2-0.1,6.8-0.2,11.5-0.3c11.9-0.2,23.9-0.1,35.5,0.2c0.1-9.4,0.1-18.8,0.1-28.1c0-5.7-0.1-11.4-0.2-17.1
			C699.4,357,688.4,357,677.4,357z"/>
		<path class="st5" d="M638.9,403.2c8.4-0.1,13.2-0.3,18.3-0.6c0.7,0,1.4-0.1,2.1-0.1c0-0.2,0-0.3,0-0.5c0.2-9.5,0.3-13.9,0.2-21.6
			c-0.1-7.8-0.3-12.3-0.6-17.1c-0.1-2-0.2-4.1-0.3-6.4c-6.8,0-12.6-0.1-18.1-0.1c-4.9,0-9.4-0.1-14-0.1c-4.4,0-8.8,0-13.3,0
			c0,8.7-0.1,15.7-0.1,22.1c0,4.5-0.1,8.7-0.1,13c0,3.7,0,7.4,0,11.1c0.9,0,1.8,0,2.6,0C626,403.2,630.6,403.3,638.9,403.2z"/>
		<path class="st0" d="M674.9,406c-4.8,0.1-8.5,0.2-11.6,0.3c-0.1,3.3-0.1,7.2-0.2,11.9c-0.2,11.8-0.3,23.8-0.5,35.9
			c14.1-0.2,28.3-0.5,42.3-0.9l0.1,0c1.1,0,2.2-0.4,2.9-1.1c1.1-1,1.2-2.3,1.2-2.6l0-0.1c0.6-14.3,1-28.7,1.2-43.1
			C698.7,405.8,686.8,405.8,674.9,406z"/>
		<path class="st0" d="M659.1,418.1c0.1-4.6,0.1-8.4,0.2-11.7c-0.6,0-1.3,0.1-1.9,0.1c-5.1,0.2-10,0.5-18.5,0.6
			c-8.3,0.1-13,0-23.3-0.2c-0.8,0-1.7,0-2.5,0c0,15.4,0.1,31.2,0.3,47.2c6.1,0.1,12.2,0.1,18.3,0.1c9,0,18,0,27-0.1
			C658.8,442,658.9,429.9,659.1,418.1z"/>
		<path d="M713.9,374.1c-0.1-18.6-0.6-37.5-1.4-56.1c0-1.9-0.8-3.8-2.3-5.1c-1.8-1.7-4.3-2-5.1-2.1c-10.5-1.1-30.9,0.4-31.8,0.4
			c-2.5,0.2-5.5,0.3-11.4,0.4c-0.2,0-15.3,0.4-28.7,0c-2.3-0.1-56.8-1.8-67.6-0.8c-0.8,0.1-3.3,0.3-5.2,2.1c-0.9,0.8-1.5,1.9-1.9,3
			c-0.2,0.7-0.3,1.4-0.3,2.1c-1.1,16.5-1.5,33.1-1.4,49.2c0.1,7.9,0.3,14,0.5,21c0.2,6.9,0.5,14.7,0.7,26.1
			c0.2,11.7,0.3,23.5,0.2,35.1c0,2,0.8,3.8,2.3,5.2c2,1.9,4.3,2.1,5.3,2.1c21.8,0.7,44,1,65.8,1.1c1.2,0,2.5,0,3.7,0
			c23.1,0,46.6-0.4,69.7-1.1c2,0,3.9-0.7,5.3-2.1c2-1.9,2.2-4.2,2.3-5.1C713.6,424.4,714.1,399.1,713.9,374.1z M710.5,374.1
			c0.1,9.3,0,18.7-0.1,28.1c-11.7-0.4-23.6-0.4-35.5-0.2c-4.7,0.1-8.3,0.2-11.5,0.3c0-0.1,0-0.2,0-0.3c0.2-9.6,0.3-13.9,0.2-21.7
			c-0.1-7.9-0.3-12.4-0.6-17.2c-0.1-2-0.2-4-0.3-6.2c4.5,0,9.3,0,14.8,0c11,0,22,0,32.8,0C710.4,362.7,710.4,368.4,710.5,374.1z
			 M673.6,314.7c0.2,0,21-1.5,31.2-0.4c0.9,0.1,2.2,0.3,3.1,1.2c0.8,0.7,1.2,1.6,1.2,2.6l0,0.1c0.5,11.6,0.9,23.2,1.1,34.9
			c-10.8,0-21.8,0-32.7,0c-5.5,0-10.4,0-14.9,0c-0.1-1.8-0.1-3.8-0.2-6.1c-0.2-10.6-0.1-21.3,0.2-31.7
			C668.2,315,671.1,314.9,673.6,314.7z M613.1,391.8c0-4.3,0-8.5,0.1-13c0-6.4,0.1-13.4,0.1-22.1c4.5,0,8.9,0,13.3,0
			c4.6,0,9.1,0,14,0.1c5.4,0,11.2,0.1,18.1,0.1c0.1,2.3,0.2,4.4,0.3,6.4c0.2,4.8,0.4,9.3,0.6,17.1c0.1,7.7,0,12.1-0.2,21.6
			c0,0.2,0,0.3,0,0.5c-0.7,0-1.4,0.1-2.1,0.1c-5.1,0.2-9.9,0.4-18.3,0.6c-8.3,0.1-13,0-23.2-0.2c-0.8,0-1.7,0-2.6,0
			C613.1,399.2,613.1,395.5,613.1,391.8z M633.2,315.1c9.6,0.3,20.1,0.2,25.4,0.1c-0.3,10.4-0.4,21.1-0.2,31.7c0,2.2,0.1,4.2,0.2,6
			c-6.8,0-12.5-0.1-17.9-0.1c-4.9,0-9.4-0.1-14-0.1c-4.4,0-8.8,0-13.3,0c0-2.6,0-5.3,0-8.2c0-10,0-20.1,0-30
			C624.4,314.9,632.9,315.1,633.2,315.1z M561.7,318.2l0-0.1c0-0.4,0.1-0.7,0.2-1.1c0.2-0.6,0.5-1.1,1-1.5c0.9-0.9,2.2-1.1,3.1-1.1
			c2.2-0.2,6.5-0.3,11.9-0.3c9,0,21,0.2,31.6,0.5c0,9.9,0,20,0,30c0,2.9,0,5.6,0,8.2c-16,0-32.5,0.1-49,0.2
			C560.5,341.5,561,329.8,561.7,318.2z M560.8,388.1c-0.2-7-0.4-13.1-0.5-20.9c0-3.4,0-6.8,0-10.2c16.6-0.2,33-0.3,49.1-0.3
			c0,8.7-0.1,15.7-0.1,22.1c0,4.5-0.1,8.7-0.1,13c0,3.7,0,7.4,0,11.1c-3.1-0.1-6.6-0.1-10.8-0.2c-12.2-0.2-24.7-0.3-37.2-0.4
			C561.1,396.8,560.9,392.3,560.8,388.1z M565.9,453.2L565.9,453.2c-0.5,0-1.9-0.1-3-1.1c-0.8-0.7-1.2-1.6-1.2-2.6
			c0-11.6,0-23.4-0.2-35.1c0-2.9-0.1-5.5-0.2-8c12.4,0.1,24.9,0.3,37,0.4c4.1,0.1,7.7,0.1,10.8,0.2c0,15.4,0.1,31.3,0.3,47.2
			C594.9,453.9,580.3,453.6,565.9,453.2z M631.6,454.2c-6.1,0-12.2,0-18.3-0.1c-0.2-16-0.3-31.8-0.3-47.2c0.9,0,1.7,0,2.5,0
			c10.3,0.2,15,0.3,23.3,0.2c8.5-0.1,13.3-0.3,18.5-0.6c0.6,0,1.2-0.1,1.9-0.1c-0.1,3.3-0.1,7.1-0.2,11.7c-0.2,11.8-0.3,23.9-0.5,36
			C649.6,454.2,640.6,454.3,631.6,454.2z M709.1,449.3L709.1,449.3c0,0.4-0.1,1.7-1.2,2.7c-0.8,0.7-1.8,1.1-2.9,1.1l-0.1,0
			c-14,0.4-28.2,0.7-42.3,0.9c0.1-12,0.3-24.1,0.5-35.9c0.1-4.7,0.2-8.6,0.2-11.9c3.2-0.1,6.9-0.2,11.6-0.3
			c11.9-0.2,23.8-0.1,35.4,0.2C710.1,420.6,709.7,435,709.1,449.3z"/>
	</g>
	<g>
		<path d="M585.7,343.7c0,1.2-0.7,1.8-2,1.8c-0.3,0-0.5-0.1-0.7-0.4c-0.2-0.2-0.3-0.6-0.3-1.1l-0.1-9.4c0-3.1,0-6,0.1-8.7
			c-0.8,0.7-1.6,1.6-2.4,2.5c-0.8,1-1.3,1.6-1.6,1.9c-0.3,0.3-0.7,0.6-1.1,0.9c-0.5,0.3-0.9,0.5-1.3,0.5c-0.4,0-0.7-0.1-0.9-0.4
			c-0.2-0.3-0.4-0.6-0.4-1c0-0.4,0.3-0.9,0.9-1.6c0.6-0.7,2.7-3,6.4-6.9c0.6-0.5,1.3-0.8,2.1-0.8c0.4,0,0.8,0.1,1,0.4
			c0.3,0.2,0.4,0.5,0.4,0.8l-0.3,9.9L585.7,343.7z"/>
	</g>
	<g>
		<path d="M638.2,345.5l-5.4-0.1c-0.2,0-0.5,0-0.7,0c-2.4,0-3.6-0.5-3.6-1.4c0-0.7,0.1-1.3,0.4-1.9c0.2-0.6,0.5-1,0.7-1.3
			c0.2-0.3,0.7-0.8,1.3-1.5c0.7-0.7,1.1-1.2,1.4-1.5c0.3-0.3,1.2-1.2,2.7-2.6c1.5-1.4,2.6-2.7,3.4-3.8c0.7-1.1,1.1-2.3,1.1-3.6
			c0-1.9-0.8-3.2-2.3-3.8c-0.4-0.1-0.9-0.2-1.4-0.2c-1.1,0-2.1,0.5-3.2,1.4c-0.4,0.4-0.9,0.6-1.3,0.6c-0.1,0-0.3,0-0.4,0
			c-0.6-0.1-0.9-0.6-0.9-1.3c0-1,0.7-1.8,2-2.4c1.4-0.7,3-1,4.7-1c1.7,0,3.1,0.6,4.2,1.9c1.1,1.2,1.6,2.8,1.6,4.6
			c0,2.6-0.8,4.9-2.4,6.8c-0.8,0.9-1.5,1.7-2.3,2.5c-2.5,2.4-4.1,4.2-5,5.4c1.1,0.1,2.5,0.1,4.1,0.1c1.6,0,3.7-0.1,6.1-0.3
			c0.4,0.1,0.7,0.2,0.9,0.5c0.2,0.3,0.4,0.5,0.4,0.9c0,0.8-0.4,1.4-1.3,1.7C641.9,345.4,640.4,345.5,638.2,345.5z"/>
	</g>
	<g>
		<path d="M685.4,322.6c-1.4,0-2.8,0.6-4.1,1.9c-0.3,0.2-0.7,0.4-0.9,0.4c-0.3,0-0.5,0-0.7-0.1c-0.6-0.2-0.8-0.6-0.8-1.2
			c0-1,0.6-1.9,1.9-2.7c1.3-0.8,2.8-1.1,4.5-1.1c1.7,0,3.2,0.5,4.4,1.4c1.2,0.9,1.8,2.1,1.8,3.6c0,1.5-0.2,2.7-0.5,3.7
			c-0.3,1-1.1,1.8-2.2,2.4c2.6,1,3.9,2.8,3.9,5.3c0,2.2-0.7,4-2,5.6c-1.3,1.6-2.9,2.3-4.8,2.3c-1.9,0-3.5-0.4-5-1.3
			c-1.4-0.9-2.1-1.9-2.1-3c0-0.2,0.1-0.5,0.4-0.8c0.2-0.3,0.6-0.4,1.1-0.4c0.5,0,1,0.2,1.5,0.6c0.5,0.4,1.2,0.9,1.8,1.3
			c0.7,0.4,1.5,0.6,2.3,0.6c2.5,0,3.7-1.5,3.7-4.6c0-1.2-0.4-2.1-1.3-2.9c-0.8-0.7-2-1.1-3.6-1.1c-0.3,0-0.6,0-0.7-0.1
			c-0.2,0-0.4-0.1-0.6-0.3c-0.3-0.2-0.4-0.5-0.4-0.9c0-0.9,0.5-1.4,1.5-1.4c1-0.1,1.9-0.5,2.6-1.3c0.8-0.8,1.2-1.8,1.2-3.1
			c0-0.7-0.3-1.3-0.9-1.9C686.9,322.9,686.2,322.6,685.4,322.6z"/>
	</g>
	<g>
		<path d="M584.8,383.6c-0.9,0.1-2.1,0.2-3.8,0.2c-1.6,0-2.7-0.3-3.3-0.8c-0.6-0.5-0.9-1.7-0.9-3.5s0.1-3.8,0.4-6
			c0.3-2.2,0.6-3.8,0.9-4.8c0.3-1,1-1.5,2-1.5c0.7,0,1,0.3,1.1,0.8c0,0.1,0,0.4,0,0.7c0,0.3-0.1,0.8-0.2,1.4
			c-0.6,4.3-0.9,7.4-0.9,9.2c0,0.4,0,0.8,0,1.1c0.4,0.1,1,0.1,1.8,0.1c0.7,0,1.7-0.1,2.9-0.2c0-0.5,0.1-1.2,0.1-2.1
			c0-0.9,0-1.6,0-2.2c0-0.6,0.1-1,0.3-1.3c0.1-0.2,0.6-0.4,1.3-0.4s1.1,0.1,1.3,0.4c0.2,0.2,0.3,0.6,0.3,1c0,0.4,0,1.3-0.1,2.7
			c-0.1,1.4-0.1,5.2-0.1,11.5c0,1.1-0.5,1.7-1.6,1.7c0,0-0.1,0-0.1,0c-0.9,0-1.4-0.7-1.4-2.2v-2L584.8,383.6z"/>
	</g>
	<g>
		<path class="st0" d="M633.4,375.8c1-0.4,2-0.6,2.9-0.6c0.9,0,1.8,0.1,2.7,0.4c0.9,0.3,1.7,0.7,2.4,1.4c0.7,0.6,1.3,1.5,1.8,2.5
			c0.4,1.1,0.7,2.3,0.7,3.7c0,2.4-0.7,4.3-2.1,6c-1.4,1.6-3,2.4-4.8,2.4s-3.4-0.4-4.8-1.2c-1.4-0.8-2-1.7-2-2.7
			c0-0.5,0.1-0.8,0.2-1.1c0.1-0.2,0.3-0.4,0.6-0.6c0.3-0.1,0.6-0.2,0.8-0.2c0.2,0,0.6,0.1,1,0.4c0.4,0.3,1,0.7,1.7,1.2
			c0.7,0.5,1.6,0.8,2.5,0.8c1,0,1.8-0.5,2.5-1.5c0.7-1,1.1-2,1.1-3.2c0-3.3-1.5-5-4.5-5c-0.6,0-1.4,0.1-2.2,0.2
			c-0.8,0.1-1.4,0.2-1.7,0.2c-0.3,0-0.6-0.1-1.1-0.3c-0.5-0.5-0.8-2.1-0.8-4.7c0-2.6,0.1-4.3,0.2-5.1c0.1-0.8,0.3-1.2,0.6-1.3
			c0.5-0.2,2.1-0.3,4.6-0.3c2.6,0,4.6,0.2,6.2,0.7c0.5,0.3,0.7,0.7,0.7,1.3s-0.2,1-0.5,1.3c-0.3,0.3-0.6,0.5-1,0.4
			c-2-0.4-4.1-0.7-6.2-0.7c-0.6,0-1.3,0-1.9,0.1C633.3,371.5,633.3,373.3,633.4,375.8z"/>
	</g>
	<g>
		<path d="M689.6,368.9c-0.4,0.5-1.2,2.1-2.5,4.7c-1.3,2.6-2,4.2-2.2,4.7c1-0.3,2.1-0.4,3.2-0.4c1.1,0,2.1,0.3,3,0.9
			c1.5,1,2.3,2.6,2.3,4.9c0,4.9-2.4,7.3-7.1,7.4c0,0-0.1,0-0.1,0c-1.7,0-3-0.6-3.8-1.8c-0.8-1.2-1.2-2.8-1.3-4.8
			c0-4.7,1.8-9.8,5.3-15.4c0.6-1,1.1-1.6,1.5-1.9s0.8-0.4,1.1-0.4c0.3,0,0.5,0.1,0.8,0.3c0.3,0.2,0.4,0.5,0.4,0.8
			C690.2,368,690,368.4,689.6,368.9z M690.6,383.9c0-1-0.3-1.8-0.8-2.3c-0.6-0.5-1.3-0.8-2.2-0.8c-0.9,0-1.6,0.1-2.1,0.2
			c-0.3,0.1-0.6,0.3-0.8,0.6c-0.2,0.2-0.4,0.6-0.5,1.1c-0.2,0.5-0.2,1.2-0.2,2c0,0.8,0.2,1.6,0.7,2.2c0.5,0.6,1.1,0.9,1.8,0.9
			c1.4,0,2.4-0.4,3.2-1.2C690.3,385.8,690.6,384.9,690.6,383.9z"/>
	</g>
	<g>
		<path d="M588.1,427.5l-0.3,11.6c0,0.5-0.2,0.9-0.5,1.2c-0.4,0.3-0.8,0.4-1.2,0.4c-0.7,0-1-0.9-1-2.8c0-3.8,0.1-7.3,0.3-10.5
			l-3.8,0.2c-0.3,0-0.6-0.1-0.8-0.4c-0.2-0.3-0.4-0.6-0.4-0.9c0-0.9,0.5-1.3,1.5-1.3l3.6,0l0.4-4.5c-0.8-0.3-3-0.7-6.4-1.3
			c-1.3-0.2-2.1-0.4-2.4-0.4c-0.6-0.1-1-0.6-1-1.4c0-0.3,0.1-0.6,0.4-0.8c0.2-0.3,0.6-0.4,1.1-0.4c0.5,0,2.3,0.3,5.5,0.8
			c3.2,0.5,5,1,5.4,1.3c0.1,0.1,0.2,0.6,0.2,1.4c0,0.4-0.1,1.4-0.3,3c-0.1,1.1-0.2,1.9-0.3,2.3l1.8-0.1c0.2,0,0.4,0,0.8,0
			c0.4,0,0.7,0.1,1,0.3c0.3,0.2,0.4,0.5,0.4,1c0,0.5-0.2,0.8-0.5,1.1c-0.3,0.2-1,0.4-2,0.4L588.1,427.5z"/>
	</g>
	<g>
		<path d="M636.2,417.4c1.8,0,3.3,0.4,4.5,1.3c1.2,0.9,1.8,2.1,1.8,3.6c0,2.2-1.2,4.2-3.6,5.8c1.4,1.5,2.4,2.8,3,3.9
			c0.6,1.2,1,2.6,1,4.2c0,1.6-0.6,3-1.8,4c-1.3,1.1-2.9,1.7-4.9,1.7c-2,0-3.5-0.5-4.6-1.5c-1.2-1-1.7-2.4-1.7-4.2
			c0-2.9,1.4-5.5,4.2-7.7c-1.1-0.6-2-1.4-2.7-2.6c-0.8-1.2-1.2-2.5-1.2-3.8c0-1.3,0.5-2.4,1.6-3.3
			C632.9,417.8,634.4,417.4,636.2,417.4z M632.5,435.7c0,0.1,0,0.2,0,0.3c0,1,0.4,1.7,1.2,2.2c0.8,0.5,1.8,0.8,3,0.8
			c1.1,0,1.9-0.3,2.4-0.9c0.5-0.6,0.7-1.4,0.7-2.2c0-0.9-0.3-1.8-0.9-2.7c-0.6-0.9-1.5-2-2.7-3.2c-1.3,0.9-2.2,1.8-2.8,2.8
			C632.8,433.8,632.5,434.8,632.5,435.7z M632.7,422.5c0,0.5,0.1,1,0.4,1.4c0.3,0.4,0.6,0.8,0.9,1c0.3,0.2,0.7,0.5,1.2,0.8
			c0.5,0.3,0.9,0.6,1,0.7c0.8-0.6,1.3-1,1.6-1.2c0.3-0.2,0.6-0.5,0.9-0.9c0.4-0.4,0.6-0.7,0.7-1c0.1-0.3,0.1-0.7,0.1-1.3
			c0-0.6-0.4-1.1-1-1.5c-0.7-0.4-1.4-0.6-2.1-0.6c-0.1,0-0.1,0-0.2,0C633.9,420.1,632.7,421,632.7,422.5z"/>
	</g>
	<g>
		<path d="M691.8,423l0,3.7c0,0.8,0,3.2,0,7l0.1,7c0,0.4-0.2,0.8-0.6,1.1c-0.4,0.3-0.7,0.4-1.1,0.4c-0.3,0-0.6-0.2-0.8-0.5
			c-0.2-0.3-0.3-0.7-0.3-1.1c-0.2-3.6-0.3-7.3-0.3-11.2c-0.6,0.8-1.9,1.3-3.9,1.3c-1.3,0-2.4-0.7-3.3-2.1c-0.9-1.4-1.3-2.9-1.3-4.5
			c0-2.1,0.7-3.7,2-4.8c1.3-1.1,3-1.7,5-1.7c2,0,3.4,0.8,4.2,2.3C691.7,420.4,691.8,421.4,691.8,423z M688.9,423.8l0-1.8
			c0-0.6,0-1-0.1-1.2c-0.1-0.2-0.2-0.3-0.4-0.4c-0.2-0.2-0.4-0.3-0.6-0.3c-0.2,0-0.5,0-0.9,0.1c-0.4,0.1-0.9,0.3-1.5,0.5
			c-0.6,0.3-1.1,0.7-1.6,1.3c-0.5,0.6-0.7,1.4-0.7,2.3c0,1,0.2,1.7,0.7,2.4c0.5,0.6,1,0.9,1.5,0.9c0.1,0,0.3,0,0.5-0.1
			c1.5-0.4,2.5-0.8,3-1.2V423.8z"/>
	</g>
	<g>
		<path class="st0" d="M259.2,560.9c0-3.7,0-7.4,0-11.1c0-4.3,0-8.5,0.1-13c0-6.4,0.1-13.4,0.1-22.1c-16,0-32.5,0.1-49.1,0.3
			c0,3.4,0,6.8,0,10.2c0.1,7.8,0.3,13.9,0.5,20.9c0.1,4.2,0.3,8.7,0.4,14.1c12.5,0.1,25,0.3,37.2,0.4
			C252.6,560.8,256.1,560.8,259.2,560.9z"/>
		<path class="st0" d="M259.5,502.5c0-10,0-20.1,0-30c-10.6-0.3-22.6-0.5-31.6-0.5c-5.3,0-9.6,0.1-11.9,0.3
			c-0.9,0.1-2.2,0.3-3.1,1.1c-0.5,0.4-0.8,1-1,1.5c-0.1,0.4-0.2,0.7-0.2,1.1l0,0.1c-0.7,11.7-1.2,23.3-1.3,34.8
			c16.6-0.2,33-0.3,49-0.2C259.5,508.2,259.5,505.4,259.5,502.5z"/>
		<path class="st0" d="M263.5,502.5c0,2.9,0,5.6,0,8.2c4.5,0,8.9,0,13.3,0c4.6,0,9.1,0,14,0.1c5.4,0,11.2,0.1,17.9,0.1
			c-0.1-1.8-0.1-3.8-0.2-6c-0.2-10.6-0.2-21.3,0.2-31.7c-5.3,0.1-15.8,0.2-25.4-0.1c-0.2,0-8.8-0.3-19.8-0.6
			C263.5,482.5,263.5,492.5,263.5,502.5z"/>
		<path class="st0" d="M312.5,504.9c0,2.3,0.1,4.3,0.2,6.1c4.5,0,9.4,0,14.9,0c10.9,0,21.9,0,32.7,0c-0.2-11.6-0.6-23.3-1.1-34.9
			l0-0.1c0-1-0.4-1.9-1.2-2.6c-0.9-0.8-2.2-1.1-3.1-1.2c-10.2-1-31,0.4-31.2,0.4c-2.5,0.2-5.4,0.3-11.1,0.4
			C312.3,483.6,312.3,494.2,312.5,504.9z"/>
		<path class="st0" d="M248.4,564.7c-12.1-0.2-24.6-0.3-37-0.4c0.1,2.5,0.1,5.1,0.2,8c0.2,11.7,0.3,23.6,0.2,35.1
			c0,1,0.4,1.9,1.2,2.6c1.1,1.1,2.5,1.1,2.9,1.1l0.1,0c14.4,0.4,29,0.8,43.5,0.9c-0.2-16-0.3-31.8-0.3-47.2
			C256.1,564.8,252.6,564.7,248.4,564.7z"/>
		<path class="st0" d="M327.5,515c-5.4,0-10.3,0-14.8,0c0.1,2.3,0.2,4.3,0.3,6.2c0.2,4.8,0.5,9.3,0.6,17.2c0.1,7.8,0,12.1-0.2,21.7
			c0,0.1,0,0.2,0,0.3c3.2-0.1,6.8-0.2,11.5-0.3c11.9-0.2,23.9-0.1,35.5,0.2c0.1-9.4,0.1-18.8,0.1-28.1c0-5.7-0.1-11.4-0.2-17.1
			C349.5,515,338.5,515,327.5,515z"/>
		<path class="st6" d="M289,561.2c8.4-0.1,13.2-0.3,18.3-0.6c0.7,0,1.4-0.1,2.1-0.1c0-0.2,0-0.3,0-0.5c0.2-9.5,0.3-13.9,0.2-21.6
			c-0.1-7.8-0.3-12.3-0.6-17.1c-0.1-2-0.2-4.1-0.3-6.4c-6.8,0-12.6-0.1-18.1-0.1c-4.9,0-9.4-0.1-14-0.1c-4.4,0-8.8,0-13.3,0
			c0,8.7-0.1,15.7-0.1,22.1c0,4.5-0.1,8.7-0.1,13c0,3.7,0,7.4,0,11.1c0.9,0,1.8,0,2.6,0C276.1,561.2,280.7,561.3,289,561.2z"/>
		<path class="st0" d="M325,564c-4.8,0.1-8.5,0.2-11.6,0.3c-0.1,3.3-0.1,7.2-0.2,11.9c-0.2,11.8-0.3,23.8-0.5,35.9
			c14.1-0.2,28.3-0.5,42.3-0.9l0.1,0c1.1,0,2.2-0.4,2.9-1.1c1.1-1,1.2-2.3,1.2-2.6l0-0.1c0.6-14.3,1-28.7,1.2-43.1
			C348.8,563.8,336.9,563.8,325,564z"/>
		<path class="st0" d="M309.2,576.1c0.1-4.6,0.1-8.4,0.2-11.7c-0.6,0-1.3,0.1-1.9,0.1c-5.1,0.2-10,0.5-18.5,0.6
			c-8.3,0.1-13,0-23.3-0.2c-0.8,0-1.7,0-2.5,0c0,15.4,0.1,31.2,0.3,47.2c6.1,0.1,12.2,0.1,18.3,0.1c9,0,18,0,27-0.1
			C308.9,600,309,587.9,309.2,576.1z"/>
		<path d="M364,532.1c-0.1-18.6-0.6-37.5-1.4-56.1c0-1.9-0.8-3.8-2.3-5.1c-1.8-1.7-4.3-2-5.1-2.1c-10.5-1.1-30.9,0.4-31.8,0.4
			c-2.5,0.2-5.5,0.3-11.4,0.4c-0.2,0-15.3,0.4-28.7,0c-2.3-0.1-56.8-1.8-67.6-0.8c-0.8,0.1-3.3,0.3-5.2,2.1c-0.9,0.8-1.5,1.9-1.9,3
			c-0.2,0.7-0.3,1.4-0.3,2.1c-1.1,16.5-1.5,33.1-1.4,49.2c0.1,7.9,0.3,14,0.5,21c0.2,6.9,0.5,14.7,0.7,26.1
			c0.2,11.7,0.3,23.5,0.2,35.1c0,2,0.8,3.8,2.3,5.2c2,1.9,4.3,2.1,5.3,2.1c21.8,0.7,44,1,65.8,1.1c1.2,0,2.5,0,3.7,0
			c23.1,0,46.6-0.4,69.7-1.1c2,0,3.9-0.7,5.3-2.1c2-1.9,2.2-4.2,2.3-5.1C363.7,582.4,364.2,557.1,364,532.1z M360.6,532.1
			c0.1,9.3,0,18.7-0.1,28.1c-11.7-0.4-23.6-0.4-35.5-0.2c-4.7,0.1-8.3,0.2-11.5,0.3c0-0.1,0-0.2,0-0.3c0.2-9.6,0.3-13.9,0.2-21.7
			c-0.1-7.9-0.3-12.4-0.6-17.2c-0.1-2-0.2-4-0.3-6.2c4.5,0,9.3,0,14.8,0c11,0,22,0,32.8,0C360.5,520.7,360.5,526.4,360.6,532.1z
			 M323.7,472.7c0.2,0,21-1.5,31.2-0.4c0.9,0.1,2.2,0.3,3.1,1.2c0.8,0.7,1.2,1.6,1.2,2.6l0,0.1c0.5,11.6,0.9,23.2,1.1,34.9
			c-10.8,0-21.8,0-32.7,0c-5.5,0-10.4,0-14.9,0c-0.1-1.8-0.1-3.8-0.2-6.1c-0.2-10.6-0.1-21.3,0.2-31.7
			C318.3,473,321.2,472.9,323.7,472.7z M263.2,549.8c0-4.3,0-8.5,0.1-13c0-6.4,0.1-13.4,0.1-22.1c4.5,0,8.9,0,13.3,0
			c4.6,0,9.1,0,14,0.1c5.4,0,11.2,0.1,18.1,0.1c0.1,2.3,0.2,4.4,0.3,6.4c0.2,4.8,0.4,9.3,0.6,17.1c0.1,7.7,0,12.1-0.2,21.6
			c0,0.2,0,0.3,0,0.5c-0.7,0-1.4,0.1-2.1,0.1c-5.1,0.2-9.9,0.4-18.3,0.6c-8.3,0.1-13,0-23.2-0.2c-0.8,0-1.7,0-2.6,0
			C263.2,557.2,263.2,553.5,263.2,549.8z M283.3,473.1c9.6,0.3,20.1,0.2,25.4,0.1c-0.3,10.4-0.4,21.1-0.2,31.7c0,2.2,0.1,4.2,0.2,6
			c-6.8,0-12.5-0.1-17.9-0.1c-4.9,0-9.4-0.1-14-0.1c-4.4,0-8.8,0-13.3,0c0-2.6,0-5.3,0-8.2c0-10,0-20.1,0-30
			C274.5,472.9,283,473.1,283.3,473.1z M211.8,476.2l0-0.1c0-0.4,0.1-0.7,0.2-1.1c0.2-0.6,0.5-1.1,1-1.5c0.9-0.9,2.2-1.1,3.1-1.1
			c2.2-0.2,6.5-0.3,11.9-0.3c9,0,21,0.2,31.6,0.5c0,9.9,0,20,0,30c0,2.9,0,5.6,0,8.2c-16,0-32.5,0.1-49,0.2
			C210.6,499.5,211,487.8,211.8,476.2z M210.9,546.1c-0.2-7-0.4-13.1-0.5-20.9c0-3.4,0-6.8,0-10.2c16.6-0.2,33-0.3,49.1-0.3
			c0,8.7-0.1,15.7-0.1,22.1c0,4.5-0.1,8.7-0.1,13c0,3.7,0,7.4,0,11.1c-3.1-0.1-6.6-0.1-10.8-0.2c-12.2-0.2-24.7-0.3-37.2-0.4
			C211.2,554.8,211,550.3,210.9,546.1z M216,611.2L216,611.2c-0.5,0-1.9-0.1-3-1.1c-0.8-0.7-1.2-1.6-1.2-2.6c0-11.6,0-23.4-0.2-35.1
			c0-2.9-0.1-5.5-0.2-8c12.4,0.1,24.9,0.3,37,0.4c4.1,0.1,7.7,0.1,10.8,0.2c0,15.4,0.1,31.3,0.3,47.2
			C245,611.9,230.4,611.6,216,611.2z M281.7,612.2c-6.1,0-12.2,0-18.3-0.1c-0.2-16-0.3-31.8-0.3-47.2c0.9,0,1.7,0,2.5,0
			c10.3,0.2,15,0.3,23.3,0.2c8.5-0.1,13.3-0.3,18.5-0.6c0.6,0,1.2-0.1,1.9-0.1c-0.1,3.3-0.1,7.1-0.2,11.7c-0.2,11.8-0.3,23.9-0.5,36
			C299.7,612.2,290.7,612.3,281.7,612.2z M359.2,607.3L359.2,607.3c0,0.4-0.1,1.7-1.2,2.7c-0.8,0.7-1.8,1.1-2.9,1.1l-0.1,0
			c-14,0.4-28.2,0.7-42.3,0.9c0.1-12,0.3-24.1,0.5-35.9c0.1-4.7,0.2-8.6,0.2-11.9c3.2-0.1,6.9-0.2,11.6-0.3
			c11.9-0.2,23.8-0.1,35.4,0.2C360.2,578.6,359.8,593,359.2,607.3z"/>
	</g>
	<g>
		<path d="M235.8,501.7c0,1.2-0.7,1.8-2,1.8c-0.3,0-0.5-0.1-0.7-0.4c-0.2-0.2-0.3-0.6-0.3-1.1l-0.1-9.4c0-3.1,0-6,0.1-8.7
			c-0.8,0.7-1.6,1.6-2.4,2.5c-0.8,1-1.3,1.6-1.6,1.9c-0.3,0.3-0.7,0.6-1.1,0.9c-0.5,0.3-0.9,0.5-1.3,0.5c-0.4,0-0.7-0.1-0.9-0.4
			c-0.2-0.3-0.4-0.6-0.4-1c0-0.4,0.3-0.9,0.9-1.6c0.6-0.7,2.7-3,6.4-6.9c0.6-0.5,1.3-0.8,2.1-0.8c0.4,0,0.8,0.1,1,0.4
			c0.3,0.2,0.4,0.5,0.4,0.8l-0.3,9.9L235.8,501.7z"/>
	</g>
	<g>
		<path d="M288.2,503.5l-5.4-0.1c-0.2,0-0.5,0-0.7,0c-2.4,0-3.6-0.5-3.6-1.4c0-0.7,0.1-1.3,0.4-1.9c0.2-0.6,0.5-1,0.7-1.3
			c0.2-0.3,0.7-0.8,1.3-1.5c0.7-0.7,1.1-1.2,1.4-1.5c0.3-0.3,1.2-1.2,2.7-2.6c1.5-1.4,2.6-2.7,3.4-3.8c0.7-1.1,1.1-2.3,1.1-3.6
			c0-1.9-0.8-3.2-2.3-3.8c-0.4-0.1-0.9-0.2-1.4-0.2c-1.1,0-2.1,0.5-3.2,1.4c-0.4,0.4-0.9,0.6-1.3,0.6c-0.1,0-0.3,0-0.4,0
			c-0.6-0.1-0.9-0.6-0.9-1.3c0-1,0.7-1.8,2-2.4c1.4-0.7,3-1,4.7-1c1.7,0,3.1,0.6,4.2,1.9c1.1,1.2,1.6,2.8,1.6,4.6
			c0,2.6-0.8,4.9-2.4,6.8c-0.8,0.9-1.5,1.7-2.3,2.5c-2.5,2.4-4.1,4.2-5,5.4c1.1,0.1,2.5,0.1,4.1,0.1c1.6,0,3.7-0.1,6.1-0.3
			c0.4,0.1,0.7,0.2,0.9,0.5c0.2,0.3,0.4,0.5,0.4,0.9c0,0.8-0.4,1.4-1.3,1.7C292,503.4,290.5,503.5,288.2,503.5z"/>
	</g>
	<g>
		<path d="M335.5,480.6c-1.4,0-2.8,0.6-4.1,1.9c-0.3,0.2-0.7,0.4-0.9,0.4c-0.3,0-0.5,0-0.7-0.1c-0.6-0.2-0.8-0.6-0.8-1.2
			c0-1,0.6-1.9,1.9-2.7c1.3-0.8,2.8-1.1,4.5-1.1c1.7,0,3.2,0.5,4.4,1.4c1.2,0.9,1.8,2.1,1.8,3.6c0,1.5-0.2,2.7-0.5,3.7
			c-0.3,1-1.1,1.8-2.2,2.4c2.6,1,3.9,2.8,3.9,5.3c0,2.2-0.7,4-2,5.6c-1.3,1.6-2.9,2.3-4.8,2.3c-1.9,0-3.5-0.4-5-1.3
			c-1.4-0.9-2.1-1.9-2.1-3c0-0.2,0.1-0.5,0.4-0.8c0.2-0.3,0.6-0.4,1.1-0.4c0.5,0,1,0.2,1.5,0.6c0.5,0.4,1.2,0.9,1.8,1.3
			c0.7,0.4,1.5,0.6,2.3,0.6c2.5,0,3.7-1.5,3.7-4.6c0-1.2-0.4-2.1-1.3-2.9c-0.8-0.7-2-1.1-3.6-1.1c-0.3,0-0.6,0-0.7-0.1
			c-0.2,0-0.4-0.1-0.6-0.3c-0.3-0.2-0.4-0.5-0.4-0.9c0-0.9,0.5-1.4,1.5-1.4c1-0.1,1.9-0.5,2.6-1.3c0.8-0.8,1.2-1.8,1.2-3.1
			c0-0.7-0.3-1.3-0.9-1.9C337,480.9,336.3,480.6,335.5,480.6z"/>
	</g>
	<g>
		<path d="M234.9,541.6c-0.9,0.1-2.1,0.2-3.8,0.2c-1.6,0-2.7-0.3-3.3-0.8c-0.6-0.5-0.9-1.7-0.9-3.5c0-1.8,0.1-3.8,0.4-6
			c0.3-2.2,0.6-3.8,0.9-4.8c0.3-1,1-1.5,2-1.5c0.7,0,1,0.3,1.1,0.8c0,0.1,0,0.4,0,0.7c0,0.3-0.1,0.8-0.2,1.4
			c-0.6,4.3-0.9,7.4-0.9,9.2c0,0.4,0,0.8,0,1.1c0.4,0.1,1,0.1,1.8,0.1c0.7,0,1.7-0.1,2.9-0.2c0-0.5,0.1-1.2,0.1-2.1
			c0-0.9,0-1.6,0-2.2c0-0.6,0.1-1,0.3-1.3c0.1-0.2,0.6-0.4,1.3-0.4c0.7,0,1.1,0.1,1.3,0.4c0.2,0.2,0.3,0.6,0.3,1
			c0,0.4,0,1.3-0.1,2.7c-0.1,1.4-0.1,5.2-0.1,11.5c0,1.1-0.5,1.7-1.6,1.7c0,0-0.1,0-0.1,0c-0.9,0-1.4-0.7-1.4-2.2v-2L234.9,541.6z"
			/>
	</g>
	<g>
		<path class="st0" d="M283.5,533.8c1-0.4,2-0.6,2.9-0.6c0.9,0,1.8,0.1,2.7,0.4c0.9,0.3,1.7,0.7,2.4,1.4c0.7,0.6,1.3,1.5,1.8,2.5
			c0.4,1.1,0.7,2.3,0.7,3.7c0,2.4-0.7,4.3-2.1,6c-1.4,1.6-3,2.4-4.8,2.4s-3.4-0.4-4.8-1.2c-1.4-0.8-2-1.7-2-2.7
			c0-0.5,0.1-0.8,0.2-1.1c0.1-0.2,0.3-0.4,0.6-0.6c0.3-0.1,0.6-0.2,0.8-0.2c0.2,0,0.6,0.1,1,0.4c0.4,0.3,1,0.7,1.7,1.2
			c0.7,0.5,1.6,0.8,2.5,0.8c1,0,1.8-0.5,2.5-1.5c0.7-1,1.1-2,1.1-3.2c0-3.3-1.5-5-4.5-5c-0.6,0-1.4,0.1-2.2,0.2
			c-0.8,0.1-1.4,0.2-1.7,0.2c-0.3,0-0.6-0.1-1.1-0.3c-0.5-0.5-0.8-2.1-0.8-4.7c0-2.6,0.1-4.3,0.2-5.1c0.1-0.8,0.3-1.2,0.6-1.3
			c0.5-0.2,2.1-0.3,4.6-0.3c2.6,0,4.6,0.2,6.2,0.7c0.5,0.3,0.7,0.7,0.7,1.3s-0.2,1-0.5,1.3c-0.3,0.3-0.6,0.5-1,0.4
			c-2-0.4-4.1-0.7-6.2-0.7c-0.6,0-1.3,0-1.9,0.1C283.4,529.5,283.4,531.2,283.5,533.8z"/>
	</g>
	<g>
		<path d="M339.7,526.9c-0.4,0.5-1.2,2.1-2.5,4.7c-1.3,2.6-2,4.2-2.2,4.7c1-0.3,2.1-0.4,3.2-0.4c1.1,0,2.1,0.3,3,0.9
			c1.5,1,2.3,2.6,2.3,4.9c0,4.9-2.4,7.3-7.1,7.4c0,0-0.1,0-0.1,0c-1.7,0-3-0.6-3.8-1.8c-0.8-1.2-1.2-2.8-1.3-4.8
			c0-4.7,1.8-9.8,5.3-15.4c0.6-1,1.1-1.6,1.5-1.9c0.4-0.3,0.8-0.4,1.1-0.4c0.3,0,0.5,0.1,0.8,0.3c0.3,0.2,0.4,0.5,0.4,0.8
			C340.3,526,340.1,526.4,339.7,526.9z M340.7,541.9c0-1-0.3-1.8-0.8-2.3c-0.6-0.5-1.3-0.8-2.2-0.8c-0.9,0-1.6,0.1-2.1,0.2
			c-0.3,0.1-0.6,0.3-0.8,0.6c-0.2,0.2-0.4,0.6-0.5,1.1c-0.2,0.5-0.2,1.2-0.2,2c0,0.8,0.2,1.6,0.7,2.2c0.5,0.6,1.1,0.9,1.8,0.9
			c1.4,0,2.4-0.4,3.2-1.2C340.4,543.8,340.7,542.9,340.7,541.9z"/>
	</g>
	<g>
		<path d="M238.1,585.5l-0.3,11.6c0,0.5-0.2,0.9-0.5,1.2c-0.4,0.3-0.8,0.4-1.2,0.4c-0.7,0-1-0.9-1-2.8c0-3.8,0.1-7.3,0.3-10.5
			l-3.8,0.2c-0.3,0-0.6-0.1-0.8-0.4c-0.2-0.3-0.4-0.6-0.4-0.9c0-0.9,0.5-1.3,1.5-1.3l3.6,0l0.4-4.5c-0.8-0.3-3-0.7-6.4-1.3
			c-1.3-0.2-2.1-0.4-2.4-0.4c-0.6-0.1-1-0.6-1-1.4c0-0.3,0.1-0.6,0.4-0.8c0.2-0.3,0.6-0.4,1.1-0.4c0.5,0,2.3,0.3,5.5,0.8
			c3.2,0.5,5,1,5.4,1.3c0.1,0.1,0.2,0.6,0.2,1.4c0,0.4-0.1,1.4-0.3,3c-0.1,1.1-0.2,1.9-0.3,2.3l1.8-0.1c0.2,0,0.4,0,0.8,0
			c0.4,0,0.7,0.1,1,0.3c0.3,0.2,0.4,0.5,0.4,1c0,0.5-0.2,0.8-0.5,1.1c-0.3,0.2-1,0.4-2,0.4L238.1,585.5z"/>
	</g>
	<g>
		<path d="M286.2,575.4c1.8,0,3.3,0.4,4.5,1.3c1.2,0.9,1.8,2.1,1.8,3.6c0,2.2-1.2,4.2-3.6,5.8c1.4,1.5,2.4,2.8,3,3.9
			c0.6,1.2,1,2.6,1,4.2c0,1.6-0.6,3-1.8,4c-1.3,1.1-2.9,1.7-4.9,1.7c-2,0-3.5-0.5-4.6-1.5c-1.2-1-1.7-2.4-1.7-4.2
			c0-2.9,1.4-5.5,4.2-7.7c-1.1-0.6-2-1.4-2.7-2.6c-0.8-1.2-1.2-2.5-1.2-3.8c0-1.3,0.5-2.4,1.6-3.3
			C283,575.8,284.5,575.4,286.2,575.4z M282.6,593.7c0,0.1,0,0.2,0,0.3c0,1,0.4,1.7,1.2,2.2c0.8,0.5,1.8,0.8,3,0.8
			c1.1,0,1.9-0.3,2.4-0.9c0.5-0.6,0.7-1.4,0.7-2.2c0-0.9-0.3-1.8-0.9-2.7c-0.6-0.9-1.5-2-2.7-3.2c-1.3,0.9-2.2,1.8-2.8,2.8
			C282.9,591.8,282.6,592.7,282.6,593.7z M282.8,580.5c0,0.5,0.1,1,0.4,1.4c0.3,0.4,0.6,0.8,0.9,1c0.3,0.2,0.7,0.5,1.2,0.8
			c0.5,0.3,0.9,0.6,1,0.7c0.8-0.6,1.3-1,1.6-1.2c0.3-0.2,0.6-0.5,0.9-0.9c0.4-0.4,0.6-0.7,0.7-1c0.1-0.3,0.1-0.7,0.1-1.3
			c0-0.6-0.4-1.1-1-1.5c-0.7-0.4-1.4-0.6-2.1-0.6c-0.1,0-0.1,0-0.2,0C284,578.1,282.8,579,282.8,580.5z"/>
	</g>
	<g>
		<path d="M341.9,580.9l0,3.7c0,0.8,0,3.2,0,7l0.1,7c0,0.4-0.2,0.8-0.6,1.1c-0.4,0.3-0.7,0.4-1.1,0.4c-0.3,0-0.6-0.2-0.8-0.5
			c-0.2-0.3-0.3-0.7-0.3-1.1c-0.2-3.6-0.3-7.3-0.3-11.2c-0.6,0.8-1.9,1.3-3.9,1.3c-1.3,0-2.4-0.7-3.3-2.1c-0.9-1.4-1.3-2.9-1.3-4.5
			c0-2.1,0.7-3.7,2-4.8c1.3-1.1,3-1.7,5-1.7c2,0,3.4,0.8,4.2,2.3C341.8,578.3,341.9,579.4,341.9,580.9z M338.9,581.8l0-1.8
			c0-0.6,0-1-0.1-1.2c-0.1-0.2-0.2-0.3-0.4-0.4c-0.2-0.2-0.4-0.3-0.6-0.3c-0.2,0-0.5,0-0.9,0.1c-0.4,0.1-0.9,0.3-1.5,0.5
			c-0.6,0.3-1.1,0.7-1.6,1.3c-0.5,0.6-0.7,1.4-0.7,2.3c0,1,0.2,1.7,0.7,2.4c0.5,0.6,1,0.9,1.5,0.9c0.1,0,0.3,0,0.5-0.1
			c1.5-0.4,2.5-0.8,3-1.2V581.8z"/>
	</g>
	<g>
		<path d="M241.1,18.1l30-0.4c1.4,0.4,2.1,1.2,2.1,2.1c0,2.5-1,3.7-3,3.7c-3.7,0-7.6,0.1-11.8,0.3c-0.2,4.2-0.4,7.4-0.4,9.6
			s0,3.5,0,4.1l0.3,26c0,1.5-0.4,2.4-1.2,2.7c-0.6,0.2-1.3,0.3-2.2,0.3c-1.4,0-2.2-0.8-2.4-2.4c-0.3-3.8-0.4-10.9-0.4-21.3
			c0-10.4,0.1-16.6,0.4-18.8c-1,0-2.6,0.1-4.6,0.1c-2,0-4.5,0-7.5-0.1c-0.8,0-1.4-0.2-1.8-0.7c-0.4-0.5-0.7-1.1-0.7-1.8
			c0-0.7,0.3-1.4,0.9-2.1C239.5,18.5,240.2,18.2,241.1,18.1z"/>
		<path d="M290,32.3c3.7,0,6.6,1.4,8.8,4.2c2.2,2.8,3.4,6.7,3.4,11.5c0,4.9-1.2,9.1-3.7,12.7c-2.5,3.6-5.6,5.3-9.4,5.3
			c-4.1,0-7.5-1.8-10.1-5.3c-2.6-3.6-3.9-7.9-3.9-13c0-5.1,1.4-9,4.1-11.5C281.8,33.5,285.5,32.3,290,32.3z M296.9,48.8
			c0-3.9-0.6-6.8-1.7-8.7s-3.1-2.8-6-2.8s-5.1,0.9-6.7,2.6c-1.6,1.8-2.4,4.2-2.4,7.5c0,3.2,0.8,6.2,2.5,9c1.7,2.8,4,4.1,7,4.1
			c1.7,0,3.1-0.7,4.3-2.1C295.9,56,296.9,52.8,296.9,48.8z"/>
		<path d="M317.7,31.9c3.6,0,6.4,0.8,8.5,2.3c2.1,1.6,3.2,3.6,3.2,6.3c0,4-1.3,7-3.8,9c-1.8,1.4-4.3,2.1-7.4,2.1
			c-1.2,0-2.5-0.1-3.8-0.3c0.1,2.9,0.2,5.4,0.2,7.6s0,4-0.1,5.6c-0.1,1.1-0.8,1.7-2.1,1.7s-2.2-0.3-2.6-0.8
			c-0.4-0.5-0.6-1.4-0.6-2.4V35C309.2,32.9,312.1,31.9,317.7,31.9z M314.3,37.1c-0.1,1.5-0.1,3.1-0.1,4.8c0,1.7,0,3,0,4
			c1.3,0.1,2.7,0.2,4.3,0.2c1.6,0,2.9-0.3,3.9-0.9c1.4-0.8,2.1-2.3,2.1-4.4c0-0.2,0-0.4,0-0.7c-0.1-1.3-1.3-2.2-3.6-2.8
			c-1.3-0.3-2.5-0.5-3.6-0.5C316.3,36.8,315.3,36.9,314.3,37.1z"/>
	</g>
	<g>
		<path d="M56.5,289.7l0.1-5.8l0.7-30.9c0-0.6,0.3-1.1,1-1.4c0.6-0.3,1.5-0.5,2.4-0.5c2.4,0,3.6,0.8,3.6,2.5c0,0.5-0.3,4.7-0.9,12.4
			c-0.6,7.7-0.9,12.4-0.9,13.9v7.8c0,3.7,0.2,5.7,0.7,6.1c0.7,0.2,1.6,0.4,2.6,0.4l10.7-0.7c2.3,0,3.5,0.8,3.5,2.5
			c0,1.3-0.6,2.3-1.9,2.9c-1.3,0.6-2.5,1-3.7,1c-1.2,0.1-2.7,0.1-4.5,0.1c-7.7,0-11.9-0.2-12.6-0.7c-0.3-0.3-0.5-1.4-0.6-3.4
			c0-1.9-0.1-3.3-0.1-4.1C56.5,291,56.5,290.3,56.5,289.7z"/>
		<path d="M91,283.3l0.1,9.7c0,1.3,0,2-0.1,2.1l12.8-0.2c1.4,0.1,2.1,0.8,2.1,1.9c0,2.1-1,3.1-2.9,3.1L88.6,300
			c-0.9,0-1.5-0.3-2-0.9c-0.4-0.6-0.7-1.3-0.7-2c0-0.7-0.1-1.5-0.1-2.3v-12.3c-0.6-0.3-1-0.9-1-1.6c0-0.7,0.3-1.3,0.8-1.9
			c-0.1-3.8-0.2-7.4-0.2-10.5c0-1.8,1.1-2.8,3.3-2.8c0.6,0,1.3,0,2.1,0l13,0.2h0.1c1.6,0.2,2.4,0.9,2.4,2.2c0,1-0.3,1.7-0.9,2
			c-1.3,0.7-4.4,1-9.3,1c-1.8,0-3.7-0.1-5.5-0.2c0,4.4,0,6.9,0.1,7.5c1.9,0,5.7,0.1,11.3,0.1c1.5,0.2,2.3,0.9,2.3,2.1
			c0,0.6-0.2,1.2-0.7,1.7c-0.5,0.5-1,0.9-1.6,0.9c-0.6,0.1-1.8,0.1-3.6,0.1S94.1,283.4,91,283.3z"/>
		<path d="M128.5,284.3h-9.2c0,4.6,0.1,8.7,0.2,12.3c0,2.3-0.8,3.5-2.3,3.5s-2.4-0.9-2.7-2.8c-0.1-0.4-0.1-2.5-0.1-6.1v-11.7
			c0-4.2,0-7-0.1-8.3c-1.3-0.1-1.9-1.1-1.9-2.8c0-0.4,0.2-0.9,0.7-1.5c0.6-0.7,1.2-1.1,1.8-1.1c0.6,0,1.7,0.1,3.3,0.2
			c1.6,0.1,5.3,0.2,11,0.2c2.9,0,4.3,0.8,4.3,2.4c0,1.2-0.4,1.9-1.2,2.1c-0.2,0.1-0.4,0.2-0.5,0.3c-0.1,0.1-0.3,0.1-0.7,0.1
			c-0.3,0-0.5,0-0.6,0c-0.2,0.1-0.8,0.2-1.7,0.2c-0.9,0-2.2,0.1-3.8,0.1c-1.6,0-3.5-0.1-5.7-0.2v8h9.6c0.4,0,0.9,0.2,1.3,0.7
			c0.4,0.5,0.7,1.1,0.7,1.7s-0.2,1.3-0.6,1.8C129.9,284.1,129.3,284.3,128.5,284.3z"/>
		<path d="M153.8,270.3l-0.1,17.5c0,3.7,0,6.9,0.1,9.6c0,0.7-0.3,1.3-0.9,1.8c-0.7,0.5-1.3,0.7-2,0.7c-1.3,0-1.9-0.7-1.9-2.1
			c-0.1-5.4-0.2-10.5-0.2-15.4c0-4.9,0.1-8.9,0.4-12c-3,0.2-6,0.4-9,0.4c-1.5,0-2.3-0.6-2.3-1.9c0-0.6,0.3-1.2,0.9-1.8
			c0.6-0.6,1.2-0.9,1.9-1l23.1-0.7c1.3,0.3,2,0.9,2,1.9c0,2-2.3,3-7,3L153.8,270.3z"/>
	</g>
	<g>
		<path d="M401.5,300.5c-0.8,0.7-1.6,1.1-2.6,1.1s-1.5-0.6-1.9-1.8c-0.1-6.5-0.2-13-0.2-19.5l-0.2-18.6c0-3.7,1.7-6.3,5-7.7
			c2.7-1.2,5.8-1.9,9.5-1.9c1.9,0,3.9,0.5,6,1.4c2.1,0.9,4.1,2.2,5.8,4c1.7,1.8,2.6,3.7,2.6,5.7c0,2-0.9,4.2-2.8,6.6
			c-1.9,2.3-4.2,4.4-7,6.2c-2.8,1.8-5.5,3.1-8.1,4c4.6,3.2,8.6,6.6,12,10.3c3.4,3.7,5.1,6.5,5.1,8.5c0,0.6-0.3,1.2-1,1.8
			c-0.6,0.6-1.4,0.9-2.3,0.9c-0.9,0-1.7-0.4-2.3-1.2c-1.1-2.6-3.1-5.4-6.2-8.3c-3-2.9-6.6-5.6-10.6-8.3l0.4,14.2
			C402.7,299,402.3,299.8,401.5,300.5z M413.5,271.8c4.1-2.6,6.2-5,6.2-7.1c0-2.1-1-3.7-3.1-4.8c-2.1-1.1-4.5-1.7-7.4-1.7
			s-5.1,0.3-6.8,1c0,2.5-0.1,8.1-0.1,16.7C405.7,275.8,409.4,274.4,413.5,271.8z"/>
		<path d="M432,301.3c-1.4,0-2.1-0.6-2.1-1.8l0.3-30.1c0-0.7,0.2-1.2,0.7-1.7c0.5-0.4,1.1-0.6,1.8-0.6c0.7,0,1.3,0.2,1.8,0.5
			c0.5,0.3,0.8,0.9,0.9,1.7c0,0.8,0.1,2.6,0.1,5.4c0,13.2-0.1,21.2-0.3,24.1c0,0.6-0.4,1.2-1.1,1.7
			C433.4,301.1,432.7,301.3,432,301.3z"/>
		<path d="M458,267.2c2.1,0,4,0.4,5.8,1.3c1.8,0.9,2.7,2,2.7,3.3c0,0.7-0.3,1.3-0.8,1.8c-0.5,0.5-1.2,0.7-1.9,0.7s-1.6-0.3-2.5-0.9
			c-0.9-0.6-2.2-0.9-3.7-0.9c-3.2,0-5.7,1.3-7.7,3.9c-2,2.6-3,5.5-3,8.6c0,3.1,0.7,5.8,2.1,8c1.4,2.2,3,3.3,4.8,3.3
			c1.8,0,3.3-0.5,4.5-1.4c1.2-1,1.7-2.2,1.7-3.7c0-2.6-0.5-3.8-1.4-3.8c-2.1,0-3.5-0.1-4.3-0.4c-0.8-0.3-1.2-0.9-1.2-1.8
			c0-1.8,0.8-2.7,2.4-2.9c0.7,0,1.6-0.1,2.7-0.1s2.2,0.2,3.3,0.6c1.6,0.6,2.5,1.5,2.9,2.8c0.7,3.1,1.1,5.9,1.1,8.6
			c0,0.3,0,0.9,0,1.7c0,0.8,0,1.5,0,2c0,0.5-0.1,1.1-0.2,1.8c-0.1,0.7-0.3,1.1-0.7,1.4c-0.3,0.2-0.9,0.4-1.6,0.4
			c-0.8,0-1.3-0.2-1.7-0.5c-0.4-0.3-0.7-0.9-0.8-1.7c-2.3,1.5-4.6,2.3-7,2.3s-4.4-0.8-6.3-2.5c-1.9-1.7-3.3-3.7-4.3-6.2
			c-0.9-2.5-1.4-4.9-1.4-7.4c0-5.5,1.6-9.9,4.7-13.2C449.2,268.9,453.2,267.2,458,267.2z"/>
		<path d="M494.5,286.2l-0.1,11c0,2.8-0.9,4.1-2.7,4.1c-0.8,0-1.5-0.2-1.9-0.5c-0.4-0.3-0.6-0.9-0.6-1.6c0.2-2.6,0.3-6.8,0.3-12.5
			c-0.8,0.1-2.1,0.1-3.9,0.1c-1.8,0-4.5-0.2-8.2-0.6v1.6c0,1,0.2,4.8,0.6,11.2c0,0.8-0.2,1.4-0.9,1.7c-0.6,0.4-1.2,0.6-1.9,0.6
			c-0.6,0-1.1-0.2-1.5-0.6c-0.4-0.4-0.6-0.8-0.6-1.3c-0.5-5.1-0.8-9-0.8-11.7c0-2.6,0-4.4,0.1-5.4l0.3-12.4c0-0.6,0.4-1.1,1-1.5
			c0.6-0.4,1.3-0.6,2-0.6c1.3,0,1.9,0.5,1.9,1.6l-0.1,11.6c2.5,0.4,4.6,0.6,6.4,0.6c1.8,0,2.9,0,3.3,0h2.3
			c-0.1-2.7-0.2-6.8-0.2-12.3c0-0.7,0.3-1.3,1-1.7s1.4-0.7,2.1-0.7c0.8,0,1.3,0.3,1.6,1c0.3,0.7,0.4,1.4,0.4,2V286.2z"/>
		<path d="M515.6,271.6l-0.1,17.5c0,3.7,0,6.9,0.1,9.6c0,0.7-0.3,1.3-0.9,1.8c-0.7,0.5-1.3,0.7-2,0.7c-1.3,0-1.9-0.7-1.9-2.1
			c-0.1-5.4-0.2-10.5-0.2-15.4c0-4.9,0.1-8.9,0.4-12c-3,0.2-6,0.4-9,0.4c-1.5,0-2.3-0.6-2.3-1.9c0-0.6,0.3-1.2,0.9-1.8
			c0.6-0.6,1.2-0.9,1.9-1l23.1-0.7c1.3,0.3,2,0.9,2,1.9c0,2-2.3,3-7,3L515.6,271.6z"/>
	</g>
	<g>
		<path d="M581.7,299.8l-9.5-0.2c-0.5-2.1-0.9-11.4-1-28v-5.3c0-4.2,0.4-7.4,1.2-9.6c0.8-2.2,2.4-4,5-5.3c1.3-0.6,3.1-1,5.4-1
			s4.1,0.1,5.3,0.4c3.3,0.7,5.6,2,6.8,3.8c1.2,1.9,1.8,4.4,1.8,7.5c0,4.4-1.2,7.6-3.5,9.7c1.2,0.1,2.4,0.7,3.6,1.8
			c1.2,1,2.1,2.1,2.9,3.2c1.3,2,1.9,4.7,1.9,8.1c0,5.3-1.6,9.1-4.8,11.4C593.4,298.7,588.4,299.8,581.7,299.8z M593.8,279.5
			c-0.5-0.5-1.3-1-2.3-1.4c-1-0.4-2.5-0.7-4.5-0.7c-1.9,0-5.3,0.3-10,1c0,7.7,0.1,12.9,0.4,15.6c5.8,0,9.8-0.4,12.1-1.1
			c2.3-0.8,3.9-1.7,4.7-2.8c0.8-1.1,1.2-2.3,1.2-3.6c0-1.3,0-2.1,0-2.7c0-0.5-0.2-1.2-0.4-2.1C594.7,280.7,594.3,280,593.8,279.5z
			 M577.1,263.8l0.1,8.4c0.1,0,0.9-0.1,2.5-0.3c1.6-0.2,2.9-0.5,4-0.7c5-1.2,7.5-4,7.5-8.5c0-2.2-0.7-3.8-2-4.9
			c-1.3-1-3-1.6-5.1-1.6c-2.7,0-4.5,0.5-5.4,1.4c-0.4,0.4-0.7,0.7-1,1c-0.2,0.3-0.4,0.7-0.5,1.3c-0.1,0.6-0.2,1-0.2,1.3
			c0,0.2,0,0.7,0,1.4C577.1,263.3,577.1,263.7,577.1,263.8z"/>
		<path d="M612.7,298c-0.2,1.2-1.1,1.9-2.6,1.9s-2.3-0.6-2.3-1.9c0-2.9,1.4-8.8,4.3-17.8c1.3-4.1,2.7-7.5,4.3-10.2
			c1.6-2.7,3.1-4.1,4.6-4.1c0.8,0,1.5,0.5,2.1,1.4c0.6,0.9,1.7,3.1,3.2,6.4c1.6,3.3,2.8,6.9,3.9,10.6c1,3.7,2.2,8.3,3.4,13.7
			c0,0.6-0.2,1.1-0.7,1.5c-0.4,0.4-1,0.6-1.6,0.6c-1.6,0-2.6-0.7-3-2.1l-2.6-10.1c-4.3,0-7.8-0.3-10.4-1
			C613.8,292.1,612.9,295.9,612.7,298z M620.7,272.6c-1.6,2.8-3,5.8-4,9.3c2.2,0.6,4.7,0.9,7.7,0.9
			C623.5,279.4,622.2,276,620.7,272.6z"/>
		<path d="M663.6,272.1l-6-0.7c-8,0-12,4-12,12c0,4,1.2,7.3,3.6,9.6c1.2,1.2,2.4,1.9,3.7,1.9c1.3,0,3.5-0.6,6.7-1.7
			c3.2-1.1,4.9-1.7,5.2-1.7c1.3,0,2,0.6,2,1.8c0,1-0.6,1.9-1.7,2.7c-6.2,2.6-10.6,3.9-13.4,3.9c-1.7,0-3.3-0.5-5-1.6
			c-1.6-1.1-2.9-2.5-3.8-4.2c-1.9-3.4-2.9-7.1-2.9-11c0-5.2,1.6-9.4,4.7-12.4c3.2-3.1,7.2-4.6,12.1-4.6c2.9,0,5.7,0.5,8.5,1.4v0.1
			c0.9,0.5,1.3,1.2,1.3,1.9c0,0.7-0.4,1.3-1.1,1.9C665,271.8,664.3,272.1,663.6,272.1z"/>
		<path d="M675.2,293.7c0-2.7-0.1-6.8-0.4-12.4c-0.3-5.6-0.5-9.1-0.7-10.5c-0.2-1.4-0.3-2.3-0.3-2.9c0-0.5,0.3-1,0.9-1.5
			c0.6-0.5,1.3-0.7,2.1-0.7c0.8,0,1.5,0.4,1.9,1.3c1,2.3,1.6,7,1.6,14.2c3.1-2.5,5.5-4.8,7.4-6.8c1.9-2,3.8-4.4,5.7-7.3
			c0.6-1,1.5-1.6,2.4-1.6c1.9,0,2.8,0.6,2.8,1.9c0,2.4-3.2,6.8-9.5,13.3c2.7,2.5,5.3,5.6,7.7,9.3c2.4,3.7,3.6,6,3.6,7
			c0,0.9-0.3,1.6-0.8,2.1c-0.5,0.5-1.1,0.7-1.8,0.7c-0.7,0-1.5-0.6-2.4-1.8c-0.9-1.2-2-2.8-3.3-4.9c-1.3-2-2.4-3.7-3.3-4.9
			c-1-1.2-2.3-2.5-4-4c-1.4,1.3-2.9,2.4-4.4,3.5c0.1,5.8,0.2,9,0.2,9.7c0,1.6-1.1,2.4-3.3,2.4c-1.5,0-2.2-0.8-2.1-2.3V293.7z"/>
	</g>
	<g>
		<path d="M197.9,671l-9.5-0.2c-0.5-2.1-0.9-11.4-1-28v-5.3c0-4.2,0.4-7.4,1.2-9.6c0.8-2.2,2.4-4,5-5.3c1.3-0.6,3.1-1,5.4-1
			s4.1,0.1,5.3,0.4c3.3,0.7,5.6,2,6.8,3.8c1.2,1.9,1.8,4.4,1.8,7.5c0,4.4-1.2,7.6-3.5,9.7c1.2,0.1,2.4,0.7,3.6,1.8
			c1.2,1,2.1,2.1,2.9,3.2c1.3,2,1.9,4.7,1.9,8.1c0,5.3-1.6,9.1-4.8,11.4C209.6,669.9,204.6,671,197.9,671z M210,650.7
			c-0.5-0.5-1.3-1-2.3-1.4s-2.5-0.7-4.5-0.7c-1.9,0-5.3,0.3-10,1c0,7.7,0.1,12.9,0.4,15.6c5.8,0,9.8-0.4,12.1-1.1
			c2.3-0.8,3.9-1.7,4.7-2.8c0.8-1.1,1.2-2.3,1.2-3.6c0-1.3,0-2.1,0-2.7c0-0.5-0.2-1.2-0.4-2.1C210.9,652,210.5,651.3,210,650.7z
			 M193.3,635l0.1,8.4c0.1,0,0.9-0.1,2.5-0.3c1.6-0.2,2.9-0.5,4-0.7c5-1.2,7.5-4,7.5-8.5c0-2.2-0.7-3.8-2-4.9c-1.3-1-3-1.6-5.1-1.6
			c-2.7,0-4.5,0.5-5.4,1.4c-0.4,0.4-0.7,0.7-1,1c-0.2,0.3-0.4,0.7-0.5,1.3c-0.1,0.6-0.2,1-0.2,1.3c0,0.2,0,0.7,0,1.4
			C193.3,634.5,193.3,634.9,193.3,635z"/>
		<path d="M238.3,637.4c3.7,0,6.6,1.4,8.8,4.2c2.2,2.8,3.4,6.7,3.4,11.5s-1.2,9.1-3.7,12.7c-2.5,3.6-5.6,5.3-9.4,5.3
			c-4.1,0-7.5-1.8-10.1-5.3c-2.6-3.6-3.9-7.9-3.9-13c0-5.1,1.4-9,4.1-11.5C230.1,638.7,233.7,637.4,238.3,637.4z M245.2,654
			c0-3.9-0.6-6.8-1.7-8.7s-3.1-2.8-6-2.8s-5.1,0.9-6.7,2.6c-1.6,1.8-2.4,4.2-2.4,7.5s0.8,6.2,2.5,9c1.7,2.8,4,4.1,7,4.1
			c1.7,0,3.1-0.7,4.3-2.1C244.2,661.1,245.2,657.9,245.2,654z"/>
		<path d="M271.8,641.5l-0.1,17.5c0,3.7,0,6.9,0.1,9.6c0,0.7-0.3,1.3-0.9,1.8c-0.7,0.5-1.3,0.7-2,0.7c-1.3,0-1.9-0.7-1.9-2.1
			c-0.1-5.4-0.2-10.5-0.2-15.4s0.1-8.9,0.4-12c-3,0.2-6,0.4-9,0.4c-1.5,0-2.3-0.6-2.3-1.9c0-0.6,0.3-1.2,0.9-1.8
			c0.6-0.6,1.2-0.9,1.9-1l23.1-0.7c1.3,0.3,2,0.9,2,1.9c0,2-2.3,3-7,3L271.8,641.5z"/>
		<path d="M303.6,641.5l-0.1,17.5c0,3.7,0,6.9,0.1,9.6c0,0.7-0.3,1.3-0.9,1.8c-0.7,0.5-1.3,0.7-2,0.7c-1.3,0-1.9-0.7-1.9-2.1
			c-0.1-5.4-0.2-10.5-0.2-15.4s0.1-8.9,0.4-12c-3,0.2-6,0.4-9,0.4c-1.5,0-2.3-0.6-2.3-1.9c0-0.6,0.3-1.2,0.9-1.8
			c0.6-0.6,1.2-0.9,1.9-1l23.1-0.7c1.3,0.3,2,0.9,2,1.9c0,2-2.3,3-7,3L303.6,641.5z"/>
		<path d="M335.2,637.4c3.7,0,6.6,1.4,8.8,4.2c2.2,2.8,3.4,6.7,3.4,11.5s-1.2,9.1-3.7,12.7c-2.5,3.6-5.6,5.3-9.4,5.3
			c-4.1,0-7.5-1.8-10.1-5.3c-2.6-3.6-3.9-7.9-3.9-13c0-5.1,1.4-9,4.1-11.5C327.1,638.7,330.7,637.4,335.2,637.4z M342.1,654
			c0-3.9-0.6-6.8-1.7-8.7s-3.1-2.8-6-2.8s-5.1,0.9-6.7,2.6c-1.6,1.8-2.4,4.2-2.4,7.5s0.8,6.2,2.5,9c1.7,2.8,4,4.1,7,4.1
			c1.7,0,3.1-0.7,4.3-2.1C341.1,661.1,342.1,657.9,342.1,654z"/>
		<path d="M381.5,635.3c1.4,0,2.1,0.7,2.1,2.1c0.1,8.8,0.2,19,0.2,30.7c0,0.8-0.3,1.5-0.9,2.1c-0.6,0.6-1.5,1-2.7,1
			c-1.2,0-1.8-0.8-1.8-2.4c0-5.2,0-9.1-0.1-11.7c-0.1-2.5-0.1-5.3-0.1-8.3c-1.8,2.2-3.6,3.8-5.3,4.7c-1.7,0.9-4,1.3-6.8,1.3
			c-2.8,0-5-0.8-6.6-2.3c0,8.8,0,14-0.1,15.5c-0.1,2.1-1.3,3.1-3.5,3.1c-1.3,0-2-0.7-2-2.1l0.2-13.7c0-4.4,0-7.9,0-10.4v-4.1
			c0-0.7,0.3-1.4,0.8-2c0.5-0.6,1.2-1,1.9-1c0.7,0,1.4,0.2,1.9,0.5c0.6,0.3,0.9,0.8,0.9,1.4c0.1,2.5,0.8,4.8,2.2,6.7
			c1.4,2,2.9,3,4.6,3c5,0,8.4-2.7,10.4-8.1c0.1-0.2,0.3-0.9,0.6-1.9c0.3-1,0.6-1.8,0.8-2.1c0.2-0.4,0.6-0.8,1.1-1.3
			C380.1,635.5,380.8,635.3,381.5,635.3z"/>
	</g>
	<g>
		<path d="M224.1,252l8.2-0.1c3.7,0,5.5,1,5.5,2.9c0,0.7-0.1,1.2-0.3,1.4c-0.2,0.3-0.3,0.5-0.4,0.6c-0.1,0.1-0.3,0.3-0.6,0.4
			c-0.6,0.2-1.1,0.3-1.5,0.4c-0.4,0-0.7,0.1-0.8,0.1c-0.5,0.1-1.5,0.2-2.7,0.2c-1.3,0-3.1,0.1-5.6,0.1c-2.4,0-5.4-0.1-9-0.3v13.6
			h15.1c0.5,0,1,0.2,1.5,0.7c0.5,0.5,0.7,1,0.7,1.6c0,2.3-1,3.4-2.9,3.4h-14.4l0.3,19.4c0,2.5-0.9,3.8-2.6,3.8c-1.7,0-2.7-1.1-3-3.4
			c-0.1-0.7-0.2-7-0.3-18.8c0-11.8-0.1-18.6-0.2-20.4c-1.8,0.2-2.7-0.8-2.7-3.1c0-0.6,0.2-1.2,0.7-2c0.5-0.7,0.9-1.1,1.3-1.1
			c0.4,0,0.8-0.1,1.4-0.1c0.6,0,2,0.1,4.2,0.3C219.1,251.9,221.8,252,224.1,252z"/>
		<path d="M244.8,297.2c0,0.7-0.3,1.4-1,1.9c-0.7,0.5-1.5,0.8-2.3,0.8c-1.1,0-1.6-0.5-1.6-1.5c-0.2-2.3-0.3-11.5-0.3-27.6
			c0-1.6,0.9-2.8,2.8-3.7c1.9-0.9,4.4-1.3,7.6-1.3s6,0.8,8.4,2.4c2.4,1.6,3.6,3.5,3.6,5.7c0,1.1-0.5,2.3-1.4,3.6
			c-0.9,1.3-1.9,2.4-3,3.1c-1.1,0.8-2.6,1.7-4.6,2.8c-2,1.1-3.2,1.7-3.6,1.8c3.1,2,5.9,4.1,8.3,6.4c2.4,2.3,3.6,4.1,3.6,5.5
			s-0.6,2.2-1.8,2.6c-0.3,0.1-0.8,0.1-1.3,0.1c-0.5,0-1.2-0.5-2.1-1.6c-0.8-1.1-2.4-2.6-4.7-4.6c-2.3-2-4.6-3.8-6.9-5.4
			C244.6,292.3,244.7,295.2,244.8,297.2L244.8,297.2z M244.5,281.8c1.6,0,4.1-0.8,7.3-2.4c3.3-1.6,5-3.1,5.1-4.5
			c0-1.3-0.7-2.3-2.2-3s-3-1-4.7-1c-1.9,0-3.7,0.2-5.5,0.7C244.5,273.9,244.5,277.3,244.5,281.8z"/>
		<path d="M283.4,266.1c3.7,0,6.6,1.4,8.8,4.2c2.2,2.8,3.4,6.7,3.4,11.5c0,4.9-1.2,9.1-3.7,12.7c-2.5,3.6-5.6,5.3-9.4,5.3
			c-4.1,0-7.5-1.8-10.1-5.3c-2.6-3.6-3.9-7.9-3.9-13c0-5.1,1.4-9,4.1-11.5C275.3,267.4,278.9,266.1,283.4,266.1z M290.3,282.7
			c0-3.9-0.6-6.8-1.7-8.7s-3.1-2.8-6-2.8s-5.1,0.9-6.7,2.6c-1.6,1.8-2.4,4.2-2.4,7.5c0,3.2,0.8,6.2,2.5,9c1.7,2.8,4,4.1,7,4.1
			c1.7,0,3.1-0.7,4.3-2.1C289.3,289.9,290.3,286.7,290.3,282.7z"/>
		<path d="M307.7,276.9l-0.8,18c0,1.6-0.1,2.6-0.1,3.2c-0.2,1.3-1.1,2-2.6,2c-0.6,0-1.1-0.2-1.6-0.6c-0.5-0.4-0.7-0.9-0.8-1.6
			c0.4-12.8,0.6-19.7,0.6-20.8c0-1,0-2.1,0-3.4c0-1.2,0.1-2.3,0.4-3.3c0.3-1.3,1.2-2,2.7-2c0.7,0,1.6,0.5,2.6,1.4
			c1,0.9,2.5,2.7,4.5,5.2c4.7,5.8,8.2,11.2,10.7,16.4c-0.1-7-0.3-12.3-0.5-16c-0.2-3.7-0.4-5.7-0.4-6c0-0.3,0-0.5,0-0.6
			c0.3-1.9,1.4-2.8,3-2.8c0.6,0,1.2,0.3,1.8,0.9c0.5,0.6,0.8,1.3,0.8,2.1l0.4,27.5c0,2.6-1,3.8-3.1,3.8c-1.2,0-2.2-0.4-2.9-1.3
			c-0.7-0.9-1.2-1.5-1.5-2c-0.3-0.5-0.7-1.3-1.3-2.4C315.7,287.3,311.8,281.5,307.7,276.9z"/>
		<path d="M349.5,270.3l-0.1,17.5c0,3.7,0,6.9,0.1,9.6c0,0.7-0.3,1.3-0.9,1.8c-0.7,0.5-1.3,0.7-2,0.7c-1.3,0-1.9-0.7-1.9-2.1
			c-0.1-5.4-0.2-10.5-0.2-15.4c0-4.9,0.1-8.9,0.4-12c-3,0.2-6,0.4-9,0.4c-1.5,0-2.3-0.6-2.3-1.9c0-0.6,0.3-1.2,0.9-1.8
			c0.6-0.6,1.2-0.9,1.9-1l23.1-0.7c1.3,0.3,2,0.9,2,1.9c0,2-2.3,3-7,3L349.5,270.3z"/>
	</g>
</g>
</svg>
