<?xml version="1.0" encoding="utf-8"?>
<!-- Generator: Adobe Illustrator 21.1.0, SVG Export Plug-In . SVG Version: 6.00 Build 0)  -->
<svg version="1.1" id="Layer_1" xmlns="http://www.w3.org/2000/svg" xmlns:xlink="http://www.w3.org/1999/xlink" x="0px" y="0px"
	 viewBox="0 0 438.9 207.5" style="enable-background:new 0 0 438.9 207.5;" xml:space="preserve">
<style type="text/css">
	.st0{fill:#4EBA6F;}
	.st1{fill:#EDF0F1;}
	.st2{fill:#E64C3C;}
	.st3{fill:none;}
</style>
<path class="st0" d="M38.7,106.1c3.3,1.6,6.6,3.1,9.8,4.6c5.7,2.6,11.6,5.3,17.4,7.8c0-4.1-0.1-8.1-0.1-11.9
	c-0.1-7.7-0.3-15.6-0.6-23.4c-5.2-2.1-9.6-3.6-13.5-5c-4.8-1.7-9.4-3.3-14.3-5.5c0.5,4.8,0.8,9.5,1,14.1
	C38.7,93.3,38.8,99.6,38.7,106.1z"/>
<path class="st1" d="M107.5,56.4c3.8-1.9,9.5-4.8,16.5-8.8c-1-0.6-2.1-1.1-3.2-1.7c-5.4-2.9-9.1-4.6-12.8-6.3
	c-0.9-0.4-1.8-0.8-2.7-1.3c-3.6-1.7-7.3-3.5-11-5.4L94,33c-0.3,0.2-0.7,0.4-1,0.6c-8.6,5-17.3,10.3-25.8,15.7
	c5.3,3,10.5,5.9,15.6,8.7c4.3,2.3,7.7,4.2,10.8,5.8c4.1-2.3,8.2-4.5,12.1-6.5C106.2,57,106.8,56.7,107.5,56.4z"/>
<path class="st0" d="M50.2,144.7c3.8,1.9,7.6,3.7,11.5,5.5c1.3,0.6,2.6,1.2,3.9,1.8c0.3-10,0.4-20.2,0.4-30.1
	c-6.4-2.8-12.7-5.6-18.7-8.4c-2.7-1.3-5.6-2.6-8.6-4c-0.1,3.8-0.3,7.1-0.4,9.8l-0.1,1.3c-0.3,5.6-0.5,11.5-0.6,17.5
	c1.1,0.6,2.2,1.2,3.2,1.7C44,141.5,47.1,143.2,50.2,144.7z"/>
<path class="st0" d="M10.5,111.3c0,0.3,0,0.6,0,0.9c0.1,1.2,0.1,1.6,0.1,2.4c0,0.1,0,0.1,0,0.2c0,0-0.1,2.8-0.1,6.8
	c0,0.3,0,0.5,0,0.8c7.8,4.9,15.8,9.6,24,14c0.1-5.4,0.3-10.8,0.6-16l0.1-1.3c0.1-3,0.3-6.8,0.4-11.2c-8.6-4.2-17.3-8.5-25.8-12.9
	c0.1,1.5,0.1,2.9,0.2,4.1c0,0.5,0,1,0.1,1.4c0,0.7,0.1,1.4,0.1,2C10.3,107.2,10.5,109.7,10.5,111.3z"/>
<path class="st2" d="M142.3,107.3l0.5-0.2c2.9-1.2,8.9-3.7,16.8-7.6c0-3.2-0.1-6.5-0.2-9.6c-0.2-7.7-0.4-15.6-0.8-23.5
	c-2.8,1.5-5.5,3-8.1,4.4c-4.6,2.6-8,4.6-11,6.4c-3,1.8-5.8,3.5-9.2,5.3c-0.7,8-1,16.2-1,24.3c0,2.1,0,4.2,0.1,6.2
	C133.9,110.9,138.2,108.9,142.3,107.3z"/>
<path class="st0" d="M69,119.9c8.4,3.6,16.9,7.2,25.3,10.5c0.1-1.6,0.1-3.2,0.1-4.8c0.2-9.6-0.1-19.3-1-28.8
	c-8.3-4.6-16.8-8.8-25.2-12.3c0.3,7.4,0.5,14.9,0.6,22.1C69,110.9,69,115.4,69,119.9z"/>
<path class="st2" d="M162.7,108.4c0,4.7,0,9.5-0.1,14.2c0,2.4-0.1,4.7-0.1,7.1c5.8-2.6,11.8-5,17.8-7.1v0c0-0.4,0-0.9,0-1.3
	c0-0.5,0-1,0-2.1l0-7.7c0-5,0-7.8,0-9.5v-0.1c0-2.2,0-2.4,0-3.2c0-3.1-0.1-5.2-0.2-7c-4.4,2.7-8.9,5.2-13.4,7.6
	c-1.3,0.7-2.7,1.4-4.1,2.1C162.7,103.7,162.7,106.1,162.7,108.4z"/>
<path class="st0" d="M34.4,140c-8.1-4.4-16.1-9.1-23.9-13.9c0,5.8,0,13.4,0.1,18.6c0.1,2.4,0.7,4.6,1.7,6.3c0.1,0.2,0.3,0.5,0.4,0.7
	c0.1,0.1,0.2,0.3,0.3,0.4c0.1,0.1,0.1,0.2,0.2,0.3c0.1,0.1,0.2,0.3,0.3,0.4c0.1,0.1,0.1,0.2,0.2,0.2c0.1,0.1,0.2,0.2,0.3,0.4
	c0.1,0.1,0.1,0.2,0.2,0.2c0.1,0.1,0.2,0.2,0.4,0.3c0.1,0.1,0.2,0.1,0.2,0.2c0.1,0.1,0.2,0.2,0.4,0.3c0.1,0.1,0.2,0.1,0.3,0.2
	c0.1,0.1,0.2,0.2,0.3,0.2c0.1,0.1,0.2,0.2,0.3,0.2c0.1,0.1,0.2,0.1,0.3,0.2c0.1,0.1,0.3,0.2,0.4,0.2c5.1,2.6,10.4,5.5,15.5,8.4
	c0.7,0.4,1.3,0.7,1.9,1.1C34.2,156.6,34.2,148.1,34.4,140z"/>
<path class="st1" d="M43,35l-0.4,0.2c7.1,4.2,14.3,8.3,21.4,12.3C73,41.9,82,36.4,91,31.2c-7-3.8-14.3-8-21.7-12.5
	c-1.5,0.8-2.8,1.5-4,2.2c-5.4,3.1-9.1,5.5-14.1,8.8c0,0,0,0,0,0l0,0C49,31.1,46.3,32.9,43,35z"/>
<path class="st1" d="M107.2,74c-4.5-2.1-8.9-4.3-13.6-6.7c-2.1,1.2-4.3,2.5-6.5,3.8c-5.7,3.4-11.4,7-17.1,10.7
	c5.3,2.2,10.6,4.7,15.8,7.3c3.1,1.6,6.3,3.3,9.4,5c10.4-3.4,20.5-7.5,29.9-12.4c-4.5-1.8-9-3.7-13.3-5.7
	C110.2,75.4,108.7,74.7,107.2,74z"/>
<path class="st0" d="M93.3,198.6c-0.6-6.8-1-13.5-1.2-20.2c-0.1-4-0.1-8,0-12c-1-0.4-2-0.8-3-1.1c-6.9-2.7-13.8-5.5-20.6-8.6
	c-0.3,9.2-0.7,18.6-1.3,27.8c0.5,0.3,1,0.5,1.5,0.8c0.5,0.2,1,0.5,1.5,0.7l0.2,0.1c2.9,1.4,6.1,3.1,10.4,5.7c2.7,1.7,5.4,3.5,8,5.3
	c0.2,0.1,0.5,0.3,0.8,0.4C90.6,198,91.8,198.4,93.3,198.6z"/>
<path class="st1" d="M130.1,47.5c1,0.6,2,1.2,2.9,1.7c3.1,1.8,6,3.6,10.2,5.7c0.7,0.3,1.3,0.7,2,1c4.7,2.3,9.6,4.4,14.6,6.2
	c5.5-2.8,11.1-5.6,16.8-8.1c-1-1.3-2.2-2.4-3.6-3.2l-0.1,0c-5.1-3.4-10.4-6.8-15.8-10c-3.1-1.8-6.1-3.5-9.1-5.1
	c-5.7,4-11.7,7.9-17.7,11.6C130.3,47.4,130.2,47.5,130.1,47.5z"/>
<path class="st1" d="M94.2,29.3c6.8-3.9,13.7-7.7,20.6-11.3c-4.6-2.7-9.1-5.6-13.6-8.5c-1.3-0.7-3.5-1.6-6.2-1.6
	c-2.2,0-4.4,0.6-6.3,1.7l-0.2,0.1c-5.4,2.2-10.7,4.6-16,7.3C79.9,21.5,87.2,25.6,94.2,29.3z"/>
<path class="st2" d="M162.4,133.2c-0.3,9.9-0.7,20-1.3,29.9c4.1-2.3,8.1-4.8,11.9-7.4l0.1-0.1c1.3-0.8,3.2-2.2,4.6-4.6
	c1.1-1.9,1.7-4.1,1.7-6.3l0-0.1c0.5-6.6,0.7-12.9,0.9-18.7C174.1,128.1,168.1,130.6,162.4,133.2z"/>
<path class="st0" d="M10.6,62c-0.5,3.4-0.9,6.9-1.1,10.4C9.1,79.2,9.3,84.3,9.4,87c0,0.4,0,0.8,0.1,1.2c0.1,1.2,0.1,2.2,0.1,3.3
	c6.4,3.3,12.9,6.7,19.5,9.9c2.2,1.1,4.4,2.1,6.6,3.2c0.1-5.9,0-11.7-0.3-17.7c-0.3-5.2-0.7-10.5-1.2-15.8c-1.9-0.9-3.7-1.8-5.6-2.9
	c-2.2-1.2-4.4-2.5-6.6-3.8c-3.6-2.2-7.1-4.7-10.4-7.3c-0.4,1.1-0.7,2.3-0.8,3.5c0,0.4-0.1,0.8-0.1,1.2L10.6,62z"/>
<path class="st0" d="M37.5,141.6c-0.2,8.2-0.2,16.7-0.1,25.3c1,0.6,2,1.2,3.1,1.9l0,0c2.2,1.3,4.9,3,9.6,5.8
	c6.5,3.8,10.9,6.4,14.2,8.3c0.5-9.1,0.9-18.4,1.2-27.5c-5.6-2.5-11.2-5.2-16.7-7.9C45.2,145.6,41.4,143.7,37.5,141.6z"/>
<path class="st1" d="M13.1,54.4c5.4,4.2,11.1,7.9,17,11.1c1.4,0.8,2.9,1.5,4.3,2.2c8.7-6.3,17.8-12.4,26.8-18.3
	c-7.2-4.1-14.4-8.2-21.4-12.4c-7.4,4.7-15.1,9.4-22.8,13.8C15.9,51.6,14.4,52.7,13.1,54.4z"/>
<path class="st2" d="M116.5,157.5c-7,3.4-14.1,6.5-21.2,9.3c-0.2,10.4,0.2,21.1,1.2,31.8c0.9-0.1,1.7-0.3,2.5-0.5
	c0.8-0.3,1.6-0.6,2.3-1c7-3.8,13.8-7.8,20.3-11.9c2-1.3,3.8-2.4,5.6-3.6c0.3-10.7,0.5-20.7,0.4-29.7
	C123.9,153.8,120.4,155.6,116.5,157.5z"/>
<path class="st2" d="M96.7,96.9c0.8,9.5,1.1,19.2,0.9,28.8c0,1.5-0.1,2.9-0.1,4.4c10.3-6,20-11.2,28.8-15.5
	c-0.1-2.6-0.1-5.2-0.1-7.7c0-7.5,0.3-15.1,0.8-22.6c-0.1,0-0.1,0.1-0.2,0.1C117.3,89.3,107.2,93.5,96.7,96.9z"/>
<path class="st2" d="M147,140.8c-3.8,2-7.1,4-10.4,5.9c-1.8,1-3.8,2.2-5.9,3.4c0.1,8.9,0,18.8-0.3,29.3c0.3-0.2,0.6-0.4,0.9-0.6
	c2.5-1.7,4.4-2.9,7.7-4.7c0.2-0.1,0.5-0.3,0.8-0.4c0.5-0.3,1-0.5,1.4-0.8c3.2-1.7,5.4-2.7,7.8-3.7c2-0.9,4.1-1.8,6.8-3.2
	c0.6-0.3,1.3-0.7,2-1c0.6-10,1.1-20.1,1.4-30.2C155.1,136.6,151,138.6,147,140.8z"/>
<path class="st1" d="M145,34.2c-2.4-1.2-4.6-2.4-7-3.6c-5.3-2.7-10.8-5.5-17.9-9.6c-0.7-0.4-1.4-0.8-2.1-1.2
	c-6.9,3.6-13.8,7.4-20.5,11.2c3.1,1.6,6.2,3.1,9.1,4.4c0.9,0.4,1.8,0.8,2.7,1.3c3.7,1.7,7.5,3.4,13,6.3c1.7,0.9,3.3,1.8,4.8,2.6
	c0.6-0.3,1.1-0.7,1.7-1C134.2,41.4,139.7,37.9,145,34.2z"/>
<path class="st1" d="M149,68.1c2.3-1.3,4.8-2.6,7.3-4c-4.9-1.9-9.8-4.1-14.3-6.4c-4.3-2.2-7.3-4-10.4-5.9c0,0,0,0,0,0l0,0l0,0
	c-1.4-0.8-2.8-1.7-4.4-2.6c-7.8,4.5-14,7.7-18.2,9.8c-0.6,0.3-1.2,0.6-1.8,0.9c-3.3,1.7-6.8,3.5-10.2,5.4c5.5,2.8,10.6,5.3,16.2,7.8
	c5.1,2.3,10.4,4.5,15.6,6.6c3.4-1.8,6.2-3.5,9.2-5.3C140.9,72.7,144.3,70.7,149,68.1z"/>
<path class="st2" d="M161.6,64.8c0.4,8.3,0.7,16.7,0.9,25c0.1,2.6,0.1,5.3,0.1,8.1c0.9-0.5,1.8-0.9,2.6-1.4c5-2.6,9.9-5.5,14.7-8.5
	l0-0.1c-0.1-2.1-0.2-4.5-0.3-7.9c-0.2-4.5-0.2-9-0.2-13.6c0-1.5,0-3.1,0-4.6c0-1.2-0.2-3-1.1-5C172.7,59.3,167.1,62,161.6,64.8z"/>
<path class="st0" d="M69,123.3c0,10-0.1,20.1-0.4,30.1c7.8,3.5,15.7,6.7,23.6,9.8c0.2-6.2,0.6-11.1,1-15.8c0-0.3,0.1-0.6,0.1-0.9
	c0.3-3.9,0.7-8,0.9-12.7C85.9,130.4,77.4,126.9,69,123.3z"/>
<path class="st1" d="M52.7,75.2c4,1.4,8.5,3,13.8,5.2c8-5.3,16-10.3,23.8-14.8c-2.6-1.4-5.5-2.9-9-4.9c-5.5-3-11.3-6.2-17.1-9.5
	c-9,5.8-18,11.9-26.7,18.1C42.8,71.7,47.6,73.4,52.7,75.2z"/>
<path class="st2" d="M129.4,116.5c0.2,4.5,0.4,7.8,0.5,9.6l0,0.4c0.1,2.2,0.3,4.6,0.4,7c0.2,4.1,0.3,8.4,0.4,13
	c1.5-0.9,3-1.7,4.4-2.5c3.3-1.9,6.6-3.9,10.5-5.9c4.4-2.4,9.1-4.7,13.8-6.9c0.2-9.4,0.3-18.9,0.3-28.3c-7.4,3.6-13.2,6-15.7,7
	l-0.5,0.2C139.1,111.9,134.4,114.1,129.4,116.5z"/>
<path class="st2" d="M126.8,126.7l0-0.4c0-0.1,0-0.2,0-0.3c-0.1-1.7-0.3-4.4-0.4-8c-8.9,4.4-18.7,9.7-29.1,15.8
	c-0.2,4.9-0.6,8.9-0.9,12.9c-0.4,5-0.9,10.2-1.1,16.9c6.7-2.6,13.3-5.6,19.8-8.7c4.3-2.1,8.3-4.2,12.5-6.5
	C127.5,140.3,127.3,133,126.8,126.7z"/>
<g>
	<path class="st3" d="M95.2,93.6c10-3.2,19.6-7.2,28.7-11.8c-4.2-1.7-8.4-3.5-12.3-5.3c-6.2-2.8-11.8-5.5-18-8.7
		c-7.4,4.2-15.1,8.9-22.7,13.9C79.1,85.2,87.3,89.2,95.2,93.6z"/>
	<path class="st3" d="M97.2,97.3c0.8,9.4,1.1,19,0.9,28.4c0,1.2-0.1,2.4-0.1,3.6c10-5.8,19.3-10.8,27.8-15c-0.1-2.5-0.1-5-0.1-7.4
		c0-7.2,0.3-14.6,0.8-21.8C117.2,89.8,107.3,93.9,97.2,97.3z"/>
	<path class="st3" d="M69.4,106.6c0.1,4.2,0.1,8.5,0.1,13c8.1,3.5,16.3,6.9,24.4,10.1c0-1.4,0.1-2.7,0.1-4.1
		c0.2-9.5-0.1-19.1-0.9-28.5c-8-4.4-16.1-8.4-24.3-11.9C69.1,92.4,69.3,99.6,69.4,106.6z"/>
	<path class="st3" d="M48.7,110.3c5.5,2.5,11.1,5.1,16.7,7.5c0-3.8-0.1-7.6-0.1-11.2C65.2,99,65,91.2,64.7,83.5
		c-5-2-9.4-3.6-13.2-4.9c-4.6-1.6-9-3.2-13.6-5.2c0.4,4.5,0.7,9,1,13.4c0.1,1.6,0.1,3.3,0.2,4.9c0.2,4.7,0.2,9.3,0.1,14.1
		C42.4,107.3,45.6,108.8,48.7,110.3z"/>
	<path class="st3" d="M94.3,33.4L93.2,34c-8.4,4.8-16.8,10-25.1,15.3c3.7,2.1,7.3,4.1,10.9,6.1c1.4,0.7,2.7,1.5,4,2.2
		c3.3,1.8,6.1,3.3,8.6,4.6c0.7,0.4,1.3,0.7,1.9,1c4-2.3,8-4.4,11.9-6.4l1.8-0.9c3.6-1.8,9.1-4.6,15.7-8.4c-0.8-0.4-1.6-0.9-2.4-1.3
		c-5.4-2.9-9.1-4.6-12.8-6.3l-0.2-0.1c-0.9-0.4-1.7-0.8-2.6-1.2C101.5,37.1,97.9,35.3,94.3,33.4z"/>
	<path class="st3" d="M39.1,110.2c-0.1,3.5-0.3,6.6-0.4,9.1l-0.1,1.4c-0.3,5.5-0.5,11.3-0.6,17.2c4.2,2.3,8.4,4.4,12.3,6.4
		c4.8,2.4,9.8,4.8,14.7,7c0.3-9.7,0.4-19.5,0.4-29.1c-6.3-2.7-12.5-5.5-18.5-8.3C44.5,112.8,41.8,111.5,39.1,110.2z"/>
	<path class="st3" d="M142.1,106.8l0.5-0.2c2.9-1.2,8.7-3.6,16.5-7.5c0-3.1-0.1-6.3-0.1-9.3c-0.2-7.4-0.4-15.1-0.8-22.7
		c-2.6,1.4-5.1,2.7-7.5,4c-4.6,2.6-8,4.6-11,6.4l-2.3,1.4c-1.9,1.1-4.2,2.4-6.7,3.9c-0.6,7.9-1,16-1,24c0,1.8,0,3.7,0.1,5.5
		C134.1,110.3,138.2,108.4,142.1,106.8z"/>
	<path class="st3" d="M128.6,79.4c3.3-1.8,6.1-3.5,9-5.2c3.1-1.8,6.5-3.9,11.1-6.5c2-1.1,4.2-2.3,6.4-3.5c-4.6-1.8-9.1-3.8-13.4-6
		l-0.8-0.4c-3.9-2-6.7-3.7-9.7-5.5c-1.3-0.8-2.6-1.6-4.1-2.4c-7.7,4.5-13.9,7.6-18,9.7l-1.8,0.9c-0.9,0.5-1.8,0.9-2.7,1.4
		c-2.2,1.2-4.5,2.4-6.7,3.6c5.2,2.7,10,5,15.4,7.4C118.3,75.1,123.4,77.3,128.6,79.4z"/>
	<path class="st3" d="M47.8,37.7c5.4,3.1,10.9,6.3,16.3,9.4c5.5-3.5,11.1-7,16.7-10.4c3.1-1.9,6.2-3.7,9.3-5.5
		c-6.7-3.6-13.7-7.7-20.7-12c-1.4,0.7-2.6,1.4-3.7,2l-1,0.6c-4.9,2.8-8.3,5.1-13,8.2L51,29.2l0,0l0.5,0.8c-2.3,1.5-4.9,3.2-8,5.3
		C45,36.1,46.4,36.9,47.8,37.7z"/>
	<path class="st3" d="M73.5,17c7,4.3,14,8.3,20.7,11.8c6.5-3.7,13.1-7.3,19.7-10.8c-4.3-2.6-8.7-5.3-12.9-8.1
		c-1.2-0.7-3.3-1.6-5.9-1.6c-2.1,0-4.2,0.6-6,1.6L88.7,10c-4.9,2-9.9,4.2-14.7,6.7C73.8,16.8,73.7,16.9,73.5,17z"/>
	<path class="st3" d="M178.8,60.4c-0.1-1-0.4-2.1-0.8-3c-1.2,0.5-2.3,1.1-3.5,1.6c-4.2,2-8.4,4-12.5,6.1c0.4,8.2,0.7,16.5,0.9,24.7
		c0.1,2.4,0.1,4.8,0.1,7.3c0.7-0.3,1.3-0.7,2-1c4.9-2.6,9.7-5.4,14.4-8.3l-0.1-1.9c-0.1-1.6-0.2-3.5-0.2-5.9
		c-0.2-6-0.3-12.1-0.2-18.3C178.9,61.4,178.9,60.9,178.8,60.4z"/>
	<path class="st3" d="M179.8,122.3l0-3.2l0-17.4c0-2.2,0-2.4,0-3.2c0-2.7-0.1-4.6-0.1-6.2c-4.2,2.5-8.4,5-12.7,7.2
		c-1.2,0.7-2.5,1.3-3.8,2c0.1,9.1,0,18.3-0.2,27.4C168.4,126.6,174.1,124.4,179.8,122.3z"/>
	<path class="st3" d="M129.9,116.8c0.2,4.3,0.4,7.5,0.5,9.3l0,0.4c0.4,5.8,0.6,12.2,0.7,19.3c1.3-0.7,2.5-1.4,3.6-2.1l0.1-0.1
		c3.3-1.9,6.6-3.8,10.5-5.9c4.4-2.3,8.9-4.6,13.6-6.8c0.2-9,0.3-18.2,0.3-27.2c-7.1,3.5-12.6,5.7-15,6.7l-0.5,0.2
		C139.4,112.3,134.8,114.4,129.9,116.8z"/>
	<path class="st3" d="M10.3,95.9l0,0.1c0.4,8.9,0.6,13,0.8,15.2l-1,0.1l0,0l1-0.1c0.1,2.1,0.1,2.4,0.1,3.5c0,0.1-0.1,3.1-0.1,7.4
		l0.1,0.1c7.4,4.6,15.1,9.2,22.9,13.4c0-1.6,0.1-3.2,0.1-4.8c0.1-3.5,0.3-7,0.4-10.4v0l0.1-1.4c0.1-2.9,0.3-6.6,0.4-10.8
		C26.8,104.3,18.5,100.1,10.3,95.9z"/>
	<path class="st3" d="M139.6,173.2c4-2.1,6.5-3.3,9.2-4.5c2.4-1.1,4.9-2.2,8.6-4.1c0.6-9.6,1.1-19.4,1.3-29.2
		c-3.9,1.9-7.8,3.8-11.5,5.8c-3.8,2-7.1,4-10.4,5.9c-1.7,1-3.7,2.1-5.7,3.3c0.1,8.6,0,18-0.3,28.2
		C133.6,176.6,135.7,175.3,139.6,173.2z"/>
	<path class="st3" d="M70.6,185.7c2.9,1.4,6.1,3.1,10.4,5.7c2.7,1.7,5.4,3.5,8,5.4c0.8,0.5,2.1,1.1,3.7,1.4
		c-1-10.5-1.4-21.1-1.1-31.3c-7.6-2.9-15.2-6-22.7-9.3c-0.2,6.7-0.5,13.5-0.9,20.2c-0.1,2.2-0.2,4.4-0.4,6.6
		c0.4,0.2,0.8,0.4,1.2,0.6L70.6,185.7z"/>
	<path class="st3" d="M38.2,166.9c0.8,0.5,1.6,1,2.5,1.5l0.1,0.1c2.2,1.3,4.9,3,9.5,5.7l0.1,0.1c6,3.5,10.2,6,13.4,7.9
		c0.5-8.8,0.9-17.6,1.1-26.4c-5.5-2.5-11-5.1-16.4-7.8c-3.4-1.7-7-3.5-10.6-5.5c-0.2,7.9-0.2,16-0.1,24.3L38.2,166.9z"/>
	<path class="st3" d="M126.8,181.2c0.3-10.3,0.5-19.9,0.4-28.7c-3.5,1.9-6.9,3.6-10.5,5.4c-6.9,3.4-13.9,6.5-21,9.2
		c0,1.1,0,2.2,0,3.4c-0.1,9.1,0.3,18.4,1.2,27.6c1.5-0.2,2.9-0.7,4.2-1.5c7-3.8,13.8-7.8,20.3-11.9
		C123.3,183.5,125,182.4,126.8,181.2z"/>
	<path class="st3" d="M81.1,61.1c-5.5-3-11.1-6.1-16.9-9.4c-8.7,5.6-17.3,11.5-25.7,17.5c4.9,2.2,9.5,3.8,14.4,5.6
		c3.9,1.4,8.4,3,13.6,5.1c7.7-5.1,15.4-9.9,22.9-14.3C87,64.3,84.3,62.9,81.1,61.1z"/>
	<path class="st3" d="M12.7,150.8c1.1,1.8,2.6,3.4,4.4,4.4c5.1,2.6,10.3,5.5,15.4,8.4c0.4,0.2,0.8,0.5,1.2,0.7c0-8.1,0-16.2,0.2-24
		c-7.8-4.2-15.5-8.7-23-13.3c0,5.7,0,12.8,0.2,17.8C11.2,147,11.8,149.1,12.7,150.8z"/>
	<path class="st3" d="M177.3,150.8c1.1-1.8,1.6-3.9,1.6-6l0-0.1c0.1-0.9,0.1-1.7,0.2-2.6c0.3-5.4,0.6-10.6,0.7-15.5
		c-5.8,2.1-11.4,4.4-16.9,6.9c-0.3,9.5-0.7,19.2-1.3,28.8c3.8-2.2,7.6-4.5,11.1-7l0.1-0.1C174.1,154.5,176,153.1,177.3,150.8z"/>
	<path class="st3" d="M69.5,124c0,9.7-0.2,19.4-0.4,29.1c7.5,3.3,15.1,6.5,22.7,9.4c0.2-6.3,0.7-11.3,1.1-16.1
		c0.3-3.9,0.7-7.8,0.9-12.4C85.7,130.8,77.6,127.4,69.5,124z"/>
	<path class="st3" d="M114.9,154.3c4.2-2.1,8.1-4.1,12.3-6.4c-0.1-7.8-0.4-15-0.8-21.3l0-0.4c-0.1-1.5-0.3-4.2-0.4-7.6
		c-8.6,4.3-18.1,9.5-28.2,15.4c-0.1,1.1-0.1,2.1-0.2,3.1c-0.2,3.4-0.5,6.5-0.7,9.4l0,0.2c-0.3,3.7-0.6,7.6-0.9,12.1
		c-0.1,1.3-0.1,2.6-0.2,4c4.7-1.9,9.4-3.9,14-6.1C111.5,156,113.2,155.2,114.9,154.3z"/>
	<path class="st3" d="M9.9,87l0.2,4.2c8.2,4.3,16.7,8.5,25.1,12.6c0.1-5.7-0.1-11.2-0.3-16.9c-0.2-5.1-0.6-10.3-1.2-15.5
		c-1.8-0.9-3.6-1.8-5.4-2.8c-5.7-3.1-11.3-6.8-16.6-10.8c-0.4,1.2-0.6,2.6-0.7,3.9l0,0.3c-0.5,3.4-0.9,6.9-1.1,10.3
		C9.5,79.2,9.7,84.3,9.9,87z"/>
	<path class="st3" d="M119.8,21.4c-0.6-0.4-1.2-0.7-1.9-1.1c-5.2,2.7-10.5,5.6-15.7,8.5c-1.3,0.7-2.5,1.4-3.8,2.1
		c2.8,1.4,5.6,2.8,8.3,4c0.9,0.4,1.8,0.8,2.7,1.3c3.7,1.7,7.5,3.5,13,6.4c1.6,0.8,3.1,1.7,4.6,2.5c0.5-0.3,1-0.6,1.4-0.9
		c5.3-3.2,10.5-6.6,15.6-10.1c-2.1-1.1-4.1-2.1-6.3-3.2C132.5,28.3,127,25.5,119.8,21.4z"/>
	<path class="st3" d="M172.9,51.4l-0.1-0.1c-5.1-3.4-10.4-6.8-15.8-9.9c-3-1.8-5.9-3.4-8.9-5c-5.5,3.9-11.3,7.6-17.1,11.1
		c0.7,0.4,1.4,0.8,2.1,1.2l0.2,0.1c1,0.6,1.9,1.2,2.9,1.7c1.7,1,4.1,2.4,7.3,4c3.3,1.7,6.8,3.3,10.3,4.8c2,0.8,4,1.6,6,2.4
		c5.3-2.7,10.7-5.3,16.1-7.8C175.1,52.9,174,52,172.9,51.4z"/>
	<path class="st3" d="M13.7,54.3c5.2,4,10.8,7.7,16.5,10.8c1.3,0.7,2.7,1.4,4,2.1c8.5-6.1,17.2-12,26-17.8
		c-6.9-3.9-13.8-7.9-20.5-11.8c-7.3,4.7-14.9,9.3-22.6,13.7C16.2,51.9,14.9,52.9,13.7,54.3z"/>
	<path d="M183.9,98.6c0-4.9-0.2-7.6-0.3-10.8c-0.1-2.1-0.2-4.5-0.3-7.9c-0.2-5.9-0.3-12-0.2-18.1c0-2-0.4-5-2.2-8
		c-1.4-2.4-3.4-4.5-5.8-5.8c-5.2-3.5-10.6-6.9-16-10.1c-7.8-4.6-13.4-7.4-19.5-10.5c-5.2-2.7-10.7-5.4-17.7-9.5
		c-6.2-3.6-12.5-7.4-18.7-11.5L103,6.4c-1.7-1-4.5-2.1-8-2.1c-2.8,0-5.5,0.7-7.9,2.1c-8,3.2-15.9,7-23.5,11.4
		c-5.5,3.1-9.2,5.6-14.3,8.9c-2.3,1.5-5,3.3-8.3,5.4c-8.4,5.4-17.1,10.7-26,15.8c-1.7,1-4.1,2.8-5.9,5.9c-1.4,2.4-2.1,5.2-2.2,7.9
		c-0.5,3.5-0.9,7-1.1,10.5c-0.5,7-0.2,12.2-0.1,15c0.7,15.5,1,21.4,1.2,24.3c0.1,2.1,0.1,2.2,0.1,3.2c0,2-0.4,20.2,0,30.1
		c0.1,3,0.8,5.7,2.2,8c1.4,2.4,3.4,4.5,5.9,5.9l0.1,0.1c5.1,2.6,10.3,5.4,15.4,8.3c3.6,2,5.5,3.2,8,4.8c2.2,1.3,5,3,9.6,5.8
		c10.1,5.9,15.1,8.9,18.9,10.8l1.7,0.8c2.9,1.5,6,3,10.1,5.5c2.7,1.6,5.3,3.4,7.9,5.3l0.1,0.1c1.7,1,4.5,2.1,8,2.1
		c2.8,0,5.6-0.7,8-2.1c7-3.9,13.9-7.9,20.5-12c4.1-2.6,6.7-4.3,8.8-5.7c3.1-2.1,5.1-3.5,9.2-5.7c3.8-2.1,6.3-3.2,9-4.4
		c2.7-1.2,5.5-2.5,9.8-4.8c5.1-2.7,10-5.7,14.6-8.9c1.7-1,4.1-2.8,5.9-5.9c1.4-2.4,2.1-5.2,2.2-7.9c0.6-8.5,0.9-16.4,0.9-23.6
		l0-19.5C183.9,99.6,183.9,99.3,183.9,98.6z M51,29.2L51,29.2l0.5,0.8c4.7-3.1,8.2-5.4,13-8.2l1-0.6c1.1-0.6,2.3-1.3,3.7-2
		c7,4.4,14,8.4,20.7,12c-3.1,1.8-6.2,3.6-9.3,5.5C75.2,40,69.6,43.5,64.1,47c-5.4-3.1-10.9-6.2-16.3-9.4c-1.4-0.8-2.8-1.6-4.2-2.5
		c3.2-2,5.7-3.7,8-5.3L51,29.2z M88.7,10L89,9.9c1.8-1.1,3.9-1.6,6-1.6c2.7,0,4.7,0.9,5.9,1.6c4.3,2.8,8.6,5.5,12.9,8.1
		c-6.6,3.5-13.2,7.1-19.7,10.8c-6.7-3.5-13.7-7.5-20.7-11.8c0.2-0.1,0.4-0.2,0.5-0.3C78.9,14.3,83.8,12,88.7,10z M179.1,80.1
		c0.1,2.4,0.2,4.2,0.2,5.9l0.1,1.9c-4.7,2.9-9.5,5.7-14.4,8.3c-0.6,0.3-1.3,0.7-2,1c0-2.5-0.1-4.9-0.1-7.3
		c-0.2-8.2-0.5-16.5-0.9-24.7c4.1-2.1,8.3-4.1,12.5-6.1c1.2-0.5,2.3-1.1,3.5-1.6c0.4,1,0.6,2,0.8,3c0.1,0.5,0.1,0.9,0.1,1.3
		C178.9,68,178.9,74.1,179.1,80.1z M34.6,120.5L34.6,120.5c-0.2,3.4-0.3,7-0.4,10.4c-0.1,1.6-0.1,3.2-0.1,4.8
		c-7.8-4.3-15.5-8.8-22.9-13.4l-0.1-0.1c0-4.3,0.1-7.3,0.1-7.4c0-1.2,0-1.4-0.1-3.5l-1,0.1l0,0l1-0.1c-0.1-2.2-0.3-6.3-0.8-15.2
		l0-0.1c8.2,4.3,16.5,8.4,24.8,12.4c-0.1,4.3-0.3,7.9-0.4,10.8L34.6,120.5z M163.1,101.7c1.3-0.7,2.6-1.3,3.8-2
		c4.3-2.3,8.6-4.7,12.7-7.2c0.1,1.6,0.1,3.5,0.1,6.2c0,0.8,0,1,0,3.2l0,17.4l0,3.2c-5.7,2.1-11.4,4.3-16.9,6.7
		C163.2,119.9,163.2,110.7,163.1,101.7z M159.1,103.7c0.1,9,0,18.2-0.3,27.2c-4.6,2.1-9.2,4.4-13.6,6.8c-3.8,2.1-7.2,4-10.5,5.9
		l-0.1,0.1c-1.1,0.7-2.3,1.4-3.6,2.1c-0.1-7-0.4-13.5-0.7-19.3l0-0.4c-0.1-1.8-0.3-5-0.5-9.3c4.9-2.3,9.5-4.4,13.7-6.2l0.5-0.2
		C146.5,109.4,152,107.1,159.1,103.7z M65.1,151.3c-5-2.3-9.9-4.6-14.7-7c-4-2-8.1-4.1-12.3-6.4c0.1-5.9,0.3-11.7,0.6-17.2l0.1-1.4
		c0.1-2.5,0.3-5.6,0.4-9.1c2.7,1.3,5.4,2.6,7.9,3.7c6,2.8,12.2,5.6,18.5,8.3C65.5,131.8,65.4,141.6,65.1,151.3z M94,125.6
		c0,1.4-0.1,2.7-0.1,4.1c-8.1-3.2-16.3-6.6-24.4-10.1c0-4.5-0.1-8.8-0.1-13c-0.1-7-0.3-14.2-0.6-21.4c8.1,3.4,16.3,7.4,24.3,11.9
		C93.9,106.5,94.2,116.1,94,125.6z M93.6,67.8c6.2,3.2,11.8,5.9,18,8.7c4,1.8,8.1,3.6,12.3,5.3c-9.1,4.6-18.7,8.6-28.7,11.8
		c-8-4.5-16.1-8.5-24.3-11.9C78.6,76.7,86.2,72.1,93.6,67.8z M125.8,114.3c-8.5,4.2-17.9,9.2-27.8,15c0-1.2,0.1-2.4,0.1-3.6
		c0.2-9.5-0.1-19-0.9-28.4c10.2-3.3,20-7.4,29.3-12.2c-0.5,7.2-0.8,14.5-0.8,21.8C125.7,109.3,125.7,111.8,125.8,114.3z M104.6,61.9
		c0.9-0.5,1.8-0.9,2.7-1.4l1.8-0.9c4.1-2.1,10.3-5.2,18-9.7c1.5,0.9,2.8,1.7,4.1,2.4c3,1.8,5.8,3.4,9.7,5.5l0.8,0.4
		c4.3,2.2,8.8,4.2,13.4,6c-2.2,1.2-4.3,2.3-6.4,3.5c-4.6,2.6-8.1,4.6-11.1,6.5c-2.9,1.7-5.7,3.4-9,5.2c-5.2-2-10.3-4.2-15.4-6.5
		c-5.4-2.4-10.2-4.7-15.4-7.4C100.1,64.2,102.4,63,104.6,61.9z M130.7,82.8c2.6-1.4,4.8-2.7,6.7-3.9l2.3-1.4c3-1.8,6.4-3.8,11-6.4
		c2.4-1.3,4.9-2.7,7.5-4c0.4,7.7,0.6,15.3,0.8,22.7c0.1,3,0.1,6.1,0.1,9.3c-7.8,3.9-13.7,6.3-16.5,7.5l-0.5,0.2
		c-3.9,1.6-8,3.4-12.3,5.5c0-1.8-0.1-3.7-0.1-5.5C129.7,98.8,130,90.8,130.7,82.8z M107.8,40c3.6,1.7,7.4,3.4,12.8,6.3
		c0.8,0.4,1.7,0.9,2.4,1.3c-6.6,3.8-12.1,6.6-15.7,8.4l-1.8,0.9c-3.9,2-7.9,4.1-11.9,6.4c-0.6-0.3-1.3-0.7-1.9-1
		c-2.5-1.3-5.3-2.8-8.6-4.6c-1.3-0.7-2.7-1.5-4-2.2c-3.6-2-7.3-4-10.9-6.1C76.3,44,84.8,38.9,93.2,34l1.1-0.6
		c3.6,1.9,7.3,3.7,10.8,5.3c0.9,0.4,1.7,0.8,2.6,1.2L107.8,40z M39.1,91.7c-0.1-1.6-0.1-3.3-0.2-4.9c-0.2-4.4-0.5-8.9-1-13.4
		c4.6,2,9,3.6,13.6,5.2c3.8,1.4,8.2,2.9,13.2,4.9c0.3,7.7,0.5,15.5,0.6,23.1c0.1,3.6,0.1,7.4,0.1,11.2c-5.6-2.5-11.3-5-16.7-7.5
		c-3.1-1.5-6.4-3-9.5-4.5C39.3,101,39.2,96.4,39.1,91.7z M66.5,79.9c-5.2-2.1-9.7-3.7-13.6-5.1c-4.8-1.7-9.4-3.3-14.4-5.6
		c8.4-6,17.1-11.9,25.7-17.5c5.7,3.2,11.4,6.4,16.9,9.4c3.2,1.7,5.9,3.2,8.3,4.5C81.8,70,74.1,74.8,66.5,79.9z M96,158.8
		c0.2-4.5,0.6-8.4,0.9-12.1l0-0.2c0.2-3,0.5-6,0.7-9.4c0.1-1,0.1-2,0.2-3.1c10.1-5.9,19.5-11,28.2-15.4c0.1,3.4,0.3,6.1,0.4,7.6
		l0,0.4c0.4,6.3,0.7,13.5,0.8,21.3c-4.1,2.3-8,4.3-12.3,6.4c-1.7,0.8-3.4,1.6-5.1,2.4c-4.6,2.1-9.3,4.2-14,6.1
		C95.8,161.4,95.9,160.1,96,158.8z M92.8,146.4c-0.4,4.8-0.8,9.8-1.1,16.1c-7.6-2.9-15.2-6.1-22.7-9.4c0.3-9.7,0.4-19.4,0.4-29.1
		c8.1,3.5,16.2,6.8,24.2,10C93.5,138.6,93.2,142.5,92.8,146.4z M159.9,61.7c-2-0.7-4.1-1.5-6-2.4c-3.5-1.5-7-3.1-10.3-4.8
		c-3.2-1.6-5.6-3-7.3-4c-1-0.6-1.9-1.1-2.9-1.7l-0.2-0.1c-0.7-0.4-1.4-0.8-2.1-1.2c5.8-3.5,11.5-7.2,17.1-11.1c3,1.6,5.9,3.2,8.9,5
		c5.4,3.2,10.7,6.5,15.8,9.9l0.1,0.1c1.2,0.7,2.2,1.5,3.1,2.6C170.6,56.4,165.2,59,159.9,61.7z M128.5,44.3c-0.5,0.3-1,0.6-1.4,0.9
		c-1.5-0.8-3-1.7-4.6-2.5c-5.5-2.9-9.3-4.7-13-6.4c-0.9-0.4-1.8-0.8-2.7-1.3c-2.7-1.3-5.5-2.6-8.3-4c1.3-0.7,2.5-1.4,3.8-2.1
		c5.2-2.9,10.5-5.8,15.7-8.5c0.6,0.4,1.2,0.7,1.9,1.1c7.2,4.1,12.6,6.9,18,9.6c2.1,1.1,4.2,2.1,6.3,3.2
		C139,37.8,133.8,41.1,128.5,44.3z M39.7,37.7c6.7,4,13.6,7.9,20.5,11.8c-8.8,5.7-17.5,11.7-26,17.8c-1.3-0.7-2.7-1.4-4-2.1
		c-5.8-3.2-11.3-6.8-16.5-10.8c1.2-1.5,2.5-2.4,3.4-3C24.8,46.9,32.4,42.3,39.7,37.7z M11.1,61.8c0-1.3,0.2-2.6,0.7-3.9
		c5.2,4,10.8,7.6,16.6,10.8c1.8,1,3.6,1.9,5.4,2.8c0.5,5.2,0.9,10.4,1.2,15.5c0.3,5.7,0.4,11.2,0.3,16.9
		c-8.5-4.1-16.9-8.3-25.1-12.6L9.9,87c-0.1-2.7-0.3-7.8,0.1-14.6c0.2-3.5,0.6-6.9,1.1-10.3L11.1,61.8z M11,126.9
		c7.5,4.6,15.2,9.1,23,13.3c-0.2,7.8-0.2,15.9-0.2,24c-0.4-0.2-0.8-0.4-1.2-0.7c-5.1-2.9-10.3-5.8-15.4-8.4
		c-1.8-1.1-3.4-2.6-4.4-4.4c-1-1.7-1.5-3.8-1.6-6.1C10.9,139.7,10.9,132.6,11,126.9z M37.9,142.4c3.7,1.9,7.2,3.8,10.6,5.5
		c5.4,2.7,10.9,5.3,16.4,7.8c-0.3,8.8-0.7,17.7-1.1,26.4c-3.2-1.8-7.4-4.3-13.4-7.9l-0.1-0.1c-4.6-2.7-7.3-4.4-9.5-5.7l-0.1-0.1
		c-0.9-0.5-1.7-1-2.5-1.5l-0.4-0.2C37.7,158.4,37.8,150.2,37.9,142.4z M68.1,177.7c0.3-6.7,0.6-13.5,0.9-20.2
		c7.5,3.3,15.1,6.4,22.7,9.3c-0.2,10.3,0.2,20.8,1.1,31.3c-1.6-0.3-2.9-0.9-3.7-1.4c-2.6-1.9-5.3-3.7-8-5.4
		c-4.3-2.6-7.5-4.2-10.4-5.7l-1.7-0.8c-0.4-0.2-0.8-0.4-1.2-0.6C67.9,182,68,179.9,68.1,177.7z M96.8,198.1
		c-0.9-9.2-1.3-18.5-1.2-27.6c0-1.1,0-2.2,0-3.4c7.1-2.8,14.1-5.9,21-9.2c3.7-1.8,7-3.5,10.5-5.4c0,8.7-0.1,18.4-0.4,28.7
		c-1.8,1.2-3.5,2.3-5.4,3.5c-6.5,4.1-13.3,8.1-20.3,11.9C99.7,197.4,98.3,197.9,96.8,198.1z M131.2,150.3c2-1.1,3.9-2.3,5.7-3.3
		c3.2-1.9,6.6-3.8,10.4-5.9c3.7-2,7.6-4,11.5-5.8c-0.3,9.7-0.7,19.5-1.3,29.2c-3.7,1.9-6.2,3.1-8.6,4.1c-2.7,1.2-5.3,2.4-9.2,4.5
		c-3.9,2.1-6,3.5-8.7,5.3C131.2,168.3,131.3,158.9,131.2,150.3z M172.8,155.2L172.8,155.2c-3.7,2.5-7.4,4.8-11.2,7
		c0.6-9.6,1-19.2,1.3-28.8c5.5-2.5,11.1-4.8,16.9-6.9c-0.1,4.9-0.3,10.1-0.7,15.5c-0.1,0.8-0.1,1.7-0.2,2.6l0,0.1
		c0,2.1-0.6,4.2-1.6,6C176,153.1,174.1,154.5,172.8,155.2z"/>
</g>
<g>
	<path d="M211.9,90.2c-0.8,0.8-1.7,1.1-2.7,1.1c-1,0-1.6-0.6-2-1.9c-0.2-6.9-0.2-13.7-0.2-20.5l-0.2-19.7c0-4,1.7-6.7,5.2-8.1
		c2.8-1.3,6.1-2,10-2c2,0,4.1,0.5,6.4,1.4c2.3,1,4.3,2.4,6.1,4.2c1.8,1.8,2.7,3.8,2.7,6c0,2.2-1,4.5-3,6.9c-2,2.5-4.4,4.7-7.3,6.6
		c-2.9,1.9-5.7,3.3-8.5,4.3c4.8,3.4,9,7,12.6,10.9c3.6,3.9,5.4,6.9,5.4,9c0,0.7-0.3,1.3-1,1.9s-1.5,0.9-2.5,0.9s-1.8-0.4-2.5-1.2
		c-1.1-2.8-3.3-5.7-6.5-8.7s-6.9-5.9-11.2-8.7l0.5,15C213.1,88.6,212.7,89.4,211.9,90.2z M224.6,59.9c4.3-2.8,6.5-5.2,6.5-7.4
		c0-2.2-1.1-3.9-3.3-5.1c-2.2-1.2-4.8-1.8-7.8-1.8s-5.4,0.4-7.1,1.1c-0.1,2.7-0.1,8.5-0.1,17.6C216.3,64.1,220.2,62.6,224.6,59.9z"
		/>
	<path d="M264.6,58.1c-0.1-0.2-0.1-0.5-0.1-1c0-0.5,0.3-1,1-1.5c0.6-0.5,1.3-0.8,2-0.8c0.7,0,1.3,0.2,1.8,0.6
		c0.5,0.4,0.8,0.9,0.9,1.4c0.5,5.3,0.8,9.4,0.8,12.4c0,3-0.1,5.4-0.2,7c-0.4,5-1.6,8.7-3.8,11.1c-2.2,2.4-5.5,3.5-9.9,3.5
		c-3.3,0-6-0.9-8.2-2.8c-2.2-1.9-3.7-4.4-4.6-7.4c-1.4-4.6-2-9.8-2-15.4c0-2.4,0.1-4.9,0.4-7.4c0.1-0.7,0.5-1.3,1.2-1.8
		c0.8-0.5,1.5-0.7,2.1-0.7c0.6,0,1.2,0.2,1.6,0.6c0.4,0.4,0.6,1,0.5,1.6c-0.3,2.7-0.4,5.1-0.4,7.3c0,2.2,0.1,4.1,0.2,5.8
		c0.3,4.2,1.3,7.7,2.9,10.6c1.6,2.9,3.7,4.4,6.3,4.4c5.7,0,8.5-4.8,8.5-14.5C265.6,65.5,265.2,61.1,264.6,58.1z"/>
	<path d="M279.2,57.7c1.1-1.9,3.5-2.9,7-2.9c3.5,0,6.4,0.8,8.7,2.5c2.3,1.7,3.4,3.9,3.4,6.7c0,2.8-0.8,5-2.4,6.6
		c1.8,0.4,3.3,1.5,4.5,3.4c1.2,1.8,1.8,3.8,1.8,5.8c0,3.3-1.2,6.1-3.5,8.4c-1.7,1.8-8.6,2.7-20.9,2.7c0-0.3,0-1.4-0.1-3.4
		c-0.2-5.9-0.2-12.6-0.2-20C277.5,63,278.1,59.7,279.2,57.7z M290.9,74.4c-2.4,0-5.1,0.2-8,0.6c-0.1,1.1-0.1,2.6-0.1,4.4
		c0,1.8,0.1,4.1,0.4,6.7c0.4,0,1.2,0,2.3,0s2.7-0.2,4.8-0.5c4.7-0.8,7.1-2.7,7.1-5.9C297.4,76.3,295.2,74.4,290.9,74.4z M283,63.7
		v6.6c2.9,0,5.3-0.5,7.4-1.4c2.1-1,3.2-2.6,3.2-4.8c0-1.2-0.6-2.3-1.9-3.1c-1.2-0.8-2.7-1.2-4.4-1.2s-2.9,0.3-3.4,0.9
		C283.2,61.3,283,62.3,283,63.7z"/>
	<path d="M310.3,91c-1.5,0-2.2-0.6-2.2-1.9l0.3-31.7c0-0.7,0.3-1.3,0.8-1.8c0.5-0.4,1.2-0.7,1.9-0.7c0.8,0,1.4,0.2,2,0.5
		c0.5,0.4,0.8,1,0.9,1.8c0.1,0.9,0.1,2.8,0.1,5.7c0,13.9-0.1,22.3-0.3,25.3c-0.1,0.7-0.5,1.3-1.2,1.8C311.8,90.7,311.1,91,310.3,91z
		"/>
	<path d="M322.3,84.4c0-2.8-0.2-7.2-0.5-13.1c-0.3-5.9-0.6-9.6-0.8-11c-0.2-1.5-0.3-2.5-0.3-3c0-0.6,0.3-1.1,0.9-1.6
		c0.6-0.5,1.4-0.7,2.3-0.7c0.9,0,1.6,0.5,2,1.4c1.1,2.4,1.6,7.4,1.6,15c3.2-2.7,5.8-5,7.8-7.1c2-2.1,4-4.7,6-7.7
		c0.7-1.1,1.5-1.6,2.6-1.6c2,0,3,0.7,3,1.9c0,2.5-3.4,7.2-10.1,14c2.9,2.6,5.5,5.9,8.1,9.8c2.5,3.9,3.8,6.4,3.8,7.3
		c0,1-0.3,1.7-0.8,2.2c-0.5,0.5-1.2,0.7-1.9,0.7c-0.7,0-1.6-0.6-2.5-1.9c-1-1.3-2.1-3-3.4-5.1c-1.3-2.2-2.5-3.9-3.5-5.1
		c-1-1.3-2.4-2.7-4.2-4.2c-1.5,1.4-3,2.6-4.6,3.7c0.2,6.1,0.2,9.5,0.2,10.2c0,1.7-1.1,2.6-3.4,2.6c-1.6,0-2.3-0.8-2.3-2.4V84.4z"/>
	<path d="M224.6,108.3c3.4,0,6.3,0.6,8.6,1.7c2.4,1.1,3.5,2.6,3.5,4.4c0,0.8-0.2,1.5-0.6,2c-0.4,0.6-1,0.9-1.7,0.9
		c-0.8,0-2.4-0.6-4.9-1.8s-4.8-1.8-6.8-1.8c-2.1,0-4.2,0.7-6.4,1.9c-2.2,1.3-3.3,2.9-3.3,4.8c0,2.5,1.3,4.4,4,5.6
		c2,0.9,4.8,1.7,8.5,2.4c3.7,0.7,6.7,2.1,9,4.3c2.3,2.2,3.5,5.4,3.5,9.8c0,6.7-2,11.6-6,14.7c-2.2,1.8-5.4,2.7-9.5,2.7
		c-4.1,0-8.2-1.1-12.2-3.4c-2.7-1.4-4-2.8-4-4.2c0-0.5,0.2-1.1,0.7-1.7c0.4-0.6,1.1-1.1,1.8-1.6c0.8-0.4,1.5-0.5,2.1-0.2
		c0.6,0.3,1.7,0.8,3.2,1.5c1.5,0.7,2.5,1.2,3.2,1.5c2.2,0.8,4.2,1.2,6.2,1.2s3.8-0.9,5.6-2.8c1.8-1.9,2.7-4.2,2.7-7
		c0-3.6-1.8-6.2-5.5-7.6c-1.8-0.7-3.8-1.3-6-1.6c-4.6-0.8-8.1-2.2-10.5-4.2c-2.3-2-3.5-4.9-3.5-8.9c0-4,1.7-7.1,5.1-9.3
		C215,109.5,219.3,108.3,224.6,108.3z"/>
	<path d="M267.5,130.6l-6.3-0.8c-8.4,0-12.6,4.2-12.6,12.6c0,4.3,1.3,7.6,3.8,10.1c1.2,1.3,2.5,2,3.9,2c1.4,0,3.7-0.6,7.1-1.8
		c3.4-1.2,5.2-1.8,5.5-1.8c1.4,0,2.1,0.7,2.1,2c0,1.1-0.6,2-1.8,2.8c-6.5,2.8-11.2,4.1-14.1,4.1c-1.8,0-3.5-0.6-5.2-1.7
		c-1.7-1.1-3.1-2.6-4.1-4.4c-2-3.6-3-7.4-3-11.5c0-5.5,1.7-9.9,5-13.1c3.3-3.2,7.6-4.8,12.8-4.8c3,0,6,0.5,9,1.5v0.1
		c0.9,0.6,1.4,1.2,1.4,2c0,0.7-0.4,1.4-1.1,2C269,130.3,268.2,130.6,267.5,130.6z"/>
	<path d="M283.3,157.9c-0.2,1.3-1.1,2-2.8,2c-1.6,0-2.5-0.7-2.5-2c0-3.1,1.5-9.3,4.5-18.7c1.4-4.3,2.9-7.9,4.5-10.8
		c1.7-2.9,3.3-4.3,4.8-4.3c0.8,0,1.6,0.5,2.2,1.5c0.6,1,1.8,3.2,3.4,6.7c1.6,3.5,3,7.2,4.1,11.2c1.1,3.9,2.3,8.7,3.6,14.4
		c0,0.7-0.2,1.2-0.7,1.6s-1,0.6-1.7,0.6c-1.7,0-2.7-0.7-3.1-2.2l-2.7-10.7c-4.6,0-8.2-0.4-11-1.1
		C284.4,151.7,283.6,155.7,283.3,157.9z M291.8,131.2c-1.7,2.9-3.1,6.2-4.2,9.8c2.3,0.6,5,0.9,8.1,0.9
		C294.7,138.3,293.4,134.7,291.8,131.2z"/>
	<path d="M318.1,135.6l-0.9,19c-0.1,1.7-0.1,2.8-0.2,3.4c-0.2,1.4-1.1,2.1-2.7,2.1c-0.6,0-1.2-0.2-1.7-0.7c-0.5-0.4-0.8-1-0.8-1.7
		c0.4-13.5,0.6-20.8,0.6-21.9c0-1.1,0-2.2,0-3.5c0-1.3,0.1-2.5,0.4-3.5c0.4-1.4,1.3-2.1,2.8-2.1c0.7,0,1.6,0.5,2.7,1.5
		c1.1,1,2.7,2.8,4.8,5.5c4.9,6.1,8.7,11.8,11.2,17.2c-0.1-7.4-0.3-13-0.5-16.9c-0.3-3.9-0.4-6-0.4-6.4c0-0.4,0-0.6,0-0.6
		c0.4-2,1.4-3,3.2-3c0.7,0,1.3,0.3,1.9,0.9c0.6,0.6,0.9,1.3,0.9,2.2l0.4,29c0,2.7-1.1,4.1-3.3,4.1c-1.3,0-2.3-0.5-3-1.4
		c-0.7-0.9-1.2-1.6-1.6-2.1c-0.3-0.5-0.8-1.4-1.4-2.5C326.5,146.7,322.3,140.5,318.1,135.6z"/>
	<path d="M352.4,135.6l-0.9,19c-0.1,1.7-0.1,2.8-0.2,3.4c-0.2,1.4-1.1,2.1-2.7,2.1c-0.6,0-1.2-0.2-1.7-0.7c-0.5-0.4-0.8-1-0.8-1.7
		c0.4-13.5,0.6-20.8,0.6-21.9c0-1.1,0-2.2,0-3.5c0-1.3,0.1-2.5,0.4-3.5c0.4-1.4,1.3-2.1,2.8-2.1c0.7,0,1.6,0.5,2.7,1.5
		c1.1,1,2.7,2.8,4.8,5.5c4.9,6.1,8.7,11.8,11.2,17.2c-0.1-7.4-0.3-13-0.5-16.9c-0.3-3.9-0.4-6-0.4-6.4c0-0.4,0-0.6,0-0.6
		c0.4-2,1.4-3,3.2-3c0.7,0,1.3,0.3,1.9,0.9c0.6,0.6,0.9,1.3,0.9,2.2l0.4,29c0,2.7-1.1,4.1-3.3,4.1c-1.3,0-2.3-0.5-3-1.4
		c-0.7-0.9-1.2-1.6-1.6-2.1c-0.3-0.5-0.8-1.4-1.4-2.5C360.8,146.7,356.6,140.5,352.4,135.6z"/>
	<path d="M387.2,142.4l0.2,10.2c0,1.4,0,2.1-0.1,2.2l13.5-0.2c1.5,0.2,2.3,0.8,2.3,1.9c0,2.2-1,3.3-3,3.3l-15.3,0.2
		c-0.9,0-1.6-0.3-2.1-1c-0.4-0.6-0.7-1.3-0.7-2.1c-0.1-0.7-0.1-1.5-0.1-2.4v-12.9c-0.7-0.4-1-0.9-1-1.6c0-0.7,0.3-1.4,0.9-2
		c-0.2-4.1-0.2-7.7-0.2-11.1c0-1.9,1.2-2.9,3.5-3c0.6,0,1.4,0,2.2,0l13.6,0.2h0.1c1.7,0.2,2.5,1,2.5,2.3c0,1-0.3,1.7-0.9,2.1
		c-1.4,0.7-4.6,1.1-9.8,1.1c-1.9,0-3.8-0.1-5.8-0.2c0,4.7,0,7.3,0.1,7.9c2,0.1,6,0.1,11.9,0.1c1.6,0.2,2.4,0.9,2.4,2.2
		c0,0.6-0.3,1.2-0.8,1.8c-0.5,0.6-1.1,0.9-1.7,1c-0.6,0.1-1.9,0.1-3.8,0.1C393,142.5,390.4,142.5,387.2,142.4z"/>
	<path d="M416.3,157.1c0,0.8-0.4,1.5-1.1,2c-0.7,0.6-1.5,0.9-2.4,0.9c-1.1,0-1.7-0.5-1.7-1.6c-0.2-2.4-0.3-12.1-0.3-29.1
		c0-1.7,1-3,3-3.9s4.7-1.4,8-1.4c3.4,0,6.3,0.8,8.8,2.5c2.5,1.7,3.8,3.7,3.8,6c0,1.1-0.5,2.4-1.5,3.8c-1,1.4-2,2.5-3.2,3.3
		c-1.1,0.8-2.7,1.8-4.8,2.9c-2.1,1.1-3.4,1.8-3.8,1.9c3.3,2.1,6.2,4.3,8.7,6.8c2.5,2.4,3.8,4.4,3.8,5.8c0,1.4-0.6,2.3-1.9,2.7
		c-0.4,0.1-0.8,0.2-1.4,0.2c-0.6,0-1.3-0.6-2.2-1.7c-0.9-1.1-2.5-2.7-5-4.8c-2.4-2.1-4.9-4-7.3-5.7
		C416.1,151.9,416.2,155,416.3,157.1L416.3,157.1z M416,140.8c1.7,0,4.3-0.8,7.7-2.5c3.4-1.7,5.2-3.3,5.4-4.7c0-1.4-0.8-2.5-2.3-3.2
		c-1.6-0.7-3.2-1.1-4.9-1.1c-2,0-3.9,0.2-5.8,0.7C416,132.5,416,136.1,416,140.8z"/>
</g>
</svg>
