<?xml version="1.0" encoding="utf-8"?>
<!-- Generator: Adobe Illustrator 21.1.0, SVG Export Plug-In . SVG Version: 6.00 Build 0)  -->
<svg version="1.1" id="Layer_1" xmlns="http://www.w3.org/2000/svg" xmlns:xlink="http://www.w3.org/1999/xlink" x="0px" y="0px"
	 viewBox="0 0 460 150.5" style="enable-background:new 0 0 460 150.5;" xml:space="preserve">
<style type="text/css">
	.st0{fill:#FFFFFF;stroke:#000000;stroke-width:5;stroke-miterlimit:10;}
	.st1{fill:none;}
	.st2{enable-background:new    ;}
</style>
<path class="st0" d="M125.7,135c-6.6-0.2-13.3-0.4-20-0.5c-25-0.5-49.4-0.3-73,0.5c-0.7,0-4.7-0.1-7.9-3.3c-2-2-3.3-4.8-3.3-7.9
	c-0.2-3.8-0.4-9.8,0.1-17.3c0.5-7.1,1.1-8.7,1.8-17.8c0.4-5.4,0.9-11.4,0.8-19c-0.1-5.8-0.5-10.1-1.2-18.6
	c-0.6-6.2-1.1-11.3-1.6-14.9c0-1.8,0-3.6,0-5.4c0-6.2,5-11.2,11.2-11.2c5.1,0.4,12.9,1,22.3,1.2c11.7,0.3,19.8-0.1,29.4-0.4
	c9.7-0.3,23.7-0.7,41.3-0.8c0.7,0,4.7,0.1,7.9,3.3c2,2,3.3,4.8,3.3,7.9c-0.4,4.8-0.9,12.3-1.1,21.6c-0.1,9.1,0.2,11,0.2,24.1
	c0,12.9-0.3,14.5-0.2,23.7c0.1,9.6,0.6,17.7,1.1,23.6c0,0.7-0.1,4.7-3.3,7.9C131.6,133.7,128.8,135,125.7,135z"/>
<rect x="168.4" y="42" class="st1" width="225" height="79"/>
<g class="st2">
	<path d="M170.8,87.1l-0.8-3.4c5.1-0.4,18-1.1,38.8-2c1.3,0.1,2.3,0.5,3.2,1.4s1.3,1.8,1.3,2.8c0,0.7-0.3,1.2-0.8,1.7
		s-1.3,0.8-2.3,0.9c-3.1-0.2-9.2-0.3-18.3-0.5C182.8,87.8,175.7,87.5,170.8,87.1z M171.9,66.4l-0.8-3.4c4.8-0.4,11.5-0.6,20.3-0.9
		c8.7-0.2,14.5-0.4,17.3-0.6c1.3,0.1,2.3,0.5,3.2,1.4s1.3,1.8,1.3,2.8c0,0.7-0.3,1.2-0.8,1.7s-1.3,0.8-2.3,0.9
		C188.1,67.3,175.4,66.6,171.9,66.4z"/>
	<path d="M260.5,65.1l0.8,3.4c-1.4,0.1-3.5,0.4-6.3,0.8s-5,0.7-6.4,0.8c0.3,1.8,0.4,4.1,0.5,7c0,2.9,0.1,5.4,0.2,7.5
		c0.1,2.1,0.3,4.2,0.7,6.3c0.4,2.1,1.2,3.7,2.4,4.8c1.2,1.1,2.8,1.7,4.8,1.7c1.5,0,3.4-0.4,5.7-1.1c1,1.9,1.7,3.3,2.1,4.1
		c-4,1.4-8.1,2.1-12.2,2.1c-1.5,0-2.8-0.5-4-1.4c-1.1-0.9-2-2.1-2.6-3.4s-1.1-3.1-1.5-5.2s-0.6-4.1-0.7-6c-0.1-1.9-0.2-4-0.2-6.5
		c0-1.3,0-3.1,0-5.5c0-2.3,0-3.9,0-4.8c-0.5,0.1-1.7,0.1-3.6,0.1c-1.9,0-3,0-3.3,0c-0.4-3.4-0.5-5.2-0.5-5.3
		c0.4,0.1,0.9,0.2,1.8,0.2c0.5,0,1.2,0,2.2-0.1s1.8-0.1,2.3-0.1c0.2,0,0.5,0,0.8,0s0.5,0,0.6,0c0.2-5.6,0.4-10.1,0.7-13.6l3.6,1.1
		c0,1.2,0.1,2.5,0.1,3.9s0,2.9,0.1,4.6c0,1.7,0,3,0,3.9c1.3,0.1,3.3,0.2,5.9,0.3C257.1,64.9,259.1,65,260.5,65.1z"/>
	<path d="M264.8,85.8c0-2,0.2-4.3,0.6-6.8s1.1-5.1,1.9-7.8c0.9-2.7,2.2-5,3.9-6.9c1.7-1.8,3.7-2.7,6-2.7c4.9,0,8.8,2.2,11.7,6.6
		c2.9,4.4,4.4,9.3,4.4,14.7c0,2.3-0.2,4.6-0.7,6.8c-0.5,2.3-1.2,4.5-2.2,6.7s-2.5,4-4.4,5.4s-4.1,2.3-6.7,2.5
		c-4.7-0.6-8.3-2.6-10.8-6C266.1,94.8,264.8,90.7,264.8,85.8z M277.8,65.5c-1.8,0.2-3.3,1.8-4.5,4.9s-2,6-2.4,8.9s-0.5,5.4-0.5,7.6
		c0,2.8,0.9,5.5,2.6,7.9c1.8,2.4,3.7,3.6,5.9,3.6c1.6,0,3-0.6,4.3-1.8c1.3-1.2,2.3-2.7,3-4.5s1.3-3.6,1.7-5.4s0.6-3.5,0.6-4.9
		c0-4.2-0.9-7.8-2.8-10.9C283.6,67.7,281.1,65.9,277.8,65.5z"/>
	<path d="M300.6,61.9l4.3,0.8c0,1.1,0,1.9,0.1,2.4c2.8-1.8,5.6-2.7,8.5-2.7c4.6,0,8.2,2,10.8,5.9s3.9,8.5,3.9,13.5
		c0,2.5-0.2,5-0.6,7.3s-1.1,4.7-2,7.1c-1,2.4-2.5,4.3-4.5,5.8c-2,1.4-4.4,2.2-7.3,2.2c-2.7,0-5.3-0.7-7.8-2.1
		c0.2,8.9,0.4,15.5,0.5,19.8c-0.5,1.6-1.3,2.4-2.7,2.4c-0.9,0-1.8-0.4-2.6-1.1c-0.8-0.7-1.4-1.6-1.6-2.7L300.6,61.9z M305.5,70.1
		l0.2,24.5c0.6,1.2,1.5,2.2,2.8,2.9c1.3,0.7,2.7,1.1,4.2,1.1c2,0,3.7-0.6,5.1-1.9s2.4-3,3-5.1s1-4.1,1.2-5.9s0.3-3.7,0.3-5.8
		c0-8.6-2.9-12.9-8.8-12.9c-1.9,0-3.6,0.3-5.2,0.8S305.8,69.1,305.5,70.1z"/>
</g>
<rect x="168.4" y="42" class="st1" width="225" height="79"/>
</svg>
